<?xml version="1.0" encoding="iso-8859-1"?>
<!-- Generator: Adobe Illustrator 19.2.0, SVG Export Plug-In . SVG Version: 6.00 Build 0)  -->
<svg version="1.1" id="&#x421;&#x43B;&#x43E;&#x439;_1"
	 xmlns="http://www.w3.org/2000/svg" xmlns:xlink="http://www.w3.org/1999/xlink" x="0px" y="0px" viewBox="0 0 62.329 108"
	 style="enable-background:new 0 0 62.329 108;" xml:space="preserve">
<g>
	<path style="fill:#B8C49C;" d="M40.687,41.041c-0.082-1.357,0.327-3.207-0.96-3.36c-0.195,1.724-1.556,2.284-1.68,4.08
		C39.012,41.605,40.029,41.502,40.687,41.041z"/>
	<path style="fill:#B8C49C;" d="M34.927,48.24c1.324-0.918,3.668-2.891,6.24-3.359c0.33-0.727-0.114-0.858,0-1.92
		C37.47,43.104,35.361,44.834,34.927,48.24z"/>
	<path style="fill:#B8C49C;" d="M49.087,39.36c-1.733-1.706-4.733-2.146-7.2-3.12c0.103,1.498,0.335,2.865,0.72,4.08
		C44.251,40.35,47.032,39.693,49.087,39.36z"/>
	<path style="fill:#B8C49C;" d="M19.807,21.121c1.627-3.894,3.989-7.051,5.521-11.041c-0.892-0.868-1.868-1.652-3.12-2.16
		C21.149,11.737,15.092,17.505,19.807,21.121z"/>
	<path style="fill:#B8C49C;" d="M16.207,17.521c0.968-4.071,3.313-6.767,4.56-10.56c-1.088-0.592-1.929-1.432-3.359-1.68
		C16.25,8.594,12.236,14.862,16.207,17.521z"/>
	<path style="fill:#B8C49C;" d="M24.368,24c0.649-4.22,6.934-8.904,2.399-12.479C25.499,14.902,18.004,21.859,24.368,24z"/>
	<path style="fill:#B8C49C;" d="M60.368,57.601c1.152-8.124-8.525-5.839-14.88-6.479C45.819,58.321,54.785,56.102,60.368,57.601z"/>
	<path style="fill:#B8C49C;" d="M50.528,62.881c0.259,4.381,5.568,3.711,9.359,4.559c0.534-0.585,0.526-1.714,0.481-2.88
		C57.716,63.371,54.548,62.699,50.528,62.881z"/>
	<path style="fill:#B8C49C;" d="M48.127,57.601c0.181,1.419,0.677,2.522,1.441,3.36c4.226-0.218,8.106,1.159,11.039,1.439
		c0-0.96,0-1.92,0-2.88C57.188,57.135,51.991,59.322,48.127,57.601z"/>
	<path style="fill:#B8C49C;" d="M43.568,46.32c0.423,6.137,11.286,1.834,15.6,4.08c-0.772-2.148-1.175-6.018-3.84-5.519
		C52.08,45.487,46.665,46.078,43.568,46.32z"/>
	<path style="fill:#B8C49C;" d="M43.087,44.4c5.485,0.17,7.764-0.484,12.24-0.72c-1.549-5.332-8.268-2.285-12.48-1.2
		C42.677,43.371,43.257,43.511,43.087,44.4z"/>
	<path style="fill:#B8C49C;" d="M21.727,25.44c-2.43-3.95-8.786-0.171-10.08,3.36C15.773,33.531,17.236,25.891,21.727,25.44z"/>
	<path style="fill:#B8C49C;" d="M5.887,23.041c1.353,1.525,2.528,3.232,4.32,4.319c1.377-2.623,4.159-3.841,6.96-5.04
		C15.658,18.013,7.562,20.884,5.887,23.041z"/>
	<path style="fill:#B8C49C;" d="M17.408,31.44c4.943-0.177,9.348-0.892,12-3.36C24.922,25.545,18.045,27.07,17.408,31.44z"/>
	<path style="fill:#B8C49C;" d="M12.847,102.961c-0.151-1.77,0.063-3.902-0.72-5.041C10.128,99.146,11.678,101.633,12.847,102.961z"
		/>
	<path style="fill:#B8C49C;" d="M30.368,25.92c-0.827-2.292-0.166-6.073-1.681-7.68C27.117,20.748,24.122,26.467,30.368,25.92z"/>
	<path style="fill:#B8C49C;" d="M10.687,12.721c-0.25-3.258-3.147-2.84-6.479-2.641c0.167,1.367-0.407,1.994-0.24,3.36
		C6.267,12.777,7.841,12.484,10.687,12.721z"/>
	<path style="fill:#B8C49C;" d="M4.448,8.16c1.332,0.09,2.295,0.346,3.12-0.479c-0.946-1.294-1.855-2.626-3.36-3.36
		C4.02,5.867,4.564,6.684,4.448,8.16z"/>
	<path style="fill:#B8C49C;" d="M9.488,6.721c0.447-1.073,0.834-2.206,0.72-3.84c-1.32-0.36-2.763-0.598-4.32-0.721
		C6.843,3.924,7.91,5.578,9.488,6.721z"/>
	<path style="fill:#B8C49C;" d="M13.087,11.761c1.017-2.263,2.039-4.521,2.64-7.2c-1.407-0.193-2.191-1.008-3.6-1.2
		C11.133,5.736,10.369,10.672,13.087,11.761z"/>
	<path style="fill:#B8C49C;" d="M3.967,15.36c-0.059,2.299-0.063,4.544,0.96,5.761c2.486-1.435,4.952-2.889,8.88-2.881
		C13.895,13.921,7.291,14.076,3.967,15.36z"/>
	<path style="fill:#B8C49C;" d="M14.767,102.721c1.322-0.918,2.213-2.268,2.641-4.08c-1.318-0.201-1.802-1.238-3.12-1.439
		C14.311,99.177,14.528,100.961,14.767,102.721z"/>
	<path style="fill:#B8C49C;" d="M48.127,62.881c-2.793,2.167-4.207,5.713-6.24,8.64c0.62,1.141,1.602,1.918,2.88,2.399
		C45.544,69.771,52.79,66.735,48.127,62.881z"/>
	<path style="fill:#B8C49C;" d="M52.927,68.16c-0.069,1.03,0.334,1.586,0.721,2.16c2.047-0.168,4.143,0.766,5.76,0.24
		c-0.077-0.557,0.038-0.922,0.24-1.2C58.112,68.256,55.368,68.359,52.927,68.16z"/>
	<path style="fill:#B8C49C;" d="M50.767,68.16c-2.258,1.422-3.446,3.914-4.319,6.721c1.154,0.525,2.218,1.142,3.6,1.439
		C51.608,74.017,52.613,70.878,50.767,68.16z"/>
	<path style="fill:#B8C49C;" d="M45.007,56.641c-3.961,2.039-5.59,6.41-8.4,9.6c0.943,1.697,2.129,3.152,3.841,4.08
		c0.316-2.424,6.703-7.032,6.96-9.359C47.548,59.681,46.091,57.729,45.007,56.641z"/>
	<path style="fill:#B8C49C;" d="M54.607,72.48c1.167,1.233,1.856,2.945,3.12,4.08c0.322-1.358,0.862-2.498,0.96-4.08
		C57.629,72.341,55.379,71.37,54.607,72.48z"/>
	<path style="fill:#B8C49C;" d="M52.927,73.92c-0.407,1.033-0.88,2.001-1.2,3.121c1.307,0.453,2.534,0.985,3.841,1.439
		C55.874,76.695,54.511,74.605,52.927,73.92z"/>
	<path style="fill:#B8C49C;" d="M45.007,54.721c-0.944-0.896-0.587-3.094-2.16-3.36c-1.922,4.778-11.128,6.828-7.68,13.2
		C39.086,61.92,40.563,56.836,45.007,54.721z"/>
	<path style="fill:#B8C49C;" d="M42.607,49.201c-0.616-2.649-2.651-2.762-5.039-1.201c-2.793,1.826-5.881,5.9-3.841,10.561
		C36.91,55.662,39.904,52.577,42.607,49.201z"/>
	<path style="fill:#B8C49C;" d="M12.847,88.801c-0.62,5.42,2.116,7.483,5.76,8.64c0.67-0.69,1.696-1.024,1.681-2.399
		C17.019,93.749,15.448,90.76,12.847,88.801z"/>
	<path style="fill:#B8C49C;" d="M16.207,59.521c-3.358-0.642-6.072-1.927-8.64-3.36c-1.396,1.645-2.991,3.09-3.841,5.28
		C6.879,63.405,15.401,63.961,16.207,59.521z"/>
	<path style="fill:#B8C49C;" d="M17.647,57.36c0.478-1.522,1.764-2.237,1.921-4.079c-3.806-0.23-8.09-0.499-10.08,1.68
		C11.605,56.273,14.369,57.983,17.647,57.36z"/>
	<path style="fill:#B8C49C;" d="M26.767,64.561c-1.029-4.33-3.702-7.018-5.52-10.561C16.32,59.391,21.73,62.311,26.767,64.561z"/>
	<path style="fill:#B8C49C;" d="M13.807,64.08c-3.416,1.271-7.843,0.471-10.8-0.72c-0.809,1.831-1.213,4.067-1.2,6.72
		C7.526,69.799,12.426,68.699,13.807,64.08z"/>
	<path style="fill:#B8C49C;" d="M10.448,73.92c-0.386-1.564,1.43-3.287,0.239-4.08C9.202,71.875,5.285,71.479,2.288,72
		c-0.758,0.664-0.602,3.316-0.24,4.32C5.621,76.561,7.854,75.221,10.448,73.92z"/>
	<path style="fill:#B8C49C;" d="M19.087,78.24c-3.307-3.039-4.254-6.9-6-8.16c-3.623,6.314,3.212,13.362,6.96,15.84
		c1.113,0.736,4.271,2.045,4.8,1.92c0.626-0.146,2.192-2.322,1.92-3.6C26.386,82.447,21.105,80.095,19.087,78.24z"/>
	<path style="fill:#B8C49C;" d="M29.167,74.881c0.259-2.254-0.568-4.865-1.2-6.961c-3.302-2.538-7.265-4.414-10.32-7.199
		C14.211,68.275,24.916,71.111,29.167,74.881z"/>
	<path style="fill:#B8C49C;" d="M11.887,80.16c0.146,0.955-0.242,3.207,0.24,4.561c1.047,2.938,7.479,9.385,9.6,8.88
		c1.243-0.296,2.087-2.753,2.4-4.319C18.63,87.657,15.138,84.029,11.887,80.16z"/>
	<path style="fill:#B8C49C;" d="M9.967,76.32c-2.52,0.68-4.483,1.917-7.68,1.92c0.113,3.087,1.108,5.292,1.92,7.68
		c2.644-0.555,3.631-2.769,6-3.6C10.068,80.381,10.499,77.868,9.967,76.32z"/>
	<path style="fill:#B8C49C;" d="M15.007,65.521c-1.189,2.431,0.994,6.321,2.4,8.399c2.473,3.658,7.637,6.335,10.319,8.4
		c0.516-1.725,1.099-3.381,1.441-5.279C24.333,73.314,18.38,70.707,15.007,65.521z"/>
	<path style="fill:#B8C49C;" d="M8.047,94.32c0.719,1.041,1.179,2.342,1.92,3.36C13.954,96.679,11.003,89.354,8.047,94.32z"/>
	<path style="fill:#B8C49C;" d="M9.727,84.721c-1.523,0.955-2.979,1.98-4.559,2.88c0.326,1.913,1.283,3.196,1.92,4.8
		C10.846,92.291,12.358,87.371,9.727,84.721z"/>
	<path style="fill:#3B3A26;" d="M13.328,108c1.533,0.012,4.764-6.742,5.04-7.199c1.775-2.938,3.733-4.717,5.28-6.961
		c3.264-4.734,6.652-10.92,7.199-17.279c0.482-5.592-1.269-11.064-2.88-14.88c-1.366-3.237-4.1-5.319-4.319-8.16
		c-0.518-6.688,6.569-11.59,10.319-15.601c2.012-2.15,2.995-4.541,5.521-6c-1.26,9.254-10.908,17.607-7.2,30.48
		c0.494,1.715,1.922,2.52,1.92,5.04c3.558,2.739,6.124,6.647,10.56,9.12c1.601,0.893,11.208,5.205,12.721,4.561
		c1.788-0.764,3.291-7.914,3.6-9.121c2.927-11.45,0.741-27.375-7.2-32.879C48.91,35.67,40.97,36.922,42.127,28.32
		c0.916-6.808,7.783-16.635,2.64-24c-4.26-0.172-2.038,6.227-2.16,9.84c-0.258,7.643-2.749,12.568-10.319,11.28
		c-1.64-6.803-0.944-13.284-5.04-16.8C21.456,3.67,10.383,0.022,2.047,0c1.949,7.795-1.935,16.647,1.441,22.801
		c2.324,4.236,8.106,9.568,12.239,10.32c9.958,1.809,14.651-5.389,23.04-5.521c-3.923,7.097-11.434,11.056-15.359,18.48
		c-0.571,1.08-0.516,2.584-1.2,3.601c-2.239,3.321-9.019,0.456-13.44,3.36c-4.313,2.832-8.063,8.727-8.64,16.319
		c-1.056,13.919,4.664,22.279,9.36,31.921C10.275,102.898,12.147,107.992,13.328,108z M33.727,58.561
		c-2.04-4.66,1.048-8.734,3.841-10.561c2.388-1.561,4.423-1.448,5.039,1.201C39.904,52.577,36.91,55.662,33.727,58.561z
		 M42.847,51.36c1.573,0.267,1.216,2.465,2.16,3.36c-4.444,2.115-5.921,7.199-9.84,9.84C31.719,58.188,40.925,56.139,42.847,51.36z
		 M36.607,66.24c2.811-3.189,4.439-7.56,8.4-9.6c1.084,1.088,2.541,3.04,2.4,4.32c-0.257,2.327-6.644,6.936-6.96,9.359
		C38.736,69.393,37.55,67.938,36.607,66.24z M41.887,71.521c2.033-2.927,3.447-6.473,6.24-8.64c4.663,3.854-2.583,6.89-3.36,11.039
		C43.49,73.438,42.507,72.661,41.887,71.521z M46.448,74.881c0.873-2.807,2.062-5.299,4.319-6.721
		c1.846,2.718,0.841,5.856-0.72,8.16C48.665,76.022,47.602,75.406,46.448,74.881z M55.568,78.48
		c-1.307-0.454-2.534-0.986-3.841-1.439c0.32-1.12,0.793-2.088,1.2-3.121C54.511,74.605,55.874,76.695,55.568,78.48z M57.727,76.561
		c-1.265-1.135-1.953-2.847-3.12-4.08c0.773-1.11,3.023-0.14,4.08,0C58.589,74.063,58.049,75.202,57.727,76.561z M59.408,70.561
		c-1.617,0.525-3.713-0.408-5.76-0.24c-0.387-0.574-0.79-1.13-0.721-2.16c2.441,0.199,5.185,0.096,6.721,1.2
		C59.446,69.639,59.33,70.004,59.408,70.561z M59.887,67.44c-3.791-0.849-9.101-0.179-9.359-4.559c4.021-0.182,7.188,0.49,9.84,1.68
		C60.414,65.727,60.421,66.855,59.887,67.44z M60.607,62.4c-2.933-0.28-6.813-1.657-11.039-1.439
		c-0.764-0.838-1.26-1.941-1.441-3.36c3.863,1.722,9.061-0.466,12.479,1.92C60.607,60.48,60.607,61.44,60.607,62.4z M60.368,57.601
		c-5.583-1.499-14.549,0.721-14.88-6.479C51.842,51.762,61.52,49.477,60.368,57.601z M59.167,50.4
		c-4.314-2.246-15.177,2.057-15.6-4.08c3.098-0.242,8.513-0.833,11.76-1.439C57.993,44.383,58.396,48.252,59.167,50.4z
		 M55.328,43.681c-4.477,0.235-6.755,0.89-12.24,0.72c0.17-0.89-0.41-1.029-0.24-1.92C47.06,41.396,53.779,38.349,55.328,43.681z
		 M49.087,39.36c-2.056,0.333-4.836,0.989-6.48,0.96c-0.385-1.215-0.616-2.582-0.72-4.08C44.354,37.214,47.354,37.654,49.087,39.36z
		 M41.167,44.881c-2.572,0.469-4.916,2.441-6.24,3.359c0.434-3.406,2.543-5.137,6.24-5.279
		C41.053,44.023,41.497,44.154,41.167,44.881z M39.727,37.681c1.287,0.153,0.878,2.003,0.96,3.36
		c-0.658,0.461-1.675,0.564-2.64,0.72C38.171,39.965,39.532,39.404,39.727,37.681z M24.368,24
		c-6.363-2.141,1.132-9.098,2.399-12.479C31.302,15.096,25.017,19.78,24.368,24z M25.328,10.08
		c-1.531,3.99-3.894,7.147-5.521,11.041c-4.715-3.616,1.342-9.384,2.4-13.201C23.459,8.428,24.436,9.212,25.328,10.08z
		 M20.767,6.961c-1.246,3.793-3.592,6.488-4.56,10.56c-3.972-2.658,0.043-8.927,1.2-12.239C18.838,5.529,19.679,6.369,20.767,6.961z
		 M12.127,3.36c1.408,0.192,2.192,1.007,3.6,1.2c-0.601,2.68-1.623,4.938-2.64,7.2C10.369,10.672,11.133,5.736,12.127,3.36z
		 M10.207,2.881c0.114,1.634-0.273,2.767-0.72,3.84C7.91,5.578,6.843,3.924,5.887,2.16C7.445,2.283,8.887,2.52,10.207,2.881z
		 M4.207,4.32c1.506,0.734,2.414,2.066,3.36,3.36C6.743,8.506,5.78,8.25,4.448,8.16C4.564,6.684,4.02,5.867,4.207,4.32z
		 M4.207,10.08c3.332-0.199,6.229-0.617,6.479,2.641c-2.846-0.236-4.42,0.057-6.72,0.72C3.8,12.074,4.374,11.447,4.207,10.08z
		 M3.967,15.36c3.324-1.284,9.928-1.439,9.84,2.88c-3.928-0.008-6.393,1.446-8.88,2.881C3.904,19.904,3.909,17.659,3.967,15.36z
		 M10.207,27.36c-1.792-1.087-2.967-2.794-4.32-4.319c1.675-2.157,9.771-5.028,11.28-0.721C14.367,23.52,11.584,24.737,10.207,27.36
		z M11.647,28.801c1.294-3.531,7.65-7.311,10.08-3.36C17.236,25.891,15.773,33.531,11.647,28.801z M17.408,31.44
		c0.638-4.37,7.515-5.895,12-3.36C26.755,30.549,22.351,31.264,17.408,31.44z M28.687,18.24c1.515,1.607,0.854,5.388,1.681,7.68
		C24.122,26.467,27.117,20.748,28.687,18.24z M12.127,97.92c0.782,1.139,0.568,3.271,0.72,5.041
		C11.678,101.633,10.128,99.146,12.127,97.92z M14.767,102.721c-0.239-1.76-0.456-3.544-0.479-5.52
		c1.318,0.201,1.802,1.238,3.12,1.439C16.98,100.453,16.089,101.803,14.767,102.721z M18.607,97.44
		c-3.643-1.156-6.38-3.22-5.76-8.64c2.601,1.959,4.172,4.948,7.44,6.24C20.303,96.416,19.277,96.75,18.607,97.44z M21.727,93.601
		c-2.12,0.505-8.553-5.942-9.6-8.88c-0.482-1.354-0.094-3.606-0.24-4.561c3.251,3.869,6.743,7.497,12.24,9.121
		C23.814,90.848,22.97,93.305,21.727,93.601z M24.847,87.84c-0.529,0.125-3.686-1.184-4.8-1.92
		c-3.748-2.478-10.583-9.525-6.96-15.84c1.746,1.26,2.693,5.121,6,8.16c2.018,1.855,7.299,4.207,7.68,6
		C27.039,85.518,25.473,87.693,24.847,87.84z M27.727,82.32c-2.683-2.065-7.847-4.742-10.319-8.4c-1.406-2.078-3.59-5.969-2.4-8.399
		c3.373,5.187,9.326,7.794,14.16,11.521C28.826,78.939,28.243,80.596,27.727,82.32z M29.167,74.881
		c-4.251-3.77-14.956-6.605-11.521-14.16c3.056,2.785,7.019,4.661,10.32,7.199C28.599,70.016,29.426,72.627,29.167,74.881z
		 M26.767,64.561c-5.037-2.25-10.447-5.17-5.52-10.561C23.065,57.543,25.738,60.23,26.767,64.561z M19.568,53.281
		c-0.157,1.842-1.443,2.557-1.921,4.079c-3.278,0.623-6.042-1.087-8.159-2.399C11.478,52.782,15.762,53.051,19.568,53.281z
		 M7.568,56.16c2.567,1.434,5.281,2.719,8.64,3.36c-0.807,4.44-9.328,3.885-12.481,1.92C4.577,59.25,6.172,57.805,7.568,56.16z
		 M3.007,63.36c2.957,1.19,7.384,1.99,10.8,0.72c-1.381,4.619-6.281,5.719-12,6C1.794,67.428,2.199,65.191,3.007,63.36z M2.288,72
		c2.997-0.521,6.914-0.125,8.399-2.16c1.19,0.793-0.625,2.516-0.239,4.08c-2.594,1.301-4.827,2.641-8.4,2.4
		C1.686,75.316,1.53,72.664,2.288,72z M2.288,78.24c3.196-0.003,5.16-1.24,7.68-1.92c0.532,1.548,0.101,4.061,0.24,6
		c-2.369,0.831-3.356,3.045-6,3.6C3.396,83.532,2.401,81.327,2.288,78.24z M5.167,87.601c1.58-0.899,3.036-1.925,4.559-2.88
		c2.631,2.65,1.119,7.57-2.64,7.68C6.451,90.797,5.494,89.514,5.167,87.601z M9.967,97.681c-0.741-1.019-1.201-2.319-1.92-3.36
		C11.003,89.354,13.954,96.679,9.967,97.681z"/>
</g>
</svg>
