<?xml version="1.0" encoding="iso-8859-1"?>
<!-- Generator: Adobe Illustrator 19.2.0, SVG Export Plug-In . SVG Version: 6.00 Build 0)  -->
<svg version="1.1" id="&#x421;&#x43B;&#x43E;&#x439;_1"
	 xmlns="http://www.w3.org/2000/svg" xmlns:xlink="http://www.w3.org/1999/xlink" x="0px" y="0px" viewBox="0 0 142.08 158.399"
	 style="enable-background:new 0 0 142.08 158.399;" xml:space="preserve">
<g>
	<path style="fill:#7B8C53;" d="M85.44,86.64c-5.537-2.176-12.133-2.029-17.04-4.799c-0.247,5.98,4.341,6.105,8.64,7.92
		c2.654,1.119,4.869,3.256,7.2,3.84c2.235,0.559,4.657-0.084,6.72,0.48c6.598,1.799,10.894,8.59,15.6,10.799
		c-0.195-9.211-6.521-10.646-13.44-13.68C90.342,89.981,87.972,87.634,85.44,86.64z"/>
	<path style="fill:#7B8C53;" d="M110.4,64.32c0.147,7.528,3.274,12.464,4.8,19.2c0.951-0.089,2.3,0.22,2.88-0.24
		c0.886-7.617-3.731-11.779-4.56-18.48C112.368,64.752,111.763,64.157,110.4,64.32z"/>
	<path style="fill:#7B8C53;" d="M121.44,66.24c1.371,5.269,4.758,8.522,4.8,15.12c6.579-2.502-1.272-10.648-1.681-14.881
		C123.594,66.388,122.263,65.716,121.44,66.24z"/>
	<path style="fill:#7B8C53;" d="M133.2,69.12c0.412,1.908,2.53,2.109,2.16,4.8C137.011,72.638,135.394,68.905,133.2,69.12z"/>
	<path style="fill:#7B8C53;" d="M115.44,65.04c1.019,6.287,5.207,11.607,4.561,18c1.009,0.366,2.789-0.35,3.84-0.72
		c1.791-7.009-3.555-10.775-4.561-16.56C118.097,65.423,116.896,65.104,115.44,65.04z"/>
	<path style="fill:#7B8C53;" d="M95.28,85.2c-0.953-0.311-2.046,0.475-3.12,0.24c-1.727-0.377-2.491-2.219-4.319-3.36
		c-2.007-1.253-5.419-3.081-8.641-4.56c-4.323-1.984-7.195-3.965-12.24-4.32c0.047,2.113,0.615,3.704,0.721,5.76
		c4.943,4.217,11.605,3.772,18,6c4.813,1.678,9.115,6.865,14.879,6.961C98.724,90.483,97.784,86.017,95.28,85.2z"/>
	<path style="fill:#7B8C53;" d="M99.12,60c-1.065,0.025-1.408-0.671-2.64-0.479c0.896,6.973-1.151,15.781,0,23.039
		c1.45,0.012,2.153,0.271,3.36-0.239C98.103,74.757,98.812,67.97,99.12,60z"/>
	<path style="fill:#7B8C53;" d="M106.56,63.12c0.068,6.344-0.619,14.586,1.921,19.68c1.839-0.258,3.378,0.584,4.56,0.24
		c0.314-3.396-2.786-7.809-3.6-11.52C108.729,68.274,109.818,63.04,106.56,63.12z"/>
	<path style="fill:#7B8C53;" d="M104.4,70.08c0.151-3.747,1.935-9.596-3.12-9.36c-1.43,7.238-1.086,14.142,0.24,21.36
		c1.584,0.536,2.578,0.37,4.32,0.479C106.315,79.642,104.206,74.855,104.4,70.08z"/>
	<path style="fill:#7B8C53;" d="M137.28,69.36c0.133,0.747,0.195,1.564,0.48,2.16c1.068-0.133,1.229-1.172,1.68-1.92
		C139.042,69.198,138.031,69.409,137.28,69.36z"/>
	<path style="fill:#7B8C53;" d="M107.04,61.44c4.447,2.779,5.574-4.307,8.881-7.68c2.34-2.389,4.279-2.805,5.76-5.281
		c-1.109-0.203-2.593-2.575-3.601-1.92C113.731,49.392,110.022,57.249,107.04,61.44z"/>
	<path style="fill:#7B8C53;" d="M108.48,56.64c2.356-4.582,4.929-8.891,8.399-11.76c-1.103-0.736-1.678-2.003-3.119-2.4
		c-4.517,4.764-6.496,12.065-11.28,16.561C104.985,61.649,107.313,58.911,108.48,56.64z"/>
	<path style="fill:#7B8C53;" d="M97.2,42.96c-3.258,5.004-4.499,10.648-9.6,12.721c11.969,1.801,14.447-11.889,20.64-18.24
		C103.829,34.662,99.604,39.269,97.2,42.96z"/>
	<path style="fill:#7B8C53;" d="M98.16,54.479c-1.88,1.316-3.49,1.41-5.521,2.881c4.008-0.06,7.643,2.25,10.561-1.2
		c3.37-3.984,6.055-11.98,9.359-15.36c-1.109-1.877-2.623-2.411-4.319-0.959C104.757,42.819,103.12,51.009,98.16,54.479z"/>
	<path style="fill:#7B8C53;" d="M111.841,62.88c3.457,0.668,4.183-2.314,6.479-4.32c1.923-1.679,7.254-3.219,7.2-5.76
		c-0.029-1.385-2.244-2.709-3.12-2.16C118.769,52.917,113.86,58.475,111.841,62.88z"/>
	<path style="fill:#7B8C53;" d="M132.72,67.44c2.049,0.049,2.797-1.205,4.32-1.68C135.856,63.872,133.418,66.005,132.72,67.44z"/>
	<path style="fill:#7B8C53;" d="M138.72,67.681c0.102-1.233-1.907-0.753-1.68,0.239C137.604,67.844,137.94,67.541,138.72,67.681z"/>
	<path style="fill:#7B8C53;" d="M134.4,63.12c-0.546-3.083-6.024,1.735-7.2,2.641C129.472,67.915,134.735,65.013,134.4,63.12z"/>
	<path style="fill:#7B8C53;" d="M122.88,64.32c3.426,0.944,6.938-1.748,8.641-4.08C128.712,56.317,125.011,62.38,122.88,64.32z"/>
	<path style="fill:#7B8C53;" d="M116.4,63.601c6.858,2.082,7.283-4.985,12.239-6.24c-0.353-1.247-1.05-2.15-2.159-2.641
		C123.231,57.636,118.075,59.909,116.4,63.601z"/>
	<path style="fill:#7B8C53;" d="M70.8,101.761c-0.16,0-0.319,0-0.479,0c-2.108,0.895-2.837,3.603-4.56,5.76
		c-4.242,5.306-11.098,13.466-12.48,18.718c-0.711,2.699,0.069,3.746,1.68,4.801C57.321,118.689,73.05,116.377,70.8,101.761z"/>
	<path style="fill:#7B8C53;" d="M75.36,126.959c-3.475,5.086-5.148,11.973-8.641,17.041c0.826,0.613,1.496,1.383,2.641,1.68
		C71.386,139.711,79.596,134.703,75.36,126.959z"/>
	<path style="fill:#7B8C53;" d="M73.2,113.76c-5.008,7.473-10.916,14.043-14.16,23.279c1.051,0.469,1.252,1.787,2.4,2.16
		C63.259,129.982,76.368,123.6,73.2,113.76z"/>
	<path style="fill:#7B8C53;" d="M83.04,155.76c0.145-2.502-1.261-4.785-1.92-7.201C78.866,151.684,79.69,154.4,83.04,155.76z"/>
	<path style="fill:#7B8C53;" d="M77.521,134.398c-0.518,4.477-11.768,12.623-3.12,14.641
		C76.944,146.078,80.184,137.998,77.521,134.398z"/>
	<path style="fill:#7B8C53;" d="M79.681,139.92c1.148,4.484-6.6,10.174-1.681,11.52C79.483,148.332,82.302,143.678,79.681,139.92z"
		/>
	<path style="fill:#7B8C53;" d="M74.64,122.16c-0.053-0.188-0.2-0.279-0.479-0.24c-2.002,3.402-5.609,7.299-7.68,10.559
		c-1.089,1.715-3.732,6.203-3.601,7.682c0.064,0.721,1.65,2.523,2.641,2.398c2.039-0.256,3.537-6.816,4.56-9.119
		C72.058,128.986,75.163,126.213,74.64,122.16z"/>
	<path style="fill:#7B8C53;" d="M67.921,89.761c-4.392,6.793-12.758,12.711-16.32,21.84c-1.398,3.579-5.672,9.149-1.92,10.798
		c3.921-4.385,3.955-9.674,7.199-14.878C60.557,101.624,72.411,98.821,67.921,89.761z"/>
	<path style="fill:#7B8C53;" d="M69.36,97.681c-2.176,4.301-8.287,6.156-11.04,10.559c-1.67,2.672-2.621,6.196-4.08,9.12
		c-1.366,2.738-4.126,5.602-3.12,8.641c4.885-6.973,10.741-17.767,16.32-23.999C68.634,100.665,71.888,99.229,69.36,97.681z"/>
	<path style="fill:#7B8C53;" d="M86.16,50.16c-2.019,1.96-4.092,2.224-5.76,4.319c13.552,0.989,13.467-13.73,21.84-18.719
		C92.368,32.781,91.622,44.856,86.16,50.16z"/>
	<path style="fill:#7B8C53;" d="M72,109.44c-1.874,5.063-5.466,7.53-9.6,11.999c-2.29,2.475-8.421,10.69-4.56,13.44
		c3.638-9.496,11.469-15.566,14.879-25.198C72.413,109.667,72.388,109.372,72,109.44z"/>
	<path style="fill:#7B8C53;" d="M77.521,127.199c-0.038,4.291,3.357,4.658,6.24,6.48c3.408,2.154,5.895,5.313,8.879,7.439
		C98.142,133.758,82.169,129.645,77.521,127.199z"/>
	<path style="fill:#7B8C53;" d="M72.72,102.96c-0.765,5.604,4.922,4.945,8.4,6.48c1.577,0.695,3.07,1.889,4.801,2.641
		c1.914,0.829,3.95,1.017,5.76,1.679c4.515,1.652,6.566,5.523,10.56,6.24c0.225-0.896,1.14-1.102,1.2-2.16
		c-4.223-1.68-6.656-5.258-10.32-7.679C87.102,106.181,77.978,107.345,72.72,102.96z"/>
	<path style="fill:#7B8C53;" d="M86.64,124.799c3.746,2.012,7.449,3.525,10.08,6c0.648-1.354,1.627-2.373,1.92-4.08
		c-5.943-5.896-15.547-8.133-23.039-12.48C74.933,122.244,81.579,122.084,86.64,124.799z"/>
	<path style="fill:#7B8C53;" d="M80.64,114.479c5.873,3.232,14.041,6.65,18.961,10.32c0.61-0.988,1.356-1.844,1.68-3.119
		c-7.696-5.344-16.814-9.266-26.88-12.239C74.456,112.494,78.438,113.268,80.64,114.479z"/>
	<path style="fill:#7B8C53;" d="M71.761,98.399c-0.142,2.145,3.918,4.875,5.52,5.521c4.016,1.617,8.959,1.312,12.96,2.879
		c6.095,2.387,8.728,7.968,14.16,9.36c0.364-0.756,0.716-1.525,0.96-2.4c-2.881-2.179-4.95-4.472-7.68-6.48
		C90.88,102.278,79.088,102.31,71.761,98.399z"/>
	<path style="fill:#7B8C53;" d="M83.28,148.318c-0.179,2.26,1.063,3.098,1.2,5.041c0.825-0.055,1.046-0.715,1.2-1.439
		C84.69,150.908,84.759,148.84,83.28,148.318z"/>
	<path style="fill:#7B8C53;" d="M93.841,130.318c-4.2-3.574-11.959-5.674-17.281-8.158c-0.176,1.137,0.271,1.648,0.24,2.639
		c6.783,2.816,13.07,6.131,18.48,10.32C96.247,133.219,95.058,131.355,93.841,130.318z"/>
	<path style="fill:#7B8C53;" d="M87.601,139.199c-2.283-2.021-4.84-5.59-8.16-6c1.566,6.033,5.835,9.365,10.56,12.24
		C93.142,142.691,89.933,141.264,87.601,139.199z"/>
	<path style="fill:#7B8C53;" d="M82.56,141.359c-1.389,4.922,3.264,5.848,4.32,9.119c0.599-1.32,1.771-2.068,2.16-3.6
		C86.566,145.354,84.263,143.656,82.56,141.359z"/>
	<path style="fill:#7B8C53;" d="M99.601,101.28c-2.168-1.512-4.67-3.408-6.721-4.561c-2.49-1.398-6.416-1.002-9.119-1.68
		c-4.799-1.203-8.85-5.684-13.44-5.76c-0.241,0-0.286,0.195-0.479,0.24c0.791,2.93,0.951,6.332,3.119,7.68
		c4.438,2.758,12.054,3.41,18,4.801c7.152,1.672,10.059,7.117,14.881,9.6C106.858,106.915,103.11,103.728,99.601,101.28z"/>
	<path style="fill:#7B8C53;" d="M37.681,52.08c3.749,2.466,8.65,12.512,12.959,7.681c-4.083-3.519-5.455-8.035-11.039-10.801
		c-4.975-2.464-11.469-7.662-15.36-3.119c3.86,1.018,5.306,2.543,8.64,4.079C34.304,50.576,36.221,51.12,37.681,52.08z"/>
	<path style="fill:#7B8C53;" d="M74.4,52.08c3.194,3.095,8.771-0.985,11.04-3.601c3.63-4.184,5.694-11.33,9.6-13.68
		C83.168,34.609,83.15,48.349,74.4,52.08z"/>
	<path style="fill:#7B8C53;" d="M58.32,51.601c-4.601-0.067-5.843-5.783-9.36-8.881c-2.641-2.324-8.076-4.266-12-3.119
		C45.243,42.917,48.47,51.29,57.36,54C57.638,53.158,58.305,52.704,58.32,51.601z"/>
	<path style="fill:#7B8C53;" d="M58.08,50.16c1.036-0.069,1.709-0.636,1.92-1.92c-3.646-4.401-6.621-12.052-15.12-9.36
		C51.14,38.529,54.21,50.419,58.08,50.16z"/>
	<path style="fill:#7B8C53;" d="M60.72,46.32c0.53-0.831,1.189-1.532,1.201-2.88c-0.936-0.905-1.863-1.818-2.16-3.36
		c-1.754-0.167-3.152-0.688-4.801-0.96C57.501,40.899,58.425,44.296,60.72,46.32z"/>
	<path style="fill:#7B8C53;" d="M66.48,52.32c0.122,1.317,0.202,2.677,0.96,3.36c0.203-0.356,0.604-0.517,1.199-0.48
		C68.367,53.794,67.386,53.095,66.48,52.32z"/>
	<path style="fill:#7B8C53;" d="M55.44,55.681C46.983,52.778,40.97,37.363,30,42c3.845,3.467,12.146,5.143,16.32,9.601
		C49.023,54.486,52.409,62.054,55.44,55.681z"/>
	<path style="fill:#7B8C53;" d="M69.36,49.92c3.604,2.728,7.951-1.458,10.08-4.319c2.724-3.664,5.514-7.707,7.439-10.32
		C76.897,36.019,76.378,46.218,69.36,49.92z"/>
	<path style="fill:#7B8C53;" d="M66.48,45.841c0.735,4.805,5.407,0.056,6.96-1.681c2.424-2.714,4.65-6.82,6.24-8.64
		C71.776,35.456,72.897,44.417,66.48,45.841z"/>
	<path style="fill:#7B8C53;" d="M67.44,26.16c0.894-5.724,4.063-11.24,5.52-16.8c0.717-2.738,1.186-5.342,2.16-7.92
		c-0.685-0.595-1.464-1.097-2.4-1.44c-0.988,1.436-0.53,3.388-0.959,5.28c-1.898,8.37-8.143,16.674-9.36,25.92
		c-0.481,3.652-1.621,7.707-0.24,10.32C69.604,41.039,66.517,32.074,67.44,26.16z"/>
	<path style="fill:#7B8C53;" d="M37.2,58.32c2.579,2.296,5.047,8.469,8.641,4.8c-2.557-4.913-8.226-8.957-13.92-11.76
		c-4.58-2.254-11.005-7.252-13.681-0.48C25.939,50.331,32.87,54.466,37.2,58.32z"/>
	<path style="fill:#7B8C53;" d="M71.761,37.681c-2.686,1.313-4.519,3.48-7.201,4.799C66.524,47.341,72.292,39.802,71.761,37.681z"/>
	<path style="fill:#7B8C53;" d="M126.96,67.681c0.686,4.273,3.814,6.105,3.6,11.279C135.139,76.22,132.284,67.623,126.96,67.681z"/>
	<path style="fill:#7B8C53;" d="M57.601,55.92c-0.768,1.021-0.68,4.018,0.24,4.8C58.399,59.37,60.11,56.265,57.601,55.92z"/>
	<path style="fill:#7B8C53;" d="M47.761,77.761c3.69-3.11,7.527-6.072,12-8.4C52.48,66.265,50.254,72.839,47.761,77.761z"/>
	<path style="fill:#7B8C53;" d="M65.04,70.32c-0.027-0.293-0.072-0.568-0.48-0.479c-3.456,1.025-7.595,1.988-10.56,4.319
		c-1.799,1.415-6.675,5.247-7.68,6.96c-1.528,2.606-0.668,6.365-2.64,9.121c3.822-3.027,5.832-7.238,9.359-10.561
		C56.844,76.099,60.948,73.308,65.04,70.32z"/>
	<path style="fill:#7B8C53;" d="M54.48,64.56c2.488-0.591,1.413-3.91,1.2-6.239C52.582,58.487,54.46,62.193,54.48,64.56z"/>
	<path style="fill:#7B8C53;" d="M44.88,72.479c-0.012,3.758-1.965,6-0.479,8.16c2.124-2.355,2.528-6.431,4.8-8.64
		c-1.77-1.511-0.763-5.798-2.16-7.68C41.433,64.948,44.896,67.825,44.88,72.479z"/>
	<path style="fill:#7B8C53;" d="M49.921,70.08c3.732-1.032,2.922-4.837,2.639-9.12C47.739,61.614,49.046,65.899,49.921,70.08z"/>
	<path style="fill:#7B8C53;" d="M60.72,59.04c-0.405,0.955-1.131,1.588-1.439,2.641c2.732,0.262,3.492,2.828,6,2.64
		c0.491-0.789,0.129-2.431,0.24-3.601C63.683,60.398,62.427,59.494,60.72,59.04z"/>
	<path style="fill:#7B8C53;" d="M61.2,57.601c1.707,0.213,2.633,1.207,4.32,1.439c0-0.641,0-1.279,0-1.92
		c-1.545-0.295-2.189-1.49-3.6-1.92C61.485,55.806,61.097,56.457,61.2,57.601z"/>
	<path style="fill:#7B8C53;" d="M42.24,102.96c3.778-5.797,7.674-12.201,12.479-16.799c2.666-2.551,5.921-4.443,7.92-6.721
		c1.349-1.535,3.579-5.35,2.16-6.721c-0.65,0.857-1.801,0.678-2.64,1.2c-7.546,4.705-12.058,13.425-18.72,18.479
		C43.585,96.306,41.683,99.442,42.24,102.96z"/>
	<path style="fill:#7B8C53;" d="M65.761,77.28c-1.042,3.016-4.603,5.404-7.44,7.92c-6.442,5.711-10.31,11.945-14.64,18.961
		c-1.33,2.154-2.992,4.328-0.721,7.439c2.788-5.408,6.814-9.385,10.32-15.121C57.272,89.948,66.13,86.052,65.761,77.28z"/>
	<path style="fill:#7B8C53;" d="M59.28,55.2c1.307-0.054,1.458-1.262,1.68-2.4c-0.457-0.103-0.603-0.517-1.199-0.479
		C59.384,53.003,58.611,54.233,59.28,55.2z"/>
	<path style="fill:#7B8C53;" d="M61.44,48.72c-0.277,0.883-1.383,2.511,0.24,2.641c0.268-0.771,0.656-1.424,0.72-2.4
		C62.075,48.885,61.942,48.618,61.44,48.72z"/>
	<path style="fill:#7B8C53;" d="M66.96,66.479c3.973,2.908,12.113,2.928,15.36,5.761c-1.825-1.695-3.872-3.168-5.04-5.52
		C73.856,65.784,70.561,65.114,66.96,66.479z"/>
	<path style="fill:#7B8C53;" d="M78,71.521c-3.048-1.291-7.96-1.043-11.04-2.641c0,0.721,0,1.44,0,2.16
		c5.445,0.785,8.203,3.248,12.961,5.52c3.108,1.485,6.418,2.605,8.639,4.08c1.731,1.15,3.037,3.664,5.521,2.881
		c-1.771-1.424-2.265-5.08-4.319-6.721c-0.736-0.588-4.164-1.615-5.761-2.16C81.091,73.647,80.089,72.404,78,71.521z"/>
	<path style="fill:#7B8C53;" d="M94.8,59.761c-1.11-0.41-2.151-0.889-3.6-0.961c-0.217,7.852-2.67,17.711,3.359,21.6
		C94.304,73.724,95.21,66.518,94.8,59.761z"/>
	<path style="fill:#7B8C53;" d="M67.921,86.64c-0.541-0.98-0.125-2.915-1.201-3.359c-2.06,4.553-7.138,6.684-10.319,11.039
		c-2.574,3.525-4.317,6.537-6.72,9.842c-2.885,3.963-9.002,11.894-2.881,14.157c2.641-3.533,3.135-7.722,5.041-11.278
		C56.025,99.231,64.042,94.612,67.921,86.64z"/>
	<path style="fill:#7B8C53;" d="M75.36,54.96c-0.063,1.537-0.692,2.508-1.2,3.6c1.319,1.801,2.561,3.68,4.08,5.281
		c0.802-2.863,0.497-4.258,0.479-7.921C77.624,55.576,76.755,55.006,75.36,54.96z"/>
	<path style="fill:#7B8C53;" d="M73.44,60.72c-1.139,0.512-3.957,0.193-6.24,0.721c0,1.039,0,2.08,0,3.119
		c3.756-0.91,7.1-0.531,9.12,0C75.325,63.315,74.78,61.62,73.44,60.72z"/>
	<path style="fill:#7B8C53;" d="M70.32,53.521c0-0.48,0-0.961,0-1.44c-0.702,0.063-0.737-0.542-1.44-0.479
		C69.011,52.589,69.586,53.135,70.32,53.521z"/>
	<path style="fill:#7B8C53;" d="M84.96,57.12c2.908,5.051-0.889,14.137,4.08,17.279C86.714,69.294,93.477,56.659,84.96,57.12z"/>
	<path style="fill:#7B8C53;" d="M67.44,59.521c2.019-0.086,3.354,0.521,4.56-0.48C71.706,56.121,66.365,55.964,67.44,59.521z"/>
	<path style="fill:#7B8C53;" d="M79.44,66.72c0.484,2.623,4.059,3.22,5.52,5.28c-0.801-5.224-0.143-10.064-1.68-15.12
		c-0.675-0.365-1.852-0.229-2.641-0.481C81.388,60.323,78.945,64.043,79.44,66.72z"/>
	<path style="fill:#7B8C53;" d="M19.2,76.08c-2.271-2.457-6.291-4.419-10.8-3.84c-0.491,0.47-0.716,1.204-0.72,2.159
		c3.01,1.471,5.922,3.037,9.119,4.32C17.628,77.868,18.761,77.321,19.2,76.08z"/>
	<path style="fill:#7B8C53;" d="M3.601,87.12c0.32,0.342,1.359,0.342,1.68,0c0-0.32,0-0.641,0-0.959
		C4.384,86.144,3.905,86.546,3.601,87.12z"/>
	<path style="fill:#7B8C53;" d="M65.04,54.96c-0.148-1.851-0.221-3.779-1.199-4.8c-0.302,1.219-0.954,2.087-1.201,3.36
		C63.44,53.999,63.942,54.778,65.04,54.96z"/>
	<path style="fill:#7B8C53;" d="M9.601,81.841c-1.361-2.29-5.559-3.118-5.76,0.719C5.227,84.616,8.391,83.292,9.601,81.841z"/>
	<path style="fill:#7B8C53;" d="M14.88,79.44c-2.912,0.05-7.67-6.512-8.399-1.2C9.524,78.993,12.12,83.076,14.88,79.44z"/>
	<path style="fill:#7B8C53;" d="M6.48,88.081c0.672,0.127,1.247,0.352,1.92,0.479c0.205-1.564,1.972-3.824,1.2-4.799
		C7.878,84.519,6.915,86.034,6.48,88.081z"/>
	<path style="fill:#7B8C53;" d="M36.48,66c-3.927-5.665-12.886-9.417-23.28-8.64c-0.367,1.072-1.106,1.774-1.2,3.119
		c5.364,1.25,10.894,0.494,15.36,3.121C30.232,65.289,33.282,70.267,36.48,66z"/>
	<path style="fill:#7B8C53;" d="M14.88,81.36c-3.078,0.922-3.922,4.078-4.8,7.199c1.704,0.377,3.086,1.074,5.04,1.201
		C14.8,85.71,15.411,83.991,14.88,81.36z"/>
	<path style="fill:#7B8C53;" d="M20.64,75.36c1.768-1.272,4.016-2.065,5.281-3.84c-3.911-3.05-10.803-3.119-16.08-4.801
		c-0.052,1.389-0.846,2.035-0.961,3.36C13.469,71.171,18.095,72.226,20.64,75.36z"/>
	<path style="fill:#7B8C53;" d="M34.56,60.96c2.225,1.564,3.388,6.66,6.721,4.561c-3.858-4.529-10.126-11.765-17.52-12.961
		c-3.459-0.559-8.615-0.955-9.36,2.881c3.374,0.545,6.503,0.045,9.6,0.72C26.516,56.708,32.692,59.647,34.56,60.96z"/>
	<path style="fill:#7B8C53;" d="M30.96,68.88c-4.296-5.773-11.322-6.439-19.92-6.72c-0.131,0.909-0.58,1.499-0.48,2.64
		c4.931,2.83,13.125,2.396,17.281,6C28.873,70.153,29.785,69.386,30.96,68.88z"/>
	<path style="fill:#7B8C53;" d="M2.88,84.001C2.778,84.458,2.194,84.435,2.4,85.2c0.733,0.174,0.874-0.246,1.44-0.24
		C3.952,84.208,3.237,84.284,2.88,84.001z"/>
	<path style="fill:#7B8C53;" d="M55.44,66.96c2.797,0.045,8.651,2.794,9.84-0.72C61.978,64.536,56.689,61.255,55.44,66.96z"/>
	<path style="fill:#7B8C53;" d="M73.2,56.88c0.252-1.027,0.816-1.744,0.721-3.119C71.389,52.009,70.907,56.55,73.2,56.88z"/>
	<path style="fill:#7B8C53;" d="M43.921,83.04c-0.204-1.395-1.652-2.831-1.681-4.8c-0.066-4.636,2.438-8.933-0.96-11.52
		c-0.385,0.815-2.012,0.389-2.16,1.44c2.234,6.752-3.171,13.213-1.439,21.601c1.682,0.002,2.925-0.435,4.56-0.48
		C42.63,87.567,44.284,85.534,43.921,83.04z"/>
	<path style="fill:#7B8C53;" d="M62.4,47.04c1.086,0.366,0.519-0.921,0.96-1.199C62.685,45.886,62.338,46.258,62.4,47.04z"/>
	<path style="fill:#7B8C53;" d="M25.2,74.16c-5.425,2.407-1.646,12.097-3.84,17.28c0.895,0.031,2.121,0.584,2.64,0.24
		C26.663,87.374,24.999,78.972,25.2,74.16z"/>
	<path style="fill:#7B8C53;" d="M36.96,68.399c-0.659-0.408-2.025,0.527-2.88,0.721c-2.997,6.731,0.005,16.379-3.12,22.08
		c1.201,0.185,3.574-0.385,4.801-0.959C34.352,81.669,40.177,75.294,36.96,68.399z"/>
	<path style="fill:#7B8C53;" d="M16.8,90.72c1.102,0.02,1.547,0.693,2.881,0.48c0.678-4.127,1.929-9.665,0.48-13.44
		C16.068,79.69,16.284,85.005,16.8,90.72z"/>
	<path style="fill:#7B8C53;" d="M25.921,91.681c0.623,0.162,2.065,0.09,2.879-0.24c3.986-4.816,1.306-14.002,3.121-21.12
		C23.077,72.019,28.968,85.597,25.921,91.681z"/>
	<path style="fill:#3B3A26;" d="M11.28,55.92c-0.607,4.376-2.471,8.509-3.84,13.2C5.354,76.266,2.602,81.761,0,87.36
		c3.001,1.719,6.72,1.213,8.4,3.359c2.056-1.166,5.548-0.125,6.96,1.439c2.639-0.027,6.877,0.287,8.88,1.682
		c5.564-1,11.582-2.813,17.52-2.641c0.02,7.984-3.252,16.488,0,23.999c1.239,2.863,4.562,5.371,6.239,8.16
		c4.6,7.645,9.42,15.75,16.8,21.6c2.316,1.836,6.141,3.799,9.601,6.24c1.282,0.904,7.912,7.258,8.88,7.199
		c1.734-0.102,4.477-6.828,6-9.119c2.236-3.363,4.82-6.225,6-9.359c1.836-4.879,3.625-10.072,6.24-14.881
		c2.43-4.467,5.967-9.875,6.48-14.878c1.342-13.109-6.209-17.795-9.841-25.682c5.667-1.415,11.63,0.861,17.52,0.961
		c8.902,0.152,16.006-5.281,20.64-9.84c1.54-1.517,5.79-5.611,5.76-6.721c-0.058-2.133-5.806-5.667-7.44-7.199
		c-3.402-3.191-6.033-8.838-9.119-12.24c-2.447-2.697-6.505-4.643-10.08-7.92c-3.289-3.016-6.053-6.002-10.32-7.2
		c-3.523-0.989-7.826-1.455-11.519-1.44c-8.867,0.035-17.873,0.97-24.721,4.08c-0.568-13.666,5.57-24.627,8.16-36.72
		c-2.555-1.989-6.273-2.981-6.72,1.2c-1.113,10.424-8.036,19.01-9.601,28.8c-0.505,3.163-0.326,7.382-1.92,7.92
		c-1.935,0.653-5.532-1.642-7.199-1.681c-16.276-0.369-26.742,5.723-36,14.16C14.485,52.726,13.395,54.835,11.28,55.92z
		 M23.761,52.56c7.394,1.196,13.661,8.432,17.52,12.961c-3.333,2.1-4.496-2.996-6.721-4.561c-1.867-1.313-8.044-4.252-10.56-4.8
		c-3.097-0.675-6.226-0.175-9.6-0.72C15.145,51.604,20.302,52.001,23.761,52.56z M13.2,57.36c10.394-0.777,19.353,2.975,23.28,8.64
		c-3.198,4.267-6.248-0.711-9.12-2.399c-4.467-2.627-9.996-1.871-15.36-3.121C12.095,59.134,12.833,58.433,13.2,57.36z M11.04,62.16
		c8.598,0.28,15.624,0.946,19.92,6.72c-1.175,0.506-2.087,1.273-3.119,1.92c-4.156-3.604-12.351-3.17-17.281-6
		C10.46,63.659,10.909,63.069,11.04,62.16z M9.841,66.72c5.277,1.682,12.169,1.751,16.08,4.801c-1.266,1.774-3.514,2.567-5.281,3.84
		c-2.545-3.135-7.171-4.189-11.76-5.28C8.995,68.755,9.789,68.108,9.841,66.72z M14.88,79.44c-2.76,3.636-5.356-0.447-8.399-1.2
		C7.21,72.929,11.968,79.49,14.88,79.44z M2.4,85.2c-0.206-0.766,0.378-0.742,0.48-1.199c0.357,0.283,1.072,0.207,0.961,0.959
		C3.274,84.954,3.134,85.374,2.4,85.2z M5.28,87.12c-0.32,0.342-1.359,0.342-1.68,0c0.305-0.574,0.783-0.977,1.68-0.959
		C5.28,86.479,5.28,86.8,5.28,87.12z M3.841,82.56c0.201-3.837,4.398-3.009,5.76-0.719C8.391,83.292,5.227,84.616,3.841,82.56z
		 M8.4,88.56c-0.673-0.127-1.248-0.352-1.92-0.479c0.435-2.047,1.397-3.563,3.12-4.32C10.372,84.735,8.606,86.995,8.4,88.56z
		 M10.08,88.56c0.878-3.121,1.722-6.277,4.8-7.199c0.531,2.631-0.08,4.35,0.24,8.4C13.166,89.634,11.784,88.937,10.08,88.56z
		 M7.681,74.399c0.004-0.955,0.229-1.689,0.72-2.159c4.509-0.579,8.529,1.383,10.8,3.84c-0.44,1.241-1.572,1.788-2.4,2.64
		C13.602,77.437,10.69,75.87,7.681,74.399z M19.681,91.2c-1.334,0.213-1.779-0.461-2.881-0.48
		c-0.516-5.715-0.731-11.029,3.36-12.959C21.609,81.535,20.358,87.073,19.681,91.2z M24,91.681c-0.519,0.344-1.745-0.209-2.64-0.24
		c2.194-5.184-1.585-14.873,3.84-17.28C24.999,78.972,26.663,87.374,24,91.681z M25.921,91.681c3.047-6.084-2.844-19.662,6-21.36
		c-1.815,7.118,0.865,16.304-3.121,21.12C27.985,91.771,26.544,91.843,25.921,91.681z M30.96,91.2
		c3.125-5.701,0.123-15.349,3.12-22.08c0.854-0.193,2.221-1.129,2.88-0.721c3.217,6.895-2.608,13.27-1.199,21.842
		C34.534,90.815,32.161,91.386,30.96,91.2z M37.681,89.761c-1.731-8.388,3.674-14.849,1.439-21.601
		c0.149-1.052,1.775-0.625,2.16-1.44c3.398,2.588,0.893,6.885,0.96,11.52c0.028,1.969,1.477,3.405,1.681,4.8
		c0.363,2.494-1.291,4.527-1.681,6.24C40.605,89.325,39.362,89.763,37.681,89.761z M65.28,66.24c-1.188,3.514-7.043,0.765-9.84,0.72
		C56.689,61.255,61.978,64.536,65.28,66.24z M57.601,55.92c2.51,0.345,0.799,3.45,0.24,4.8
		C56.921,59.938,56.833,56.941,57.601,55.92z M62.4,47.04c-0.063-0.782,0.284-1.154,0.96-1.199
		C62.919,46.119,63.486,47.406,62.4,47.04z M63.841,50.16c0.979,1.021,1.051,2.949,1.199,4.8c-1.098-0.182-1.6-0.961-2.4-1.439
		C62.887,52.247,63.539,51.379,63.841,50.16z M65.521,57.12c0,0.641,0,1.279,0,1.92c-1.688-0.232-2.613-1.227-4.32-1.439
		c-0.104-1.144,0.285-1.795,0.721-2.4C63.331,55.63,63.976,56.825,65.521,57.12z M65.28,64.32c-2.508,0.188-3.268-2.378-6-2.64
		c0.309-1.053,1.034-1.686,1.439-2.641c1.707,0.454,2.963,1.358,4.801,1.68C65.409,61.89,65.771,63.531,65.28,64.32z M61.681,51.36
		c-1.623-0.13-0.518-1.758-0.24-2.641c0.502-0.102,0.635,0.165,0.96,0.24C62.337,49.937,61.948,50.589,61.681,51.36z M60.96,52.8
		c-0.222,1.139-0.373,2.347-1.68,2.4c-0.669-0.967,0.103-2.197,0.48-2.88C60.357,52.283,60.503,52.697,60.96,52.8z M43.44,92.399
		c6.662-5.055,11.174-13.774,18.72-18.479c0.839-0.522,1.989-0.343,2.64-1.2c1.419,1.371-0.812,5.186-2.16,6.721
		c-1.999,2.277-5.254,4.17-7.92,6.721c-4.806,4.598-8.701,11.002-12.479,16.799C41.683,99.442,43.585,96.306,43.44,92.399z
		 M43.681,90.241c1.972-2.756,1.111-6.515,2.64-9.121c1.005-1.713,5.881-5.545,7.68-6.96c2.965-2.331,7.103-3.294,10.56-4.319
		c0.408-0.089,0.453,0.187,0.48,0.479c-4.092,2.987-8.196,5.778-12,9.36C49.513,83.003,47.503,87.214,43.681,90.241z M54.48,64.56
		c-0.021-2.366-1.899-6.072,1.2-6.239C55.894,60.649,56.969,63.969,54.48,64.56z M59.761,69.36c-4.473,2.328-8.31,5.29-12,8.4
		C50.254,72.839,52.48,66.265,59.761,69.36z M49.921,70.08c-0.875-4.181-2.182-8.466,2.639-9.12
		C52.843,65.243,53.653,69.048,49.921,70.08z M49.2,72c-2.272,2.209-2.676,6.284-4.8,8.64c-1.485-2.16,0.468-4.402,0.479-8.16
		c0.016-4.654-3.447-7.531,2.16-8.159C48.438,66.202,47.431,70.489,49.2,72z M43.681,104.161c4.329-7.016,8.197-13.25,14.64-18.961
		c2.837-2.516,6.398-4.904,7.44-7.92c0.369,8.772-8.488,12.668-12.48,19.199c-3.506,5.736-7.532,9.713-10.32,15.121
		C40.688,108.489,42.351,106.315,43.681,104.161z M46.8,118.318c-6.121-2.264-0.004-10.194,2.881-14.157
		c2.402-3.305,4.146-6.316,6.72-9.842c3.182-4.355,8.259-6.486,10.319-11.039c1.076,0.444,0.66,2.379,1.201,3.359
		c-3.879,7.973-11.896,12.592-16.08,20.4C49.935,110.597,49.44,114.785,46.8,118.318z M72,59.04c-1.206,1.001-2.541,0.395-4.56,0.48
		C66.365,55.964,71.706,56.121,72,59.04z M68.88,51.601c0.703-0.063,0.738,0.542,1.44,0.479c0,0.479,0,0.96,0,1.44
		C69.586,53.135,69.011,52.589,68.88,51.601z M80.64,56.399c0.789,0.252,1.966,0.115,2.641,0.481
		c1.537,5.056,0.879,9.896,1.68,15.12c-1.461-2.061-5.035-2.657-5.52-5.28C78.945,64.043,81.388,60.323,80.64,56.399z M89.04,74.399
		c-4.969-3.143-1.172-12.229-4.08-17.279C93.477,56.659,86.714,69.294,89.04,74.399z M89.761,76.8
		c2.055,1.641,2.549,5.297,4.319,6.721c-2.483,0.783-3.789-1.73-5.521-2.881c-2.221-1.475-5.53-2.595-8.639-4.08
		c-4.758-2.271-7.516-4.734-12.961-5.52c0-0.72,0-1.439,0-2.16c3.08,1.598,7.992,1.35,11.04,2.641c2.089,0.884,3.091,2.127,6,3.119
		C85.597,75.185,89.024,76.212,89.761,76.8z M94.56,80.399c-6.029-3.889-3.576-13.747-3.359-21.6c1.448,0.072,2.489,0.551,3.6,0.961
		C95.21,66.518,94.304,73.724,94.56,80.399z M82.32,72.24c-3.247-2.833-11.388-2.852-15.36-5.761
		c3.601-1.365,6.896-0.695,10.32,0.24C78.448,69.072,80.495,70.545,82.32,72.24z M78.24,63.841c-1.519-1.602-2.761-3.481-4.08-5.281
		c0.508-1.092,1.138-2.063,1.2-3.6c1.395,0.046,2.264,0.616,3.359,0.96C78.737,59.583,79.042,60.978,78.24,63.841z M76.32,64.56
		c-2.021-0.531-5.364-0.91-9.12,0c0-1.039,0-2.08,0-3.119c2.283-0.527,5.102-0.209,6.24-0.721
		C74.78,61.62,75.325,63.315,76.32,64.56z M73.2,56.88c-2.293-0.33-1.812-4.871,0.721-3.119C74.017,55.136,73.452,55.853,73.2,56.88
		z M67.44,55.681c-0.758-0.684-0.838-2.043-0.96-3.36c0.905,0.774,1.887,1.474,2.159,2.88C68.044,55.164,67.644,55.324,67.44,55.681
		z M51.601,111.601c3.563-9.129,11.929-15.047,16.32-21.84c4.49,9.061-7.364,11.863-11.041,17.76
		c-3.244,5.204-3.278,10.493-7.199,14.878C45.929,120.75,50.202,115.18,51.601,111.601z M54.24,117.359
		c1.459-2.924,2.41-6.448,4.08-9.12c2.753-4.402,8.864-6.258,11.04-10.559c2.527,1.549-0.727,2.984-1.92,4.32
		c-5.579,6.232-11.436,17.026-16.32,23.999C50.114,122.961,52.874,120.098,54.24,117.359z M53.28,126.238
		c1.383-5.252,8.238-13.412,12.48-18.718c1.723-2.157,2.451-4.865,4.56-5.76c0.16,0,0.319,0,0.479,0
		c2.25,14.616-13.479,16.929-15.84,29.278C53.35,129.984,52.569,128.938,53.28,126.238z M62.4,121.439
		c4.134-4.469,7.726-6.936,9.6-11.999c0.388-0.068,0.413,0.227,0.72,0.24c-3.41,9.632-11.241,15.702-14.879,25.198
		C53.979,132.129,60.11,123.914,62.4,121.439z M59.04,137.039c3.244-9.236,9.152-15.807,14.16-23.279
		c3.168,9.84-9.941,16.223-11.76,25.439C60.292,138.826,60.091,137.508,59.04,137.039z M65.521,142.559
		c-0.99,0.125-2.576-1.678-2.641-2.398c-0.132-1.479,2.512-5.967,3.601-7.682c2.07-3.26,5.678-7.156,7.68-10.559
		c0.279-0.039,0.427,0.053,0.479,0.24c0.523,4.053-2.582,6.826-4.56,11.279C69.058,135.742,67.56,142.303,65.521,142.559z
		 M66.72,144c3.492-5.068,5.166-11.955,8.641-17.041c4.235,7.744-3.975,12.752-6,18.721C68.216,145.383,67.546,144.613,66.72,144z
		 M77.521,134.398c2.663,3.6-0.576,11.68-3.12,14.641C65.753,147.021,77.003,138.875,77.521,134.398z M79.681,139.92
		c2.621,3.758-0.197,8.412-1.681,11.52C73.081,150.094,80.829,144.404,79.681,139.92z M81.12,148.559
		c0.659,2.416,2.065,4.699,1.92,7.201C79.69,154.4,78.866,151.684,81.12,148.559z M84.48,153.359
		c-0.138-1.943-1.379-2.781-1.2-5.041c1.479,0.521,1.41,2.59,2.4,3.602C85.526,152.645,85.306,153.305,84.48,153.359z
		 M86.88,150.479c-1.057-3.271-5.709-4.197-4.32-9.119c1.703,2.297,4.007,3.994,6.48,5.52
		C88.651,148.41,87.479,149.158,86.88,150.479z M90,145.439c-4.725-2.875-8.993-6.207-10.56-12.24c3.32,0.41,5.877,3.979,8.16,6
		C89.933,141.264,93.142,142.691,90,145.439z M92.64,141.119c-2.984-2.127-5.471-5.285-8.879-7.439
		c-2.883-1.822-6.278-2.189-6.24-6.48C82.169,129.645,98.142,133.758,92.64,141.119z M95.28,135.119
		c-5.41-4.189-11.697-7.504-18.48-10.32c0.03-0.99-0.416-1.502-0.24-2.639c5.322,2.484,13.081,4.584,17.281,8.158
		C95.058,131.355,96.247,133.219,95.28,135.119z M96.72,130.799c-2.631-2.475-6.334-3.988-10.08-6
		c-5.061-2.715-11.707-2.555-11.039-10.561c7.492,4.348,17.096,6.584,23.039,12.48C98.347,128.426,97.367,129.445,96.72,130.799z
		 M99.601,124.799c-4.92-3.67-13.088-7.088-18.961-10.32c-2.201-1.211-6.184-1.984-6.239-5.038
		c10.065,2.974,19.184,6.896,26.88,12.239C100.957,122.955,100.211,123.811,99.601,124.799z M102.24,120
		c-3.993-0.717-6.045-4.588-10.56-6.24c-1.81-0.662-3.846-0.85-5.76-1.679c-1.73-0.752-3.224-1.945-4.801-2.641
		c-3.478-1.535-9.165-0.877-8.4-6.48c5.258,4.385,14.382,3.221,20.4,7.201c3.664,2.421,6.098,5.999,10.32,7.679
		C103.38,118.898,102.465,119.104,102.24,120z M104.4,116.16c-5.433-1.393-8.065-6.974-14.16-9.36
		c-4.001-1.567-8.944-1.262-12.96-2.879c-1.602-0.646-5.662-3.377-5.52-5.521c7.327,3.91,19.119,3.879,25.92,8.881
		c2.73,2.008,4.799,4.301,7.68,6.48C105.116,114.635,104.765,115.404,104.4,116.16z M105.841,111.601
		c-4.822-2.482-7.729-7.928-14.881-9.6c-5.946-1.391-13.563-2.043-18-4.801c-2.168-1.348-2.328-4.75-3.119-7.68
		c0.193-0.045,0.238-0.24,0.479-0.24c4.591,0.076,8.642,4.557,13.44,5.76c2.703,0.678,6.629,0.281,9.119,1.68
		c2.051,1.152,4.553,3.049,6.721,4.561C103.11,103.728,106.858,106.915,105.841,111.601z M106.56,104.88
		c-4.706-2.209-9.002-9-15.6-10.799c-2.063-0.564-4.484,0.078-6.72-0.48c-2.331-0.584-4.546-2.721-7.2-3.84
		c-4.299-1.814-8.887-1.939-8.64-7.92c4.907,2.77,11.503,2.623,17.04,4.799c2.531,0.994,4.901,3.342,7.68,4.561
		C100.038,94.233,106.364,95.669,106.56,104.88z M100.56,91.921c-5.764-0.096-10.066-5.283-14.879-6.961
		c-6.395-2.228-13.057-1.783-18-6c-0.105-2.056-0.674-3.646-0.721-5.76c5.045,0.355,7.917,2.336,12.24,4.32
		c3.222,1.479,6.634,3.307,8.641,4.56c1.828,1.142,2.593,2.983,4.319,3.36c1.074,0.234,2.167-0.551,3.12-0.24
		C97.784,86.017,98.724,90.483,100.56,91.921z M96.48,82.56c-1.151-7.258,0.896-16.066,0-23.039c1.231-0.191,1.574,0.505,2.64,0.479
		c-0.309,7.97-1.018,14.757,0.721,22.32C98.634,82.831,97.931,82.571,96.48,82.56z M105.841,82.56
		c-1.742-0.109-2.736,0.057-4.32-0.479c-1.326-7.219-1.67-14.122-0.24-21.36c5.055-0.235,3.271,5.613,3.12,9.36
		C104.206,74.855,106.315,79.642,105.841,82.56z M113.04,83.04c-1.182,0.344-2.721-0.498-4.56-0.24
		c-2.54-5.094-1.853-13.336-1.921-19.68c3.259-0.08,2.17,5.154,2.881,8.4C110.254,75.231,113.354,79.644,113.04,83.04z
		 M118.08,83.28c-0.58,0.46-1.929,0.151-2.88,0.24c-1.525-6.736-4.652-11.672-4.8-19.2c1.362-0.163,1.968,0.432,3.12,0.479
		C114.349,71.501,118.966,75.663,118.08,83.28z M123.841,82.32c-1.051,0.37-2.831,1.086-3.84,0.72
		c0.646-6.393-3.542-11.713-4.561-18c1.455,0.064,2.656,0.383,3.84,0.721C120.286,71.545,125.632,75.312,123.841,82.32z
		 M126.24,81.36c-0.042-6.599-3.429-9.852-4.8-15.12c0.822-0.524,2.153,0.148,3.119,0.239
		C124.968,70.712,132.819,78.858,126.24,81.36z M130.56,78.96c0.215-5.174-2.914-7.006-3.6-11.279
		C132.284,67.623,135.139,76.22,130.56,78.96z M135.36,73.92c0.37-2.69-1.748-2.892-2.16-4.8
		C135.394,68.905,137.011,72.638,135.36,73.92z M137.761,71.521c-0.285-0.596-0.348-1.413-0.48-2.16
		c0.751,0.049,1.762-0.162,2.16,0.24C138.989,70.349,138.829,71.388,137.761,71.521z M138.72,67.681
		c-0.779-0.14-1.116,0.163-1.68,0.239C136.813,66.928,138.821,66.448,138.72,67.681z M137.04,65.761
		c-1.523,0.475-2.271,1.729-4.32,1.68C133.418,66.005,135.856,63.872,137.04,65.761z M134.4,63.12
		c0.335,1.893-4.929,4.795-7.2,2.641C128.376,64.855,133.854,60.037,134.4,63.12z M131.52,60.24
		c-1.703,2.332-5.215,5.024-8.641,4.08C125.011,62.38,128.712,56.317,131.52,60.24z M126.48,54.72
		c1.109,0.49,1.807,1.394,2.159,2.641c-4.956,1.255-5.381,8.322-12.239,6.24C118.075,59.909,123.231,57.636,126.48,54.72z
		 M125.521,52.8c0.054,2.541-5.277,4.081-7.2,5.76c-2.297,2.007-3.022,4.988-6.479,4.32c2.02-4.405,6.928-9.963,10.56-12.24
		C123.276,50.091,125.491,51.415,125.521,52.8z M121.681,48.479c-1.48,2.477-3.42,2.893-5.76,5.281
		c-3.307,3.373-4.434,10.459-8.881,7.68c2.982-4.191,6.691-12.049,11.04-14.881C119.088,45.904,120.571,48.276,121.681,48.479z
		 M116.88,44.88c-3.471,2.869-6.043,7.178-8.399,11.76c-1.168,2.271-3.495,5.01-6,2.4c4.784-4.495,6.763-11.797,11.28-16.561
		C115.202,42.877,115.777,44.144,116.88,44.88z M112.56,40.8c-3.305,3.38-5.989,11.376-9.359,15.36
		c-2.918,3.45-6.553,1.14-10.561,1.2c2.03-1.471,3.641-1.564,5.521-2.881c4.96-3.471,6.597-11.66,10.08-14.639
		C109.937,38.389,111.45,38.923,112.56,40.8z M108.24,37.44c-6.192,6.352-8.671,20.041-20.64,18.24
		c5.101-2.072,6.342-7.717,9.6-12.721C99.604,39.269,103.829,34.662,108.24,37.44z M102.24,35.761
		c-8.373,4.988-8.288,19.708-21.84,18.719c1.668-2.096,3.741-2.359,5.76-4.319C91.622,44.856,92.368,32.781,102.24,35.761z
		 M95.04,34.8c-3.905,2.35-5.97,9.496-9.6,13.68c-2.27,2.615-7.846,6.695-11.04,3.601C83.15,48.349,83.168,34.609,95.04,34.8z
		 M79.44,45.601c-2.129,2.861-6.476,7.047-10.08,4.319c7.018-3.702,7.537-13.901,17.52-14.64
		C84.954,37.894,82.164,41.937,79.44,45.601z M79.681,35.521c-1.59,1.819-3.816,5.926-6.24,8.64
		c-1.553,1.736-6.225,6.485-6.96,1.681C72.897,44.417,71.776,35.456,79.681,35.521z M71.761,37.681
		c0.531,2.121-5.236,9.66-7.201,4.799C67.241,41.161,69.074,38.994,71.761,37.681z M62.4,31.2c1.217-9.246,7.462-17.55,9.36-25.92
		C72.189,3.388,71.731,1.436,72.72,0c0.937,0.344,1.715,0.846,2.4,1.44c-0.975,2.578-1.443,5.182-2.16,7.92
		c-1.456,5.56-4.626,11.076-5.52,16.8c-0.924,5.914,2.164,14.879-5.28,15.36C60.779,38.907,61.919,34.853,62.4,31.2z M59.761,40.08
		c0.297,1.542,1.225,2.455,2.16,3.36c-0.013,1.348-0.671,2.049-1.201,2.88c-2.295-2.024-3.219-5.421-5.76-7.2
		C56.608,39.393,58.007,39.913,59.761,40.08z M60,48.24c-0.211,1.284-0.884,1.851-1.92,1.92c-3.87,0.259-6.94-11.631-13.2-11.28
		C53.379,36.188,56.354,43.839,60,48.24z M48.96,42.72c3.517,3.098,4.76,8.813,9.36,8.881c-0.016,1.104-0.683,1.558-0.96,2.399
		c-8.891-2.71-12.117-11.083-20.4-14.399C40.884,38.454,46.319,40.396,48.96,42.72z M55.44,55.681
		c-3.031,6.373-6.417-1.194-9.12-4.08C42.146,47.143,33.845,45.467,30,42C40.97,37.363,46.983,52.778,55.44,55.681z M39.601,48.96
		c5.584,2.766,6.956,7.282,11.039,10.801c-4.309,4.831-9.21-5.215-12.959-7.681c-1.46-0.96-3.377-1.504-4.801-2.16
		c-3.334-1.536-4.779-3.062-8.64-4.079C28.132,41.298,34.626,46.496,39.601,48.96z M31.921,51.36
		c5.693,2.803,11.363,6.847,13.92,11.76c-3.594,3.669-6.061-2.504-8.641-4.8c-4.33-3.854-11.261-7.989-18.96-7.44
		C20.916,44.108,27.341,49.106,31.921,51.36z"/>
</g>
</svg>
