<?xml version="1.0" encoding="iso-8859-1"?>
<!-- Generator: Adobe Illustrator 19.2.0, SVG Export Plug-In . SVG Version: 6.00 Build 0)  -->
<svg version="1.1" id="&#x421;&#x43B;&#x43E;&#x439;_1"
	 xmlns="http://www.w3.org/2000/svg" xmlns:xlink="http://www.w3.org/1999/xlink" x="0px" y="0px" viewBox="0 0 95.125 156.316"
	 style="enable-background:new 0 0 95.125 156.316;" xml:space="preserve">
<path style="fill:#B8C49C;" d="M45.84,47.033c5.726-0.318,11.873,0.387,16.561,0.719c0.945-1.934,1.865-3.893,2.4-6.239
	c-3.236-1.289-8.86-0.527-12.961-0.72c-4.953-0.233-14.441-1.076-19.199,0.479c-1.636,0.534-9.227,5.729-8.881,7.441
	c0.186,0.916,3.723,1.988,5.041,1.92C33.609,50.382,39.351,47.392,45.84,47.033z"/>
<path style="fill:#B8C49C;" d="M52.08,75.831c-3.283,8.483-6.343,16.11-10.561,23.28c-2.139,3.638-4.104,7.267-6.239,10.8
	c-2.123,3.514-5.593,6.502-6.24,10.801c11.408-12.511,17.509-29.203,26.64-44.641c2.275-3.845,3.184-8.211,5.041-12.24
	c1.724-3.74,4.15-7.209,5.76-11.039c2.621-6.242,3.846-12.655,6.72-18.721c2.863-6.042,3.938-12.68,6.96-18.48
	c2.45-4.701,8.557-7.125,9.36-12.959c-0.982-0.164-1.343,0.208-1.681,0.48c-7.282,5.856-10.21,14.04-14.399,23.521
	c-2.525,5.714-4.671,11.426-6.72,16.8C62.574,54.304,56.322,64.875,52.08,75.831z"/>
<path style="fill:#B8C49C;" d="M29.28,92.152c2.259-0.811,4.329-1.936,6.72-2.64c5.17-1.524,9.785-1.581,10.08-6.96
	c-14.799,1.2-26.212,5.787-35.279,12.72C16.83,98.009,23.172,94.343,29.28,92.152z"/>
<path style="fill:#B8C49C;" d="M54.24,64.552c-7.831-0.228-14.678,3.615-22.08,6c-6.283,2.023-11.923,5.175-16.8,7.92
	c2.757,2.547,5.781,0.697,9.6-0.48c9.31-2.869,19.09-5.9,27.36-7.68C52.804,68.371,54.617,66.563,54.24,64.552z"/>
<path style="fill:#B8C49C;" d="M47.04,37.912c6.521-0.494,14.013,2.225,19.2,0.721c0.057-0.982,0.729-1.352,0.721-2.4
	c-3.4-1.529-6.766-4.268-10.801-4.561c-4.466-0.322-8.666,0.646-13.199-0.479c-3.488-0.864-8.03,2.7-9.841,3.841
	C35.551,40.048,41.191,38.356,47.04,37.912z"/>
<path style="fill:#B8C49C;" d="M45.12,30.232c3.661,1.685,8.394-0.66,12.96,0c4.238,0.613,6.217,3.51,9.84,3.84
	c0.295-1.945,1.292-3.188,1.68-5.039c-7.959-3.144-19.238-8.254-29.76-3.841C41.268,27.021,43.035,29.273,45.12,30.232z"/>
<path style="fill:#B8C49C;" d="M79.2,39.831c1.209,2.201,1.464,3.967,2.64,5.521c2.259,2.983,5.738,1.775,9.84,2.16
	c-3.076-6.763-11.012-8.667-14.879-14.64C74.574,35.751,77.686,37.075,79.2,39.831z"/>
<path style="fill:#B8C49C;" d="M84.721,54.953c-3.623-5.211-5.008-11.965-9.121-17.041c-0.239,0-0.479,0-0.719,0
	c-0.021,1.563-2.457,3.297-2.16,5.28c0.111,0.748,1.808,2.064,2.399,2.88c3.199,4.41,5.362,12.961,8.88,16.561
	c3.316,0.043,5.646,1.073,8.16,1.92C91.373,60.156,87.081,58.348,84.721,54.953z"/>
<path style="fill:#B8C49C;" d="M83.04,63.831c-0.336-1.013-2.12-2.154-2.88-3.359c-3.01-4.773-3.924-12.938-8.16-14.881
	c0.1,1.535-2.391,3.697-2.16,5.521c0.197,1.558,4.172,4.216,5.28,6.479c4.096,8.371,3.841,20.142,8.88,26.4
	c1.328-4.59,0.607-8.021-0.24-12.72C83.314,68.799,83.68,65.76,83.04,63.831z"/>
<path style="fill:#B8C49C;" d="M46.801,50.872c4.46-0.095,12.654,3.288,14.64-0.961c-15.651-3.616-35.438-1.308-41.04,9.601
	c4.816-3.021,13.131-6.148,20.4-7.681C42.74,51.423,44.977,50.911,46.801,50.872z"/>
<path style="fill:#B8C49C;" d="M68.641,53.272c-0.105,2.019-3.365,4.571-3.121,6.96c0.098,0.947,2.777,3.951,3.841,5.28
	c1.467,1.833,2.854,3.193,3.84,5.28c2.405,5.09,3.851,12.045,8.16,12.959C76.787,74.884,77.434,58.72,68.641,53.272z"/>
<path style="fill:#B8C49C;" d="M59.76,73.192c3.953,2.883,3.336,8.003,4.801,13.44c1.446,5.369,4.211,9.757,4.8,15.6
	c3.099,0.502,4.138,3.063,6.72,4.08c-3.926-13.274-7.43-26.971-14.88-36.721C60.641,70.712,60.102,71.853,59.76,73.192z"/>
<path style="fill:#B8C49C;" d="M63.36,87.831c-1.846-5.803-1.507-11.192-4.559-12.72c-4.791,3.921-0.041,7.898,1.68,12.479
	c0.819,2.183,1.086,5.584,1.68,8.881c1.139,6.328,1.77,10.844,2.16,17.76c0.9-3.507,3.671-7.383,3.6-11.279
	c-0.021-1.167-1.33-3.651-1.68-5.521C65.471,93.312,64.506,91.434,63.36,87.831z"/>
<path style="fill:#B8C49C;" d="M67.44,75.591c2.065,3.559,2.724,8.494,4.56,13.441c2.401,6.468,5.052,11.163,6,17.52
	c3.304-17.973-4.852-33.504-13.68-43.2C60.683,67.925,65.234,71.792,67.44,75.591z"/>
<path style="fill:#B8C49C;" d="M54.961,93.352c0.645,1.615,1.895,3.004,2.399,4.319c2.612,6.818-0.788,16.506,5.28,19.681
	c-0.566-13.825-0.754-27.173-7.92-35.761C51.328,84.915,53.004,88.453,54.961,93.352z"/>
<path style="fill:#B8C49C;" d="M32.641,107.512c1.562-2.758,2.814-5.825,4.56-8.4c-12.972,0.313-21.956,6.681-29.28,13.44
	c4.015,0.855,6.469-1.569,9.6-2.16C22.638,109.426,28.474,109.869,32.641,107.512z"/>
<path style="fill:#B8C49C;" d="M26.16,116.152c-9.486-0.686-14.65,2.949-17.52,8.881c3.938-0.328,6.695-2.386,9.359-3.601
	C21.758,119.719,25.406,119.853,26.16,116.152z"/>
<path style="fill:#B8C49C;" d="M27.6,114.472c0.55-1.09,2.763-2.945,2.16-3.6c-7.903,1.936-19.449,0.23-20.16,9.359
	C13.516,116.228,19.101,113.892,27.6,114.472z"/>
<path style="fill:#B8C49C;" d="M19.68,126.712c-1.78,1.419-5.449,0.95-5.52,4.08C17.77,131.36,19.988,129.263,19.68,126.712z"/>
<path style="fill:#B8C49C;" d="M12.96,137.033c2.708-0.253,3.148-2.773,4.08-4.801c-0.689-0.279-2.694,0.18-3.6,0.48
	C13.146,134.017,12.859,135.331,12.96,137.033z"/>
<path style="fill:#B8C49C;" d="M29.76,61.432c2.315-1.024,5.225-1.759,7.44-2.399c5.627-1.631,11.62-3.404,17.28-3.601
	c1.896-0.065,3.977,1.176,4.8-1.44c-16.978-3.107-33.128,2.135-42.24,10.56C21.527,67.394,24.969,63.552,29.76,61.432z"/>
<path style="fill:#B8C49C;" d="M22.801,121.671c-2.904,0.378-7.142,1.499-7.441,5.281C18.405,125.757,21.892,125.003,22.801,121.671
	z"/>
<path style="fill:#B8C49C;" d="M39.12,66.712c5.231-2.326,9.825-4.309,16.32-4.08c0.74-1.82,1.681-3.439,2.159-5.521
	c-11.723-0.606-22.637,3.563-30.719,7.44c-2.774,1.33-5.955,2.031-7.681,3.359c-3.063,2.357-5.138,6.169-6.72,9.601
	c4.99-0.791,9.018-4.866,14.16-6.72C30.451,69.417,34.965,68.56,39.12,66.712z"/>
<path style="fill:#B8C49C;" d="M41.76,89.751c-10.674,1.807-17.35,7.609-28.8,8.641c-2.271,4.607-5.612,8.146-7.44,13.199
	c8.796-7.523,19.184-13.457,33.361-15.6C39.645,94.019,42.513,91.648,41.76,89.751z"/>
<path style="fill:#B8C49C;" d="M48.721,78.953c0.91-2.05,2.445-3.475,2.399-6.48c-9.8,1.707-21.614,5.774-30.72,8.64
	c-1.047,0.329-2.583-0.114-3.6,0.24c-4.029,1.405-5.125,7.914-7.441,11.04c7.316-3.956,16.964-8.141,27.12-10.801
	C40.721,80.482,44.346,78.824,48.721,78.953z"/>
<path style="fill:#B8C49C;" d="M37.92,112.072c-0.297,2.567,1.658,7.17,1.44,11.04c-0.132,2.339-0.776,3.747-0.479,5.521
	c1.74-2.419,3.195-5.125,5.52-6.961c-0.18-5.74,0.099-11.938-1.68-16.08C41.758,108.014,38.275,109.002,37.92,112.072z"/>
<path style="fill:#B8C49C;" d="M27.12,126.953c-0.245,1.831,1.741,3.721,1.2,6.48c3.981-1.724,5.42-7.816,2.16-11.521
	C30.037,124.142,27.395,124.912,27.12,126.953z"/>
<path style="fill:#B8C49C;" d="M50.881,88.552c-5.329,9.139,4.117,22.111,0.239,34.08c2.862-1.66,3.305-6.664,5.04-9.36
	c0.404-0.628,1.041-0.45,1.2-1.2c0.253-1.195-0.427-3.359-0.479-4.8C56.653,101.138,54.352,92.669,50.881,88.552z"/>
<path style="fill:#B8C49C;" d="M32.16,119.992c-0.074,0.748,1.173,2.641,1.44,3.84c0.935,4.194,0.32,7.422,2.881,8.881
	c0.658-6.302,2.826-13.607-0.48-18.48C35.805,116.48,32.41,117.455,32.16,119.992z"/>
<path style="fill:#B8C49C;" d="M43.92,102.953c3.924,6.092-0.986,19.859,4.801,23.76c2.267-9.719,1.787-21.609-1.92-29.28
	C46.082,99.515,45.127,101.359,43.92,102.953z"/>
<path style="fill:#B8C49C;" d="M19.2,143.512c3.351-1.249,3.624-5.529,1.44-8.4C17.807,136.209,16.922,141.074,19.2,143.512z"/>
<path style="fill:#B8C49C;" d="M14.641,143.512c0.305,0.974,0.834,1.726,0.959,2.88c0.959-0.241,1.379-1.022,2.16-1.439
	c-0.729-1.191-0.634-3.207-1.68-4.08C15.57,141.722,15.285,142.797,14.641,143.512z"/>
<path style="fill:#B8C49C;" d="M13.2,145.671c-0.707,1.373-1.728,2.433-2.16,4.08c1.259-0.58,2.217-1.463,3.12-2.399
	C13.585,147.046,14.244,145.508,13.2,145.671z"/>
<path style="fill:#B8C49C;" d="M13.92,138.472c-1.396,0.127-1.986,2.326-1.68,3.359C12.896,140.808,13.521,139.753,13.92,138.472z"
	/>
<path style="fill:#B8C49C;" d="M23.76,138.712c3.401-0.79,3.662-7.619,1.44-10.08C21.512,131.802,21.289,134.33,23.76,138.712z"/>
<path style="fill:#64764B;" d="M5.519,155.751c2.237,2.131,3.82-2.35,5.521-3.84c6.061-5.309,14.98-10.264,19.2-15.84
	c0.897-1.186,2.058-4.421,3.12-4.32c1.427,0.137,1.759,5.941,3.601,5.521c0.416-0.095,2.866-5.511,3.359-6.239
	c1.652-2.444,2.505-4.738,4.32-5.521c1.847,0.854,2.08,5.544,4.08,5.521c1.046-0.014,1.248-1.754,1.68-2.4
	c2.061-3.09,6.063-9.252,6.96-12.721c2.546,0.363,2.808,5.604,5.28,5.28c1.055-0.138,1.123-1.941,1.68-3.12
	c0.566-1.201,1.856-3.614,3.12-6.24c0.766-1.592,2.259-5.773,3.36-6c2.489-0.512,5.516,5.248,7.92,5.28
	c3.299-6.595,2.129-17.378,0.72-24.239c2.468,0.125,3.591,2.49,5.76,2.16c1.876-7.055,2.009-16.098,0.479-23.521
	c3.502-0.213,6.236,1.964,9.121,3.12c1.809-7.709-4.398-13.479-7.681-18.48c2.298-1.282,6.709,1.661,7.44-1.199
	c0.541-2.121-3.422-7.289-4.801-8.641c-3.529-3.459-11.142-6.438-11.52-12c-0.209-3.082,2.315-7.15,3.6-10.08
	c1.314-2.998,3.725-6.297,5.521-8.4c1.628-1.906,4.813-3.123,5.04-5.039c0.171-1.447-2.277-5.844-4.32-4.561
	c-8.245,5.176-13.031,16.639-17.519,25.92c-8.213-0.85-19.268-8.605-29.521-4.8c-1.814,0.673-6.185,3.153-6.239,4.56
	c-0.094,2.388,3.276,2.072,4.559,3.601c-2.095,0.591-6.458,2.175-8.64,3.84c-4.108,3.135-0.08,3.601,2.399,5.76
	c-5.722,2.198-10.124,5.716-12.72,11.04c1.141,0.859,3.734,0.266,4.32,1.68c-4.109,3.812-8.318,7.521-10.561,13.201
	c0.731,0.947,2.207,1.152,3.12,1.92c-3.563,3.076-6.443,6.836-7.44,12.479c0.617,0.983,2.436,0.765,3.36,1.44
	c-3.974,4.105-5.127,11.033-7.92,16.319c0.739,1.421,4.263,0.058,5.28,1.2c-2.695,6.424-7.384,10.856-10.561,16.8
	c2.859,0.765,6.635-1.49,9.6-0.239c-0.936,2.553-6.286,13.879-1.68,13.92c1.983,0.018,2.039-2.888,4.801-2.641
	C10.798,136.55,8.766,146.757,5.519,155.751"/>
<path style="fill:#B9C49C;" d="M91.68,47.512c-4.102-0.385-7.581,0.823-9.84-2.16c-1.176-1.554-1.431-3.319-2.64-5.521
	c-1.515-2.757-4.626-4.08-2.399-6.959C80.668,38.845,88.604,40.749,91.68,47.512z"/>
<path style="fill:#B9C49C;" d="M73.44,26.632c4.189-9.48,7.117-17.664,14.399-23.521c0.338-0.271,0.699-0.644,1.681-0.48
	c-0.804,5.834-6.91,8.258-9.36,12.959c-3.021,5.801-4.097,12.439-6.96,18.48c-2.874,6.065-4.099,12.479-6.72,18.721
	c-1.609,3.83-4.036,7.299-5.76,11.039c-1.857,4.029-2.766,8.396-5.041,12.24c-9.131,15.438-15.231,32.13-26.64,44.641
	c0.647-4.299,4.117-7.287,6.24-10.801c2.136-3.533,4.101-7.162,6.239-10.8c4.218-7.17,7.277-14.797,10.561-23.28
	c4.242-10.956,10.494-21.527,14.641-32.399C68.77,38.058,70.915,32.346,73.44,26.632z"/>
<path style="fill:#B9C49C;" d="M36,89.512c-2.391,0.704-4.461,1.829-6.72,2.64c-6.108,2.191-12.45,5.857-18.479,3.12
	c9.067-6.933,20.48-11.52,35.279-12.72C45.785,87.931,41.17,87.988,36,89.512z"/>
<path style="fill:#B9C49C;" d="M24.96,77.992c-3.818,1.178-6.843,3.027-9.6,0.48c4.877-2.745,10.517-5.896,16.8-7.92
	c7.402-2.385,14.249-6.228,22.08-6c0.377,2.011-1.437,3.818-1.92,5.76C44.05,72.091,34.27,75.122,24.96,77.992z"/>
<path style="fill:#B9C49C;" d="M69.6,29.033c-0.388,1.851-1.385,3.094-1.68,5.039c-3.623-0.33-5.602-3.227-9.84-3.84
	c-4.566-0.66-9.299,1.685-12.96,0c-2.085-0.959-3.853-3.211-5.28-5.04C50.361,20.779,61.641,25.888,69.6,29.033z"/>
<path style="fill:#B9C49C;" d="M42.961,31.192c4.533,1.125,8.733,0.157,13.199,0.479c4.035,0.293,7.4,3.031,10.801,4.561
	c0.008,1.049-0.664,1.418-0.721,2.4c-5.187,1.504-12.68-1.215-19.2-0.721c-5.849,0.444-11.489,2.137-13.92-2.879
	C34.931,33.892,39.473,30.328,42.961,31.192z"/>
<path style="fill:#B9C49C;" d="M23.76,48.712c-0.346-1.711,7.245-6.906,8.881-7.441c4.758-1.556,14.246-0.713,19.199-0.479
	c4.101,0.192,9.725-0.569,12.961,0.72c-0.535,2.346-1.455,4.306-2.4,6.239c-4.688-0.332-10.835-1.037-16.561-0.719
	c-6.489,0.359-12.231,3.35-17.039,3.6C27.482,50.701,23.945,49.628,23.76,48.712z"/>
<path style="fill:#B9C49C;" d="M61.44,49.912c-1.985,4.249-10.18,0.866-14.64,0.961c-1.824,0.038-4.061,0.551-6,0.959
	c-7.27,1.533-15.584,4.66-20.4,7.681C26.002,48.604,45.789,46.295,61.44,49.912z"/>
<path style="fill:#B9C49C;" d="M17.04,64.552c9.112-8.426,25.263-13.667,42.24-10.56c-0.823,2.616-2.903,1.375-4.8,1.44
	c-5.66,0.196-11.653,1.97-17.28,3.601c-2.216,0.641-5.125,1.375-7.44,2.399C24.969,63.552,21.527,67.394,17.04,64.552z"/>
<path style="fill:#B9C49C;" d="M12.48,77.512c1.582-3.432,3.656-7.243,6.72-9.601c1.726-1.328,4.906-2.029,7.681-3.359
	c8.082-3.878,18.996-8.047,30.719-7.44c-0.479,2.081-1.419,3.7-2.159,5.521c-6.495-0.229-11.09,1.754-16.32,4.08
	c-4.155,1.848-8.669,2.705-12.479,4.08C21.498,72.646,17.471,76.721,12.48,77.512z"/>
<path style="fill:#B9C49C;" d="M9.36,92.392c2.316-3.126,3.411-9.635,7.441-11.04c1.017-0.354,2.553,0.089,3.6-0.24
	c9.105-2.866,20.92-6.933,30.72-8.64c0.046,3.006-1.489,4.431-2.399,6.48c-4.375-0.129-8,1.529-12.24,2.639
	C26.324,84.251,16.676,88.436,9.36,92.392z"/>
<path style="fill:#B9C49C;" d="M5.519,111.591c1.828-5.053,5.169-8.592,7.44-13.199c11.45-1.031,18.126-6.834,28.8-8.641
	c0.753,1.896-2.115,4.268-2.879,6.24C24.703,98.134,14.315,104.068,5.519,111.591z"/>
<path style="fill:#B9C49C;" d="M7.92,112.552c7.324-6.76,16.309-13.127,29.28-13.44c-1.745,2.575-2.998,5.643-4.56,8.4
	c-4.167,2.356-10.003,1.914-15.121,2.88C14.389,110.983,11.934,113.408,7.92,112.552z"/>
<path style="fill:#B9C49C;" d="M29.76,110.872c0.603,0.654-1.61,2.51-2.16,3.6c-8.499-0.58-14.084,1.756-18,5.76
	C10.311,111.103,21.856,112.808,29.76,110.872z"/>
<path style="fill:#B9C49C;" d="M8.641,125.033c2.869-5.932,8.033-9.566,17.52-8.881c-0.754,3.701-4.402,3.567-8.16,5.28
	C15.336,122.647,12.578,124.705,8.641,125.033z"/>
<path style="fill:#B9C49C;" d="M14.16,130.792c0.07-3.13,3.739-2.661,5.52-4.08C19.988,129.263,17.77,131.36,14.16,130.792z"/>
<path style="fill:#B9C49C;" d="M17.04,132.232c-0.933,2.027-1.372,4.548-4.08,4.801c-0.101-1.701,0.186-3.016,0.481-4.32
	C14.346,132.412,16.351,131.953,17.04,132.232z"/>
<path style="fill:#B9C49C;" d="M15.36,126.953c0.299-3.782,4.536-4.903,7.441-5.281C21.892,125.003,18.405,125.757,15.36,126.953z"
	/>
<path style="fill:#B9C49C;" d="M13.92,138.472c-0.398,1.281-1.023,2.336-1.68,3.359C11.934,140.798,12.523,138.599,13.92,138.472z"
	/>
<path style="fill:#B9C49C;" d="M11.04,149.751c0.433-1.647,1.453-2.707,2.16-4.08c1.044-0.163,0.385,1.375,0.96,1.681
	C13.257,148.289,12.299,149.171,11.04,149.751z"/>
<path style="fill:#B9C49C;" d="M15.6,146.392c-0.125-1.154-0.654-1.906-0.959-2.88c0.644-0.715,0.93-1.79,1.439-2.64
	c1.046,0.873,0.951,2.889,1.68,4.08C16.979,145.37,16.559,146.151,15.6,146.392z"/>
<path style="fill:#B9C49C;" d="M19.2,143.512c-2.278-2.438-1.394-7.303,1.44-8.4C22.824,137.983,22.551,142.263,19.2,143.512z"/>
<path style="fill:#B9C49C;" d="M23.76,138.712c-2.471-4.382-2.248-6.91,1.44-10.08C27.422,131.093,27.161,137.922,23.76,138.712z"/>
<path style="fill:#B9C49C;" d="M28.32,133.432c0.541-2.759-1.445-4.648-1.2-6.48c0.274-2.041,2.917-2.81,3.36-5.041
	C33.74,125.616,32.302,131.708,28.32,133.432z"/>
<path style="fill:#B9C49C;" d="M36.48,132.712c-2.561-1.459-1.946-4.686-2.881-8.881c-0.267-1.199-1.514-3.092-1.44-3.84
	c0.25-2.536,3.645-3.512,3.84-5.76C39.307,119.105,37.139,126.411,36.48,132.712z"/>
<path style="fill:#B9C49C;" d="M38.881,128.632c-0.297-1.773,0.348-3.182,0.479-5.521c0.218-3.87-1.737-8.473-1.44-11.04
	c0.355-3.069,3.838-4.058,4.801-6.48c1.778,4.143,1.5,10.34,1.68,16.08C42.076,123.507,40.621,126.213,38.881,128.632z"/>
<path style="fill:#B9C49C;" d="M48.721,126.712c-5.787-3.9-0.877-17.668-4.801-23.76c1.207-1.594,2.162-3.438,2.881-5.521
	C50.508,105.103,50.987,116.994,48.721,126.712z"/>
<path style="fill:#B9C49C;" d="M57.36,112.072c-0.159,0.75-0.796,0.572-1.2,1.2c-1.735,2.696-2.178,7.7-5.04,9.36
	c3.878-11.969-5.568-24.941-0.239-34.08c3.471,4.117,5.773,12.586,6,18.72C56.934,108.712,57.613,110.876,57.36,112.072z"/>
<path style="fill:#B9C49C;" d="M57.36,97.671c-0.505-1.315-1.755-2.704-2.399-4.319c-1.957-4.899-3.633-8.437-0.24-11.761
	c7.166,8.588,7.354,21.936,7.92,35.761C56.572,114.177,59.973,104.49,57.36,97.671z"/>
<path style="fill:#B9C49C;" d="M64.32,114.232c-0.391-6.916-1.021-11.432-2.16-17.76c-0.594-3.297-0.86-6.698-1.68-8.881
	c-1.721-4.581-6.471-8.559-1.68-12.479c3.053,1.527,2.714,6.917,4.559,12.72c1.146,3.603,2.11,5.48,2.88,9.601
	c0.35,1.869,1.658,4.354,1.68,5.521C67.991,106.849,65.221,110.725,64.32,114.232z"/>
<path style="fill:#B9C49C;" d="M69.36,102.232c-0.589-5.843-3.354-10.23-4.8-15.6c-1.465-5.438-0.848-10.558-4.801-13.44
	c0.342-1.339,0.881-2.479,1.44-3.601c7.45,9.75,10.954,23.446,14.88,36.721C73.498,105.294,72.459,102.734,69.36,102.232z"/>
<path style="fill:#B9C49C;" d="M78,106.552c-0.948-6.356-3.599-11.052-6-17.52c-1.836-4.947-2.494-9.883-4.56-13.441
	c-2.206-3.799-6.758-7.666-3.12-12.239C73.148,73.048,81.304,88.58,78,106.552z"/>
<path style="fill:#B9C49C;" d="M73.2,70.792c-0.985-2.087-2.373-3.447-3.84-5.28c-1.063-1.329-3.743-4.333-3.841-5.28
	c-0.244-2.389,3.016-4.941,3.121-6.96c8.793,5.448,8.146,21.612,12.72,30.48C77.052,82.837,75.605,75.882,73.2,70.792z"/>
<path style="fill:#B9C49C;" d="M84,83.992c-5.039-6.259-4.784-18.029-8.88-26.4c-1.108-2.264-5.083-4.922-5.28-6.479
	c-0.23-1.823,2.26-3.985,2.16-5.521c4.236,1.942,5.15,10.107,8.16,14.881c0.76,1.205,2.544,2.347,2.88,3.359
	c0.64,1.929,0.274,4.968,0.72,7.44C84.607,75.97,85.328,79.402,84,83.992z"/>
<path style="fill:#B9C49C;" d="M92.16,64.552c-2.514-0.847-4.844-1.877-8.16-1.92c-3.518-3.6-5.681-12.15-8.88-16.561
	c-0.592-0.815-2.288-2.132-2.399-2.88c-0.297-1.983,2.139-3.718,2.16-5.28c0.239,0,0.479,0,0.719,0
	c4.113,5.076,5.498,11.83,9.121,17.041C87.081,58.348,91.373,60.156,92.16,64.552z"/>
</svg>
