<?xml version="1.0" encoding="iso-8859-1"?>
<!-- Generator: Adobe Illustrator 19.2.0, SVG Export Plug-In . SVG Version: 6.00 Build 0)  -->
<svg version="1.1" id="&#x421;&#x43B;&#x43E;&#x439;_1"
	 xmlns="http://www.w3.org/2000/svg" xmlns:xlink="http://www.w3.org/1999/xlink" x="0px" y="0px" viewBox="0 0 38.467 53.591"
	 style="enable-background:new 0 0 38.467 53.591;" xml:space="preserve">
<path style="fill:#B8C49C;" d="M32.467,13.991c1.072,0.057,2.648,0.588,3.6,0c0.361-1.006,0.427-3.566,0-4.561
	C35.026,11.109,32.957,11.761,32.467,13.991z"/>
<path style="fill:#B8C49C;" d="M36.067,15.911c-3.512-0.82-7.412-0.338-7.92,3.6c2.191,0.234,5.174,0.129,7.92-0.24
	C35.92,18.064,36.292,16.433,36.067,15.911z"/>
<path style="fill:#B8C49C;" d="M28.627,38.71c-3.35-1.291-7.756-1.523-11.76-2.16C16.389,41.845,26.437,43.948,28.627,38.71z"/>
<path style="fill:#B8C49C;" d="M23.347,33.431c-2.38-0.055-6.156-1.719-6.479,1.439c4.313,0.967,9.605,0.953,13.439,2.4
	c0.906-1.574,2.125-2.834,2.64-4.801C30.395,32.163,26.773,33.511,23.347,33.431z"/>
<path style="fill:#B8C49C;" d="M26.227,21.191c-0.578,1.182-1.662,1.859-1.92,3.359c3.367,0.959,7.174,0.408,11.279,0
	c0.236-0.963,0.295-2.105,0.24-3.359C32.543,20.736,30.018,21.56,26.227,21.191z"/>
<path style="fill:#B8C49C;" d="M7.987,13.991c-0.053-0.188-0.201-0.279-0.481-0.24c-6.152,3.758-0.404,10.947,2.881,14.879
	c0.575,0.689,4.627,4.6,5.04,4.32c1.43-0.969-2.338-6.029-2.88-7.44C10.611,20.476,9.065,18.431,7.987,13.991z"/>
<path style="fill:#B8C49C;" d="M27.427,26.71c-1.526-0.061-3.178-1.035-4.32-0.719c-2.3,0.635-2.573,3.906-4.08,5.519
	c5.493,1.033,9.911-0.502,15.12-0.961c0.158-1.521,0.748-2.611,0.96-4.08C32.727,25.64,30.032,26.818,27.427,26.71z"/>
<path style="fill:#B8C49C;" d="M34.627,6.55c-1.506-0.144-2.539,0.182-3.84,0.24c-0.564,1.518-0.667,3.494-0.721,5.52
	C32.021,10.825,33.631,8.995,34.627,6.55z"/>
<path style="fill:#B8C49C;" d="M2.467,20.95c-3.398,7.926,1.267,17.744,11.039,14.641c-2.724-5.596-7.984-8.656-10.319-14.641
	C2.947,20.95,2.708,20.95,2.467,20.95z"/>
<path style="fill:#B8C49C;" d="M21.907,23.591c4.755-3.086,0.375-10.867,0.721-15.84c-1.501-0.41-3.297,0.824-5.041,0.959
	C17.694,15.005,18.43,20.669,21.907,23.591z"/>
<path style="fill:#B8C49C;" d="M28.627,7.031c-1.4-0.039-2.302,0.42-3.84,0.24c-0.414,3.375,0.723,7.057,1.199,10.32
	C29.215,16.357,27.974,10.136,28.627,7.031z"/>
<path style="fill:#B8C49C;" d="M20.467,25.511c-3.485-3.555-3.909-10.172-5.521-15.6c-1.955,0.443-3.395,1.402-5.04,2.16
	c1.055,7.266,4.252,12.387,7.2,17.76C18.874,29.036,19.543,27.148,20.467,25.511z"/>
<path style="fill:#3B3A26;" d="M5.827,13.271c-7.498,7.391-10.035,25.518,6.48,24.721c-0.186,1.26-1.531,2.412-2.16,3.6
	c-1.959,3.693-5.613,10.568-1.439,12c2.925-4.355,3.074-11.484,6.479-15.359c5.153,12.275,17.356,1.729,20.64-6
	c3.695-8.699,1.913-19.953,2.641-27.121C27.131,4.056,12.688,6.509,5.827,13.271z M30.788,6.79c1.301-0.059,2.334-0.385,3.84-0.24
	c-0.996,2.445-2.606,4.275-4.561,5.76C30.121,10.284,30.223,8.308,30.788,6.79z M24.788,7.271c1.538,0.18,2.439-0.279,3.84-0.24
	c-0.653,3.105,0.588,9.326-2.641,10.561C25.51,14.327,24.374,10.646,24.788,7.271z M22.627,7.751
	c-0.346,4.973,4.034,12.754-0.721,15.84c-3.477-2.922-4.213-8.586-4.32-14.881C19.331,8.575,21.126,7.341,22.627,7.751z
	 M14.947,9.911c1.611,5.428,2.035,12.045,5.521,15.6c-0.924,1.637-1.594,3.525-3.36,4.32c-2.948-5.373-6.146-10.494-7.2-17.76
	C11.551,11.314,12.992,10.355,14.947,9.911z M2.467,20.95c0.24,0,0.48,0,0.72,0c2.335,5.984,7.596,9.045,10.319,14.641
	C3.734,38.695-0.931,28.876,2.467,20.95z M15.427,32.95c-0.413,0.279-4.465-3.631-5.04-4.32c-3.285-3.932-9.033-11.121-2.881-14.879
	c0.279-0.039,0.428,0.053,0.481,0.24c1.078,4.439,2.624,6.484,4.56,11.519C13.089,26.921,16.857,31.982,15.427,32.95z M16.868,36.55
	c4.004,0.637,8.41,0.869,11.76,2.16C26.437,43.948,16.389,41.845,16.868,36.55z M30.307,37.271c-3.834-1.447-9.126-1.434-13.439-2.4
	c0.323-3.158,4.1-1.494,6.479-1.439c3.426,0.08,7.048-1.268,9.6-0.961C32.432,34.437,31.213,35.697,30.307,37.271z M34.147,30.55
	c-5.209,0.459-9.627,1.994-15.12,0.961c1.507-1.613,1.78-4.885,4.08-5.519c1.143-0.316,2.794,0.658,4.32,0.719
	c2.604,0.107,5.3-1.07,7.68-0.24C34.895,27.939,34.305,29.029,34.147,30.55z M35.586,24.55c-4.105,0.408-7.912,0.959-11.279,0
	c0.258-1.5,1.342-2.178,1.92-3.359c3.791,0.369,6.316-0.455,9.6,0C35.881,22.445,35.823,23.587,35.586,24.55z M36.067,19.271
	c-2.746,0.369-5.728,0.475-7.92,0.24c0.508-3.937,4.408-4.42,7.92-3.6C36.292,16.433,35.92,18.064,36.067,19.271z M36.067,13.991
	c-0.951,0.588-2.527,0.057-3.6,0c0.489-2.231,2.559-2.883,3.6-4.561C36.494,10.425,36.428,12.986,36.067,13.991z"/>
</svg>
