<?xml version="1.0" encoding="iso-8859-1"?>
<!-- Generator: Adobe Illustrator 19.2.0, SVG Export Plug-In . SVG Version: 6.00 Build 0)  -->
<svg version="1.1" id="&#x421;&#x43B;&#x43E;&#x439;_1"
	 xmlns="http://www.w3.org/2000/svg" xmlns:xlink="http://www.w3.org/1999/xlink" x="0px" y="0px" viewBox="0 0 62.308 62.64"
	 style="enable-background:new 0 0 62.308 62.64;" xml:space="preserve">
<g>
	<path style="fill:#B8C49C;" d="M29.175,53.279c-0.228,0.591,0.084,2.387,0.24,3.36C32.131,56.848,31.526,53.082,29.175,53.279z"/>
	<path style="fill:#B8C49C;" d="M47.654,25.68c4.046,0.211,3.284-7.395-1.439-6.721C45.482,21.596,44.679,25.523,47.654,25.68z"/>
	<path style="fill:#B8C49C;" d="M52.934,30.959c-1.423-0.176-2.497-0.701-3.84-0.959c-0.195,1.885-1.38,2.779-2.64,3.6
		c0.746,1.574,2.255,2.385,3.6,3.359C52.056,36.068,53.31,33.465,52.934,30.959z"/>
	<path style="fill:#B8C49C;" d="M52.215,22.319c1.183,1.468,5.143,2.28,5.28,0c0.134-2.238-4.9-3.663-7.441-4.079
		C51.454,19.086,50.894,20.682,52.215,22.319z"/>
	<path style="fill:#B8C49C;" d="M35.175,39.359c-0.912,1.183-1.121,5.142,2.16,4.56C38.778,41.456,37.588,36.229,35.175,39.359z"/>
	<path style="fill:#B8C49C;" d="M32.295,53.76c1.144-0.7,3.17-2.794,2.399-3.84C32.943,50.184,30.845,51.787,32.295,53.76z"/>
	<path style="fill:#B8C49C;" d="M30.854,45.119c-1.173,4.823,6.027,4.107,6.24,0.481C34.655,45.463,31.697,41.656,30.854,45.119z"/>
	<path style="fill:#B8C49C;" d="M32.774,37.199c2.691,3.799,7.052-4.464,2.4-6.24C35.548,33.684,30.662,34.219,32.774,37.199z"/>
	<path style="fill:#B8C49C;" d="M51.734,38.16c0.939,0.581,2.256,0.785,3.36,1.199C56.864,35.385,52.7,35.318,51.734,38.16z"/>
	<path style="fill:#B8C49C;" d="M49.575,27.119c-0.295,4.618,8.879-1.188,2.399-2.879C52.005,26.193,49.66,25.789,49.575,27.119z"/>
	<path style="fill:#B8C49C;" d="M57.495,36.479c0.08,1.28-0.299,2.102-0.481,3.12c2.473,0.072,3.656-1.144,3.601-3.6
		C59.914,35.55,58.594,36.531,57.495,36.479z"/>
	<path style="fill:#B8C49C;" d="M54.854,31.92c0,0.64,0,1.279,0,1.92c1.899,1.791,7.717,1.015,6-3.36
		C59.316,31.387,56.842,32.211,54.854,31.92z"/>
	<path style="fill:#B8C49C;" d="M56.054,25.439c0.3,2.22-1.178,2.662-1.439,4.32c1.799,1.553,4.768-0.015,5.76-1.44
		C60.485,25.868,58.641,22.938,56.054,25.439z"/>
	<path style="fill:#B8C49C;" d="M44.054,25.199c-0.335,1.816-0.018,5.321,1.2,6.961C49.249,30.864,46.513,26.111,44.054,25.199z"/>
	<path style="fill:#B8C49C;" d="M9.495,17.279c-0.759-0.682-0.956-1.924-1.441-2.88C2.841,17.123,6.819,22.922,9.495,17.279z"/>
	<path style="fill:#B8C49C;" d="M13.095,24.479c3.134,1.958,6.232-1.073,8.4-2.88C19.115,21.119,12.972,20.254,13.095,24.479z"/>
	<path style="fill:#B8C49C;" d="M24.135,57.6c0.146,1.373,0.885,2.154,1.68,2.88C29.605,59.404,28.485,55.824,24.135,57.6z"/>
	<path style="fill:#B8C49C;" d="M11.415,23.039c-7.304,0.555-1.42,6.617,2.159,2.881C12.021,25.793,11.463,24.671,11.415,23.039z"/>
	<path style="fill:#B8C49C;" d="M9.495,21.84c2.237,0.27,4.224-0.646,4.319-1.92C14.045,16.861,8.214,18.341,9.495,21.84z"/>
	<path style="fill:#B8C49C;" d="M1.814,24.24c-0.316,0.723-0.775,1.305-0.72,2.399c1.137,1.163,3.842,1.563,6,0.96
		c-0.048-0.912-1.009-0.91-0.96-1.92C4.136,25.759,2.601,25.373,1.814,24.24z"/>
	<path style="fill:#B8C49C;" d="M15.734,11.519c-3.164-0.002-6.459,1.003-5.279,4.561C13.747,17.834,15.477,14.351,15.734,11.519z"
		/>
	<path style="fill:#B8C49C;" d="M24.375,13.199c-1.784-1.293-8.371-3.679-7.44,1.68C19.397,16.745,22.357,14.051,24.375,13.199z"/>
	<path style="fill:#B8C49C;" d="M18.854,19.68c-0.117-1.078,0.122-1.799,0.24-2.641C13.658,13.758,13.869,22.226,18.854,19.68z"/>
	<path style="fill:#B8C49C;" d="M3.734,19.92c-1.157,1.215,0.058,2.142-0.239,4.32c2.64,0.318,4.058-0.583,4.319-2.641
		C6.116,21.778,4.804,20.985,3.734,19.92z"/>
	<path style="fill:#B8C49C;" d="M20.774,46.799c0.162,1.998,0.33,3.99,0.96,5.521C24.912,51.008,23.696,47.395,20.774,46.799z"/>
	<path style="fill:#B8C49C;" d="M20.774,19.92c1.208,0.167,1.673-0.408,2.88-0.24c0.427-1.524,2.607-3.754,1.681-5.04
		C22.982,15.399,19.217,16.79,20.774,19.92z"/>
	<path style="fill:#B8C49C;" d="M27.255,53.76c-1.419-1.457-4.803-1.578-4.8,0.72C22.457,56.646,27.378,57.063,27.255,53.76z"/>
	<path style="fill:#B8C49C;" d="M29.175,35.039c-1.583-0.653-2.803-2.691-2.16-4.799C21.549,31.379,25.752,40.869,29.175,35.039z"/>
	<path style="fill:#B8C49C;" d="M25.335,38.64c-1.464-0.456-2.174-1.666-2.88-2.88c-0.701,1.489-2.104,4.062-0.721,5.52
		C23.75,41.215,24.877,40.262,25.335,38.64z"/>
	<path style="fill:#B8C49C;" d="M33.255,39.84c-0.09-1.439-2.538-1.614-2.64-3.6c-1.6,1.127-6.335,4.838-3.36,6.959
		C29.333,44.682,33.369,41.686,33.255,39.84z"/>
	<path style="fill:#B8C49C;" d="M29.175,33.359c2.585,1.736,5.838-2.992,3.84-6.481C30.935,26.396,26.567,31.607,29.175,33.359z"/>
	<path style="fill:#B8C49C;" d="M30.854,49.92c-0.88-3.707-2.271-1.134-5.04-0.721C25.184,53.484,30.222,52.104,30.854,49.92z"/>
	<path style="fill:#B8C49C;" d="M28.934,44.879c-4.164-0.006-2.807-4.166-7.439-2.159C20.454,46.985,27.74,49.371,28.934,44.879z"/>
	<path style="fill:#3B3A26;" d="M53.654,18.24c-2.048-0.65-4.779-0.408-6.72-1.441c-2.659-1.414-3.842-6.256-5.52-8.879
		C39.388,4.75,35.998,0.545,33.734,0c-0.146,0.014-0.284,0.035-0.239,0.24c-0.715,1.998,2.316,2.319,2.399,4.319
		c-1.901,2.783-3.872,7.776-8.399,7.681c-2.223-0.048-3.612-2.154-6.481-2.641c-7.386-1.254-13.149,2.119-16.32,6.24
		c-2.568,3.338-8.598,13.039-0.96,13.68c8.163,0.684,18.484-4.542,21.601-9.359c1.226-1.896,1.35-4.764,2.88-6.24
		c0.732-0.707,1.944-0.621,2.88-1.2c2.424-1.501,3.74-4.216,5.52-5.28c-0.359,6.281-2.032,11.248-2.881,17.04
		c-15.688,2.084-19.222,28.533-7.92,38.16c7.066-6.138,14.829-13.087,13.681-24.96c-0.442-4.564-3.603-7.932-4.08-12.48
		c-0.675-6.424,3.536-11.912,2.88-18.24c1.862,1.277,2.748,4.427,4.08,6.961c0.635,1.207,2.072,2.226,2.16,3.6
		c0.101,1.584-1.518,3.306-1.92,5.279c-2.116,10.371,6.23,17.922,13.68,18c4.967,0.053,5.729-3.154,6-7.92
		C62.695,25.823,59.345,20.043,53.654,18.24z M24.375,13.199c-2.018,0.852-4.978,3.546-7.44,1.68
		C16.004,9.521,22.591,11.906,24.375,13.199z M18.854,19.68c-4.985,2.547-5.196-5.922,0.24-2.641
		C18.976,17.881,18.737,18.601,18.854,19.68z M15.734,11.519c-0.257,2.831-1.987,6.314-5.279,4.561
		C9.275,12.522,12.57,11.518,15.734,11.519z M13.814,19.92c-0.096,1.273-2.082,2.189-4.319,1.92
		C8.214,18.341,14.045,16.861,13.814,19.92z M8.054,14.399c0.484,0.956,0.682,2.198,1.441,2.88
		C6.819,22.922,2.841,17.123,8.054,14.399z M1.095,26.64c-0.056-1.095,0.403-1.677,0.72-2.399c0.787,1.133,2.321,1.519,4.32,1.44
		c-0.049,1.01,0.912,1.008,0.96,1.92C4.936,28.202,2.231,27.803,1.095,26.64z M3.495,24.24c0.297-2.179-0.918-3.105,0.239-4.32
		c1.069,1.065,2.382,1.858,4.08,1.68C7.553,23.657,6.135,24.559,3.495,24.24z M11.415,23.039c0.048,1.632,0.606,2.754,2.159,2.881
		C9.995,29.656,4.111,23.594,11.415,23.039z M13.095,24.479c-0.122-4.226,6.021-3.36,8.4-2.88
		C19.327,23.406,16.228,26.438,13.095,24.479z M23.654,19.68c-1.207-0.168-1.672,0.407-2.88,0.24
		c-1.558-3.13,2.208-4.521,4.561-5.28C26.261,15.926,24.081,18.156,23.654,19.68z M33.014,26.879
		c1.998,3.488-1.255,8.217-3.84,6.481C26.567,31.607,30.935,26.396,33.014,26.879z M25.814,49.199
		c2.769-0.413,4.16-2.986,5.04,0.721C30.222,52.104,25.184,53.484,25.814,49.199z M21.495,42.72
		c4.633-2.007,3.275,2.153,7.439,2.159C27.74,49.371,20.454,46.985,21.495,42.72z M27.255,43.199
		c-2.975-2.121,1.761-5.832,3.36-6.959c0.101,1.985,2.55,2.16,2.64,3.6C33.369,41.686,29.333,44.682,27.255,43.199z M27.014,30.24
		c-0.643,2.107,0.577,4.146,2.16,4.799C25.752,40.869,21.549,31.379,27.014,30.24z M22.455,35.76c0.706,1.214,1.416,2.424,2.88,2.88
		c-0.458,1.622-1.585,2.575-3.601,2.64C20.351,39.821,21.754,37.249,22.455,35.76z M20.774,46.799
		c2.922,0.596,4.138,4.209,0.96,5.521C21.104,50.789,20.936,48.797,20.774,46.799z M22.455,54.479
		c-0.003-2.298,3.381-2.177,4.8-0.72C27.378,57.063,22.457,56.646,22.455,54.479z M25.814,60.479
		c-0.795-0.726-1.533-1.507-1.68-2.88C28.485,55.824,29.605,59.404,25.814,60.479z M29.415,56.64c-0.156-0.974-0.468-2.77-0.24-3.36
		C31.526,53.082,32.131,56.848,29.415,56.64z M32.295,53.76c-1.45-1.973,0.648-3.576,2.399-3.84
		C35.465,50.966,33.439,53.06,32.295,53.76z M30.854,45.119c0.843-3.463,3.801,0.344,6.24,0.481
		C36.882,49.227,29.681,49.942,30.854,45.119z M37.335,43.92c-3.281,0.582-3.072-3.377-2.16-4.56
		C37.588,36.229,38.778,41.456,37.335,43.92z M32.774,37.199c-2.112-2.98,2.773-3.516,2.4-6.24
		C39.826,32.735,35.466,40.998,32.774,37.199z M57.495,22.319c-0.138,2.28-4.098,1.468-5.28,0c-1.32-1.638-0.761-3.233-2.16-4.079
		C52.595,18.656,57.629,20.081,57.495,22.319z M49.575,27.119c0.085-1.33,2.43-0.926,2.399-2.879
		C58.454,25.932,49.28,31.737,49.575,27.119z M46.215,18.959c4.724-0.674,5.485,6.932,1.439,6.721
		C44.679,25.523,45.482,21.596,46.215,18.959z M45.255,32.16c-1.219-1.64-1.535-5.144-1.2-6.961
		C46.513,26.111,49.249,30.864,45.255,32.16z M50.054,36.959c-1.345-0.975-2.854-1.785-3.6-3.359c1.26-0.82,2.444-1.715,2.64-3.6
		c1.343,0.258,2.417,0.783,3.84,0.959C53.31,33.465,52.056,36.068,50.054,36.959z M55.095,39.359
		c-1.104-0.414-2.422-0.618-3.36-1.199C52.7,35.318,56.864,35.385,55.095,39.359z M57.014,39.6c0.182-1.019,0.561-1.84,0.481-3.12
		c1.099,0.052,2.419-0.93,3.12-0.479C60.671,38.456,59.487,39.672,57.014,39.6z M54.854,33.84c0-0.641,0-1.28,0-1.92
		c1.987,0.291,4.462-0.533,6-1.44C62.571,34.854,56.754,35.631,54.854,33.84z M60.375,28.319c-0.992,1.426-3.961,2.993-5.76,1.44
		c0.262-1.658,1.739-2.101,1.439-4.32C58.641,22.938,60.485,25.868,60.375,28.319z"/>
</g>
</svg>
