<?xml version="1.0" encoding="iso-8859-1"?>
<!-- Generator: Adobe Illustrator 19.2.0, SVG Export Plug-In . SVG Version: 6.00 Build 0)  -->
<svg version="1.1" id="&#x421;&#x43B;&#x43E;&#x439;_1"
	 xmlns="http://www.w3.org/2000/svg" xmlns:xlink="http://www.w3.org/1999/xlink" x="0px" y="0px" viewBox="0 0 70.017 102.913"
	 style="enable-background:new 0 0 70.017 102.913;" xml:space="preserve">
<g>
	<path style="fill:#B8C49C;" d="M55.609,25.705c2.268-0.213,4.018-0.943,5.76-1.68c0-0.801,0-1.6,0-2.4
		C58.234,21.769,56.271,23.086,55.609,25.705z"/>
	<path style="fill:#B8C49C;" d="M61.369,20.185c0.375-2.508,2.002-5.037,1.92-7.201c-1.674,2.246-2.754,5.086-4.318,7.441
		C59.929,20.504,60.302,19.998,61.369,20.185z"/>
	<path style="fill:#B8C49C;" d="M51.05,23.545c2.701-1.938,4.654-5.904,6.238-8.16c-2.045,1.314-4.008,2.711-6.719,3.361
		C50.367,20.707,51.203,21.633,51.05,23.545z"/>
	<path style="fill:#B8C49C;" d="M12.17,80.185c3.676-5.203-3.051-7.156-6.48-8.881C2.619,76.16,6.302,80.756,12.17,80.185z"/>
	<path style="fill:#B8C49C;" d="M6.89,69.865c2.049,2.262,6.225,2.479,7.44,4.08c0.963-2.369,1.312-3.777,0-5.52
		c-1.727-2.295-8.141-6.939-10.801-8.881c-0.303,1.668-1.846,2.814-1.439,4.561c0.301,1.297,2.199,1.34,3.359,2.641
		C6.297,67.693,6.14,69.037,6.89,69.865z"/>
	<path style="fill:#B8C49C;" d="M4.25,57.625c4.65,3.59,9.334,7.146,12.721,12c5.479-4.215-0.813-6.148-3.361-9.119
		c-3.144-3.67-7.805-9.572-10.32-13.682C0.382,50.236,4.644,53.176,4.25,57.625z"/>
	<path style="fill:#B8C49C;" d="M48.89,18.506c-1.883-0.758-2.117-3.164-4.08-3.84c-1.02,6.016,1.775,10.195,3.6,14.158
		C51.121,25.886,48.867,23.039,48.89,18.506z"/>
	<path style="fill:#B8C49C;" d="M31.131,49.945c-0.738-5.359-7.381-11.101-9.842-17.76c-0.996-2.699-1.022-7.141-1.92-9.121
		c-1.162,1.559-1.358,4.082-3.119,5.041c-1.234,12.578,10.113,16.559,12.961,26.641C30.916,54.668,31.412,52,31.131,49.945z"/>
	<path style="fill:#B8C49C;" d="M32.81,50.185c1.125,0.08,1.775-2.383,2.879-3.121c-2.156-4.363-5.754-8.914-6.959-14.16
		c-0.824-3.588,0.234-7.627-1.68-11.279c-4.871-3.133-5.986,0.703-5.281,5.041C23.242,35.703,30.855,42.355,32.81,50.185z"/>
	<path style="fill:#B8C49C;" d="M40.25,40.824c1.639-0.6,1.977-2.502,3.119-3.6c0.051-0.85-1.125-0.473-0.959-1.439
		c-0.691-7.027-5.09-11.498-4.32-19.199c0.133,0,0.273-0.195,0-0.24c-2.225,1.709-3.574,2.797-3.119,6.719
		C35.785,30.111,38.416,35.941,40.25,40.824z"/>
	<path style="fill:#B8C49C;" d="M44.09,35.304c6.15-6.182-3.092-12.1-1.199-21.359c-0.439,0.064-1.85-0.09-1.92,0
		C36.355,19.851,44.564,29.533,44.09,35.304z"/>
	<path style="fill:#B8C49C;" d="M34.73,32.426c-1.191-3.813-0.49-7.764-1.92-11.041c-0.014-0.147-0.037-0.283-0.24-0.24
		c-0.662,0.619-2.066,0.496-2.881,0.961c0.061,10.1,2.707,17.613,7.441,23.039C41.466,41.625,36.049,36.648,34.73,32.426z"/>
	<path style="fill:#B8C49C;" d="M11.689,54.506c3.74,4.174,5.969,7.723,9.84,10.559c1.426-1.135,2.307-2.813,3.361-4.318
		c-6.916-7.566-14.443-14.518-17.281-26.16c-0.9,3.42-2.508,8.445-2.16,11.76C5.781,49.492,9.049,51.556,11.689,54.506z"/>
	<path style="fill:#B8C49C;" d="M26.57,59.064c3.061-5.949-2.807-10.016-6.24-14.639c-3.346-4.506-5.992-9.193-6.24-15.121
		c-2.289-0.209-2.846,1.315-4.32,1.92c-0.719,3.91,0.494,6.018,1.68,8.4C15.22,47.191,20.459,54.301,26.57,59.064z"/>
	<path style="fill:#B8C49C;" d="M37.131,51.625c4.891-4.012,6.701-10.398,10.08-15.6c4.219-6.498,8.74-12.769,12.238-19.68
		c-0.053-0.188-0.199-0.279-0.479-0.24c-7.404,8.793-12.494,20.182-20.881,30.48c-3.803,4.668-7.119,9.881-11.039,14.398
		c-5.564,6.412-11.346,13.445-14.16,21.121c-0.328,0.893-0.115,2.258-0.48,3.119c-1.215,2.861-5.231,6.061-6.721,9.602
		c-0.6,1.428-2.094,4.539-0.24,6.238c2.027-6.863,5.484-12.783,9.361-18.238c2.178-3.066,3.969-6.584,6-10.08
		C25.58,64.527,32.084,59.209,37.131,51.625z"/>
	<path style="fill:#B8C49C;" d="M48.89,58.826c-5.664,1.928-15.611-2.902-18,3.119c5.09,2.109,11.66,2.52,17.279,1.44
		c2.563-0.492,5.619-0.176,8.16-1.199c4.068-1.639,8.857-5.131,7.68-8.881C59.047,54.584,53.937,57.107,48.89,58.826z"/>
	<path style="fill:#B8C49C;" d="M35.449,56.904c4.201-0.059,9.514,1.559,13.92,0c4.082-1.441,8.918-3.119,11.762-4.078
		c4.193-1.416,5.588-5.035,6.719-8.881c-0.16,0-0.32,0-0.48,0c-4.17,2.166-8.383,5.815-13.92,7.199
		C46.162,52.969,37.215,50.053,35.449,56.904z"/>
	<path style="fill:#B8C49C;" d="M49.849,44.904c-1.373,0.17-2.984-0.229-4.56,0c-2.096,0.305-3.762,3.727-4.559,5.281
		c11.648,1.166,19.664-3.373,26.4-7.92c-0.775-1.145-1.531-2.308-2.4-3.361C60.117,40.976,55.578,44.203,49.849,44.904z"/>
	<path style="fill:#B8C49C;" d="M48.89,36.506c6.152-1.207,13.061-1.66,17.52-4.561c0.072-0.969-0.449-2.979-1.68-2.641
		C59.965,30.617,49.994,31.896,48.89,36.506z"/>
	<path style="fill:#B8C49C;" d="M29.211,63.625c-1.356,1.125-2.758,2.203-3.361,4.08c4.182,0.76,8.637,7.467,14.881,6.24
		c4.564-0.896,8.121-2.238,12.24-2.881c4.863-0.756,3.566-0.506,5.76-4.318c1.541-2.682,6.049-4.752,4.799-7.441
		C55.72,66.342,41.06,67.14,29.211,63.625z"/>
	<path style="fill:#B8C49C;" d="M61.369,25.705c-1.123-0.207-6.713,1.973-7.199,2.4c-0.566,0.498-0.697,1.58-0.721,2.16
		c3.67-0.572,7.568-0.914,10.32-2.4C62.711,28.154,62.654,25.943,61.369,25.705z"/>
	<path style="fill:#B8C49C;" d="M24.41,69.385c-0.072,1.209-1.211,1.35-1.199,2.641c3.281,0.453,4.252,3.422,6.238,4.801
		c2.535,1.756,6.699,1.381,10.08,2.398c1.104,0.332,1.613,1.215,2.4,1.201c0.734-0.014,3.6-1.295,4.32-1.68
		c3.078-1.646,6.83-3.898,9.119-6c-6.656-0.125-10.781,3.119-16.559,3.119C33.154,75.865,29.578,69.814,24.41,69.385z"/>
	<path style="fill:#B8C49C;" d="M58.25,40.586c3.457-1.518,8.234-3.311,6.961-6.48c-5.49,4.271-18.705,0.814-19.922,9.359
		C50.033,43.285,54.019,42.439,58.25,40.586z"/>
	<path style="fill:#B8C49C;" d="M17.449,82.826c3.211,1.367,7.486,8.426,11.041,2.879C25.683,83.642,19.924,75.879,17.449,82.826z"
		/>
	<path style="fill:#B8C49C;" d="M39.289,80.904c-1.824-0.576-4.602-0.494-6.479-0.959c-5.055-1.25-5.834-4.969-10.561-6.24
		c-0.773,1.227-1.426,2.574-1.92,4.08c4.533,0.072,5.59,5.766,9.359,6.48c0.682,0.129,1.645-0.391,2.641-0.24
		c2.623,0.396,5.103,2.721,8.16,2.16c2.371-0.436,2.936-3.148,4.08-5.281C42.472,82.428,41.095,81.476,39.289,80.904z"/>
	<path style="fill:#3B3A26;" d="M67.609,2.666c-1.631,2.697-11.854,13.625-15.6,13.44c-3.043-0.152-4.455-4.15-7.199-4.561
		c-6.186-0.922-8.559,5.463-12.48,7.201c-2.984,1.322-6.797-1.402-9.84-0.721c-4.246,0.949-4.318,6.137-7.201,8.4
		c-1.697,1.332-2.25,0.373-4.559,1.199c-2.711,0.971-5,4.311-5.76,6.721c-0.873,2.764,0.363,5.676-0.961,8.16
		c-1.133,2.125-3.018,2.367-3.6,4.318c-1.523,5.105,1.691,7.59,1.68,10.561c-0.016,4.182-3.342,5.955-1.199,9.84
		c0.442,0.801,2.395,1.602,2.639,2.881c0.367,1.912-1.574,3.645-1.439,5.76c0.277,4.354,4.494,5.342,8.4,6.24
		c-0.608,6.998-8.184,10.303-7.68,19.92c5.975,3.531,4.848-4.387,6.479-7.68c1.818-3.672,5.713-7.43,7.441-9.6
		c4.459,1.313,4.777,5.918,9.84,5.76c2.881-0.092,3.193-3.289,5.52-3.84c3.584-0.852,6.682,2.141,9.84,1.199
		c1.166-0.348,3.535-1.982,4.32-3.119c0.924-1.338,0.361-2.893,1.439-4.561c1.814-2.805,6.191-2.486,9.121-4.561
		c1.438-1.018,3.65-3.658,4.08-5.52c0.108-0.467-0.295-1.963,0-2.881c0.455-1.418,2.777-2.422,3.6-3.359
		c1.461-1.666,3.178-5.414,3.119-8.16c-0.023-1.139-0.775-1.795-0.719-3.359c0.145-3.99,3.303-5.02,3.119-8.641
		c-0.135-2.662-2.744-3.072-3.119-5.519c-0.451-2.94,2.563-5.611,1.68-8.641c-0.65-2.23-3.477-3.26-4.08-5.039
		c-3.201-9.436,5.225-14.76,5.52-24.481C67.894-0.225,68.349,1.441,67.609,2.666z M63.289,12.984
		c0.082,2.164-1.545,4.693-1.92,7.201c-1.066-0.188-1.439,0.318-2.398,0.24C60.535,18.07,61.615,15.23,63.289,12.984z
		 M61.369,21.625c0,0.801,0,1.6,0,2.4c-1.742,0.736-3.492,1.467-5.76,1.68C56.271,23.086,58.234,21.769,61.369,21.625z
		 M50.57,18.746c2.711-0.65,4.674-2.047,6.719-3.361c-1.584,2.256-3.537,6.223-6.238,8.16C51.203,21.633,50.367,20.707,50.57,18.746
		z M44.81,14.666c1.963,0.676,2.197,3.082,4.08,3.84c-0.023,4.533,2.231,7.381-0.48,10.318
		C46.586,24.861,43.791,20.681,44.81,14.666z M40.97,13.945c0.07-0.09,1.48,0.064,1.92,0c-1.892,9.26,7.35,15.178,1.199,21.359
		C44.564,29.533,36.355,19.851,40.97,13.945z M38.09,16.345c0.273,0.045,0.133,0.24,0,0.24c-0.77,7.701,3.629,12.172,4.32,19.199
		c-0.166,0.967,1.01,0.59,0.959,1.439c-1.143,1.098-1.48,3-3.119,3.6c-1.834-4.883-4.465-10.713-5.279-17.76
		C34.515,19.142,35.865,18.054,38.09,16.345z M32.57,21.144c0.203-0.043,0.227,0.094,0.24,0.24c1.43,3.277,0.729,7.228,1.92,11.041
		c1.318,4.223,6.736,9.199,2.4,12.719c-4.734-5.426-7.381-12.94-7.441-23.039C30.504,21.64,31.908,21.763,32.57,21.144z
		 M27.05,21.625c1.914,3.652,0.855,7.691,1.68,11.279c1.205,5.246,4.803,9.797,6.959,14.16c-1.104,0.738-1.754,3.201-2.879,3.121
		c-1.955-7.83-9.568-14.483-11.041-23.52C21.064,22.328,22.179,18.492,27.05,21.625z M16.25,28.105
		c1.762-0.959,1.957-3.482,3.119-5.041c0.898,1.98,0.924,6.422,1.92,9.121c2.461,6.658,9.103,12.4,9.842,17.76
		c0.281,2.055-0.215,4.723-1.92,4.801C26.363,44.664,15.015,40.683,16.25,28.105z M9.769,31.224c1.475-0.605,2.031-2.129,4.32-1.92
		c0.248,5.928,2.894,10.615,6.24,15.121c3.434,4.623,9.301,8.689,6.24,14.639c-6.111-4.764-11.35-11.873-15.121-19.439
		C10.263,37.242,9.05,35.135,9.769,31.224z M7.609,34.586c2.838,11.643,10.365,18.594,17.281,26.16
		c-1.055,1.506-1.935,3.184-3.361,4.318c-3.871-2.836-6.1-6.385-9.84-10.559c-2.641-2.949-5.908-5.014-6.24-8.16
		C5.101,43.031,6.709,38.006,7.609,34.586z M3.289,46.824c2.516,4.109,7.176,10.012,10.32,13.682
		c2.549,2.971,8.84,4.904,3.361,9.119c-3.387-4.854-8.07-8.41-12.721-12C4.644,53.176,0.382,50.236,3.289,46.824z M2.09,64.105
		c-0.406-1.746,1.137-2.893,1.439-4.561c2.66,1.941,9.074,6.586,10.801,8.881c1.312,1.742,0.963,3.15,0,5.52
		c-1.215-1.602-5.391-1.818-7.44-4.08c-0.75-0.828-0.594-2.172-1.441-3.119C4.289,65.445,2.39,65.402,2.09,64.105z M5.689,71.304
		c3.43,1.725,10.156,3.678,6.48,8.881C6.302,80.756,2.619,76.16,5.689,71.304z M14.81,82.826
		c-3.877,5.455-7.334,11.375-9.361,18.238c-1.853-1.699-0.359-4.811,0.24-6.238c1.49-3.541,5.506-6.74,6.721-9.602
		c0.365-0.861,0.152-2.227,0.48-3.119c2.815-7.676,8.596-14.709,14.16-21.121c3.92-4.518,7.236-9.73,11.039-14.398
		c8.387-10.299,13.476-21.688,20.881-30.48c0.279-0.039,0.426,0.053,0.479,0.24c-3.498,6.91-8.02,13.182-12.238,19.68
		c-3.379,5.201-5.189,11.588-10.08,15.6c-5.047,7.584-11.551,12.902-16.32,21.121C18.779,76.242,16.988,79.76,14.81,82.826z
		 M65.211,34.105c1.273,3.17-3.504,4.963-6.961,6.48c-4.23,1.854-8.217,2.699-12.961,2.879C46.506,34.92,59.72,38.377,65.211,34.105
		z M17.449,82.826c2.475-6.947,8.234,0.816,11.041,2.879C24.935,91.252,20.66,84.193,17.449,82.826z M40.49,86.185
		c-3.057,0.561-5.537-1.764-8.16-2.16c-0.996-0.15-1.959,0.369-2.641,0.24c-3.77-0.715-4.826-6.408-9.359-6.48
		c0.494-1.506,1.146-2.854,1.92-4.08c4.727,1.271,5.506,4.99,10.561,6.24c1.877,0.465,4.654,0.383,6.479,0.959
		c1.807,0.572,3.184,1.523,5.281,0C43.425,83.037,42.861,85.75,40.49,86.185z M46.25,78.746c-0.721,0.385-3.586,1.666-4.32,1.68
		c-0.787,0.014-1.297-0.869-2.4-1.201c-3.381-1.018-7.545-0.643-10.08-2.398c-1.986-1.379-2.957-4.348-6.238-4.801
		c-0.012-1.291,1.127-1.432,1.199-2.641c5.168,0.43,8.744,6.48,14.4,6.48c5.777,0,9.902-3.244,16.559-3.119
		C53.08,74.847,49.328,77.099,46.25,78.746z M58.73,66.746c-2.193,3.813-0.896,3.563-5.76,4.318
		c-4.119,0.643-7.676,1.984-12.24,2.881c-6.244,1.227-10.699-5.48-14.881-6.24c0.604-1.877,2.006-2.955,3.361-4.08
		c11.85,3.516,26.51,2.717,34.318-4.32C64.779,61.994,60.271,64.064,58.73,66.746z M56.33,62.185
		c-2.541,1.023-5.598,0.707-8.16,1.199c-5.619,1.08-12.189,0.67-17.279-1.44c2.389-6.021,12.336-1.191,18-3.119
		c5.047-1.719,10.156-4.242,15.119-5.521C65.187,57.054,60.398,60.547,56.33,62.185z M67.849,43.945
		c-1.131,3.846-2.525,7.465-6.719,8.881c-2.844,0.959-7.68,2.637-11.762,4.078c-4.406,1.559-9.719-0.059-13.92,0
		c1.766-6.852,10.713-3.936,18-5.76c5.537-1.385,9.75-5.033,13.92-7.199C67.529,43.945,67.689,43.945,67.849,43.945z M67.131,42.265
		c-6.736,4.547-14.752,9.086-26.4,7.92c0.797-1.555,2.463-4.977,4.559-5.281c1.576-0.229,3.187,0.17,4.56,0
		c5.729-0.701,10.268-3.928,14.881-6C65.599,39.957,66.355,41.121,67.131,42.265z M64.73,29.304c1.231-0.338,1.752,1.672,1.68,2.641
		c-4.459,2.9-11.367,3.353-17.52,4.561C49.994,31.896,59.965,30.617,64.73,29.304z M63.769,27.865
		c-2.752,1.486-6.65,1.828-10.32,2.4c0.023-0.58,0.154-1.662,0.721-2.16c0.486-0.428,6.076-2.607,7.199-2.4
		C62.654,25.943,62.711,28.154,63.769,27.865z"/>
</g>
</svg>
