<?xml version="1.0" encoding="iso-8859-1"?>
<!-- Generator: Adobe Illustrator 19.2.0, SVG Export Plug-In . SVG Version: 6.00 Build 0)  -->
<svg version="1.1" id="&#x421;&#x43B;&#x43E;&#x439;_1"
	 xmlns="http://www.w3.org/2000/svg" xmlns:xlink="http://www.w3.org/1999/xlink" x="0px" y="0px" viewBox="0 0 112.939 248.247"
	 style="enable-background:new 0 0 112.939 248.247;" xml:space="preserve">
<g>
	<path style="fill:#C9DB7D;" d="M86.925,98.225c-1.55,1.25-4.118,1.482-6.479,1.92c0.043,1.637,0.19,3.17,0.72,4.32
		c1.842-0.717,3.833-1.287,5.76-1.92C86.081,100.69,87.817,99.059,86.925,98.225z"/>
	<path style="fill:#C9DB7D;" d="M89.566,49.506c2.374-1.067,4.404-2.477,6.72-3.602c-0.151-1.607-0.189-3.33-1.2-4.078
		C93.006,44.147,89.091,44.631,89.566,49.506z"/>
	<path style="fill:#C9DB7D;" d="M58.606,99.905c0.82,3.02,1.94,5.74,4.08,7.441c0.217-0.904,0.516-1.725,0.96-2.4
		C61.891,103.278,61.766,97.286,58.606,99.905z"/>
	<path style="fill:#C9DB7D;" d="M43.965,175.985c0.806-2.818-0.384-9.008-3.84-6C41.077,172.313,41.722,174.95,43.965,175.985z"/>
	<path style="fill:#C9DB7D;" d="M31.486,133.266c1.376,4.064,3.582,7.297,6,10.32c3.773-4.135-1.543-8.471-3.84-11.521
		C33.177,132.717,32.173,132.835,31.486,133.266z"/>
	<path style="fill:#C9DB7D;" d="M41.566,156.545c-0.719,0.963-1.69,1.67-2.16,2.881c2.305,1.824,2.398,6.973,6,6.719
		C46.421,162.376,43.722,158.688,41.566,156.545z"/>
	<path style="fill:#C9DB7D;" d="M48.526,179.346c-0.657-3.391-3.396-2.863-3.12,0.959C46.847,180.387,47.525,179.706,48.526,179.346
		z"/>
	<path style="fill:#C9DB7D;" d="M34.845,170.946c4.69,0.896,0.59-6.889-1.439-6.48C30.839,164.983,32.65,170.526,34.845,170.946z"/>
	<path style="fill:#C9DB7D;" d="M30.766,132.065c1.013-0.107,1.21-1.029,2.64-0.719c-1.26-3.381-2.288-6.992-4.561-9.361
		C28.292,124.795,29.09,129.934,30.766,132.065z"/>
	<path style="fill:#C9DB7D;" d="M28.365,132.305c-0.362,1.162-2.088,2.226-1.68,3.361c0.816-0.865,1.999-1.361,2.399-2.641
		C28.632,132.999,28.919,132.233,28.365,132.305z"/>
	<path style="fill:#C9DB7D;" d="M37.245,159.186c-1.827-1.465-3.085-6.652-6.24-3.84C32.669,157.739,34.869,164.325,37.245,159.186z
		"/>
	<path style="fill:#C9DB7D;" d="M29.566,134.706c-6.557,3.275,3.945,13.387,5.04,17.279C39.78,145.85,31.864,139.866,29.566,134.706
		z"/>
	<path style="fill:#C9DB7D;" d="M41.806,167.346c-1.108-2.539-2.496-7.246-6-4.561c0.842,2.277,2.357,3.883,3.6,5.76
		C40.137,168.077,41.054,167.794,41.806,167.346z"/>
	<path style="fill:#C9DB7D;" d="M54.766,150.305c2.808-1.191,5.585-2.414,8.399-3.6c-0.773-1.627-2.078-2.721-2.88-4.32
		C56.811,143.391,55.136,146.196,54.766,150.305z"/>
	<path style="fill:#C9DB7D;" d="M99.885,147.907c-0.944-1.215-1.154-3.166-2.64-3.842c-2.461,1.459-4.843,2.998-7.92,3.842
		C89.471,155.614,96.837,149.602,99.885,147.907z"/>
	<path style="fill:#C9DB7D;" d="M58.845,126.305c3.139-8.545-2.655-15.631-5.76-21.6c-3.684,1.816-2.332,3.814-0.72,7.199
		C54.522,116.434,55.934,123.842,58.845,126.305z"/>
	<path style="fill:#C9DB7D;" d="M50.925,165.426c4.638,4.775,10.225-2.348,15.841-3.121
		C62.457,157.288,54.156,162.665,50.925,165.426z"/>
	<path style="fill:#C9DB7D;" d="M64.606,147.426c-0.981,0.127-2.709,1.549-4.08,2.16c-3.265,1.451-7.012,1.98-7.441,5.52
		c8.037-1.885,16.717-5.201,23.04-9.6c-3.431-0.594-5.886,2.262-8.88,2.4C66.465,147.942,65.388,147.325,64.606,147.426z"/>
	<path style="fill:#C9DB7D;" d="M107.566,113.346c-0.271-0.85-0.149-2.092-0.96-2.4c-8.094,3.027-16.081,6.158-24.24,9.119
		c0.454,1.549,0.011,2.643-0.48,3.842C90.643,120.583,98.429,116.29,107.566,113.346z"/>
	<path style="fill:#C9DB7D;" d="M103.005,102.786c1.667-0.094,2.502-1.02,3.84-1.439c0.032-1.488,0.304-2.738,0.48-4.08
		c-1.773,0.307-3.49,0.67-4.8,1.439C102.802,99.95,103.182,101.088,103.005,102.786z"/>
	<path style="fill:#C9DB7D;" d="M81.165,157.506c-0.28-1.641-0.033-3.807-1.2-4.561c-3.988,2.73-9.663,3.777-14.64,5.52
		C68.7,164.588,76.687,159.78,81.165,157.506z"/>
	<path style="fill:#C9DB7D;" d="M70.621,144.768c-0.244,0.143-0.489,0.301-0.736,0.498
		C70.123,145.093,70.378,144.937,70.621,144.768z"/>
	<path style="fill:#C9DB7D;" d="M91.965,133.506c-7.082,3.786-14.933,6.805-21.344,11.262c2.759-1.605,5.385,0.057,8.384,0.018
		c6.337-0.082,11.385-6.199,16.801-7.92C94.368,135.903,93.353,134.518,91.965,133.506z"/>
	<path style="fill:#C9DB7D;" d="M77.566,146.465c-6.159,2.967-14.567,8.256-22.32,9.6c0.713,5.992,10.714,0.566,14.16-0.479
		c3.35-1.016,10.045-2.506,10.559-5.041C80.111,149.829,78.589,145.973,77.566,146.465z"/>
	<path style="fill:#C9DB7D;" d="M62.686,90.065c2.77-2.476-0.261-5.828-1.92-7.92C58.191,84.856,60.462,88.28,62.686,90.065z"/>
	<path style="fill:#C9DB7D;" d="M51.406,85.506c-0.046,2.285,1.52,2.959,1.92,4.799c3.443-1.686,1.574,0.291,1.68,2.4
		c0.109,2.174,2.746,4.088,3.12,5.76c0.802-0.158,1.174-0.746,1.92-0.959C57.319,94.264,56.899,85.669,51.406,85.506z"/>
	<path style="fill:#C9DB7D;" d="M38.205,130.385c-0.139,1.326,3.932,6.539,3.84,8.4c0.962-0.318,2.325-0.234,2.88-0.959
		c-1.346-2.039-3.431-6.975-4.8-8.641C39.421,128.329,38.231,130.147,38.205,130.385z"/>
	<path style="fill:#C9DB7D;" d="M51.165,96.305c1.149-0.051,0.909-1.49,2.4-1.199c1.301,1.527-1.242,1.789-1.44,3.119
		c-0.32,2.146,3.099,5.682,4.08,7.92c1.671,3.811,2.784,7.141,4.561,9.361c2.627-5.939-1.131-8.014-3.12-12.721
		c-1.545-3.654-2.345-8.385-4.561-8.4c-0.331-3.748-2.333-5.826-4.08-8.16C45.699,89.085,50.931,92.563,51.165,96.305z"/>
	<path style="fill:#C9DB7D;" d="M45.885,89.346c-0.607,1.018-2.537,0.836-2.88,2.16c-0.571,2.205,5.447,13.486,6.721,13.68
		c4.43,0.67,1.252-4.68,0.479-6.48C48.472,94.663,47.588,90.309,45.885,89.346z"/>
	<path style="fill:#C9DB7D;" d="M47.325,115.026c1.833,0.726,2.63-0.836,4.08-1.199c-2.767-4.834-4.432-10.77-7.92-14.881
		C40.491,103.764,46.624,109.381,47.325,115.026z"/>
	<path style="fill:#C9DB7D;" d="M83.085,93.905c0.601,1.24,0.56,3.121,1.2,4.32c3.269-1.371,6.316-2.963,10.08-3.84
		C92.864,90.483,85.811,92.284,83.085,93.905z"/>
	<path style="fill:#C9DB7D;" d="M67.005,104.465c-0.806,1.914-1.842,3.598-2.16,6c2.058-0.262,2.626-2.014,4.561-2.4
		C68.494,106.977,69.028,104.444,67.005,104.465z"/>
	<path style="fill:#C9DB7D;" d="M67.245,79.747c1.46,2.059,2.191,4.848,3.6,6.959c1.778-2.436,2.105-6.672-0.239-8.879
		C69.653,78.633,68.207,78.948,67.245,79.747z"/>
	<path style="fill:#C9DB7D;" d="M64.365,74.465c0.383,1.457,0.866,2.814,1.68,3.84c1.592-0.568,2.99-1.328,4.32-2.16
		C70.066,71.651,66.77,71.786,64.365,74.465z"/>
	<path style="fill:#C9DB7D;" d="M62.205,80.946c2.004,3.836,4.663,7.018,5.76,11.76c3.073-3.604-0.448-9.791-2.399-12.24
		C64.482,80.663,62.543,80.002,62.205,80.946z"/>
	<path style="fill:#C9DB7D;" d="M55.486,159.907c-2.367-5.535-4.993,0.592-6,3.84C51.575,162.555,54.199,161.899,55.486,159.907z"/>
	<path style="fill:#C9DB7D;" d="M48.766,165.907c-1.146,1.014-1.515,2.805-1.921,4.559c1.546-0.775,3.091-1.549,5.04-1.92
		C51.448,167.063,49.579,167.012,48.766,165.907z"/>
	<path style="fill:#C9DB7D;" d="M43.005,140.225c2.208,4.432,4.681,8.6,7.92,12c0.571-4.672-4.145-7.939-5.279-12.479
		C44.857,139.997,43.68,139.86,43.005,140.225z"/>
	<path style="fill:#C9DB7D;" d="M43.965,155.586c0.688,2.191,1.864,3.895,3.12,5.52C49.516,158.547,48.573,152.549,43.965,155.586z"
		/>
	<path style="fill:#C9DB7D;" d="M46.845,153.186c-2.797-3.043-3.854-7.826-7.199-10.32c-2.68,4.297,3.151,6.842,3.359,11.279
		C44.805,154.346,45.501,153.442,46.845,153.186z"/>
	<path style="fill:#C9DB7D;" d="M55.726,137.586c0.109-0.852,0.533-1.387,0.479-2.4c-0.572-0.502-1.739-0.143-1.92,0.48
		C55.007,136.065,54.741,137.45,55.726,137.586z"/>
	<path style="fill:#C9DB7D;" d="M52.365,147.667c2.658-3.73,0.432-9.027-2.4-11.281C45.159,138.895,50.067,145.133,52.365,147.667z"
		/>
	<path style="fill:#C9DB7D;" d="M37.726,148.626c0,0.881,0,1.76,0,2.641c-3.582,1.33-1.719,4.75,0.72,6.24
		c1.125-0.715,1.77-1.91,2.88-2.641C40.24,152.67,40.015,149.616,37.726,148.626z"/>
	<path style="fill:#C9DB7D;" d="M40.606,103.985c-1.752,4.154,0.222,6.965,1.68,10.561c2.202,5.434,4.559,8.266,6.96,12.721
		c1.421,2.637,2.389,6.107,5.04,6.48c-3.86-9.422-9.676-18.963-12.96-29.762C41.085,103.985,40.845,103.985,40.606,103.985z"/>
	<path style="fill:#C9DB7D;" d="M46.365,174.065c3.092,0.883,6.703-0.873,8.88-2.398C52.937,169.249,46.97,170.585,46.365,174.065z"
		/>
	<path style="fill:#C9DB7D;" d="M95.806,109.985c3.73-1.068,7.804-1.795,11.039-3.359c-0.563-0.887,0.531-2.385-0.72-3.119
		c-3.376,1.504-6.787,2.973-11.04,3.6C94.969,108.422,95.253,109.338,95.806,109.985z"/>
	<path style="fill:#C9DB7D;" d="M17.806,134.706c-1.899,2.441-0.931,6.117,0.479,8.4C21.643,141.241,19.801,136.836,17.806,134.706z
		"/>
	<path style="fill:#C9DB7D;" d="M23.806,155.586c-1.479-2.842-3.095-5.547-5.04-7.92C15.287,151.419,18.177,159.493,23.806,155.586z
		"/>
	<path style="fill:#C9DB7D;" d="M24.526,164.225c1.511-1.912,2.691-5.348,0.479-7.199c-1.513,0.123-3.173,0.178-4.8,0.721
		C21.408,160.143,22.515,162.635,24.526,164.225z"/>
	<path style="fill:#C9DB7D;" d="M25.726,133.506c4.273-6.695-3.906-12.627-5.04-19.201
		C16.649,120.538,22.864,128.329,25.726,133.506z"/>
	<path style="fill:#C9DB7D;" d="M26.686,122.706c2.196-1.863,2.367-6.262-0.48-7.68c-0.869,0.971-1.294,2.387-1.92,3.6
		C25.298,119.774,25.541,121.69,26.686,122.706z"/>
	<path style="fill:#C9DB7D;" d="M28.365,169.506c2.076-2.268,1.105-5.848-1.2-7.441C24.799,164.76,25.878,167.631,28.365,169.506z"
		/>
	<path style="fill:#C9DB7D;" d="M31.965,118.626c1.601,3.522,3.352,6.889,5.04,10.32c3.251-1.021,1.478-3.678,0.24-6.24
		c-1.167-2.418-2.908-5.338-3.6-6.721C33.443,117.223,32.281,117.502,31.965,118.626z"/>
	<path style="fill:#C9DB7D;" d="M37.486,119.586c2.967,6.232,6.227,12.24,9.12,17.52c1.521-0.24,1.936-1.584,2.64-2.641
		c-4.287-7.313-8.976-14.225-12.479-22.32C33.716,113.536,36.181,116.846,37.486,119.586z"/>
	<path style="fill:#C9DB7D;" d="M26.925,99.667c-3.744,6.018,2.284,12.271,4.561,16.799c2.277-2.814-0.124-4.963-1.68-9.119
		C28.509,103.883,27.761,101.018,26.925,99.667z"/>
	<path style="fill:#C9DB7D;" d="M30.285,158.465c-0.914,2.426-0.967,3.805,0.481,5.76C34.927,163.92,32.08,159.555,30.285,158.465z"
		/>
	<path style="fill:#C9DB7D;" d="M32.446,152.946c-2.267-5.574-5.099-10.582-7.92-15.6c-4.454,3.977,4.977,11.707,5.28,16.32
		C31.152,153.891,31.433,153.053,32.446,152.946z"/>
	<path style="fill:#C9DB7D;" d="M44.205,187.266c2.167-1.113,6.045-0.516,7.68-2.16C50.944,180.428,44.294,184.307,44.205,187.266z"
		/>
	<path style="fill:#C9DB7D;" d="M49.005,176.465c0.5,0.701,0.804,1.598,1.44,2.16c2.328-1.512,5.755-1.924,8.64-2.879
		C57.902,170.458,51.946,175.62,49.005,176.465z"/>
	<path style="fill:#C9DB7D;" d="M61.245,175.026c2.286-0.516,5.353-2.326,8.64-2.641c-0.161-4.748-7.528-1.746-10.8-0.719
		C59.51,173.081,60.152,174.28,61.245,175.026z"/>
	<path style="fill:#C9DB7D;" d="M87.165,148.866c-1.809,0.83-3.118,2.162-5.04,2.881c-0.148,1.986,0.518,3.162,0.72,4.799
		c2.827-0.773,5.156-2.045,7.2-3.6C88.429,152.243,88.672,149.678,87.165,148.866z"/>
	<path style="fill:#C9DB7D;" d="M66.766,163.985c-3.413,1.199-9.473,3.924-12,5.521c3.364,2.941,8.457-1.998,13.439-1.92
		C68.312,166.315,68.352,163.428,66.766,163.985z"/>
	<path style="fill:#C9DB7D;" d="M34.125,95.346c1.544,3.229,3.07,8.17,4.561,9.84c2.575-3.113,0.075-5.209-0.96-8.4
		c-1.057-3.256-1.565-7.057-3.12-9.119C30.383,87.862,32.849,92.676,34.125,95.346z"/>
	<path style="fill:#C9DB7D;" d="M40.845,175.985c-2.15-2.902-2.373-6.746-5.279-3.119c2.721,2.959,4.761,6.6,7.2,9.84
		C44.307,179.299,42.339,178.002,40.845,175.985z"/>
	<path style="fill:#C9DB7D;" d="M31.965,175.266c1.584-2.572,0.552-5.281-1.439-6.721C28.746,170.778,30.216,173.893,31.965,175.266
		z"/>
	<path style="fill:#C9DB7D;" d="M36.285,181.266c2.083,1.906,2.703,6.178,5.04,6.48c-0.032-5.934-4.014-9.873-7.2-13.441
		c-0.282,1.4-1.591,2.533-1.439,3.84C32.895,179.965,35.021,180.108,36.285,181.266z"/>
	<path style="fill:#C9DB7D;" d="M24.045,151.985c1.757,2.531,2.816,5.191,4.32,6.721c1.353-6.613-4.769-11.609-6.96-17.039
		C18.022,145.321,21.697,148.604,24.045,151.985z"/>
	<path style="fill:#C9DB7D;" d="M75.885,42.305c-1.666-0.52-3.983,4.906-2.159,6.961C76.587,49.583,78.437,43.102,75.885,42.305z"/>
	<path style="fill:#C9DB7D;" d="M79.005,47.586c0.257,4.551,2.277,9.396,2.88,14.398c2.818-3.857,2.772-9.297,1.2-14.398
		C81.503,47.895,80.139,46.954,79.005,47.586z"/>
	<path style="fill:#C9DB7D;" d="M78.526,79.026c0.813,1.975,3.604,3.045,5.52,1.92c-0.116-1.004-0.461-1.779-0.72-2.641
		C81.981,78.801,80.071,78.731,78.526,79.026z"/>
	<path style="fill:#C9DB7D;" d="M75.406,55.506c1.36,0.16,2.181-0.219,3.12-0.481c-0.271-2.369-0.199-5.08-1.44-6.48
		C74.55,49.752,73.448,52.764,75.406,55.506z"/>
	<path style="fill:#C9DB7D;" d="M94.125,63.426c-3.838,3.922-10.492,5.027-13.68,9.6c5.02,0.162,10.001-3.281,14.399-5.279
		C95.157,66.219,95.221,64.186,94.125,63.426z"/>
	<path style="fill:#C9DB7D;" d="M82.845,83.106c1.092,2.394,4.849,0.789,6.24,2.641c2.938-0.277,5.019-3.924,3.36-7.201
		C89.029,79.848,86.308,81.848,82.845,83.106z"/>
	<path style="fill:#C9DB7D;" d="M101.085,99.905c-2.874,0.592-5.394,0.91-8.64,1.922c-2.392,0.744-4.788,1.879-7.2,2.639
		c-9.583,3.021-20.201,4.096-22.08,13.201c4.753-3.41,10.782-4.068,16.08-6.721c1.643-0.822,2.729-2.48,4.561-3.119
		c5.349-1.867,11.474-1.326,17.279-3.842C101.179,102.477,102.341,100.711,101.085,99.905z"/>
	<path style="fill:#C9DB7D;" d="M89.085,97.266c0.33,1.461,0.182,3-0.24,4.32c2.993-0.447,4.753-2.129,8.16-2.16
		c-0.204-1.637-1.79-1.891-1.68-3.84C93.016,95.917,90.981,96.52,89.085,97.266z"/>
	<path style="fill:#C9DB7D;" d="M101.566,88.385c-3.117,0.402-5.021,2.02-7.92,2.641c0.869,1.051,2.025,1.814,3.12,2.641
		c1.588-0.973,3.135-1.986,5.279-2.4C102.436,90.374,101.663,89.487,101.566,88.385z"/>
	<path style="fill:#C9DB7D;" d="M61.245,79.026c1.059-0.063,1.856-0.383,3.12-0.24c-2.404-5.115-3.808-11.232-6.72-15.84
		C55.224,68.237,59.399,74.346,61.245,79.026z"/>
	<path style="fill:#C9DB7D;" d="M43.726,78.786c-0.101,1.141,0.349,1.73,0.479,2.641c1.071-0.609,1.625-1.734,2.4-2.641
		C46.135,77.835,44.507,78.588,43.726,78.786z"/>
	<path style="fill:#C9DB7D;" d="M47.085,80.706c-0.609,0.91-1.538,1.502-2.16,2.4c0.628,1.133,1.01,2.51,1.92,3.359
		c0.172-1.188,1.524-1.195,1.921-2.16C48.328,82.983,48.081,81.469,47.085,80.706z"/>
	<path style="fill:#C9DB7D;" d="M72.045,61.506c1.438,3.988,3.144,7.865,4.32,11.52c4.41-5.859-1.908-14.793-4.08-20.16
		C67.914,55.006,70.669,57.69,72.045,61.506z"/>
	<path style="fill:#C9DB7D;" d="M50.925,84.065c3.477-1.48-0.662-6.438-1.68-8.639C45.774,77.294,50.015,81.504,50.925,84.065z"/>
	<path style="fill:#C9DB7D;" d="M42.285,89.827c6.037-1.211-0.102-6.67-0.479-10.561C37.423,80.612,42.213,86.336,42.285,89.827z"/>
	<path style="fill:#C9DB7D;" d="M60.766,66.065c0.888,2.424,2.696,4.988,2.88,6.481c1.803-0.117,2.232-1.607,4.08-1.68
		c-1.326-4.035-4.039-6.682-5.28-10.801C58.234,60.335,59.62,62.94,60.766,66.065z"/>
	<path style="fill:#C9DB7D;" d="M64.125,59.346c1.634,6.525,6.011,10.309,7.92,16.559c1.309-0.326,2.465,0.27,3.36-0.719
		c-2.384-6.096-3.961-13-7.441-18C67.04,58.26,65.525,58.745,64.125,59.346z"/>
	<path style="fill:#C9DB7D;" d="M40.845,99.905c3.599-1.963-0.364-5.016-0.72-7.199c-0.102-0.627,0.697-1.258,0.72-1.92
		c0.1-2.826-1.969-6.352-3.119-8.4C33.665,87.186,39.845,94.233,40.845,99.905z"/>
	<path style="fill:#C9DB7D;" d="M51.885,69.667c2.314,4.244,3.572,9.547,6.721,12.959c0.25-1.189,0.884-1.996,1.2-3.119
		c-2.757-2.844-2.556-8.645-5.04-11.76C53.839,68.419,52.713,68.893,51.885,69.667z"/>
	<path style="fill:#C9DB7D;" d="M51.646,115.266c-0.783,0.977-2.134,1.387-3.601,1.68c2.572,4.791,5.314,11.482,9.12,15.84
		c0.466-1.375,0.845-2.836,0.96-4.561C53.851,126.02,54.619,118.772,51.646,115.266z"/>
	<path style="fill:#C9DB7D;" d="M43.245,190.626c3.165,0.004,6.479,1.422,9.36,0.24c-0.074-1.193,0.038-2.201,0.239-3.119
		C49.559,188.577,45.505,189.522,43.245,190.626z"/>
	<path style="fill:#C9DB7D;" d="M98.925,33.186c-3.781,2.139-8.385,3.455-8.159,9.6c2.856-0.676,5.146-3.963,8.159-5.279
		C98.544,36.229,99.118,34.944,98.925,33.186z"/>
	<path style="fill:#C9DB7D;" d="M97.245,47.106c-3.648,1.877-8.801,3.512-9.12,7.92C92.56,54.733,96.722,52.108,97.245,47.106z"/>
	<path style="fill:#C9DB7D;" d="M103.005,50.946c-4.443,2.355-10.217,3.383-13.92,6.48c-0.037,3.078,0.114,6.492,1.92,6.719
		c0.772,0.098,3.97-2.728,5.28-3.6c2.411-1.601,4.069-2.758,5.76-3.359C101.851,54.844,104.284,52.797,103.005,50.946z"/>
	<path style="fill:#C9DB7D;" d="M106.845,58.385c-4.902-0.398-9.132,1.892-11.52,4.801c2.105-0.051,0.985,2.488,1.2,3.84
		c3.439-1.361,6.729-2.871,10.08-4.32C106.419,61.001,106.968,60.028,106.845,58.385z"/>
	<path style="fill:#C9DB7D;" d="M15.646,135.907c1.817-2.754,1.07-6.705-1.2-8.4C12.722,130.629,12.434,134.061,15.646,135.907z"/>
	<path style="fill:#C9DB7D;" d="M107.085,78.545c0-1.279,0-2.561,0-3.84c-4.965-1.383-8.842,2.096-12.96,3.121
		c0.772,1.258,0.658,4.475,0,5.76C98.612,83.083,102.282,78.772,107.085,78.545z"/>
	<path style="fill:#C9DB7D;" d="M11.566,134.465c-2.928,2.053-0.467,5.385,1.439,7.201
		C14.888,139.163,13.759,135.977,11.566,134.465z"/>
	<path style="fill:#C9DB7D;" d="M85.005,50.465c1.828-1.137-0.035-3.4,0.721-4.799C83.432,46.024,85.379,49.038,85.005,50.465z"/>
	<path style="fill:#C9DB7D;" d="M21.406,130.145c-1.61-3.227-2.394-7.408-3.84-9.359c-5.379,5.055,3.377,11.465,4.08,17.279
		C26.226,136.145,22.891,133.124,21.406,130.145z"/>
	<path style="fill:#C9DB7D;" d="M88.845,65.346c-0.622-1.938-1.107-4.014-1.68-6c-2.49,2.549-3.099,6.98-5.28,9.84
		C84.323,68.022,86.442,66.542,88.845,65.346z"/>
	<path style="fill:#C9DB7D;" d="M73.486,79.747c0.83-0.291,1.03-1.211,1.2-2.16c-0.56,0-1.12,0-1.681,0
		C72.878,78.592,73.425,78.926,73.486,79.747z"/>
	<path style="fill:#C9DB7D;" d="M70.606,95.827c5.688-2.473,13.348-2.973,18.96-5.521c-0.067-3.131-2.863-2.111-5.521-1.68
		c-2.792,0.453-6.828,0.131-8.399,0.721C72.723,90.444,70.256,93.704,70.606,95.827z"/>
	<path style="fill:#C9DB7D;" d="M91.965,90.065c5.692-1.267,9.516-4.404,15.12-5.76c0-1.199,0-2.4,0-3.6
		c-6.405,0.639-11.262,4.895-17.519,6.48C90.288,88.223,91.851,88.42,91.965,90.065z"/>
	<path style="fill:#C9DB7D;" d="M80.686,94.626c-4.16,0.959-12.848,1.357-12.48,7.201c5.179-1.1,8.243-3.031,13.92-3.361
		C82.306,97.442,82.37,94.237,80.686,94.626z"/>
	<path style="fill:#C9DB7D;" d="M76.845,80.465c-0.127,0.832-0.642,1.279-0.72,2.16c1.119,0.16,1.542-0.377,2.4-0.48
		C78.262,81.29,77.702,80.729,76.845,80.465z"/>
	<path style="fill:#C9DB7D;" d="M69.406,103.506c0.702,1.057,1.006,2.514,1.439,3.84c3.061-0.541,6.135-1.066,8.4-2.4
		C80.181,97.196,72.354,102.215,69.406,103.506z"/>
	<path style="fill:#C9DB7D;" d="M80.925,121.026c-3.313,0.457-6.306,3.285-9.6,4.561c0,1.039,0,2.08,0,3.119
		C75.239,126.86,80.05,125.911,80.925,121.026z"/>
	<path style="fill:#C9DB7D;" d="M73.005,89.106c3.317-3.154,9.445-0.438,12.48-2.881c-2.391,0.486-3.275-2.547-5.28-2.879
		C76.878,82.794,73.82,85.917,73.005,89.106z"/>
	<path style="fill:#C9DB7D;" d="M92.925,107.586c-1.866,1.119-5.618,0.525-8.399,1.439c-1.102,0.361-2.441,1.744-4.08,2.641
		c-6.302,3.441-17.651,4.418-18.481,12.479c10.033-5.307,20.176-9.213,31.92-12.959C93.9,109.651,93.673,108.358,92.925,107.586z"/>
	<path style="fill:#C9DB7D;" d="M69.646,126.545c-3.545,0.855-5.374,3.428-9.36,3.84c0.168,1.609-0.735,2.145-0.72,3.6
		c3.732-1.066,6.323-3.275,9.84-4.559C69.217,128.198,69.742,127.682,69.646,126.545z"/>
	<path style="fill:#C9DB7D;" d="M72.526,171.667c5.203-1.438,10.311-2.969,14.16-5.76c-1.406-4.598-4.055-0.971-6.96,0
		c-3.386,1.129-7.308,1.973-9.36,3.119C70.474,170.518,71.514,171.077,72.526,171.667z"/>
	<path style="fill:#C9DB7D;" d="M108.045,126.786c-3.614,1.162-10.846,4.924-13.92,6.24c3.404,5.416,10.157-1.479,15.36-1.68
		C109.364,129.852,109.901,126.19,108.045,126.786z"/>
	<path style="fill:#C9DB7D;" d="M81.165,158.946c-3.468,1.893-6.45,4.27-11.76,4.32c0.168,1.271,0.666,2.213,0.479,3.84
		c4.652-1.428,9.511-2.65,13.2-5.041C82.386,161.085,82.527,159.264,81.165,158.946z"/>
	<path style="fill:#C9DB7D;" d="M64.845,89.586c-0.703,0.736-1.174,1.705-1.92,2.398c0.53,2.512,1.883,4.199,2.4,6.721
		C68.105,97.094,66.183,91.424,64.845,89.586z"/>
	<path style="fill:#C9DB7D;" d="M76.365,56.946c1.034,3.285,1.912,6.727,3.12,9.84c2.398-1.85,0.091-7.207-0.24-10.08
		C78.143,56.747,77.417,57.536,76.365,56.946z"/>
	<path style="fill:#C9DB7D;" d="M101.325,136.145c-5.736,3.045-14.516,7.322-21.12,9.602c0.107,1.732,1.163,2.518,1.2,4.318
		c7.843-3.516,15.275-7.443,22.8-11.279C104.084,137.776,102.236,135.663,101.325,136.145z"/>
	<path style="fill:#C9DB7D;" d="M44.446,64.145c-3.562,2.83,1.12,8.123,2.399,11.281C49.999,72.614,45.95,66.846,44.446,64.145z"/>
	<path style="fill:#C9DB7D;" d="M45.406,76.385c-1.294-1.49-2.498-6.662-3.6-8.16c-0.682-0.924-1.894,1.221-1.921,1.441
		c-0.248,2.049,2.855,4.773,3.12,7.44C44.083,77.145,44.891,76.911,45.406,76.385z"/>
	<path style="fill:#C9DB7D;" d="M41.325,77.586c-0.669-2.371-1.939-4.143-2.64-6.48c-4.828,1.326-1.419,5.809,0.479,8.16
		C39.739,78.559,40.359,77.899,41.325,77.586z"/>
	<path style="fill:#C9DB7D;" d="M82.606,45.905c-1.991-4.088-2.065-10.096-4.8-13.44c-8.114,2.688,0.441,7.859,0.96,13.44
		C80.26,45.667,80.857,45.956,82.606,45.905z"/>
	<path style="fill:#C9DB7D;" d="M34.365,75.426c-2.622,1.758-0.402,5.979,0.72,8.16C38.43,81.444,36.626,77.534,34.365,75.426z"/>
	<path style="fill:#C9DB7D;" d="M61.965,58.385c-0.598-3.082-1.189-6.17-2.88-8.16c-4.722,2.615-3.114,5.574-0.96,9.84
		C59.585,59.686,60.698,58.96,61.965,58.385z"/>
	<path style="fill:#C9DB7D;" d="M74.686,40.626c-1.156-1.004-1.129-3.191-2.641-3.84c-3.253,2.021-1.751,4.277,0,6.961
		C73.409,43.19,73.671,41.532,74.686,40.626z"/>
	<path style="fill:#C9DB7D;" d="M68.686,53.586c1.515-0.99,3.29-1.557,3.6-2.881c0.422-1.805-2.2-9.508-4.08-9.6
		c-0.969-0.049-3.024,1.895-3.12,3.359C64.896,47.364,69.146,49.612,68.686,53.586z"/>
	<path style="fill:#C9DB7D;" d="M63.646,45.667c-0.986,1.094-1.91,2.25-3.12,3.119c1.214,2.785,2.176,5.824,3.12,8.881
		C71.036,57.065,65.418,48.862,63.646,45.667z"/>
	<path style="fill:#C9DB7D;" d="M53.806,55.026c-4.235,2.4,0.451,6.039,1.68,9.119C58.117,61.315,55.637,57.391,53.806,55.026z"/>
	<path style="fill:#C9DB7D;" d="M17.085,105.186c-2.642,3.678-0.17,6.908,0.96,10.561C21.193,113.038,19.087,107.919,17.085,105.186
		z"/>
	<path style="fill:#C9DB7D;" d="M31.245,79.506c-0.413,1.105-1.461,1.578-1.68,2.879c1.315,0.926,0.819,3.662,1.68,5.041
		C35.6,86.825,32.206,81.735,31.245,79.506z"/>
	<path style="fill:#C9DB7D;" d="M19.965,97.985c-2.957,3.258-0.351,7.918,1.2,11.281C23.367,105.989,21.139,101.317,19.965,97.985z"
		/>
	<path style="fill:#C9DB7D;" d="M12.045,129.426c2.044-3.262,1.046-7.029-0.96-9.6C9.523,123.155,9.38,127.143,12.045,129.426z"/>
	<path style="fill:#C9DB7D;" d="M8.925,128.465c-1.25,1.809-1.45,4.641,0,6.24C11.539,133.665,10.335,129.905,8.925,128.465z"/>
	<path style="fill:#C9DB7D;" d="M14.686,112.385c-2.514,2.037-2.604,7.061-0.24,9.361C17.267,119.764,16.991,115.09,14.686,112.385z
		"/>
	<path style="fill:#C9DB7D;" d="M34.606,106.626c-1.463-3.926-3.417-11.287-5.28-12.48c-1.706,5.895,2.003,13.965,5.04,18.24
		C37.171,111.137,35.484,108.983,34.606,106.626z"/>
	<path style="fill:#C9DB7D;" d="M27.165,86.225c-1.047,1.313-0.674,6.293,0.481,7.68C29.813,92.211,27.907,88.481,27.165,86.225z"/>
	<path style="fill:#C9DB7D;" d="M24.285,90.545c-2.351,2.451-1.001,7.016,0.72,9.6C27.091,97.288,25.749,93.538,24.285,90.545z"/>
	<path style="fill:#C9DB7D;" d="M22.845,109.026c-1.036,2.303-0.777,5.559,0.721,7.199C25.81,114.04,25.001,110.848,22.845,109.026z
		"/>
	<path style="fill:#C9DB7D;" d="M92.686,35.346c1.068-1.092,2.744-1.576,3.6-2.881c-0.652-0.627-0.957-1.603-1.44-2.4
		C93.092,30.586,92.305,34.245,92.686,35.346z"/>
	<path style="fill:#C9DB7D;" d="M97.726,31.506c2.4-0.854,3.436-1.637,6-2.16c0.18-1.701-0.269-2.773-0.48-4.08
		c-3.256,0.104-4.351,2.369-6.479,3.6C97.307,29.524,98.043,29.987,97.726,31.506z"/>
	<path style="fill:#C9DB7D;" d="M103.726,56.706c0.969,0.605,1.804-0.666,3.359-0.24c-0.217-2.342,0.805-5.924-1.92-5.76
		C105.289,53.309,103.779,54.278,103.726,56.706z"/>
	<path style="fill:#C9DB7D;" d="M97.965,44.706c2.861-0.578,4.781-2.098,7.92-2.4c-0.468-1.611-0.266-3.893-0.96-5.279
		c-3.103,0.896-6.239,1.76-8.159,3.84C97.56,41.752,97.363,43.629,97.965,44.706z"/>
	<path style="fill:#C9DB7D;" d="M107.085,67.985c-6.82,2.543-15.395,5.402-21.6,9.361c-0.244,0.648,1,1.574,0.24,2.879
		c7.021-2.658,12.366-6.992,21.359-7.68C107.236,71.752,106.984,69.508,107.085,67.985z"/>
	<path style="fill:#C9DB7D;" d="M100.365,36.786c1.541-0.459,3.151-0.85,4.32-1.68c-0.473-1.129-0.315-2.885-0.721-4.08
		c-1.198,0.32-2.514,0.525-3.359,1.199C100.645,33.76,100.018,35.721,100.365,36.786z"/>
	<path style="fill:#C9DB7D;" d="M84.285,44.465c4.13-4.5-1.145-11.641-3.12-15.359c-3.351,1.174-1.265,3.049-0.24,5.279
		C82.272,37.317,82.192,43.18,84.285,44.465z"/>
	<path style="fill:#C9DB7D;" d="M99.406,118.145c-2.588,0.74-5.461,1.207-7.68,2.4c-7.024,3.781-16.339,7.519-23.04,10.32
		c-3.463,1.447-10.803,4.69-10.801,8.641c2.734,1.352,4.386-0.986,6.48-1.92c14.188-6.33,30.107-11.441,43.92-18.48
		c-0.21-1.391-0.09-3.111-0.96-3.84C104.898,115.919,102.376,117.297,99.406,118.145z"/>
	<path style="fill:#C9DB7D;" d="M82.606,131.586c-3.105,1.479-6.769,3.543-10.32,4.799c-3.215,1.139-10.005,3.105-10.32,5.041
		c-0.146,0.902,2.095,4.012,3.36,4.08c1.505,0.08,5.875-2.951,7.92-4.08c11.249-6.209,24.061-11.658,35.521-16.561
		c0.052-0.826,0.236-3.283-0.48-4.08C99.953,124.87,92.598,126.829,82.606,131.586z"/>
	<path style="fill:#C9DB7D;" d="M107.085,85.985c-1.631,0.131-2.6,0.92-4.08,1.201c-0.543,2.977,2.493,3.859,4.32,2.4
		C107.215,88.417,107.576,86.774,107.085,85.985z"/>
	<path style="fill:#C9DB7D;" d="M97.005,95.346c-0.242,1.203,1.157,3.158,2.4,3.359c2.343,0.379,6.035-3.469,8.16-3.359
		c0-1.281,0-2.561,0-3.84C104.269,92.399,97.58,92.495,97.005,95.346z"/>
	<path style="fill:#C9DB7D;" d="M97.486,51.426c4.13-0.859,9.016-3.154,8.399-7.201C100.986,43.567,98.143,47.042,97.486,51.426z"/>
	<path style="fill:#C9DB7D;" d="M101.085,15.426c-0.568-1.352-0.141-3.699-1.2-4.561c-0.58,1.742-1.789,4.127-1.439,6
		C99.062,16.122,100.27,15.971,101.085,15.426z"/>
	<path style="fill:#C9DB7D;" d="M9.165,151.506c-0.729-1.879-2.096-3.396-2.64-4.08c-0.042,4.664,0.471,8.584,2.64,11.52
		C12.454,157.61,10.437,154.786,9.165,151.506z"/>
	<path style="fill:#C9DB7D;" d="M92.686,16.145c-0.738,1.102-1.848,1.834-2.4,3.121c1.126,0.953,1.358,2.801,2.4,3.84
		C93.55,21.569,94.986,17.27,92.686,16.145z"/>
	<path style="fill:#C9DB7D;" d="M86.205,29.586c-3.169,3.688,2.182,7.141,1.44,12.719c2.648-6.627,1.104-13.584-2.641-18
		c-1.741,1.705-3.671,3.988-1.199,6.24C84.824,30.506,85.006,28.684,86.205,29.586z"/>
	<path style="fill:#C9DB7D;" d="M87.885,25.506c1.047-0.082,1.893-1.619,3.12-0.721c-1.691,1.588-3.229,3.303-0.96,5.52
		c2.254-1.693,1.547-9.807-1.2-9.84C86.952,20.442,86.199,24.37,87.885,25.506z"/>
	<path style="fill:#C9DB7D;" d="M94.606,26.706c-0.214,0.586-0.56,1.041-0.481,1.92C95.24,28.563,95.107,27.335,94.606,26.706z"/>
	<path style="fill:#C9DB7D;" d="M103.005,23.346c-0.115-3.865-1.38-8.094-4.8-4.801c1.031,1.529,1.63,3.49,1.92,5.76
		C101.35,24.251,102.035,23.657,103.005,23.346z"/>
	<path style="fill:#C9DB7D;" d="M97.486,20.465c-0.24,0-0.48,0-0.72,0c-0.972,1.984-0.98,3.922-0.48,6.48
		C99.518,26.583,98.845,22.62,97.486,20.465z"/>
	<path style="fill:#C9DB7D;" d="M95.085,15.905c0.264-0.625,1.221-1.805,0.481-2.639C95.041,13.686,93.889,15.268,95.085,15.905z"/>
	<path style="fill:#C9DB7D;" d="M54.285,66.065c-1.3-2.619-2.209-5.631-4.32-7.439c-0.15,0.969-1.177,1.063-1.439,1.92
		c1.243,2.197,1.049,5.83,2.64,7.68C52.377,67.676,53.577,67.118,54.285,66.065z"/>
	<path style="fill:#C9DB7D;" d="M80.446,182.225c4.099-0.141,5.531-2.947,7.68-5.039c-3.681-0.08-5.243,1.957-8.399,2.4
		C79.842,180.59,80.103,181.448,80.446,182.225z"/>
	<path style="fill:#C9DB7D;" d="M78.526,182.946c-0.062-0.98-0.136-2.732-1.44-3.119c-2.119-0.633-11.35,3.592-11.76,4.559
		c-0.287,0.678,0.229,2.063,0,2.4C70.112,185.891,73.269,183.37,78.526,182.946z"/>
	<path style="fill:#C9DB7D;" d="M66.766,190.145c4.095-1.744,8.688-2.99,12-5.52c-5.104,0.656-8.878,2.643-13.2,4.08
		C65.72,189.432,65.941,190.09,66.766,190.145z"/>
	<path style="fill:#C9DB7D;" d="M55.245,192.065c0.133,1.75,0.133,1.371,0,3.121c3.73-0.75,5.839-3.121,9.36-4.08
		C63.412,187.346,57.901,191.399,55.245,192.065z"/>
	<path style="fill:#C9DB7D;" d="M63.165,177.667c0.063,1.455,0.738,2.301,1.441,3.119c3.205-1.674,7.523-2.236,10.8-3.84
		C73.305,174.131,66.423,177.049,63.165,177.667z"/>
	<path style="fill:#C9DB7D;" d="M42.045,194.706c4.417,0.416,6.798,0.25,11.28,0.24c0.296-1.02,0.088-1.293,0-2.4
		C49.926,194.647,42.497,189.536,42.045,194.706z"/>
	<path style="fill:#C9DB7D;" d="M40.845,197.827c3.402-0.068,8.96,2.055,11.04-0.961C48.38,197.415,42.512,194.977,40.845,197.827z"
		/>
	<path style="fill:#C9DB7D;" d="M62.925,184.866c-2.931,0.668-5.858,1.342-8.399,2.4c0,1.039,0,2.08,0,3.119
		c2.96-0.959,5.719-2.121,8.88-2.879C63.163,186.708,63.936,184.895,62.925,184.866z"/>
	<path style="fill:#C9DB7D;" d="M52.125,181.747c1.14,5.385,6.664-0.449,10.08-0.721C61.202,175.913,55.902,182.21,52.125,181.747z"
		/>
	<path style="fill:#C9DB7D;" d="M101.085,146.946c3.933-1.428,8.157-2.563,7.92-8.16c-3.971,0.668-6.238,3.041-9.6,4.32
		C99.7,144.651,100.767,145.424,101.085,146.946z"/>
	<path style="fill:#C9DB7D;" d="M109.486,133.026c-2.141,0.5-4.513,0.768-5.76,2.16c0.677,1.973,3.484,0.465,4.8,1.92
		C109.856,136.756,109.436,134.657,109.486,133.026z"/>
	<path style="fill:#C9DB7D;" d="M9.646,160.626c-0.65,2.996,3.566,6.354,4.8,8.4c1.538-3.363-0.319-7.754-1.92-10.08
		C11.972,158.141,9.747,160.157,9.646,160.626z"/>
	<path style="fill:#C9DB7D;" d="M83.566,157.985c-0.161,1.361,0.539,1.861,0.72,2.881c7.273-2.887,13.667-6.652,21.36-9.119
		c0.13-1.865,1.978-4.32,1.199-5.521C99.138,150.198,91.711,154.452,83.566,157.985z"/>
	<path style="fill:#C9DB7D;" d="M76.365,174.786c0.68,2.539,2.537,0.672,4.56,0.24c5.442-1.16,12.21,0.309,8.641-6
		C85.243,171.024,81.481,173.581,76.365,174.786z"/>
	<path style="fill:#C9DB7D;" d="M92.205,171.667c2.183-0.859,3.836-3.523,4.561-5.041c-1.333,0.748-3.337,0.824-5.04,1.201
		C91.638,169.354,92.482,169.95,92.205,171.667z"/>
	<path style="fill:#C9DB7D;" d="M88.365,164.706c5.83-3.209,15.563-2.516,16.32-10.799c-6.388,2.492-12.573,5.186-18.48,8.158
		C86.414,163.458,87.837,163.633,88.365,164.706z"/>
	<path style="fill:#C9DB7D;" d="M28.845,186.065c-0.128,1.693,2.519,2.488,3.36,3.842C36.802,186.936,29.176,181.713,28.845,186.065
		z"/>
	<path style="fill:#C9DB7D;" d="M16.606,166.385c-1.81,6.283,3.337,8.492,5.52,12.24c2.982-0.938,0.174-3.008-0.72-4.561
		C19.965,171.567,18.439,167.143,16.606,166.385z"/>
	<path style="fill:#C9DB7D;" d="M34.606,194.225c1.225,1.096,1.819,2.822,4.319,2.641C39.841,194.655,35.744,194.358,34.606,194.225
		z"/>
	<path style="fill:#C9DB7D;" d="M15.165,140.706c-2.28,2.523-1.098,7.104,0.96,9.121C18.422,146.749,16.838,143.444,15.165,140.706z
		"/>
	<path style="fill:#C9DB7D;" d="M23.566,179.827c-0.322,2.049,5.171,8.059,5.76,3.6C28.783,181.528,24.019,176.944,23.566,179.827z"
		/>
	<path style="fill:#C9DB7D;" d="M33.165,190.866c2.036,1.164,4.062,2.338,6.72,2.881C39.99,191.227,33.924,186.854,33.165,190.866z"
		/>
	<path style="fill:#8E9F56;" d="M110.686,89.106c-0.367-10.396-0.771-20.412-0.24-30c0.455-8.213-1.04-16.701-2.16-24.24
		c-1.144-7.701-2.79-14.805-4.32-21.359c-0.756-3.24-0.502-14.459-4.559-13.441c-3.36,0.844-5.097,7.801-6.72,10.32
		c-2.262,3.512-6.28,6.711-9.601,10.08c-10.05,10.199-19.976,19.363-29.76,29.52c-6.337,6.58-13.714,12.607-19.44,19.92
		c-5.788,7.393-12.594,14.646-16.8,22.801c-2.596,5.033-5.048,10.725-7.68,16.32c-2.156,4.584-4.392,10.623-5.76,16.08
		c-1.666,6.641-4,14.324-3.601,21.119c1.118,18.998,10.644,33.561,20.88,43.92c2.716,2.75,8.146,3.725,10.561,7.92
		c3.274,5.689-0.657,11.045-2.88,16.32c-3.301,7.832-5.758,13.039-9.36,20.4c-1.201,2.455-4.714,8.348-4.08,10.801
		c0.38,1.469,3.295,2.854,4.561,2.639c2.563-0.432,3.972-5.604,5.279-8.639c1.693-3.93,3.554-6.943,4.801-9.361
		c3.55-6.883,7.529-12.463,9.6-18.479c0.75-2.182,1.948-10.297,3.84-11.041c1.392-0.547,4.432,1.082,6.96,0.721
		c4.352-0.623,9.11-4.385,12.48-6c5.525-2.65,11.076-4.121,16.08-6.961c3.589-2.035,6.11-4.732,9.359-6.959
		c2.413-1.654,5.509-3.047,7.681-5.041c2.479-2.275,4.374-5.607,6.72-8.879c5.726-7.99,9.461-19.424,10.319-31.68
		c0.634-9.033-2.13-20.596-2.64-27.842C109.764,101.792,110.905,95.313,110.686,89.106z M109.486,131.346
		c-5.203,0.201-11.956,7.096-15.36,1.68c3.074-1.316,10.306-5.078,13.92-6.24C109.901,126.19,109.364,129.852,109.486,131.346z
		 M69.885,167.106c0.187-1.627-0.312-2.568-0.479-3.84c5.309-0.051,8.292-2.428,11.76-4.32c1.361,0.318,1.221,2.139,1.92,3.119
		C79.396,164.456,74.537,165.678,69.885,167.106z M86.686,165.907c-3.85,2.791-8.957,4.322-14.16,5.76
		c-1.012-0.59-2.052-1.148-2.16-2.641c2.053-1.146,5.975-1.99,9.36-3.119C82.631,164.936,85.28,161.309,86.686,165.907z
		 M52.606,190.866c-2.881,1.182-6.195-0.236-9.36-0.24c2.26-1.104,6.313-2.049,9.6-2.879
		C52.644,188.665,52.531,189.672,52.606,190.866z M14.446,127.506c2.27,1.695,3.018,5.646,1.2,8.4
		C12.434,134.061,12.722,130.629,14.446,127.506z M13.005,141.667c-1.906-1.816-4.367-5.148-1.439-7.201
		C13.759,135.977,14.888,139.163,13.005,141.667z M17.566,120.786c1.446,1.951,2.229,6.133,3.84,9.359c1.485,2.979,4.82,6,0.24,7.92
		C20.943,132.251,12.187,125.84,17.566,120.786z M85.005,50.465c0.374-1.428-1.573-4.441,0.721-4.799
		C84.97,47.065,86.833,49.329,85.005,50.465z M87.165,59.346c0.572,1.986,1.058,4.063,1.68,6c-2.403,1.195-4.522,2.676-6.96,3.84
		C84.067,66.327,84.675,61.895,87.165,59.346z M98.925,37.506c-3.013,1.316-5.303,4.603-8.159,5.279
		c-0.226-6.145,4.378-7.461,8.159-9.6C99.118,34.944,98.544,36.229,98.925,37.506z M95.085,41.827
		c1.011,0.748,1.049,2.471,1.2,4.078c-2.315,1.125-4.346,2.535-6.72,3.602C89.091,44.631,93.006,44.147,95.085,41.827z
		 M97.245,47.106c-0.523,5.002-4.686,7.627-9.12,7.92C88.445,50.618,93.597,48.983,97.245,47.106z M106.606,62.706
		c-3.352,1.449-6.641,2.959-10.08,4.32c-0.215-1.352,0.905-3.891-1.2-3.84c2.388-2.908,6.617-5.199,11.52-4.801
		C106.968,60.028,106.419,61.001,106.606,62.706z M102.045,57.186c-1.69,0.602-3.349,1.758-5.76,3.359
		c-1.311,0.871-4.508,3.697-5.28,3.6c-1.806-0.226-1.957-3.641-1.92-6.719c3.703-3.098,9.477-4.125,13.92-6.48
		C104.284,52.797,101.851,54.844,102.045,57.186z M94.125,77.827c4.118-1.025,7.995-4.504,12.96-3.121c0,1.279,0,2.561,0,3.84
		c-4.803,0.227-8.474,4.537-12.96,5.041C94.783,82.301,94.897,79.085,94.125,77.827z M107.085,80.706c0,1.199,0,2.4,0,3.6
		c-5.604,1.355-9.428,4.492-15.12,5.76c-0.114-1.644-1.677-1.842-2.399-2.879C95.823,85.6,100.68,81.344,107.085,80.706z
		 M61.965,124.145c0.829-8.06,12.179-9.037,18.481-12.479c1.639-0.896,2.978-2.279,4.08-2.641c2.781-0.914,6.533-0.32,8.399-1.439
		c0.748,0.771,0.975,2.064,0.96,3.6C82.141,114.932,71.998,118.838,61.965,124.145z M80.925,121.026
		c-0.875,4.885-5.686,5.834-9.6,7.68c0-1.039,0-2.08,0-3.119C74.619,124.311,77.612,121.483,80.925,121.026z M69.406,129.426
		c-3.517,1.283-6.108,3.492-9.84,4.559c-0.016-1.455,0.888-1.99,0.72-3.6c3.986-0.412,5.815-2.984,9.36-3.84
		C69.742,127.682,69.217,128.198,69.406,129.426z M80.205,83.346c2.005,0.332,2.89,3.365,5.28,2.879
		c-3.035,2.443-9.163-0.273-12.48,2.881C73.82,85.917,76.878,82.794,80.205,83.346z M76.125,82.626
		c0.078-0.881,0.593-1.328,0.72-2.16c0.857,0.264,1.417,0.824,1.681,1.68C77.667,82.249,77.244,82.786,76.125,82.626z
		 M73.486,79.747c-0.061-0.82-0.607-1.154-0.48-2.16c0.561,0,1.12,0,1.681,0C74.516,78.536,74.316,79.456,73.486,79.747z
		 M75.646,89.346c1.571-0.59,5.607-0.268,8.399-0.721c2.657-0.432,5.453-1.451,5.521,1.68c-5.612,2.549-13.271,3.049-18.96,5.521
		C70.256,93.704,72.723,90.444,75.646,89.346z M86.925,102.545c-1.927,0.633-3.918,1.203-5.76,1.92
		c-0.529-1.15-0.677-2.684-0.72-4.32c2.361-0.438,4.93-0.67,6.479-1.92C87.817,99.059,86.081,100.69,86.925,102.545z
		 M68.205,101.827c-0.367-5.844,8.32-6.242,12.48-7.201c1.685-0.389,1.62,2.816,1.44,3.84
		C76.448,98.795,73.384,100.727,68.205,101.827z M79.245,104.946c-2.266,1.334-5.34,1.859-8.4,2.4
		c-0.434-1.326-0.737-2.783-1.439-3.84C72.354,102.215,80.181,97.196,79.245,104.946z M62.925,91.985
		c0.746-0.693,1.217-1.662,1.92-2.398c1.338,1.838,3.26,7.508,0.48,9.119C64.808,96.184,63.455,94.497,62.925,91.985z
		 M63.646,104.946c-0.444,0.676-0.743,1.496-0.96,2.4c-2.14-1.701-3.26-4.422-4.08-7.441
		C61.766,97.286,61.891,103.278,63.646,104.946z M67.005,104.465c2.022-0.021,1.489,2.512,2.4,3.6
		c-1.935,0.387-2.503,2.139-4.561,2.4C65.163,108.063,66.199,106.379,67.005,104.465z M84.285,98.225
		c-0.641-1.199-0.6-3.08-1.2-4.32c2.726-1.621,9.778-3.422,11.28,0.48C90.602,95.262,87.554,96.854,84.285,98.225z M70.845,86.706
		c-1.408-2.111-2.14-4.9-3.6-6.959c0.962-0.799,2.407-1.113,3.36-1.92C72.95,80.034,72.623,84.27,70.845,86.706z M66.045,78.305
		c-0.813-1.025-1.297-2.383-1.68-3.84c2.404-2.68,5.7-2.814,6,1.68C69.035,76.977,67.637,77.737,66.045,78.305z M65.566,80.465
		c1.951,2.449,5.473,8.637,2.399,12.24c-1.097-4.742-3.756-7.924-5.76-11.76C62.543,80.002,64.482,80.663,65.566,80.465z
		 M62.686,90.065c-2.224-1.785-4.495-5.209-1.92-7.92C62.425,84.237,65.455,87.588,62.686,90.065z M60.045,97.506
		c-0.746,0.213-1.118,0.801-1.92,0.959c-0.374-1.672-3.011-3.586-3.12-5.76c-0.105-2.109,1.764-4.086-1.68-2.4
		c-0.399-1.84-1.966-2.514-1.92-4.799C56.899,85.669,57.319,94.264,60.045,97.506z M53.085,94.385
		c2.216,0.016,3.016,4.746,4.561,8.4c1.989,4.707,5.747,6.781,3.12,12.721c-1.776-2.221-2.89-5.551-4.561-9.361
		c-0.981-2.238-4.4-5.773-4.08-7.92c0.198-1.33,2.741-1.592,1.44-3.119c-1.491-0.291-1.251,1.148-2.4,1.199
		c-0.234-3.742-5.466-7.221-2.16-10.08C50.752,88.559,52.754,90.637,53.085,94.385z M50.205,98.706
		c0.772,1.801,3.95,7.15-0.479,6.48c-1.273-0.193-7.292-11.475-6.721-13.68c0.343-1.324,2.272-1.143,2.88-2.16
		C47.588,90.309,48.472,94.663,50.205,98.706z M43.486,98.946c3.488,4.111,5.153,10.047,7.92,14.881
		c-1.45,0.363-2.247,1.926-4.08,1.199C46.624,109.381,40.491,103.764,43.486,98.946z M54.285,133.747
		c-2.651-0.373-3.619-3.844-5.04-6.48c-2.401-4.455-4.758-7.287-6.96-12.721c-1.458-3.596-3.432-6.406-1.68-10.561
		c0.239,0,0.479,0,0.72,0C44.61,114.784,50.425,124.325,54.285,133.747z M56.205,135.186c0.054,1.014-0.37,1.549-0.479,2.4
		c-0.984-0.137-0.719-1.521-1.441-1.92C54.466,135.044,55.633,134.684,56.205,135.186z M49.965,136.385
		c2.832,2.254,5.059,7.551,2.4,11.281C50.067,145.133,45.159,138.895,49.965,136.385z M39.646,142.866
		c3.345,2.494,4.402,7.277,7.199,10.32c-1.344,0.256-2.04,1.16-3.84,0.959C42.797,149.708,36.966,147.163,39.646,142.866z
		 M41.325,154.866c-1.109,0.731-1.755,1.926-2.88,2.641c-2.439-1.49-4.302-4.91-0.72-6.24c0-0.881,0-1.76,0-2.641
		C40.015,149.616,40.24,152.67,41.325,154.866z M47.085,161.106c-1.256-1.625-2.433-3.328-3.12-5.52
		C48.573,152.549,49.516,158.547,47.085,161.106z M48.766,165.907c0.813,1.105,2.683,1.156,3.119,2.639
		c-1.949,0.371-3.494,1.145-5.04,1.92C47.251,168.711,47.62,166.92,48.766,165.907z M55.486,159.907c-1.286,1.992-3.91,2.649-6,3.84
		C50.492,160.499,53.118,154.372,55.486,159.907z M50.925,152.225c-3.239-3.4-5.712-7.568-7.92-12
		c0.675-0.365,1.851-0.229,2.641-0.479C46.78,144.286,51.496,147.553,50.925,152.225z M42.045,138.786
		c0.092-1.861-3.979-7.074-3.84-8.4c0.025-0.238,1.216-2.057,1.92-1.199c1.369,1.666,3.454,6.602,4.8,8.641
		C44.37,138.551,43.007,138.467,42.045,138.786z M37.486,143.586c-2.418-3.023-4.624-6.256-6-10.32
		c0.687-0.432,1.691-0.549,2.16-1.201C35.943,135.116,41.259,139.452,37.486,143.586z M30.766,132.065
		c-1.676-2.131-2.474-7.269-1.921-10.08c2.272,2.369,3.301,5.98,4.561,9.361C31.976,131.036,31.779,131.958,30.766,132.065z
		 M29.085,133.026c-0.4,1.279-1.584,1.775-2.399,2.641c-0.408-1.135,1.317-2.199,1.68-3.361
		C28.919,132.233,28.632,132.999,29.085,133.026z M29.566,134.706c2.299,5.16,10.214,11.145,5.04,17.279
		C33.511,148.092,23.009,137.981,29.566,134.706z M37.245,159.186c-2.376,5.139-4.576-1.447-6.24-3.84
		C34.16,152.534,35.418,157.721,37.245,159.186z M34.845,170.946c-2.195-0.42-4.006-5.963-1.439-6.48
		C35.435,164.057,39.534,171.842,34.845,170.946z M35.806,162.786c3.504-2.686,4.892,2.021,6,4.561
		c-0.752,0.447-1.669,0.73-2.4,1.199C38.163,166.669,36.648,165.063,35.806,162.786z M43.965,175.985
		c-2.243-1.035-2.888-3.672-3.84-6C43.581,166.977,44.771,173.167,43.965,175.985z M39.406,159.426
		c0.47-1.211,1.441-1.918,2.16-2.881c2.156,2.143,4.856,5.83,3.84,9.6C41.804,166.399,41.71,161.251,39.406,159.426z
		 M48.526,179.346c-1.001,0.359-1.679,1.041-3.12,0.959C45.129,176.483,47.868,175.956,48.526,179.346z M46.365,174.065
		c0.604-3.48,6.571-4.816,8.88-2.398C53.069,173.192,49.457,174.948,46.365,174.065z M50.925,165.426
		c3.231-2.762,11.532-8.139,15.841-3.121C61.15,163.079,55.563,170.202,50.925,165.426z M65.325,158.465
		c4.977-1.742,10.651-2.789,14.64-5.52c1.167,0.754,0.92,2.92,1.2,4.561C76.687,159.78,68.7,164.588,65.325,158.465z
		 M79.965,150.545c-0.515,2.535-7.21,4.025-10.559,5.041c-3.446,1.045-13.447,6.471-14.16,0.479c7.753-1.344,16.161-6.633,22.32-9.6
		C78.589,145.973,80.111,149.829,79.965,150.545z M79.005,144.786c-2.999,0.039-5.625-1.623-8.384-0.018
		c-0.243,0.169-0.498,0.325-0.736,0.498c0.247-0.197,0.492-0.355,0.736-0.498c6.411-4.457,14.262-7.476,21.344-11.262
		c1.388,1.012,2.403,2.396,3.841,3.359C90.39,138.586,85.342,144.704,79.005,144.786z M76.125,145.506
		c-6.323,4.398-15.003,7.715-23.04,9.6c0.429-3.539,4.176-4.068,7.441-5.52c1.371-0.611,3.1-2.033,4.08-2.16
		c0.782-0.102,1.859,0.516,2.64,0.48C70.239,147.768,72.695,144.913,76.125,145.506z M54.766,150.305
		c0.37-4.109,2.045-6.914,5.519-7.92c0.802,1.6,2.107,2.693,2.88,4.32C60.351,147.891,57.573,149.114,54.766,150.305z
		 M48.045,116.946c1.467-0.293,2.817-0.703,3.601-1.68c2.974,3.506,2.205,10.754,6.479,12.959c-0.115,1.725-0.494,3.186-0.96,4.561
		C53.36,128.428,50.617,121.737,48.045,116.946z M52.365,111.905c-1.612-3.385-2.965-5.383,0.72-7.199
		c3.104,5.969,8.899,13.055,5.76,21.6C55.934,123.842,54.522,116.434,52.365,111.905z M82.365,120.065
		c8.159-2.961,16.146-6.092,24.24-9.119c0.81,0.309,0.689,1.551,0.96,2.4c-9.137,2.943-16.923,7.236-25.681,10.561
		C82.376,122.708,82.82,121.614,82.365,120.065z M106.845,101.346c-1.338,0.42-2.173,1.346-3.84,1.439
		c0.177-1.697-0.203-2.836-0.479-4.08c1.309-0.77,3.026-1.133,4.8-1.439C107.149,98.608,106.877,99.858,106.845,101.346z
		 M106.125,103.506c1.251,0.734,0.157,2.232,0.72,3.119c-3.235,1.564-7.309,2.291-11.039,3.359
		c-0.553-0.646-0.837-1.563-0.721-2.879C99.338,106.479,102.749,105.01,106.125,103.506z M101.085,103.985
		c-5.806,2.516-11.931,1.975-17.279,3.842c-1.832,0.639-2.918,2.297-4.561,3.119c-5.298,2.652-11.327,3.311-16.08,6.721
		c1.879-9.105,12.497-10.18,22.08-13.201c2.412-0.76,4.809-1.895,7.2-2.639c3.245-1.012,5.766-1.33,8.64-1.922
		C102.341,100.711,101.179,102.477,101.085,103.985z M88.845,101.586c0.422-1.32,0.57-2.859,0.24-4.32
		c1.896-0.746,3.931-1.35,6.24-1.68c-0.11,1.949,1.476,2.203,1.68,3.84C93.598,99.458,91.838,101.139,88.845,101.586z
		 M93.646,91.026c2.898-0.621,4.803-2.238,7.92-2.641c0.098,1.102,0.87,1.988,0.479,2.881c-2.145,0.414-3.691,1.428-5.279,2.4
		C95.671,92.84,94.515,92.077,93.646,91.026z M89.085,85.747c-1.392-1.852-5.148-0.246-6.24-2.641
		c3.463-1.258,6.184-3.258,9.601-4.561C94.104,81.823,92.023,85.469,89.085,85.747z M78.526,79.026
		c1.545-0.295,3.455-0.225,4.8-0.721c0.259,0.861,0.604,1.637,0.72,2.641C82.13,82.071,79.339,81.001,78.526,79.026z M80.446,73.026
		c3.187-4.572,9.842-5.678,13.68-9.6c1.096,0.76,1.032,2.793,0.72,4.32C90.447,69.745,85.466,73.188,80.446,73.026z M81.885,61.985
		c-0.603-5.002-2.623-9.848-2.88-14.398c1.134-0.633,2.498,0.309,4.08,0C84.657,52.688,84.703,58.127,81.885,61.985z M79.245,56.706
		c0.331,2.873,2.639,8.23,0.24,10.08c-1.208-3.113-2.086-6.555-3.12-9.84C77.417,57.536,78.143,56.747,79.245,56.706z
		 M75.406,55.506c-1.957-2.742-0.856-5.754,1.68-6.961c1.241,1.4,1.169,4.111,1.44,6.48C77.586,55.288,76.766,55.667,75.406,55.506z
		 M73.726,49.266c-1.824-2.055,0.493-7.48,2.159-6.961C78.437,43.102,76.587,49.583,73.726,49.266z M76.365,73.026
		c-1.177-3.654-2.882-7.531-4.32-11.52c-1.376-3.817-4.131-6.5,0.24-8.641C74.457,58.233,80.776,67.167,76.365,73.026z
		 M75.406,75.186c-0.896,0.988-2.052,0.393-3.36,0.719c-1.909-6.25-6.286-10.033-7.92-16.559c1.399-0.602,2.915-1.086,3.84-2.16
		C71.445,62.186,73.022,69.09,75.406,75.186z M67.726,70.866c-1.848,0.072-2.277,1.563-4.08,1.68
		c-0.184-1.492-1.992-4.057-2.88-6.481c-1.146-3.125-2.532-5.73,1.68-6C63.687,64.184,66.4,66.831,67.726,70.866z M64.365,78.786
		c-1.264-0.143-2.062,0.178-3.12,0.24c-1.847-4.68-6.021-10.789-3.6-16.08C60.558,67.553,61.961,73.67,64.365,78.786z
		 M59.806,79.506c-0.317,1.123-0.95,1.93-1.2,3.119c-3.148-3.412-4.406-8.715-6.721-12.959c0.828-0.773,1.954-1.248,2.881-1.92
		C57.25,70.862,57.049,76.663,59.806,79.506z M50.925,84.065c-0.91-2.56-5.151-6.771-1.68-8.639
		C50.263,77.627,54.402,82.585,50.925,84.065z M48.766,84.305c-0.396,0.965-1.749,0.973-1.921,2.16
		c-0.91-0.85-1.292-2.227-1.92-3.359c0.622-0.899,1.551-1.49,2.16-2.4C48.081,81.469,48.328,82.983,48.766,84.305z M44.205,81.426
		c-0.131-0.91-0.58-1.5-0.479-2.641c0.781-0.197,2.409-0.951,2.88,0C45.83,79.692,45.277,80.817,44.205,81.426z M42.285,89.827
		c-0.072-3.49-4.862-9.215-0.479-10.561C42.184,83.157,48.323,88.616,42.285,89.827z M40.845,90.786
		c-0.022,0.662-0.821,1.293-0.72,1.92c0.355,2.184,4.318,5.236,0.72,7.199c-1-5.672-7.18-12.719-3.119-17.52
		C38.876,84.434,40.945,87.96,40.845,90.786z M37.726,96.786c1.035,3.191,3.535,5.287,0.96,8.4c-1.49-1.67-3.017-6.611-4.561-9.84
		c-1.276-2.67-3.742-7.484,0.481-7.68C36.16,89.729,36.669,93.53,37.726,96.786z M49.245,134.465c-0.704,1.057-1.119,2.4-2.64,2.641
		c-2.894-5.279-6.153-11.287-9.12-17.52c-1.305-2.74-3.77-6.051-0.72-7.441C40.27,120.241,44.958,127.153,49.245,134.465z
		 M37.245,122.706c1.237,2.563,3.011,5.219-0.24,6.24c-1.688-3.432-3.439-6.799-5.04-10.32c0.316-1.123,1.478-1.402,1.681-2.641
		C34.337,117.368,36.078,120.288,37.245,122.706z M31.486,116.465c-2.276-4.527-8.305-10.781-4.561-16.799
		c0.836,1.352,1.584,4.217,2.881,7.68C31.362,111.502,33.763,113.651,31.486,116.465z M26.205,115.026
		c2.848,1.418,2.677,5.816,0.48,7.68c-1.144-1.016-1.388-2.932-2.4-4.08C24.911,117.413,25.336,115.997,26.205,115.026z
		 M25.726,133.506c-2.861-5.178-9.077-12.969-5.04-19.201C21.82,120.879,29.999,126.811,25.726,133.506z M28.365,158.706
		c-1.504-1.529-2.564-4.189-4.32-6.721c-2.349-3.381-6.023-6.664-2.64-10.318C23.597,147.096,29.718,152.092,28.365,158.706z
		 M17.806,134.706c1.995,2.131,3.837,6.535,0.479,8.4C16.875,140.823,15.907,137.147,17.806,134.706z M18.766,147.667
		c1.945,2.373,3.561,5.078,5.04,7.92C18.177,159.493,15.287,151.419,18.766,147.667z M25.005,157.026
		c2.212,1.852,1.031,5.287-0.479,7.199c-2.011-1.59-3.117-4.082-4.32-6.479C21.832,157.204,23.492,157.149,25.005,157.026z
		 M27.165,162.065c2.306,1.594,3.276,5.174,1.2,7.441C25.878,167.631,24.799,164.76,27.165,162.065z M24.526,137.346
		c2.821,5.018,5.653,10.025,7.92,15.6c-1.013,0.107-1.294,0.945-2.64,0.721C29.503,149.053,20.072,141.323,24.526,137.346z
		 M30.285,158.465c1.795,1.09,4.642,5.455,0.481,5.76C29.319,162.27,29.371,160.891,30.285,158.465z M30.526,168.545
		c1.991,1.439,3.023,4.148,1.439,6.721C30.216,173.893,28.746,170.778,30.526,168.545z M34.125,174.305
		c3.187,3.568,7.168,7.508,7.2,13.441c-2.337-0.303-2.957-4.574-5.04-6.48c-1.265-1.158-3.391-1.301-3.6-3.121
		C32.534,176.838,33.843,175.706,34.125,174.305z M35.566,172.866c2.906-3.627,3.129,0.217,5.279,3.119
		c1.494,2.018,3.462,3.314,1.921,6.721C40.326,179.465,38.286,175.825,35.566,172.866z M44.205,187.266
		c0.089-2.959,6.738-6.838,7.68-2.16C50.25,186.751,46.372,186.153,44.205,187.266z M50.446,178.626
		c-0.637-0.563-0.94-1.459-1.44-2.16c2.94-0.846,8.896-6.008,10.08-0.719C56.2,176.702,52.774,177.114,50.446,178.626z
		 M54.766,169.506c2.527-1.598,8.587-4.322,12-5.521c1.586-0.557,1.546,2.33,1.439,3.602
		C63.223,167.508,58.13,172.448,54.766,169.506z M69.885,172.385c-3.286,0.314-6.354,2.125-8.64,2.641
		c-1.094-0.746-1.735-1.945-2.16-3.359C62.357,170.639,69.724,167.637,69.885,172.385z M82.845,156.545
		c-0.202-1.637-0.867-2.813-0.72-4.799c1.922-0.719,3.23-2.051,5.04-2.881c1.507,0.813,1.264,3.377,2.88,4.08
		C88.001,154.501,85.672,155.772,82.845,156.545z M89.325,147.907c3.077-0.844,5.459-2.383,7.92-3.842
		c1.485,0.676,1.695,2.627,2.64,3.842C96.837,149.602,89.471,155.614,89.325,147.907z M81.406,150.065
		c-0.037-1.801-1.093-2.586-1.2-4.318c6.604-2.279,15.384-6.557,21.12-9.602c0.91-0.482,2.759,1.631,2.88,2.641
		C96.681,142.622,89.248,146.549,81.406,150.065z M108.766,124.866c-11.46,4.902-24.271,10.352-35.521,16.561
		c-2.045,1.129-6.415,4.16-7.92,4.08c-1.266-0.068-3.507-3.178-3.36-4.08c0.316-1.936,7.106-3.902,10.32-5.041
		c3.552-1.256,7.215-3.32,10.32-4.799c9.992-4.758,17.348-6.717,25.68-10.801C109.002,121.583,108.818,124.04,108.766,124.866z
		 M64.365,137.586c-2.095,0.934-3.746,3.271-6.48,1.92c-0.002-3.951,7.338-7.193,10.801-8.641c6.701-2.801,16.016-6.539,23.04-10.32
		c2.219-1.193,5.092-1.66,7.68-2.4c2.971-0.848,5.492-2.226,7.92-2.879c0.87,0.729,0.75,2.449,0.96,3.84
		C94.473,126.145,78.554,131.256,64.365,137.586z M107.566,95.346c-2.125-0.109-5.817,3.738-8.16,3.359
		c-1.243-0.201-2.643-2.156-2.4-3.359c0.575-2.852,7.264-2.947,10.561-3.84C107.566,92.786,107.566,94.065,107.566,95.346z
		 M107.325,89.586c-1.827,1.459-4.863,0.576-4.32-2.4c1.48-0.281,2.449-1.07,4.08-1.201
		C107.576,86.774,107.215,88.417,107.325,89.586z M107.085,72.545c-8.993,0.688-14.338,5.021-21.359,7.68
		c0.76-1.305-0.484-2.23-0.24-2.879c6.204-3.959,14.779-6.818,21.6-9.361C106.984,69.508,107.236,71.752,107.085,72.545z
		 M107.085,56.465c-1.556-0.426-2.391,0.846-3.359,0.24c0.053-2.428,1.563-3.396,1.439-6
		C107.89,50.542,106.868,54.124,107.085,56.465z M97.486,51.426c0.657-4.385,3.5-7.859,8.399-7.201
		C106.501,48.272,101.615,50.567,97.486,51.426z M105.885,42.305c-3.139,0.303-5.059,1.822-7.92,2.4
		c-0.602-1.076-0.405-2.953-1.199-3.84c1.92-2.08,5.056-2.943,8.159-3.84C105.619,38.413,105.417,40.694,105.885,42.305z
		 M104.686,35.106c-1.169,0.83-2.779,1.221-4.32,1.68c-0.348-1.064,0.279-3.025,0.24-4.561c0.846-0.674,2.161-0.879,3.359-1.199
		C104.37,32.221,104.213,33.977,104.686,35.106z M103.726,29.346c-2.564,0.523-3.6,1.307-6,2.16c0.317-1.52-0.419-1.983-0.96-2.641
		c2.129-1.23,3.224-3.496,6.479-3.6C103.457,26.573,103.906,27.645,103.726,29.346z M99.885,10.866
		c1.06,0.861,0.632,3.209,1.2,4.561c-0.815,0.545-2.023,0.695-2.64,1.439C98.096,14.993,99.305,12.608,99.885,10.866z
		 M103.005,23.346c-0.97,0.311-1.655,0.904-2.88,0.959c-0.29-2.27-0.889-4.23-1.92-5.76
		C101.625,15.252,102.89,19.481,103.005,23.346z M96.766,20.465c0.239,0,0.479,0,0.72,0c1.359,2.154,2.032,6.117-1.2,6.48
		C95.785,24.387,95.794,22.45,96.766,20.465z M95.566,13.266c0.74,0.834-0.217,2.014-0.481,2.639
		C93.889,15.268,95.041,13.686,95.566,13.266z M94.606,26.706c0.501,0.629,0.635,1.857-0.481,1.92
		C94.046,27.747,94.392,27.292,94.606,26.706z M94.845,30.065c0.483,0.797,0.788,1.774,1.44,2.4c-0.855,1.305-2.531,1.789-3.6,2.881
		C92.305,34.245,93.092,30.586,94.845,30.065z M92.686,16.145c2.3,1.125,0.864,5.424,0,6.961c-1.042-1.039-1.274-2.887-2.4-3.84
		C90.838,17.979,91.948,17.247,92.686,16.145z M88.845,20.465c2.747,0.033,3.454,8.146,1.2,9.84c-2.269-2.217-0.731-3.932,0.96-5.52
		c-1.228-0.898-2.073,0.639-3.12,0.721C86.199,24.37,86.952,20.442,88.845,20.465z M85.005,24.305
		c3.745,4.416,5.289,11.373,2.641,18c0.741-5.578-4.609-9.031-1.44-12.719c-1.199-0.902-1.381,0.92-2.399,0.959
		C81.334,28.294,83.264,26.01,85.005,24.305z M81.165,29.106c1.976,3.719,7.25,10.859,3.12,15.359
		c-2.094-1.285-2.014-7.148-3.36-10.08C79.901,32.155,77.814,30.28,81.165,29.106z M77.806,32.465
		c2.735,3.344,2.809,9.352,4.8,13.44c-1.749,0.051-2.346-0.238-3.84,0C78.247,40.325,69.692,35.153,77.806,32.465z M72.045,36.786
		c1.512,0.649,1.484,2.836,2.641,3.84c-1.015,0.906-1.276,2.564-2.641,3.121C70.294,41.063,68.792,38.807,72.045,36.786z
		 M68.205,41.106c1.88,0.092,4.502,7.795,4.08,9.6c-0.31,1.324-2.085,1.891-3.6,2.881c0.46-3.975-3.79-6.223-3.601-9.121
		C65.181,43.001,67.237,41.057,68.205,41.106z M63.646,45.667c1.773,3.195,7.391,11.398,0,12c-0.944-3.057-1.906-6.096-3.12-8.881
		C61.736,47.917,62.659,46.76,63.646,45.667z M59.085,50.225c1.691,1.99,2.282,5.078,2.88,8.16c-1.267,0.574-2.38,1.301-3.84,1.68
		C55.971,55.799,54.364,52.84,59.085,50.225z M53.806,55.026c1.831,2.365,4.311,6.289,1.68,9.119
		C54.257,61.065,49.571,57.426,53.806,55.026z M49.965,58.626c2.111,1.809,3.021,4.82,4.32,7.439
		c-0.708,1.053-1.908,1.611-3.12,2.16c-1.591-1.85-1.396-5.482-2.64-7.68C48.788,59.688,49.815,59.594,49.965,58.626z
		 M44.446,64.145c1.505,2.701,5.554,8.469,2.399,11.281C45.566,72.268,40.884,66.975,44.446,64.145z M39.885,69.667
		c0.027-0.221,1.239-2.365,1.921-1.441c1.101,1.498,2.306,6.67,3.6,8.16c-0.515,0.525-1.322,0.76-2.4,0.721
		C42.74,74.44,39.637,71.715,39.885,69.667z M38.686,71.106c0.701,2.338,1.971,4.109,2.64,6.48c-0.967,0.313-1.587,0.973-2.16,1.68
		C37.267,76.915,33.858,72.432,38.686,71.106z M34.365,75.426c2.261,2.107,4.065,6.018,0.72,8.16
		C33.963,81.405,31.743,77.184,34.365,75.426z M31.245,79.506c0.961,2.229,4.354,7.318,0,7.92c-0.86-1.379-0.365-4.115-1.68-5.041
		C29.784,81.085,30.832,80.612,31.245,79.506z M29.325,94.145c1.863,1.193,3.817,8.555,5.28,12.48
		c0.878,2.357,2.565,4.512-0.24,5.76C31.328,108.11,27.619,100.04,29.325,94.145z M27.165,86.225
		c0.742,2.256,2.648,5.986,0.481,7.68C26.491,92.518,26.118,87.538,27.165,86.225z M24.285,90.545c1.464,2.992,2.806,6.742,0.72,9.6
		C23.284,97.561,21.934,92.997,24.285,90.545z M22.845,109.026c2.156,1.822,2.965,5.014,0.721,7.199
		C22.068,114.585,21.809,111.329,22.845,109.026z M19.965,97.985c1.174,3.332,3.402,8.004,1.2,11.281
		C19.614,105.903,17.008,101.243,19.965,97.985z M17.085,105.186c2.002,2.733,4.108,7.852,0.96,10.561
		C16.915,112.094,14.443,108.864,17.085,105.186z M14.686,112.385c2.306,2.705,2.581,7.379-0.24,9.361
		C12.081,119.446,12.172,114.422,14.686,112.385z M11.085,119.827c2.006,2.57,3.004,6.338,0.96,9.6
		C9.38,127.143,9.523,123.155,11.085,119.827z M8.925,128.465c1.41,1.439,2.614,5.199,0,6.24
		C7.475,133.106,7.675,130.274,8.925,128.465z M6.526,147.426c0.544,0.684,1.911,2.201,2.64,4.08c1.271,3.279,3.289,6.104,0,7.439
		C6.996,156.01,6.484,152.09,6.526,147.426z M14.446,169.026c-1.233-2.047-5.45-5.404-4.8-8.4c0.102-0.469,2.326-2.484,2.88-1.68
		C14.126,161.272,15.984,165.663,14.446,169.026z M15.165,140.706c1.673,2.738,3.257,6.043,0.96,9.121
		C14.068,147.809,12.885,143.229,15.165,140.706z M22.125,178.626c-2.183-3.748-7.329-5.957-5.52-12.24
		c1.833,0.758,3.359,5.182,4.8,7.68C22.299,175.618,25.108,177.688,22.125,178.626z M23.566,179.827
		c0.453-2.883,5.218,1.701,5.76,3.6C28.737,187.885,23.243,181.876,23.566,179.827z M32.205,189.907
		c-0.842-1.354-3.488-2.148-3.36-3.842C29.176,181.713,36.802,186.936,32.205,189.907z M38.925,196.866
		c-2.5,0.182-3.095-1.545-4.319-2.641C35.744,194.358,39.841,194.655,38.925,196.866z M33.165,190.866
		c0.759-4.012,6.825,0.361,6.72,2.881C37.227,193.204,35.201,192.03,33.165,190.866z M40.845,197.827
		c1.667-2.85,7.535-0.412,11.04-0.961C49.805,199.881,44.247,197.758,40.845,197.827z M53.325,194.946
		c-4.482,0.01-6.863,0.176-11.28-0.24c0.452-5.17,7.881-0.059,11.28-2.16C53.413,193.653,53.621,193.926,53.325,194.946z
		 M52.125,181.747c3.776,0.463,9.077-5.834,10.08-0.721C58.789,181.297,53.265,187.131,52.125,181.747z M54.526,187.266
		c2.541-1.059,5.469-1.732,8.399-2.4c1.011,0.029,0.238,1.842,0.481,2.641c-3.161,0.758-5.92,1.92-8.88,2.879
		C54.526,189.346,54.526,188.305,54.526,187.266z M55.245,195.186c0.133-1.75,0.133-1.371,0-3.121
		c2.655-0.666,8.167-4.719,9.36-0.959C61.084,192.065,58.976,194.436,55.245,195.186z M63.165,177.667
		c3.258-0.617,10.14-3.535,12.24-0.721c-3.276,1.604-7.595,2.166-10.8,3.84C63.904,179.967,63.229,179.122,63.165,177.667z
		 M65.325,184.385c0.41-0.967,9.641-5.191,11.76-4.559c1.305,0.387,1.379,2.139,1.44,3.119c-5.257,0.424-8.414,2.945-13.2,3.84
		C65.554,186.448,65.038,185.063,65.325,184.385z M66.766,190.145c-0.825-0.055-1.046-0.713-1.2-1.439
		c4.322-1.438,8.096-3.424,13.2-4.08C75.454,187.155,70.861,188.401,66.766,190.145z M80.446,182.225
		c-0.343-0.777-0.604-1.635-0.72-2.639c3.156-0.443,4.719-2.48,8.399-2.4C85.977,179.278,84.544,182.085,80.446,182.225z
		 M80.925,175.026c-2.022,0.432-3.88,2.299-4.56-0.24c5.115-1.205,8.878-3.762,13.2-5.76
		C93.135,175.335,86.367,173.866,80.925,175.026z M92.205,171.667c0.276-1.717-0.567-2.313-0.479-3.84
		c1.703-0.377,3.707-0.453,5.04-1.201C96.041,168.143,94.388,170.807,92.205,171.667z M88.365,164.706
		c-0.528-1.072-1.951-1.248-2.16-2.641c5.907-2.973,12.093-5.666,18.48-8.158C103.929,162.19,94.196,161.497,88.365,164.706z
		 M105.646,151.747c-7.693,2.467-14.087,6.232-21.36,9.119c-0.181-1.019-0.881-1.519-0.72-2.881
		c8.146-3.533,15.572-7.787,23.279-11.76C107.623,147.426,105.776,149.881,105.646,151.747z M101.085,146.946
		c-0.318-1.521-1.385-2.295-1.68-3.84c3.361-1.279,5.629-3.652,9.6-4.32C109.242,144.383,105.018,145.518,101.085,146.946z
		 M108.526,137.106c-1.316-1.455-4.123,0.053-4.8-1.92c1.247-1.393,3.619-1.66,5.76-2.16
		C109.436,134.657,109.856,136.756,108.526,137.106z"/>
</g>
</svg>
