<?xml version="1.0" encoding="iso-8859-1"?>
<!-- Generator: Adobe Illustrator 19.2.0, SVG Export Plug-In . SVG Version: 6.00 Build 0)  -->
<svg version="1.1" id="&#x421;&#x43B;&#x43E;&#x439;_1"
	 xmlns="http://www.w3.org/2000/svg" xmlns:xlink="http://www.w3.org/1999/xlink" x="0px" y="0px" viewBox="0 0 91.748 88.626"
	 style="enable-background:new 0 0 91.748 88.626;" xml:space="preserve">
<g>
	<path style="fill:#EBE2D3;" d="M152.925,811.547c2.58,0.419,4.661-1.825,6.27-3.385c-1.562-1.343-3.069-2.731-5.017-3.741
		C153.615,806.627,153.497,809.348,152.925,811.547z"/>
	<path style="fill:#EBE2D3;" d="M116.68,832.916c-1.447,0.402-2.331,1.454-4.415,1.117c-1.241,3.004-4.897,5.893-4.745,8.791
		c2.047-0.829,3.76-2.049,6.418-2.171C115.346,838.954,116.979,834.881,116.68,832.916z"/>
	<path style="fill:#EBE2D3;" d="M139.104,819.424c-2.359-0.139-4.056-0.775-6.002-0.206c0.183,1.591-0.033,2.487-0.523,3.812
		C135.214,822.521,138.263,821.157,139.104,819.424z"/>
	<path style="fill:#EBE2D3;" d="M143.472,822.156c-2.478,0.023-4.436,5.295-6.518,6.733c1.522,3.228,6.944,1.514,10.46,1.742
		C147.04,827.298,146.404,822.128,143.472,822.156z"/>
	<path style="fill:#EBE2D3;" d="M134.202,817.375c3.311-0.369,5.684,0.778,8.784,1.615c2.071-2.017,4.97-3.071,6.89-5.264
		C143.673,813.87,136.399,812.115,134.202,817.375z"/>
	<path style="fill:#EBE2D3;" d="M152.827,816.113c-2.677,1.053-5.246,2.231-6.837,4.546c4.068,0.685,5.871,4.488,8.997,5.24
		C154.428,822.497,152.136,820.589,152.827,816.113z"/>
	<path style="fill:#EBE2D3;" d="M134.788,838.596c0.477-2.809,4.853-6.699,0.606-8.138
		C132.851,832.665,132.013,836.143,134.788,838.596z"/>
	<path style="fill:#EBE2D3;" d="M155.481,803.074c2.467,1.259,5.961,6.013,8.049,1.803
		C161.684,802.86,158.188,799.586,155.481,803.074z"/>
	<path style="fill:#EBE2D3;" d="M125.337,842.707c2.204-1.256,5.039-1.778,7.873-2.304c-0.933-1.212-0.8-3.343-2.349-4.025
		C128.827,838.264,127.131,840.543,125.337,842.707z"/>
	<path style="fill:#EBE2D3;" d="M162.967,815.664c-0.546-1.396-1.662-2.301-2.126-3.768c-2.237,0.697-4.345,1.542-5.993,2.925
		C156.977,816.269,159.6,814.357,162.967,815.664z"/>
	<path style="fill:#EBE2D3;" d="M152.539,803.818c-1.061-0.728-2.332-1.275-3.98-1.498c-1.796,1.729-3.4,3.679-4.771,5.902
		c3.139,0.431,4.767,2.163,7.224,3.183C152.171,809.632,151.838,806.124,152.539,803.818z"/>
	<path style="fill:#EBE2D3;" d="M147.864,811.652c-2.03-1.767-7.566-3.848-8.208,0.352
		C142.139,812.336,146.027,812.072,147.864,811.652z"/>
	<path style="fill:#EBE2D3;" d="M131.743,827.778c4.759,0.586,5.092-3.969,7.66-5.926c-2.631,0.672-3.93,2.891-7.189,2.835
		C131.811,825.433,131.837,826.678,131.743,827.778z"/>
	<path style="fill:#EBE2D3;" d="M145.411,802.567c-4.509,2.175-10.796,0.93-15.399,3.184
		C135.486,806.241,144.807,809.69,145.411,802.567z"/>
	<path style="fill:#EBE2D3;" d="M140.535,832.525c1.532,2.116,2.049,5.105,3.038,7.688c0.69-3.027,3.005-5.507,3.699-7.666
		C144.855,833.272,142.907,831.45,140.535,832.525z"/>
	<path style="fill:#EBE2D3;" d="M132.609,858.168c1.815-3.653,3.701-9.19,1.716-13.351
		C132.526,848.489,130.977,853.967,132.609,858.168z"/>
	<path style="fill:#EBE2D3;" d="M150.425,841.926c2.137-0.639,4.146-1.427,5.293-3.216c-1.666-1.121-3.464-3.265-5.274-3.52
		C150.153,837.68,150.36,839.741,150.425,841.926z"/>
	<path style="fill:#EBE2D3;" d="M135.35,856.928c2.734-2.546,5.553-4.991,7.821-8.082c-1.878-1.593-4.142-2.852-6.435-4.089
		C137.39,847.836,136.39,854.408,135.35,856.928z"/>
	<path style="fill:#EBE2D3;" d="M143.953,844.814c-0.097,2.687,3.246,3.498,3.42,5.79c1.227-5.11,1.109-9.773,1.121-15.079
		C146.383,837.307,144.065,841.639,143.953,844.814z"/>
	<path style="fill:#EBE2D3;" d="M155.49,828.826c-2.829-1.37-4.647-3.612-7.32-5.119c0.146,3.535,1.566,5.97,2.213,9.071
		c2.45,0.875,3.719,2.771,5.974,3.814C156.004,834.059,155.675,831.504,155.49,828.826z"/>
	<path style="fill:#EBE2D3;" d="M138.752,833.838c-1.413,2.26-2.671,4.699-3.017,8.198c2.205,1.088,3.976,2.546,6.23,3.592
		C141.989,841.643,141.24,836.404,138.752,833.838z"/>
	<path style="fill:#EBE2D3;" d="M119.474,853.581c-0.984,3.141-2.035,6.429-2.185,9.944c1.848-0.975,3.265-2.451,5.073-3.472
		C120.896,858.327,121.823,854.545,119.474,853.581z"/>
	<path style="fill:#EBE2D3;" d="M114.957,843.137c-1.428,2.418-3.234,5.78-3.531,8.643c2.555-2.84,8.044-2.276,8.724-7.293
		C118.641,843.761,116.594,843.108,114.957,843.137z"/>
	<path style="fill:#EBE2D3;" d="M124.591,846.261c2.35,1.857,3.056,5.134,5.247,7.129c0.497-3.76,3.102-7.54,2.495-10.885
		C128.592,842.412,126.335,844.039,124.591,846.261z"/>
	<path style="fill:#EBE2D3;" d="M111.998,860.245c2.907-0.613,6.217-4.396,5.942-8.703
		C115.778,854.232,113.456,856.735,111.998,860.245z"/>
	<path style="fill:#EBE2D3;" d="M122.109,847.278c-0.76,0.022-1.999,1.06-2.093,2.251c-0.088,1.107,3.91,7.142,3.888,9.195
		c1.344-0.954,2.585-2.026,4.061-2.827C126.822,853.219,125.103,847.197,122.109,847.278z"/>
	<path style="fill:#EBE2D3;" d="M173.541,819.098c-0.877,1.693-2.199,4.175-1.915,6.355
		C173.623,824.662,177.077,820.186,173.541,819.098z"/>
	<path style="fill:#EBE2D3;" d="M173.982,826.111c0.49,0.249,0.654,0.781,1.382,0.825c0.201-1.227,1.077-2.813,0.765-3.796
		C174.876,823.508,174.482,824.871,173.982,826.111z"/>
	<path style="fill:#EBE2D3;" d="M174.636,807.628c-0.991,1.959-3.309,3.757-2.856,6.044c0.451,2.285,5.015,4.164,5.538,6.43
		C178.369,814.424,179.29,809.431,174.636,807.628z"/>
	<path style="fill:#EBE2D3;" d="M178.023,807.398c1.217,1.715,1.246,4.453,4.227,4.647c0.155-1.702,0.025-3.158-0.398-4.362
		C180.229,807.728,179.175,807.162,178.023,807.398z"/>
	<path style="fill:#EBE2D3;" d="M173.708,803.949c0.184,1.745,5.224,0.997,7.791,2.023c-0.374-2.367-1.197-4.346-2.702-5.736
		C178.309,801.806,173.566,802.609,173.708,803.949z"/>
	<path style="fill:#EBE2D3;" d="M177.938,795.599c-2.144,0.65-4.216,3.586-5.507,6.09
		C175.769,802.119,177.889,799.235,177.938,795.599z"/>
	<path style="fill:#EBE2D3;" d="M150.283,843.841c0.333,2.584-1.736,5.052-0.518,6.941c2.39-3.466,5.998-6.904,7.298-10.769
		C155.367,841.943,152.894,842.971,150.283,843.841z"/>
	<path style="fill:#EBE2D3;" d="M161.706,826.158c-2.172,0.34-2.448,2.88-4.132,3.784c0.225,2.42-0.031,5.254,1.177,6.827
		C161.767,834.139,164.716,830.679,161.706,826.158z"/>
	<path style="fill:#EBE2D3;" d="M163.768,834.015c-1.962,1.016-3.518,2.504-4.443,4.723c0.704,0.964,1.883,1.516,2.969,2.147
		c1.019-1.42,1.996-2.885,2.75-4.608C163.999,836.055,164.034,834.906,163.768,834.015z"/>
	<path style="fill:#EBE2D3;" d="M166.094,822.155c-5.045,1.816-0.926,7.929-0.154,11.78c1.066-2.751,2.257-5.354,3.255-8.182
		C167.953,824.735,167.261,823.241,166.094,822.155z"/>
	<path style="fill:#EBE2D3;" d="M169.093,814.195c-2.007,2.593-2.452,7.906,0.999,9.22
		C171.456,819.981,173.806,815.406,169.093,814.195z"/>
	<path style="fill:#EBE2D3;" d="M148.701,800.404c3.67,1.393,6.037,1.05,8.944-0.54C155.542,799.09,149.149,796.455,148.701,800.404
		z"/>
	<path style="fill:#EBE2D3;" d="M154.669,794.591c-1.186,0.356-2.277,0.823-2.793,1.958c1.294,1.151,3.591,0.056,5.229,0.87
		C156.787,796.051,155.459,795.553,154.669,794.591z"/>
	<path style="fill:#EBE2D3;" d="M157.373,793.827c0.943,2.742,3.83,7.461,8.092,4.454
		C162.559,796.977,161.941,793.701,157.373,793.827z"/>
	<path style="fill:#EBE2D3;" d="M129.917,803.818c3.532-1.706,9.733-0.314,12.934-2.406c-3.983-0.601-8.248-0.959-11.639-2.068
		C130.349,800.519,128.904,802.616,129.917,803.818z"/>
	<path style="fill:#EBE2D3;" d="M141.284,793.354c4.066-0.101,8.956,4.527,11.303,0.118
		C149.184,791.342,143.726,789.638,141.284,793.354z"/>
	<path style="fill:#EBE2D3;" d="M134.669,798.155c3.947,0.601,12.854,3.846,13.785-0.899
		C144.192,794.693,137.007,793.721,134.669,798.155z"/>
	<path style="fill:#EBE2D3;" d="M166.229,817.11c0.173-1.621,1.305-2.127,1.261-3.998c-1.093-0.518-3.576-1.576-4.511-0.817
		C164.494,813.527,164.798,815.805,166.229,817.11z"/>
	<path style="fill:#EBE2D3;" d="M162.139,800.922c1.217,3.797,5.226,3.245,6.516-0.237
		C166.792,799.596,163.998,800.445,162.139,800.922z"/>
	<path style="fill:#EBE2D3;" d="M165.024,820.389c0.163-1.198-0.948-1.7-1.223-2.978c-2.359-0.146-4.989-1.38-6.942-0.517
		C157.144,820.909,164.27,825.882,165.024,820.389z"/>
	<path style="fill:#EBE2D3;" d="M173.307,806.085c-1.218-0.741-1.692-2.125-2.658-3.086c-2.206,2.38-4.788,4.322-6.775,6.958
		c2.046,0.774,4.441,1.251,6.081,2.378C171.073,810.254,172.46,808.484,173.307,806.085z"/>
	<path style="fill:#EBE2D3;" d="M104.332,856.545c1.815-0.06,3.34-0.454,4.212-1.611
		C107.055,854.337,104.29,854.499,104.332,856.545z"/>
	<path style="fill:#EBE2D3;" d="M119.313,833.111c-1.814,2.058-2.165,5.81-3.513,8.403c2.78-0.157,3.627,1.354,5.895,1.643
		c1.013-1.424,2.484-2.317,3.191-4.094C123.437,836.727,120.87,835.355,119.313,833.111z"/>
	<path style="fill:#EBE2D3;" d="M112.161,828.97c1.564,0.295,1.674,1.842,2.693,2.607c2.856-0.599,6.934-1.121,6.154-5.077
		C118.443,827.209,114.374,827.461,112.161,828.97z"/>
	<path style="fill:#EBE2D3;" d="M110.174,858.904c1.89-2.743,3.926-5.322,5.888-7.985
		C112.746,851.839,110.271,855.118,110.174,858.904z"/>
	<path style="fill:#EBE2D3;" d="M106.275,853.08c0.986,0.102,1.53-0.306,2.651-0.044c0.928-1.781,1.37-4.129,2.138-6.099
		C108.673,848.065,107.854,851.015,106.275,853.08z"/>
	<path style="fill:#EBE2D3;" d="M126.447,837.494c1.508-2.495,3.259-4.711,4.859-7.099c-2.815-0.977-7.406,1.247-10.195,1.166
		C121.789,834.489,124.16,835.956,126.447,837.494z"/>
	<path style="fill:#EBE2D3;" d="M122.898,823.753c2.488-0.316,4.616-1.055,7.747-0.627c0.671-0.965,1.023-2.268,0.489-3.333
		c-2.626-0.014-4.489,0.857-7.27,0.663C123.736,821.78,122.859,822.235,122.898,823.753z"/>
	<path style="fill:#EBE2D3;" d="M128.077,812.346c4.594-0.504,10.739,1.741,11.349-3.729c-4.544-0.994-8.037-0.225-12.411-1.404
		C126.909,809.32,127.602,810.739,128.077,812.346z"/>
	<path style="fill:#EBE2D3;" d="M134.672,814.28c-2.603-1.04-4.95-0.717-7.676-0.33c-0.808,1.402-1.562,2.868-2.252,4.405
		C129.853,819.088,132.997,817.535,134.672,814.28z"/>
	<path style="fill:#EBE2D3;" d="M130.049,827.895c0.077-1.036,0.154-2.075,0.232-3.111c-2.963-0.318-5.211,0.192-7.287,0.902
		c-0.243,1.279-0.669,2.343-0.763,3.792C125.046,829.195,127.95,829.013,130.049,827.895z"/>
	<path style="fill:#EBE2D3;" d="M160.616,824.634c-2.593-1.227-4.213-5.592-6.052-5.984c0.62,3.346,2.257,5.82,2.931,9.122
		C158.251,826.396,159.732,825.863,160.616,824.634z"/>
	<path style="fill:#EBE2D3;" d="M124.879,806.814c-3.716,2.707-8.175,4.549-11.411,7.813
		C119.189,814.472,129.446,813.655,124.879,806.814z"/>
	<path style="fill:#EBE2D3;" d="M127.229,804.341c0.344-2.006,2.709-4.421,1.182-6.17c-1.751,0.566-3.419,1.232-4.3,2.809
		C125.108,802.136,125.812,803.547,127.229,804.341z"/>
	<path style="fill:#EBE2D3;" d="M136.648,794.212c-2.27-1.347-5.873-0.45-7.038-2.45c4.646-0.868,10.698,3.199,13.36-1.652
		c-1.788-0.216-3.006-1.475-3.19-2.402c-3.085,0.986-10.064,1.348-10.665,4.26c-0.378,1.817,2.029,2.84,1.78,5.188
		C133.451,796.915,135.625,796.232,136.648,794.212z"/>
	<path style="fill:#EBE2D3;" d="M166.564,796.439c-0.102,1.137,2.357,1.998,3.653,2.678c0.831-1.721,2.246-2.765,3.21-4.334
		C170.826,794.97,167.934,794.82,166.564,796.439z"/>
	<path style="fill:#EBE2D3;" d="M125.302,814.065c-3.744,1.063-7.303,1.398-10.541,2.585
		C118.609,819.426,124.344,819.609,125.302,814.065z"/>
	<path style="fill:#EBE2D3;" d="M113.313,826.407c2.785-0.853,5.867-0.643,7.598-1.84c0.073-0.99,0.87-2.363,1.02-4.016
		c-1.886,0.276-4.967-0.825-6.223-0.463c-1.09,0.315-6.886,5.859-6.757,6.718C109.298,829.1,112.054,826.796,113.313,826.407z"/>
	<path style="fill:#EBE2D3;" d="M163.527,788.751c-1.903-1.198-2.463-3.551-6.01-3.334
		C157.288,788.195,160.786,790.011,163.527,788.751z"/>
	<path style="fill:#EBE2D3;" d="M108.631,831.113c1.422,0.344,2.827,0.702,4.254,1.04
		C112.902,830.214,109.373,829.223,108.631,831.113z"/>
	<path style="fill:#EBE2D3;" d="M152.942,788.687c-3.946-0.413-8.408-1.96-11.248-0.837
		C145.099,789.644,149.344,789.853,152.942,788.687z"/>
	<path style="fill:#EBE2D3;" d="M164.481,795.32c1.947,0.374,3.67-2.51,6.401-1.931c-2.234-2.295-7.35-3.537-10.645-2.477
		C162.067,791.996,162.611,794.961,164.481,795.32z"/>
	<path style="fill:#EBE2D3;" d="M158.216,792.206c-0.039-3.82-4.874-2.023-7.349-1.507
		C153.026,791.59,155.684,793.595,158.216,792.206z"/>
	<path style="fill:#EBE2D3;" d="M107.648,828.152c-0.419,0.727-1.152,1.09-1.356,2.065
		C107.417,830.203,109.132,828.897,107.648,828.152z"/>
	<path style="fill:#BCB37E;" d="M103.924,832.93c2.015-0.565,4.465-0.604,6.701,0.499c-1.238,4.203-5.8,5.912-5.402,11.149
		c2.496,0.589,4.212-1.597,6.64-1.913c-3.334,5.148-8.518,9.525-9.863,16.113c2.377,1.059,3.942-2.305,6.569-0.954
		c-1.464,3.153-2.736,6.529-4.1,9.802c4.685-0.375,7.597-6.429,11.633-7.558c-0.221,1.862-1.499,3.756-0.906,5.709
		c5.965-2.176,9.513-7.157,15.383-9.445c0.198,1.546-0.007,3.44-0.153,5.285c2.664,1.089,3.184-1.085,4.265-2.33
		c2.88-3.318,7.793-7.038,10.544-9.084c-0.104,9.479,5.51,1.274,8.076-1.806c2.631-3.157,3.996-6.05,6.092-7.488
		c2.413,5.372,4.648,0.551,6.748-3.348c1.53-2.844,3.08-10.142,4.888-10.708c2.572-0.806,3.002,2.901,5.548,3.06
		c2.19-3.711,1.955-11.328,3.881-16.559c1.534-0.092,1.853,1.429,3.057,0.95c0.915-4.479,0.327-6.991-0.688-10.159
		c-0.633-1.979-3.651-6.243-3.206-8.662c0.317-1.718,3.411-5.274,5.118-7.32c0.891-1.067,3.28-3.529,5.178-4.908
		c1.063-0.773,3.803-1.584,3.821-2.845c0.049-3.077-4.977-0.318-6.311,0.734c-2.986,2.352-8.453,12.484-13.762,10.287
		c-6.717-2.782-9.318-8.617-17.93-8.072c-0.84,1.625,0.602,2.801,0.636,4.378c-6.248-0.998-12.99-2.634-18.667-1.39
		c-6.25,1.37-12.996,3.357-8.664,9.704c-1.896,1.645-6.562,1.857-6.82,4.307c-0.193,1.849,2.472,2.317,2.809,4.3
		c-2.843,2.985-10.431,6.039-13.689,9.331c-3.255,3.287,2.058,2.671,4.228,4.645c-2.841,1.999-5.242,4.022-7.991,7.108
		C105.658,827.908,101.888,831.287,103.924,832.93z M107.521,842.824c-0.153-2.898,3.503-5.787,4.745-8.791
		c2.084,0.337,2.968-0.715,4.415-1.117c0.298,1.965-1.335,6.038-2.742,7.737C111.28,840.776,109.568,841.995,107.521,842.824z
		 M136.954,828.89c2.083-1.438,4.04-6.71,6.518-6.733c2.932-0.028,3.567,5.142,3.941,8.476
		C143.898,830.403,138.476,832.117,136.954,828.89z M147.272,832.547c-0.694,2.159-3.009,4.639-3.699,7.666
		c-0.989-2.583-1.506-5.572-3.038-7.688C142.907,831.45,144.855,833.272,147.272,832.547z M133.101,819.218
		c1.947-0.569,3.643,0.067,6.002,0.206c-0.84,1.733-3.889,3.097-6.525,3.606C133.068,821.705,133.284,820.809,133.101,819.218z
		 M130.012,805.75c4.602-2.254,10.89-1.009,15.399-3.184C144.807,809.69,135.486,806.241,130.012,805.75z M148.559,802.319
		c1.648,0.223,2.919,0.771,3.98,1.498c-0.7,2.307-0.368,5.814-1.527,7.587c-2.456-1.02-4.084-2.752-7.224-3.183
		C145.158,805.998,146.763,804.048,148.559,802.319z M147.864,811.652c-1.837,0.42-5.725,0.684-8.208,0.352
		C140.298,807.805,145.834,809.886,147.864,811.652z M149.876,813.727c-1.92,2.192-4.818,3.247-6.89,5.264
		c-3.1-0.837-5.473-1.984-8.784-1.615C136.399,812.115,143.673,813.87,149.876,813.727z M139.402,821.853
		c-2.567,1.957-2.9,6.512-7.66,5.926c0.095-1.101,0.068-2.346,0.471-3.091C135.473,824.743,136.771,822.525,139.402,821.853z
		 M133.21,840.403c-2.834,0.525-5.669,1.048-7.873,2.304c1.794-2.164,3.49-4.443,5.524-6.329
		C132.41,837.061,132.277,839.192,133.21,840.403z M135.394,830.458c4.247,1.438-0.129,5.329-0.606,8.138
		C132.013,836.143,132.851,832.665,135.394,830.458z M145.99,820.659c1.59-2.315,4.16-3.493,6.837-4.546
		c-0.691,4.476,1.602,6.384,2.16,9.786C151.861,825.148,150.058,821.344,145.99,820.659z M155.481,803.074
		c2.706-3.488,6.202-0.214,8.049,1.803C161.442,809.087,157.949,804.333,155.481,803.074z M162.967,815.664
		c-3.368-1.308-5.991,0.604-8.119-0.844c1.647-1.383,3.756-2.228,5.993-2.925C161.306,813.363,162.421,814.269,162.967,815.664z
		 M159.195,808.162c-1.609,1.56-3.69,3.804-6.27,3.385c0.572-2.199,0.69-4.92,1.253-7.126
		C156.126,805.432,157.633,806.819,159.195,808.162z M154.564,818.65c1.839,0.393,3.459,4.758,6.052,5.984
		c-0.884,1.229-2.366,1.762-3.122,3.138C156.821,824.47,155.184,821.995,154.564,818.65z M156.859,816.895
		c1.953-0.863,4.582,0.37,6.942,0.517c0.275,1.277,1.386,1.779,1.223,2.978C164.27,825.882,157.144,820.909,156.859,816.895z
		 M162.979,812.295c0.936-0.759,3.419,0.3,4.511,0.817c0.044,1.871-1.088,2.377-1.261,3.998
		C164.798,815.805,164.494,813.527,162.979,812.295z M163.874,809.957c1.987-2.636,4.57-4.578,6.775-6.958
		c0.965,0.961,1.439,2.345,2.658,3.086c-0.847,2.398-2.234,4.169-3.352,6.25C168.314,811.208,165.92,810.732,163.874,809.957z
		 M162.139,800.922c1.859-0.477,4.653-1.326,6.516-0.237C167.365,804.167,163.356,804.719,162.139,800.922z M157.373,793.827
		c4.568-0.126,5.186,3.149,8.092,4.454C161.203,801.288,158.316,796.569,157.373,793.827z M157.645,799.864
		c-2.907,1.59-5.274,1.934-8.944,0.54C149.149,796.455,155.542,799.09,157.645,799.864z M151.876,796.549
		c0.516-1.135,1.607-1.602,2.793-1.958c0.79,0.962,2.118,1.46,2.436,2.828C155.467,796.605,153.17,797.7,151.876,796.549z
		 M141.284,793.354c2.442-3.716,7.9-2.012,11.303,0.118C150.239,797.881,145.35,793.253,141.284,793.354z M148.454,797.256
		c-0.93,4.745-9.837,1.5-13.785,0.899C137.007,793.721,144.192,794.693,148.454,797.256z M142.851,801.412
		c-3.201,2.092-9.402,0.7-12.934,2.406c-1.012-1.202,0.433-3.3,1.295-4.475C134.602,800.453,138.867,800.812,142.851,801.412z
		 M139.426,808.617c-0.609,5.47-6.755,3.225-11.349,3.729c-0.475-1.607-1.168-3.025-1.062-5.133
		C131.389,808.393,134.881,807.623,139.426,808.617z M126.996,813.95c2.727-0.387,5.074-0.71,7.676,0.33
		c-1.675,3.255-4.819,4.808-9.929,4.075C125.434,816.818,126.188,815.353,126.996,813.95z M131.134,819.793
		c0.534,1.065,0.182,2.368-0.489,3.333c-3.131-0.428-5.259,0.31-7.747,0.627c-0.038-1.518,0.838-1.973,0.966-3.297
		C126.646,820.651,128.508,819.779,131.134,819.793z M122.995,825.686c2.075-0.71,4.324-1.221,7.287-0.902
		c-0.078,1.036-0.155,2.075-0.232,3.111c-2.099,1.118-5.003,1.301-7.818,1.583C122.325,828.028,122.752,826.965,122.995,825.686z
		 M131.307,830.396c-1.6,2.388-3.351,4.603-4.859,7.099c-2.288-1.538-4.659-3.005-5.335-5.933
		C123.901,831.643,128.492,829.419,131.307,830.396z M124.886,839.064c-0.707,1.776-2.179,2.67-3.191,4.094
		c-2.268-0.288-3.114-1.8-5.895-1.643c1.348-2.594,1.698-6.346,3.513-8.403C120.87,835.355,123.437,836.727,124.886,839.064z
		 M114.854,831.577c-1.019-0.766-1.128-2.313-2.693-2.607c2.214-1.509,6.283-1.761,8.847-2.47
		C121.788,830.456,117.71,830.979,114.854,831.577z M104.332,856.545c-0.042-2.046,2.722-2.208,4.212-1.611
		C107.673,856.091,106.147,856.485,104.332,856.545z M108.926,853.036c-1.121-0.262-1.666,0.146-2.651,0.044
		c1.579-2.065,2.398-5.016,4.79-6.143C110.296,848.907,109.854,851.255,108.926,853.036z M116.062,850.919
		c-1.962,2.663-3.998,5.242-5.888,7.985C110.271,855.118,112.746,851.839,116.062,850.919z M111.998,860.245
		c1.457-3.51,3.78-6.014,5.942-8.703C118.216,855.849,114.906,859.632,111.998,860.245z M111.426,851.779
		c0.297-2.862,2.103-6.225,3.531-8.643c1.637-0.029,3.684,0.624,5.192,1.35C119.47,849.503,113.981,848.94,111.426,851.779z
		 M117.289,863.526c0.149-3.516,1.2-6.804,2.185-9.944c2.349,0.964,1.423,4.746,2.889,6.473
		C120.554,861.074,119.137,862.551,117.289,863.526z M123.904,858.725c0.022-2.054-3.976-8.088-3.888-9.195
		c0.094-1.191,1.333-2.229,2.093-2.251c2.994-0.081,4.713,5.94,5.856,8.619C126.49,856.698,125.248,857.771,123.904,858.725z
		 M129.837,853.39c-2.191-1.995-2.896-5.271-5.247-7.129c1.744-2.222,4.002-3.849,7.742-3.756
		C132.94,845.85,130.335,849.63,129.837,853.39z M132.609,858.168c-1.633-4.201-0.084-9.679,1.716-13.351
		C136.311,848.978,134.425,854.515,132.609,858.168z M135.736,842.036c0.345-3.499,1.604-5.938,3.017-8.198
		c2.488,2.566,3.237,7.805,3.214,11.79C139.711,844.582,137.941,843.124,135.736,842.036z M135.35,856.928
		c1.04-2.519,2.04-9.092,1.386-12.171c2.293,1.237,4.557,2.496,6.435,4.089C140.903,851.937,138.084,854.382,135.35,856.928z
		 M147.373,850.604c-0.174-2.292-3.517-3.104-3.42-5.79c0.113-3.175,2.431-7.507,4.541-9.289
		C148.481,840.831,148.6,845.493,147.373,850.604z M150.383,832.778c-0.646-3.102-2.067-5.536-2.213-9.071
		c2.673,1.507,4.491,3.749,7.32,5.119c0.186,2.678,0.514,5.232,0.867,7.766C154.102,835.549,152.833,833.653,150.383,832.778z
		 M155.718,838.71c-1.147,1.789-3.156,2.577-5.293,3.216c-0.064-2.185-0.272-4.246,0.02-6.735
		C152.254,835.445,154.052,837.589,155.718,838.71z M149.766,850.782c-1.218-1.89,0.851-4.357,0.518-6.941
		c2.61-0.87,5.084-1.897,6.781-3.828C155.764,843.878,152.156,847.317,149.766,850.782z M158.75,836.77
		c-1.208-1.573-0.952-4.407-1.177-6.827c1.684-0.904,1.96-3.444,4.132-3.784C164.716,830.679,161.767,834.139,158.75,836.77z
		 M162.294,840.885c-1.086-0.632-2.266-1.184-2.969-2.147c0.926-2.219,2.481-3.707,4.443-4.723c0.266,0.892,0.23,2.04,1.276,2.262
		C164.29,838,163.313,839.465,162.294,840.885z M165.94,833.936c-0.771-3.852-4.891-9.964,0.154-11.78
		c1.167,1.086,1.858,2.58,3.101,3.599C168.197,828.581,167.006,831.185,165.94,833.936z M170.092,823.415
		c-3.451-1.313-3.006-6.627-0.999-9.22C173.806,815.406,171.456,819.981,170.092,823.415z M171.626,825.453
		c-0.283-2.181,1.038-4.662,1.915-6.355C177.077,820.186,173.623,824.662,171.626,825.453z M175.365,826.937
		c-0.729-0.044-0.892-0.576-1.382-0.825c0.5-1.24,0.894-2.603,2.147-2.971C176.442,824.124,175.565,825.71,175.365,826.937z
		 M177.318,820.102c-0.523-2.266-5.087-4.145-5.538-6.43c-0.452-2.287,1.866-4.085,2.856-6.044
		C179.29,809.431,178.369,814.424,177.318,820.102z M182.25,812.045c-2.981-0.194-3.009-2.933-4.227-4.647
		c1.152-0.235,2.206,0.33,3.829,0.285C182.275,808.887,182.405,810.343,182.25,812.045z M178.796,800.236
		c1.505,1.391,2.328,3.369,2.702,5.736c-2.567-1.026-7.607-0.278-7.791-2.023C173.566,802.609,178.309,801.806,178.796,800.236z
		 M177.938,795.599c-0.049,3.636-2.169,6.521-5.507,6.09C173.722,799.185,175.794,796.249,177.938,795.599z M170.217,799.116
		c-1.296-0.68-3.755-1.541-3.653-2.678c1.37-1.618,4.262-1.469,6.863-1.656C172.463,796.352,171.048,797.396,170.217,799.116z
		 M170.882,793.39c-2.731-0.579-4.454,2.305-6.401,1.931c-1.871-0.359-2.415-3.324-4.244-4.407
		C163.532,789.853,168.648,791.095,170.882,793.39z M163.527,788.751c-2.741,1.26-6.239-0.556-6.01-3.334
		C161.064,785.2,161.624,787.553,163.527,788.751z M158.216,792.206c-2.532,1.389-5.189-0.616-7.349-1.507
		C153.342,790.183,158.177,788.386,158.216,792.206z M152.942,788.687c-3.598,1.166-7.843,0.957-11.248-0.837
		C144.534,786.727,148.996,788.274,152.942,788.687z M129.114,791.967c0.601-2.912,7.58-3.273,10.665-4.26
		c0.185,0.928,1.403,2.187,3.19,2.402c-2.662,4.852-8.713,0.784-13.36,1.652c1.165,2,4.768,1.104,7.038,2.45
		c-1.023,2.019-3.196,2.703-5.754,2.942C131.143,794.807,128.736,793.784,129.114,791.967z M124.11,800.98
		c0.881-1.576,2.549-2.242,4.3-2.809c1.527,1.749-0.837,4.164-1.182,6.17C125.812,803.547,125.108,802.136,124.11,800.98z
		 M124.879,806.814c4.566,6.842-5.69,7.658-11.411,7.813C116.704,811.362,121.164,809.521,124.879,806.814z M114.761,816.65
		c3.238-1.188,6.797-1.522,10.541-2.585C124.344,819.609,118.609,819.426,114.761,816.65z M115.708,820.089
		c1.256-0.362,4.337,0.739,6.223,0.463c-0.15,1.652-0.947,3.025-1.02,4.016c-1.731,1.197-4.813,0.986-7.598,1.84
		c-1.259,0.389-4.016,2.692-4.362,0.399C108.822,825.948,114.619,820.404,115.708,820.089z M112.886,832.153
		c-1.428-0.338-2.832-0.696-4.254-1.04C109.373,829.223,112.902,830.214,112.886,832.153z M107.648,828.152
		c1.484,0.744-0.231,2.051-1.356,2.065C106.497,829.242,107.229,828.879,107.648,828.152z"/>
</g>
<g>
	<path style="fill:#EBE2D3;" d="M50.925,32.547c2.58,0.419,4.661-1.825,6.27-3.385c-1.562-1.343-3.069-2.731-5.017-3.741
		C51.615,27.627,51.497,30.348,50.925,32.547z"/>
	<path style="fill:#EBE2D3;" d="M14.68,53.916c-1.447,0.402-2.331,1.454-4.415,1.117c-1.241,3.004-4.897,5.893-4.745,8.791
		c2.047-0.829,3.76-2.049,6.418-2.171C13.346,59.954,14.978,55.881,14.68,53.916z"/>
	<path style="fill:#EBE2D3;" d="M37.104,40.424c-2.359-0.139-4.056-0.775-6.002-0.206c0.183,1.591-0.033,2.487-0.523,3.812
		C33.214,43.521,36.263,42.157,37.104,40.424z"/>
	<path style="fill:#EBE2D3;" d="M41.472,43.156c-2.478,0.024-4.436,5.295-6.518,6.733c1.522,3.228,6.944,1.514,10.459,1.742
		C45.039,48.298,44.404,43.128,41.472,43.156z"/>
	<path style="fill:#EBE2D3;" d="M32.202,38.375c3.311-0.369,5.684,0.778,8.784,1.615c2.071-2.017,4.97-3.071,6.89-5.264
		C41.673,34.87,34.399,33.115,32.202,38.375z"/>
	<path style="fill:#EBE2D3;" d="M50.827,37.113c-2.677,1.053-5.246,2.231-6.836,4.546c4.068,0.684,5.871,4.488,8.997,5.24
		C52.428,43.497,50.136,41.589,50.827,37.113z"/>
	<path style="fill:#EBE2D3;" d="M32.788,59.596c0.477-2.809,4.853-6.699,0.606-8.138C30.851,53.665,30.013,57.143,32.788,59.596z"/>
	<path style="fill:#EBE2D3;" d="M53.481,24.074c2.467,1.259,5.961,6.013,8.049,1.803C59.684,23.86,56.188,20.586,53.481,24.074z"/>
	<path style="fill:#EBE2D3;" d="M23.337,63.707c2.204-1.256,5.039-1.778,7.873-2.304c-0.933-1.212-0.8-3.343-2.349-4.025
		C26.827,59.264,25.131,61.543,23.337,63.707z"/>
	<path style="fill:#EBE2D3;" d="M60.967,36.664c-0.546-1.396-1.662-2.301-2.126-3.769c-2.237,0.697-4.345,1.542-5.993,2.925
		C54.977,37.269,57.6,35.357,60.967,36.664z"/>
	<path style="fill:#EBE2D3;" d="M50.539,24.818c-1.061-0.728-2.332-1.275-3.98-1.498c-1.796,1.729-3.4,3.679-4.771,5.902
		c3.139,0.431,4.767,2.163,7.224,3.183C50.171,30.632,49.838,27.124,50.539,24.818z"/>
	<path style="fill:#EBE2D3;" d="M45.864,32.652c-2.03-1.767-7.566-3.848-8.208,0.352C40.139,33.336,44.027,33.072,45.864,32.652z"/>
	<path style="fill:#EBE2D3;" d="M29.743,48.778c4.759,0.586,5.092-3.969,7.66-5.926c-2.631,0.672-3.93,2.891-7.189,2.835
		C29.81,46.433,29.837,47.678,29.743,48.778z"/>
	<path style="fill:#EBE2D3;" d="M43.411,23.567c-4.509,2.175-10.796,0.93-15.399,3.184C33.486,27.241,42.807,30.69,43.411,23.567z"
		/>
	<path style="fill:#EBE2D3;" d="M38.535,53.525c1.532,2.116,2.049,5.105,3.038,7.688c0.69-3.027,3.005-5.507,3.699-7.666
		C42.855,54.272,40.907,52.45,38.535,53.525z"/>
	<path style="fill:#EBE2D3;" d="M30.609,79.168c1.815-3.653,3.701-9.19,1.716-13.351C30.526,69.489,28.977,74.967,30.609,79.168z"/>
	<path style="fill:#EBE2D3;" d="M48.425,62.926c2.137-0.639,4.146-1.427,5.294-3.216c-1.666-1.121-3.464-3.265-5.274-3.519
		C48.153,58.68,48.36,60.741,48.425,62.926z"/>
	<path style="fill:#EBE2D3;" d="M33.35,77.928c2.734-2.546,5.553-4.991,7.821-8.082c-1.878-1.593-4.142-2.852-6.435-4.089
		C35.39,68.836,34.39,75.408,33.35,77.928z"/>
	<path style="fill:#EBE2D3;" d="M41.953,65.814c-0.097,2.687,3.246,3.498,3.42,5.79c1.227-5.11,1.109-9.772,1.121-15.079
		C44.383,58.307,42.065,62.639,41.953,65.814z"/>
	<path style="fill:#EBE2D3;" d="M53.49,49.826c-2.829-1.37-4.647-3.612-7.32-5.119c0.146,3.535,1.566,5.97,2.213,9.071
		c2.45,0.875,3.719,2.771,5.974,3.813C54.004,55.059,53.675,52.504,53.49,49.826z"/>
	<path style="fill:#EBE2D3;" d="M36.752,54.838c-1.413,2.26-2.671,4.699-3.017,8.198c2.205,1.088,3.976,2.546,6.23,3.592
		C39.989,62.643,39.24,57.404,36.752,54.838z"/>
	<path style="fill:#EBE2D3;" d="M17.474,74.581c-0.984,3.141-2.035,6.429-2.185,9.944c1.848-0.975,3.265-2.451,5.073-3.472
		C18.896,79.327,19.823,75.545,17.474,74.581z"/>
	<path style="fill:#EBE2D3;" d="M12.957,64.137c-1.428,2.418-3.234,5.78-3.531,8.643c2.555-2.84,8.044-2.276,8.724-7.293
		C16.641,64.761,14.594,64.108,12.957,64.137z"/>
	<path style="fill:#EBE2D3;" d="M22.591,67.261c2.35,1.857,3.056,5.134,5.247,7.129c0.497-3.76,3.103-7.54,2.495-10.885
		C26.592,63.412,24.335,65.039,22.591,67.261z"/>
	<path style="fill:#EBE2D3;" d="M9.998,81.245c2.907-0.613,6.217-4.396,5.942-8.703C13.778,75.232,11.456,77.735,9.998,81.245z"/>
	<path style="fill:#EBE2D3;" d="M20.109,68.278c-0.76,0.021-1.999,1.06-2.093,2.251c-0.088,1.107,3.91,7.142,3.888,9.195
		c1.344-0.954,2.585-2.026,4.061-2.827C24.822,74.219,23.103,68.197,20.109,68.278z"/>
	<path style="fill:#EBE2D3;" d="M71.541,40.098c-0.877,1.693-2.199,4.175-1.916,6.355C71.623,45.662,75.077,41.186,71.541,40.098z"
		/>
	<path style="fill:#EBE2D3;" d="M71.982,47.111c0.49,0.249,0.654,0.781,1.382,0.825c0.201-1.227,1.077-2.813,0.765-3.796
		C72.876,44.508,72.482,45.871,71.982,47.111z"/>
	<path style="fill:#EBE2D3;" d="M72.636,28.628c-0.991,1.959-3.309,3.757-2.856,6.044c0.451,2.285,5.015,4.164,5.538,6.43
		C76.369,35.424,77.289,30.431,72.636,28.628z"/>
	<path style="fill:#EBE2D3;" d="M76.023,28.398c1.217,1.715,1.246,4.453,4.227,4.648c0.155-1.702,0.025-3.158-0.397-4.362
		C78.229,28.728,77.175,28.162,76.023,28.398z"/>
	<path style="fill:#EBE2D3;" d="M71.707,24.949c0.184,1.745,5.224,0.997,7.791,2.023c-0.374-2.367-1.197-4.346-2.702-5.736
		C76.309,22.806,71.566,23.609,71.707,24.949z"/>
	<path style="fill:#EBE2D3;" d="M75.938,16.599c-2.144,0.65-4.216,3.586-5.507,6.09C73.769,23.119,75.889,20.235,75.938,16.599z"/>
	<path style="fill:#EBE2D3;" d="M48.283,64.841c0.333,2.584-1.736,5.052-0.518,6.941c2.39-3.466,5.998-6.904,7.298-10.77
		C53.367,62.943,50.894,63.971,48.283,64.841z"/>
	<path style="fill:#EBE2D3;" d="M59.706,47.158c-2.172,0.34-2.448,2.88-4.132,3.784c0.225,2.42-0.031,5.254,1.177,6.827
		C59.767,55.139,62.716,51.679,59.706,47.158z"/>
	<path style="fill:#EBE2D3;" d="M61.768,55.015c-1.962,1.016-3.518,2.504-4.443,4.723c0.704,0.964,1.883,1.516,2.969,2.147
		c1.019-1.42,1.996-2.885,2.75-4.608C61.998,57.055,62.034,55.906,61.768,55.015z"/>
	<path style="fill:#EBE2D3;" d="M64.094,43.155c-5.045,1.816-0.926,7.929-0.154,11.78c1.066-2.751,2.257-5.354,3.255-8.182
		C65.953,45.735,65.261,44.241,64.094,43.155z"/>
	<path style="fill:#EBE2D3;" d="M67.093,35.195c-2.007,2.593-2.452,7.906,0.999,9.22C69.456,40.981,71.806,36.406,67.093,35.195z"/>
	<path style="fill:#EBE2D3;" d="M46.701,21.404c3.67,1.394,6.037,1.05,8.944-0.54C53.542,20.09,47.149,17.455,46.701,21.404z"/>
	<path style="fill:#EBE2D3;" d="M52.669,15.591c-1.186,0.356-2.277,0.823-2.793,1.958c1.294,1.151,3.591,0.056,5.229,0.87
		C54.787,17.051,53.459,16.553,52.669,15.591z"/>
	<path style="fill:#EBE2D3;" d="M55.373,14.827c0.943,2.742,3.83,7.461,8.092,4.454C60.559,17.977,59.941,14.701,55.373,14.827z"/>
	<path style="fill:#EBE2D3;" d="M27.917,24.818c3.532-1.706,9.733-0.314,12.934-2.406c-3.983-0.601-8.248-0.959-11.639-2.068
		C28.349,21.519,26.904,23.616,27.917,24.818z"/>
	<path style="fill:#EBE2D3;" d="M39.284,14.354c4.066-0.101,8.956,4.527,11.303,0.118C47.184,12.342,41.726,10.638,39.284,14.354z"
		/>
	<path style="fill:#EBE2D3;" d="M32.669,19.155c3.947,0.601,12.854,3.846,13.785-0.899C42.192,15.693,35.007,14.721,32.669,19.155z"
		/>
	<path style="fill:#EBE2D3;" d="M64.229,38.11c0.173-1.621,1.305-2.127,1.261-3.998c-1.093-0.518-3.576-1.576-4.511-0.817
		C62.494,34.527,62.798,36.805,64.229,38.11z"/>
	<path style="fill:#EBE2D3;" d="M60.139,21.922c1.217,3.797,5.226,3.245,6.516-0.237C64.791,20.596,61.998,21.445,60.139,21.922z"/>
	<path style="fill:#EBE2D3;" d="M63.024,41.389c0.163-1.198-0.948-1.7-1.223-2.978c-2.359-0.146-4.989-1.38-6.942-0.517
		C55.144,41.909,62.269,46.882,63.024,41.389z"/>
	<path style="fill:#EBE2D3;" d="M71.307,27.085c-1.218-0.741-1.692-2.125-2.658-3.086c-2.206,2.38-4.788,4.322-6.775,6.958
		c2.046,0.774,4.441,1.251,6.081,2.378C69.073,31.254,70.46,29.484,71.307,27.085z"/>
	<path style="fill:#EBE2D3;" d="M2.332,77.545c1.814-0.061,3.34-0.454,4.212-1.611C5.055,75.337,2.29,75.499,2.332,77.545z"/>
	<path style="fill:#EBE2D3;" d="M17.313,54.111c-1.815,2.058-2.165,5.81-3.513,8.403c2.78-0.157,3.627,1.354,5.894,1.643
		c1.013-1.424,2.484-2.317,3.191-4.094C21.436,57.727,18.87,56.355,17.313,54.111z"/>
	<path style="fill:#EBE2D3;" d="M10.161,49.97c1.564,0.295,1.674,1.842,2.693,2.607c2.856-0.599,6.934-1.121,6.154-5.077
		C16.443,48.209,12.374,48.461,10.161,49.97z"/>
	<path style="fill:#EBE2D3;" d="M8.174,79.904c1.89-2.743,3.926-5.322,5.888-7.985C10.746,72.839,8.271,76.118,8.174,79.904z"/>
	<path style="fill:#EBE2D3;" d="M4.275,74.08c0.986,0.103,1.53-0.306,2.651-0.044c0.928-1.781,1.37-4.129,2.138-6.099
		C6.673,69.065,5.854,72.015,4.275,74.08z"/>
	<path style="fill:#EBE2D3;" d="M24.447,58.494c1.508-2.495,3.259-4.711,4.859-7.099c-2.815-0.977-7.406,1.247-10.195,1.166
		C19.789,55.489,22.16,56.956,24.447,58.494z"/>
	<path style="fill:#EBE2D3;" d="M20.898,44.753c2.488-0.316,4.616-1.055,7.747-0.627c0.671-0.965,1.024-2.268,0.489-3.333
		c-2.626-0.014-4.489,0.858-7.27,0.663C21.736,42.78,20.859,43.235,20.898,44.753z"/>
	<path style="fill:#EBE2D3;" d="M26.077,33.346c4.594-0.504,10.739,1.741,11.349-3.729c-4.545-0.994-8.037-0.225-12.411-1.404
		C24.909,30.32,25.602,31.739,26.077,33.346z"/>
	<path style="fill:#EBE2D3;" d="M32.672,35.28c-2.603-1.04-4.95-0.717-7.676-0.33c-0.808,1.402-1.562,2.868-2.252,4.405
		C27.853,40.088,30.997,38.535,32.672,35.28z"/>
	<path style="fill:#EBE2D3;" d="M28.049,48.895c0.077-1.036,0.154-2.075,0.232-3.111c-2.963-0.318-5.211,0.192-7.287,0.902
		c-0.243,1.279-0.669,2.343-0.763,3.792C23.046,50.195,25.95,50.013,28.049,48.895z"/>
	<path style="fill:#EBE2D3;" d="M58.616,45.634c-2.593-1.227-4.213-5.592-6.052-5.984c0.62,3.346,2.257,5.82,2.931,9.122
		C56.25,47.396,57.732,46.863,58.616,45.634z"/>
	<path style="fill:#EBE2D3;" d="M22.879,27.814c-3.716,2.707-8.175,4.549-11.411,7.813C17.189,35.472,27.446,34.655,22.879,27.814z"
		/>
	<path style="fill:#EBE2D3;" d="M25.229,25.341c0.344-2.006,2.709-4.421,1.182-6.17c-1.751,0.566-3.419,1.232-4.3,2.809
		C23.108,23.136,23.811,24.547,25.229,25.341z"/>
	<path style="fill:#EBE2D3;" d="M34.647,15.212c-2.27-1.347-5.873-0.45-7.038-2.45c4.646-0.868,10.698,3.199,13.36-1.652
		c-1.788-0.216-3.006-1.475-3.19-2.402c-3.085,0.986-10.064,1.348-10.665,4.26c-0.378,1.817,2.029,2.84,1.78,5.187
		C31.451,17.915,33.625,17.232,34.647,15.212z"/>
	<path style="fill:#EBE2D3;" d="M64.564,17.439c-0.102,1.137,2.357,1.998,3.653,2.678c0.831-1.721,2.246-2.765,3.21-4.334
		C68.826,15.97,65.934,15.82,64.564,17.439z"/>
	<path style="fill:#EBE2D3;" d="M23.302,35.065c-3.744,1.064-7.303,1.398-10.541,2.585C16.609,40.426,22.344,40.609,23.302,35.065z"
		/>
	<path style="fill:#EBE2D3;" d="M11.313,47.407c2.785-0.854,5.867-0.643,7.598-1.84c0.073-0.99,0.87-2.363,1.02-4.016
		c-1.886,0.276-4.967-0.825-6.223-0.463c-1.09,0.315-6.886,5.859-6.757,6.718C7.298,50.1,10.054,47.796,11.313,47.407z"/>
	<path style="fill:#EBE2D3;" d="M61.527,9.751c-1.903-1.198-2.463-3.551-6.01-3.334C55.288,9.195,58.786,11.011,61.527,9.751z"/>
	<path style="fill:#EBE2D3;" d="M6.631,52.113c1.422,0.344,2.827,0.702,4.254,1.04C10.902,51.214,7.373,50.223,6.631,52.113z"/>
	<path style="fill:#EBE2D3;" d="M50.942,9.687c-3.946-0.413-8.408-1.96-11.249-0.837C43.099,10.644,47.344,10.853,50.942,9.687z"/>
	<path style="fill:#EBE2D3;" d="M62.481,16.32c1.947,0.374,3.67-2.51,6.401-1.931c-2.234-2.295-7.35-3.537-10.645-2.477
		C60.067,12.996,60.611,15.961,62.481,16.32z"/>
	<path style="fill:#EBE2D3;" d="M56.216,13.206c-0.039-3.82-4.873-2.023-7.349-1.507C51.026,12.59,53.684,14.595,56.216,13.206z"/>
	<path style="fill:#EBE2D3;" d="M5.648,49.152c-0.419,0.727-1.152,1.09-1.356,2.065C5.417,51.203,7.132,49.897,5.648,49.152z"/>
	<path style="fill:#BCB37E;" d="M1.924,53.93c2.015-0.565,4.465-0.604,6.701,0.499c-1.238,4.203-5.8,5.912-5.402,11.149
		c2.496,0.589,4.212-1.597,6.64-1.913C6.529,68.813,1.345,73.191,0,79.778c2.376,1.059,3.942-2.305,6.569-0.954
		c-1.464,3.153-2.736,6.529-4.1,9.802c4.685-0.375,7.597-6.429,11.633-7.558c-0.221,1.862-1.5,3.756-0.906,5.709
		c5.965-2.176,9.513-7.157,15.383-9.445c0.198,1.546-0.007,3.44-0.153,5.285c2.664,1.089,3.184-1.085,4.265-2.33
		c2.88-3.318,7.793-7.038,10.544-9.084c-0.104,9.479,5.51,1.274,8.076-1.806c2.631-3.157,3.996-6.05,6.092-7.488
		c2.413,5.372,4.648,0.551,6.748-3.348c1.53-2.844,3.08-10.142,4.888-10.708c2.572-0.806,3.002,2.901,5.548,3.061
		c2.19-3.711,1.955-11.328,3.881-16.559c1.534-0.092,1.853,1.429,3.057,0.95c0.916-4.479,0.327-6.991-0.688-10.159
		c-0.633-1.979-3.651-6.243-3.206-8.662c0.317-1.718,3.411-5.274,5.118-7.32c0.891-1.067,3.28-3.529,5.178-4.908
		c1.063-0.773,3.803-1.584,3.821-2.845c0.049-3.077-4.977-0.318-6.311,0.734c-2.986,2.353-8.453,12.484-13.762,10.287
		c-6.717-2.782-9.318-8.617-17.93-8.072c-0.84,1.625,0.602,2.801,0.636,4.378c-6.248-0.998-12.99-2.634-18.667-1.39
		c-6.25,1.37-12.996,3.357-8.664,9.704c-1.896,1.644-6.562,1.857-6.82,4.307c-0.193,1.849,2.472,2.317,2.809,4.3
		c-2.843,2.985-10.431,6.039-13.689,9.331c-3.255,3.287,2.058,2.671,4.227,4.645c-2.841,1.999-5.242,4.022-7.991,7.108
		C3.658,48.908-0.112,52.287,1.924,53.93z M5.52,63.824c-0.153-2.898,3.503-5.787,4.745-8.791c2.084,0.337,2.968-0.715,4.415-1.117
		c0.298,1.965-1.335,6.038-2.742,7.737C9.28,61.776,7.568,62.995,5.52,63.824z M34.954,49.89c2.083-1.438,4.041-6.71,6.518-6.733
		c2.932-0.028,3.567,5.142,3.941,8.476C41.898,51.403,36.476,53.117,34.954,49.89z M45.272,53.547
		c-0.694,2.159-3.009,4.639-3.699,7.666c-0.989-2.583-1.506-5.572-3.038-7.688C40.907,52.45,42.855,54.272,45.272,53.547z
		 M31.101,40.218c1.947-0.569,3.643,0.067,6.002,0.206c-0.84,1.733-3.889,3.097-6.525,3.605
		C31.068,42.705,31.284,41.809,31.101,40.218z M28.012,26.75c4.602-2.254,10.89-1.009,15.399-3.184
		C42.807,30.69,33.486,27.241,28.012,26.75z M46.559,23.319c1.648,0.223,2.919,0.771,3.98,1.498c-0.7,2.307-0.368,5.814-1.527,7.587
		c-2.457-1.02-4.084-2.752-7.224-3.183C43.158,26.998,44.763,25.048,46.559,23.319z M45.864,32.652
		c-1.837,0.42-5.725,0.684-8.208,0.352C38.298,28.805,43.834,30.886,45.864,32.652z M47.875,34.727
		c-1.92,2.192-4.818,3.247-6.89,5.264c-3.1-0.837-5.473-1.984-8.784-1.615C34.399,33.115,41.673,34.87,47.875,34.727z
		 M37.402,42.853c-2.567,1.957-2.9,6.512-7.66,5.926c0.095-1.101,0.068-2.346,0.471-3.091
		C33.473,45.743,34.771,43.525,37.402,42.853z M31.21,61.403c-2.834,0.525-5.669,1.048-7.873,2.304
		c1.794-2.164,3.49-4.443,5.524-6.329C30.41,58.061,30.277,60.192,31.21,61.403z M33.394,51.458
		c4.247,1.438-0.129,5.329-0.606,8.138C30.013,57.143,30.851,53.665,33.394,51.458z M43.99,41.659
		c1.59-2.315,4.16-3.493,6.836-4.546c-0.691,4.476,1.602,6.384,2.16,9.786C49.861,46.148,48.058,42.344,43.99,41.659z
		 M53.481,24.074c2.706-3.488,6.202-0.214,8.049,1.803C59.442,30.087,55.949,25.333,53.481,24.074z M60.967,36.664
		c-3.368-1.308-5.991,0.604-8.119-0.844c1.647-1.383,3.756-2.228,5.993-2.925C59.306,34.363,60.421,35.269,60.967,36.664z
		 M57.195,29.162c-1.609,1.56-3.69,3.804-6.27,3.385c0.572-2.199,0.69-4.92,1.253-7.126C54.125,26.432,55.633,27.819,57.195,29.162z
		 M52.564,39.65c1.839,0.393,3.459,4.758,6.052,5.984c-0.884,1.229-2.366,1.762-3.122,3.138
		C54.821,45.47,53.184,42.995,52.564,39.65z M54.859,37.895c1.953-0.863,4.583,0.37,6.942,0.517
		c0.275,1.277,1.386,1.779,1.223,2.978C62.269,46.882,55.144,41.909,54.859,37.895z M60.979,33.295
		c0.936-0.759,3.418,0.3,4.511,0.817c0.044,1.871-1.088,2.377-1.261,3.998C62.798,36.805,62.494,34.527,60.979,33.295z
		 M61.874,30.957c1.987-2.636,4.57-4.578,6.775-6.958c0.965,0.961,1.439,2.345,2.658,3.086c-0.847,2.399-2.234,4.169-3.352,6.25
		C66.314,32.208,63.92,31.732,61.874,30.957z M60.139,21.922c1.859-0.477,4.653-1.326,6.516-0.237
		C65.365,25.167,61.356,25.719,60.139,21.922z M55.373,14.827c4.568-0.126,5.186,3.149,8.092,4.454
		C59.203,22.288,56.316,17.569,55.373,14.827z M55.646,20.864c-2.907,1.59-5.274,1.934-8.944,0.54
		C47.149,17.455,53.542,20.09,55.646,20.864z M49.876,17.549c0.516-1.135,1.607-1.602,2.793-1.958
		c0.79,0.962,2.118,1.46,2.436,2.828C53.467,17.605,51.17,18.7,49.876,17.549z M39.284,14.354c2.442-3.716,7.9-2.012,11.303,0.118
		C48.239,18.881,43.35,14.253,39.284,14.354z M46.454,18.256c-0.93,4.745-9.837,1.5-13.785,0.899
		C35.007,14.721,42.192,15.693,46.454,18.256z M40.851,22.412c-3.201,2.092-9.402,0.7-12.934,2.406
		c-1.012-1.202,0.433-3.3,1.295-4.475C32.603,21.453,36.867,21.812,40.851,22.412z M37.426,29.617
		c-0.609,5.47-6.755,3.225-11.349,3.729c-0.475-1.607-1.168-3.025-1.062-5.133C29.389,29.393,32.881,28.623,37.426,29.617z
		 M24.996,34.95c2.727-0.387,5.074-0.71,7.676,0.33c-1.675,3.255-4.819,4.808-9.929,4.075C23.434,37.818,24.188,36.353,24.996,34.95
		z M29.134,40.793c0.534,1.066,0.182,2.368-0.489,3.333c-3.131-0.428-5.259,0.31-7.747,0.627c-0.038-1.518,0.838-1.973,0.966-3.297
		C24.646,41.651,26.508,40.779,29.134,40.793z M20.995,46.686c2.075-0.71,4.324-1.221,7.287-0.902
		c-0.078,1.036-0.155,2.075-0.232,3.111c-2.099,1.118-5.003,1.301-7.818,1.583C20.325,49.028,20.752,47.965,20.995,46.686z
		 M29.307,51.396c-1.6,2.388-3.351,4.604-4.859,7.099c-2.288-1.538-4.659-3.005-5.336-5.933
		C21.901,52.643,26.492,50.419,29.307,51.396z M22.886,60.064c-0.707,1.776-2.179,2.67-3.191,4.094
		c-2.268-0.288-3.114-1.8-5.894-1.643c1.348-2.594,1.698-6.346,3.513-8.403C18.87,56.355,21.436,57.727,22.886,60.064z
		 M12.853,52.577c-1.018-0.766-1.128-2.313-2.693-2.607c2.214-1.509,6.283-1.761,8.847-2.47
		C19.788,51.456,15.709,51.979,12.853,52.577z M2.332,77.545c-0.042-2.046,2.722-2.208,4.212-1.611
		C5.673,77.091,4.147,77.485,2.332,77.545z M6.926,74.036c-1.121-0.262-1.666,0.146-2.651,0.044c1.579-2.065,2.398-5.016,4.79-6.143
		C8.296,69.907,7.854,72.255,6.926,74.036z M14.062,71.919c-1.962,2.663-3.998,5.242-5.888,7.985
		C8.271,76.118,10.746,72.839,14.062,71.919z M9.998,81.245c1.457-3.51,3.78-6.014,5.942-8.703
		C16.216,76.849,12.906,80.632,9.998,81.245z M9.426,72.779c0.297-2.862,2.103-6.225,3.531-8.643
		c1.637-0.029,3.684,0.624,5.192,1.35C17.47,70.503,11.981,69.94,9.426,72.779z M15.289,84.526c0.149-3.516,1.2-6.804,2.185-9.944
		c2.349,0.964,1.423,4.746,2.889,6.473C18.554,82.074,17.137,83.551,15.289,84.526z M21.904,79.725
		c0.022-2.054-3.976-8.088-3.888-9.195c0.094-1.191,1.333-2.229,2.093-2.251c2.994-0.081,4.713,5.94,5.856,8.619
		C24.49,77.698,23.248,78.771,21.904,79.725z M27.837,74.39c-2.191-1.995-2.896-5.271-5.247-7.129
		c1.744-2.222,4.001-3.849,7.742-3.756C30.94,66.85,28.334,70.63,27.837,74.39z M30.609,79.168
		c-1.633-4.201-0.083-9.679,1.716-13.351C34.31,69.978,32.425,75.515,30.609,79.168z M33.736,63.036
		c0.345-3.499,1.604-5.938,3.017-8.198c2.488,2.566,3.237,7.805,3.214,11.79C37.711,65.582,35.941,64.124,33.736,63.036z
		 M33.35,77.928c1.04-2.52,2.04-9.092,1.386-12.171c2.293,1.237,4.557,2.496,6.435,4.089C38.903,72.937,36.084,75.382,33.35,77.928z
		 M45.373,71.604c-0.174-2.292-3.517-3.104-3.42-5.79c0.113-3.175,2.431-7.507,4.541-9.289C46.481,61.831,46.6,66.493,45.373,71.604
		z M48.383,53.778c-0.646-3.102-2.067-5.536-2.213-9.071c2.673,1.507,4.491,3.749,7.32,5.119c0.186,2.678,0.514,5.232,0.867,7.766
		C52.102,56.549,50.833,54.653,48.383,53.778z M53.718,59.71c-1.148,1.789-3.156,2.577-5.294,3.216
		c-0.064-2.185-0.272-4.246,0.02-6.735C50.254,56.445,52.052,58.589,53.718,59.71z M47.766,71.782
		c-1.218-1.89,0.851-4.357,0.518-6.941c2.61-0.87,5.084-1.898,6.781-3.828C53.764,64.878,50.156,68.317,47.766,71.782z M56.75,57.77
		c-1.208-1.573-0.952-4.407-1.177-6.827c1.684-0.904,1.96-3.444,4.132-3.784C62.716,51.679,59.767,55.139,56.75,57.77z
		 M60.294,61.885c-1.086-0.632-2.266-1.183-2.969-2.147c0.926-2.219,2.481-3.707,4.443-4.723c0.266,0.892,0.23,2.04,1.276,2.262
		C62.289,59,61.313,60.465,60.294,61.885z M63.94,54.936c-0.771-3.852-4.891-9.964,0.154-11.78c1.167,1.086,1.858,2.58,3.101,3.599
		C66.197,49.581,65.006,52.185,63.94,54.936z M68.092,44.415c-3.451-1.313-3.006-6.627-0.999-9.22
		C71.806,36.406,69.456,40.981,68.092,44.415z M69.625,46.453c-0.283-2.181,1.038-4.662,1.916-6.355
		C75.077,41.186,71.623,45.662,69.625,46.453z M73.365,47.937c-0.729-0.044-0.892-0.576-1.382-0.825
		c0.5-1.24,0.894-2.604,2.147-2.971C74.442,45.124,73.565,46.71,73.365,47.937z M75.318,41.102c-0.523-2.266-5.087-4.145-5.538-6.43
		c-0.452-2.287,1.866-4.085,2.856-6.044C77.289,30.431,76.369,35.424,75.318,41.102z M80.25,33.045
		c-2.981-0.194-3.009-2.933-4.227-4.648c1.152-0.235,2.206,0.33,3.829,0.285C80.275,29.887,80.405,31.343,80.25,33.045z
		 M76.796,21.236c1.505,1.391,2.328,3.369,2.702,5.736c-2.567-1.026-7.607-0.278-7.791-2.023
		C71.566,23.609,76.309,22.806,76.796,21.236z M75.938,16.599c-0.049,3.636-2.169,6.52-5.507,6.09
		C71.722,20.185,73.794,17.249,75.938,16.599z M68.217,20.116c-1.296-0.68-3.755-1.541-3.653-2.678
		c1.37-1.618,4.262-1.469,6.863-1.656C70.463,17.352,69.048,18.396,68.217,20.116z M68.882,14.39
		c-2.731-0.579-4.454,2.305-6.401,1.931c-1.871-0.359-2.415-3.324-4.244-4.407C61.532,10.853,66.648,12.095,68.882,14.39z
		 M61.527,9.751c-2.741,1.26-6.239-0.556-6.01-3.334C59.064,6.2,59.624,8.553,61.527,9.751z M56.216,13.206
		c-2.532,1.389-5.189-0.616-7.349-1.507C51.342,11.183,56.177,9.386,56.216,13.206z M50.942,9.687
		c-3.598,1.166-7.843,0.957-11.249-0.837C42.534,7.727,46.996,9.274,50.942,9.687z M27.114,12.967
		c0.601-2.912,7.58-3.274,10.665-4.26c0.185,0.928,1.403,2.186,3.19,2.402c-2.662,4.851-8.713,0.784-13.36,1.652
		c1.165,2,4.768,1.103,7.038,2.45c-1.022,2.019-3.196,2.703-5.754,2.942C29.143,15.807,26.736,14.784,27.114,12.967z M22.11,21.98
		c0.881-1.576,2.549-2.242,4.3-2.809c1.527,1.749-0.837,4.164-1.182,6.17C23.811,24.547,23.108,23.136,22.11,21.98z M22.879,27.814
		c4.566,6.842-5.69,7.658-11.411,7.813C14.704,32.362,19.164,30.521,22.879,27.814z M12.761,37.65
		c3.238-1.188,6.797-1.521,10.541-2.585C22.344,40.609,16.609,40.426,12.761,37.65z M13.708,41.089
		c1.256-0.362,4.337,0.739,6.223,0.463c-0.15,1.652-0.947,3.025-1.02,4.016c-1.731,1.197-4.813,0.986-7.598,1.84
		c-1.259,0.389-4.016,2.692-4.362,0.399C6.822,46.948,12.619,41.404,13.708,41.089z M10.886,53.153
		c-1.428-0.338-2.832-0.696-4.254-1.04C7.373,50.223,10.902,51.214,10.886,53.153z M5.648,49.152
		c1.484,0.744-0.231,2.051-1.356,2.065C4.497,50.242,5.229,49.879,5.648,49.152z"/>
</g>
</svg>
