<?xml version="1.0" encoding="iso-8859-1"?>
<!-- Generator: Adobe Illustrator 19.2.0, SVG Export Plug-In . SVG Version: 6.00 Build 0)  -->
<svg version="1.1" id="&#x421;&#x43B;&#x43E;&#x439;_1"
	 xmlns="http://www.w3.org/2000/svg" xmlns:xlink="http://www.w3.org/1999/xlink" x="0px" y="0px" viewBox="0 0 65.59 79.973"
	 style="enable-background:new 0 0 65.59 79.973;" xml:space="preserve">
<g>
	<path style="fill:#C9DB7D;" d="M52.1,54.767c-1.956-0.896-2.102-3.281-3.36-4.8c-1.02-1.229-2.832-1.562-3.84-2.88
		c-1.44-1.885-1.594-4.463-4.079-5.04c-0.595,2.936,1.201,5.503,0.959,8.88C46.084,51.185,48.947,54.16,52.1,54.767z"/>
	<path style="fill:#C9DB7D;" d="M60.98,35.327c0.649-7.479-9.871-15.455-12.48-6.24C55.84,27.672,57.846,34.134,60.98,35.327z"/>
	<path style="fill:#C9DB7D;" d="M49.701,23.808c-5.569-0.049-8.319,2.721-9.601,6.959C45.23,30.376,48.128,27.755,49.701,23.808z"/>
	<path style="fill:#C9DB7D;" d="M40.1,27.167c-2.456,1.729-7.93,1.635-7.439,5.52C36.64,33.294,39.293,30.529,40.1,27.167z"/>
	<path style="fill:#C9DB7D;" d="M40.34,50.207c-0.944-3.216-0.844-7.476-2.4-10.08c-3.462-0.794-5.03,1.235-8.88,0.72
		c-0.183,1.657-1.017,2.664-1.2,4.32C32.914,45.234,37.467,47.23,40.34,50.207z"/>
	<path style="fill:#C9DB7D;" d="M48.5,30.767c-0.908,3.297,2.137,4.962,3.601,6.961c2.439,3.33,4.203,7.016,6.72,10.319
		c0.547-3.058,3.399-6.206,2.4-9.601c-0.117-0.399-2.218-2.33-3.12-3.359C56.01,32.704,52.603,29.41,48.5,30.767z"/>
	<path style="fill:#C9DB7D;" d="M35.54,38.447c-0.867-1.771-2.748-2.531-4.319-3.6c-0.602,1.318-1.132,2.709-1.44,4.32
		C31.678,39.82,33.582,38.522,35.54,38.447z"/>
	<path style="fill:#C9DB7D;" d="M55.701,46.847c-1.338-6.79-8.522-8.854-8.881-15.84c-5.045,0.234-7.757,2.804-12.479,3.36
		c1.675,4.182,5.934,3.564,10.8,4.319C50.521,39.523,51.386,44.715,55.701,46.847z"/>
	<path style="fill:#C9DB7D;" d="M52.34,46.127c-3.003-2.907-4.838-6.997-10.801-6c4.583,4.777,8.333,10.388,13.2,14.88
		c0.295-1.373,2.849-2.414,2.641-4.32C57.226,49.285,53.706,47.451,52.34,46.127z"/>
	<path style="fill:#C9DB7D;" d="M42.02,53.087c2.23,3.851,9.28,11.929,11.28,3.359C48.887,56.133,46.703,52.335,42.02,53.087z"/>
	<path style="fill:#C9DB7D;" d="M16.581,35.568c-5.37-4.055-7.744,2.472-13.681,1.68c-0.206,2.506-0.138,6.653,0.48,9.12
		C8.588,43.576,11.749,38.736,16.581,35.568z"/>
	<path style="fill:#C9DB7D;" d="M15.379,27.167c-3.084-0.676-4.144-3.375-5.519-5.76c-2.916,1.483-4.221,4.58-5.52,7.68
		C8.405,30.255,12.996,30.964,15.379,27.167z"/>
	<path style="fill:#C9DB7D;" d="M9.379,33.167c-1.537-1.021-2.796-2.323-5.519-2.16c-0.439,1.207-1.023,3.392-0.72,4.561
		C6.152,35.699,8.055,34.722,9.379,33.167z"/>
	<path style="fill:#C9DB7D;" d="M12.741,31.728c3.453,2.84,10.326,2.68,14.879,1.199C24.949,28.748,15.846,26.262,12.741,31.728z"/>
	<path style="fill:#C9DB7D;" d="M18.501,25.728c1.287-6.634-3.389-9.094-7.2-5.281C12.466,23.441,14.26,25.806,18.501,25.728z"/>
	<path style="fill:#C9DB7D;" d="M27.86,28.847c-2.299-3.061-4.361-6.359-7.68-8.4c-0.603,1.696-0.061,4.184,0.24,5.761
		C23.225,26.763,25.212,28.135,27.86,28.847z"/>
	<path style="fill:#C9DB7D;" d="M40.34,54.287c-3.551,5.886,1.604,8.125,3.6,12.239c2.81-2.271,5.931-3.406,3.12-6.239
		C45.45,58.663,41.179,55.312,40.34,54.287z"/>
	<path style="fill:#C9DB7D;" d="M38.661,62.687c-0.205,3.006,0.684,4.916,0.959,7.44c1.073,0.058,2.537-1.423,3.121-2.64
		C41.453,65.815,40.923,63.384,38.661,62.687z"/>
	<path style="fill:#C9DB7D;" d="M14.18,41.087c-2.501,4.379-4.73,9.029-7.2,13.439C13.577,53.634,15.073,47.134,14.18,41.087z"/>
	<path style="fill:#C9DB7D;" d="M33.38,59.327c-1.097-4.743-3.939-7.742-6.24-11.28C23.803,54.326,30.126,56.738,33.38,59.327z"/>
	<path style="fill:#C9DB7D;" d="M23.3,46.127c-7.305,1.495-8.768,8.832-16.32,10.08c0.425,1.415,1.065,2.614,2.16,3.36
		C13.652,54.878,18.87,50.898,23.3,46.127z"/>
	<path style="fill:#C9DB7D;" d="M39.38,52.607c-0.433-3.81-5.243-5.401-10.32-5.52c0.368,3.066,4.255,6.295,5.521,9.84
		c0.839,2.352,0.326,7.006,2.64,6.961C35.968,59.728,39.777,56.101,39.38,52.607z"/>
	<path style="fill:#C9DB7D;" d="M3.62,48.527c0.333,1.908,1.021,3.46,1.681,5.041c3.185-3.217,5.487-8.592,6.96-12.721
		C9.34,43.368,7.426,46.894,3.62,48.527z"/>
	<path style="fill:#C9DB7D;" d="M20.18,71.327c1.773,1.586,3.934,2.786,6,4.08c-1.936-5.875-2.077-12.598-2.88-19.2
		C16.614,57.788,22.512,66.318,20.18,71.327z"/>
	<path style="fill:#C9DB7D;" d="M25.7,56.447c-0.006,2.66-0.061,5.777,0.24,7.441c3.568,0.031,3.98,3.219,6,4.799
		C34.933,61.935,29.818,57.946,25.7,56.447z"/>
	<path style="fill:#C9DB7D;" d="M24.741,36.047c0.564,0.796,0.463,2.257,1.439,2.64c0.59-1.01,1.258-1.941,1.2-3.6
		C26.426,35.333,25.088,35.195,24.741,36.047z"/>
	<path style="fill:#C9DB7D;" d="M34.1,64.847c-0.199,1.641-0.467,3.213-0.96,4.56c1.638,0.602,2.61,1.869,3.12,3.6
		c0.897-0.143,1.24-0.839,1.92-1.199C36.596,69.71,36.206,66.422,34.1,64.847z"/>
	<path style="fill:#C9DB7D;" d="M32.661,71.087c0.107,2.108-1.011,2.99-0.961,5.04c1.484-0.276,1.959-1.562,3.36-1.92
		C34.716,72.711,34.02,71.568,32.661,71.087z"/>
	<path style="fill:#C9DB7D;" d="M15.379,48.527c3.259-1.222,4.158-4.803,9.361-4.08c1.749-3.36-0.855-6.01-1.681-8.879
		C15.628,35.015,15.646,41.913,15.379,48.527z"/>
	<path style="fill:#C9DB7D;" d="M11.3,60.527c6.485-1.761,14.189-4.84,12.72-12.959C19.842,51.789,13.854,55.48,11.3,60.527z"/>
	<path style="fill:#C9DB7D;" d="M14.661,66.527c1.473,1.087,2.402,2.718,4.08,3.601c0.906-2.587,0.335-6.989-0.961-8.88
		C16.61,62.876,15.237,64.304,14.661,66.527z"/>
	<path style="fill:#C9DB7D;" d="M11.06,62.207c0.481,1.278,1.26,2.261,2.399,2.88c0.875-1.525,2.14-2.661,2.641-4.561
		C14.289,60.956,12.542,61.449,11.06,62.207z"/>
	<path style="fill:#C9DB7D;" d="M26.18,65.808c0.981,3.979,1.646,8.273,3.84,11.039C31.635,72.087,30.34,67.269,26.18,65.808z"/>
	<path style="fill:#8E9F56;" d="M17.78,73.247c1.799,1.469,9.6,6.921,12,6.72c1.91-0.159,8.248-5.401,10.561-7.44
		c9.528-8.402,20.534-18.149,24.239-30.239c5.735-18.708-14.21-26.457-27.839-17.761c2.053-5.289,9.292-13.484,7.919-20.879
		c-0.252-1.361-1.612-3.246-3.12-3.6c-2.457-0.578-1.729,4.304-1.92,6.479c-0.582,6.656-5.156,15.485-7.92,19.92
		c-5.157-4.048-6.289-11.554-14.16-12C3.169,13.634-1.177,30.286,0.26,44.207C1.485,56.069,10.795,67.542,17.78,73.247z
		 M3.62,48.527c3.807-1.633,5.721-5.159,8.641-7.68c-1.473,4.129-3.775,9.504-6.96,12.721C4.641,51.987,3.953,50.435,3.62,48.527z
		 M14.18,41.087c0.893,6.047-0.603,12.547-7.2,13.439C9.45,50.117,11.679,45.466,14.18,41.087z M9.14,59.568
		c-1.095-0.746-1.735-1.945-2.16-3.36c7.552-1.248,9.016-8.585,16.32-10.08C18.87,50.898,13.652,54.878,9.14,59.568z M37.22,63.888
		c-2.313,0.045-1.801-4.609-2.64-6.961c-1.266-3.545-5.152-6.773-5.521-9.84c5.077,0.118,9.888,1.71,10.32,5.52
		C39.777,56.101,35.968,59.728,37.22,63.888z M33.38,59.327c-3.255-2.59-9.577-5.002-6.24-11.28
		C29.442,51.585,32.284,54.584,33.38,59.327z M26.18,38.687c-0.977-0.383-0.875-1.844-1.439-2.64c0.348-0.853,1.686-0.714,2.64-0.96
		C27.438,36.745,26.77,37.677,26.18,38.687z M24.741,44.447c-5.203-0.723-6.103,2.858-9.361,4.08
		c0.267-6.613,0.249-13.512,7.681-12.959C23.885,38.437,26.49,41.086,24.741,44.447z M11.3,60.527
		c2.554-5.047,8.542-8.737,12.72-12.959C25.49,55.687,17.786,58.766,11.3,60.527z M13.46,65.087c-1.14-0.619-1.918-1.602-2.399-2.88
		c1.481-0.759,3.228-1.251,5.04-1.681C15.599,62.426,14.335,63.562,13.46,65.087z M18.741,70.127
		c-1.678-0.883-2.607-2.514-4.08-3.601c0.576-2.223,1.949-3.65,3.119-5.279C19.076,63.138,19.647,67.54,18.741,70.127z
		 M20.18,71.327c2.332-5.01-3.566-13.539,3.12-15.12c0.803,6.603,0.944,13.325,2.88,19.2C24.114,74.114,21.954,72.913,20.18,71.327z
		 M30.02,76.847c-2.194-2.766-2.859-7.061-3.84-11.039C30.34,67.269,31.635,72.087,30.02,76.847z M25.94,63.888
		c-0.301-1.664-0.246-4.781-0.24-7.441c4.118,1.499,9.233,5.488,6.24,12.24C29.92,67.107,29.508,63.919,25.94,63.888z M31.7,76.127
		c-0.05-2.05,1.068-2.932,0.961-5.04c1.359,0.48,2.056,1.624,2.399,3.12C33.659,74.566,33.184,75.851,31.7,76.127z M36.26,73.007
		c-0.51-1.73-1.482-2.998-3.12-3.6c0.493-1.348,0.761-2.92,0.96-4.56c2.105,1.575,2.496,4.863,4.08,6.961
		C37.501,72.168,37.158,72.865,36.26,73.007z M39.62,70.127c-0.275-2.524-1.164-4.435-0.959-7.44
		c2.263,0.697,2.792,3.128,4.08,4.801C42.157,68.704,40.693,70.185,39.62,70.127z M43.94,66.527c-1.996-4.114-7.15-6.354-3.6-12.239
		c0.839,1.024,5.109,4.376,6.72,6C49.871,63.12,46.75,64.255,43.94,66.527z M40.821,42.047c2.485,0.577,2.639,3.155,4.079,5.04
		c1.008,1.318,2.82,1.65,3.84,2.88c1.259,1.518,1.404,3.903,3.36,4.8c-3.153-0.607-6.017-3.582-10.32-3.84
		C42.022,47.55,40.226,44.983,40.821,42.047z M34.34,34.368c4.723-0.557,7.435-3.126,12.479-3.36
		c0.359,6.986,7.543,9.05,8.881,15.84c-4.315-2.132-5.18-7.324-10.561-8.16C40.274,37.932,36.015,38.549,34.34,34.368z
		 M42.02,53.087c4.683-0.752,6.867,3.046,11.28,3.359C51.3,65.016,44.251,56.938,42.02,53.087z M54.74,55.007
		c-4.867-4.492-8.617-10.102-13.2-14.88c5.963-0.997,7.798,3.093,10.801,6c1.365,1.323,4.886,3.157,5.04,4.56
		C57.588,52.593,55.035,53.634,54.74,55.007z M58.82,48.047c-2.517-3.304-4.28-6.989-6.72-10.319
		c-1.464-1.999-4.509-3.664-3.601-6.961c4.104-1.357,7.511,1.937,9.601,4.32c0.902,1.029,3.003,2.961,3.12,3.359
		C62.219,41.841,59.367,44.99,58.82,48.047z M60.98,35.327c-3.134-1.193-5.14-7.655-12.48-6.24
		C51.109,19.872,61.629,27.849,60.98,35.327z M49.701,23.808c-1.572,3.947-4.471,6.568-9.601,6.959
		C41.381,26.529,44.131,23.759,49.701,23.808z M40.1,27.167c-0.808,3.361-3.46,6.127-7.439,5.52
		C32.17,28.802,37.644,28.897,40.1,27.167z M31.22,34.847c1.571,1.068,3.452,1.828,4.319,3.6c-1.958,0.075-3.861,1.373-5.76,0.721
		C30.088,37.556,30.618,36.165,31.22,34.847z M37.94,40.127c1.557,2.604,1.456,6.864,2.4,10.08c-2.873-2.978-7.427-4.974-12.48-5.04
		c0.184-1.656,1.018-2.663,1.2-4.32C32.91,41.363,34.478,39.333,37.94,40.127z M20.18,20.447c3.318,2.041,5.381,5.34,7.68,8.4
		c-2.648-0.712-4.635-2.084-7.44-2.64C20.119,24.63,19.577,22.143,20.18,20.447z M27.62,32.927
		c-4.553,1.48-11.426,1.641-14.879-1.199C15.846,26.262,24.949,28.748,27.62,32.927z M18.501,25.728
		c-4.24,0.078-6.034-2.287-7.2-5.281C15.112,16.634,19.788,19.094,18.501,25.728z M9.86,21.408c1.376,2.385,2.436,5.084,5.519,5.76
		c-2.384,3.797-6.975,3.088-11.039,1.92C5.639,25.988,6.944,22.891,9.86,21.408z M3.86,31.007c2.724-0.163,3.982,1.139,5.519,2.16
		c-1.324,1.555-3.227,2.531-6.239,2.4C2.836,34.399,3.42,32.214,3.86,31.007z M2.9,37.247c5.936,0.792,8.311-5.734,13.681-1.68
		c-4.832,3.168-7.992,8.008-13.201,10.8C2.762,43.901,2.694,39.753,2.9,37.247z"/>
</g>
</svg>
