<?xml version="1.0" encoding="iso-8859-1"?>
<!-- Generator: Adobe Illustrator 19.2.0, SVG Export Plug-In . SVG Version: 6.00 Build 0)  -->
<svg version="1.1" id="&#x421;&#x43B;&#x43E;&#x439;_1"
	 xmlns="http://www.w3.org/2000/svg" xmlns:xlink="http://www.w3.org/1999/xlink" x="0px" y="0px" viewBox="0 0 62.879 61.846"
	 style="enable-background:new 0 0 62.879 61.846;" xml:space="preserve">
<g>
	<path style="fill:#C0C36E;" d="M34.799,21.282c6.395,1.686,10.596,5.564,17.521,6.72c0.5-1.419,0.781-3.059,1.199-4.56
		C47.527,21.289,39.644,14.419,34.799,21.282z"/>
	<path style="fill:#C0C36E;" d="M28.56,26.562c7.686,1.674,16.09,2.63,20.879,7.201c0.732-1.107,1.514-2.166,1.92-3.601
		C45.115,29.245,33.264,17.99,28.56,26.562z"/>
	<path style="fill:#C0C36E;" d="M49.439,12.162c2.35,0.931,3.453,3.107,6.24,3.601c0.129-1.313,0.574-2.307,0.48-3.84
		C54.187,9.82,50.924,9.195,49.439,12.162z"/>
	<path style="fill:#C0C36E;" d="M42.24,16.482c4.424,1.257,7.775,3.586,11.76,5.281C56.6,15.404,45.447,10.9,42.24,16.482z"/>
	<path style="fill:#C0C36E;" d="M32.879,29.683c-1.775-0.356-3.254-1.285-4.799-1.44c-3.188-0.321-3.932,2.98-5.281,4.08
		c7.83,2.651,16.859,4.103,22.801,8.64c0.828-1.65,1.615-3.345,2.641-4.8C46.59,31.873,38.959,30.896,32.879,29.683z"/>
	<path style="fill:#C0C36E;" d="M14.16,43.603c2.143,1.529,4.139,1.811,6.719,4.08c3.449,3.031,4.314,8.791,10.32,5.039
		C27.525,47.99,21.864,42.706,14.16,43.603z"/>
	<path style="fill:#C0C36E;" d="M19.439,36.882c9.371,1.109,14.978,5.982,21.121,10.32c1.377-1.422,3.02-2.58,3.84-4.561
		c-3.09-3.276-10.133-4.841-15.602-6.479C24.885,34.99,19.939,32.259,19.439,36.882z"/>
	<path style="fill:#C0C36E;" d="M16.08,41.443c3.883,0.83,7.785,1.662,11.52,4.32c2.217,1.577,3.717,5.887,6.48,5.76
		c1.648-0.076,3.072-2.259,4.561-3.12c-3.709-3.626-11.496-8.893-18.241-9.6C17.366,38.485,16.263,39.669,16.08,41.443z"/>
	<path style="fill:#C0C36E;" d="M19.439,21.523c-0.152-4.453,1.498-9.197,0.96-10.801c-8.753,2.261-8.338,19.101-3.84,25.92
		C21.712,33.842,19.701,29.172,19.439,21.523z"/>
	<path style="fill:#C0C36E;" d="M10.319,32.802c1.158,2.947,3.018,4.796,4.56,6.721c-0.141-3.97-2.721-7.279-3.119-11.76
		c-0.266-2.982,0.44-7.889,0-9.601c-2.551,1.657-2.177,3.731-1.92,6.479C10.084,27.257,9.297,30.199,10.319,32.802z"/>
	<path style="fill:#C0C36E;" d="M3.84,39.042c0.272,4.129,2.084,6.715,4.56,8.641c0.817-0.783,1.608-1.593,1.92-2.881
		C8.402,42.64,6.196,40.766,3.84,39.042z"/>
	<path style="fill:#C0C36E;" d="M28.08,7.122c-0.053-0.188-0.201-0.279-0.48-0.24c-7.687,1.817-6.515,14.594-5.28,22.561
		C27.707,26.426,24.348,12.593,28.08,7.122z"/>
	<path style="fill:#C0C36E;" d="M12.479,42.642c0.159-3.934-4.011-6.12-5.04-10.799c-0.435-1.978,0.135-3.617,0-5.761
		c-0.051-0.268-0.266-0.374-0.48-0.479C6.092,28.784,2.82,31.7,3.6,35.202C4.238,38.077,10.645,41.835,12.479,42.642z"/>
	<path style="fill:#C0C36E;" d="M58.32,3.042c-3.377-0.676-3.826,0.998-4.561,3.359C55.865,5.866,57.205,4.569,58.32,3.042z"/>
	<path style="fill:#C0C36E;" d="M27.359,24.642c7.062-2.517,5.102-12.627,7.44-19.92c-1.67,0.01-2.777,0.582-4.078,0.961
		C28.355,10.757,27.146,16.988,27.359,24.642z"/>
	<path style="fill:#C0C36E;" d="M53.039,3.042c-0.959,0-1.92,0-2.879,0c-0.467,2.334-0.98,4.619-1.439,6.96
		C51.824,9.347,52.217,5.98,53.039,3.042z"/>
	<path style="fill:#C0C36E;" d="M48,2.802c-1.44,0-2.881,0-4.32,0c-0.9,3.898-1.75,7.852-2.641,11.76
		C46.394,13.833,47.939,8.028,48,2.802z"/>
	<path style="fill:#C0C36E;" d="M41.279,3.282c-1.447,0.152-2.73,0.469-4.08,0.72c-1.367,4.632-2.51,9.49-2.879,15.12
		C39.937,17.298,40.543,9.191,41.279,3.282z"/>
	<path style="fill:#C0C36E;" d="M54.48,8.802c0.67,0.449,1.17,1.069,2.16,1.2c0.156-1.284,0.777-2.103,0.959-3.36
		C56.549,6.398,54.861,7.581,54.48,8.802z"/>
	<path style="fill:#C0C36E;" d="M12,46.002c-0.576,0.864-1.518,1.362-1.681,2.64c2.451,3.403,7.117,5.824,12.479,5.521
		C21.392,49.25,16.729,47.593,12,46.002z"/>
	<path style="fill:#3B3A26;" d="M28.08,56.562c11.176-1.282,18.891-11.635,24.24-20.639c6.006-10.113,8.125-23.355,10.559-34.561
		C39.281-4.529,9.906,9.546,2.64,27.042c-3.259,7.846-2.472,19.223,3.601,22.32C4.029,52.993,1.155,55.958,0,60.642
		c0.941,0.339,1.299,1.261,2.64,1.201c2.24-3.36,3.862-7.338,6.239-10.561C12.496,55.946,19.975,57.493,28.08,56.562z
		 M20.879,47.683c-2.58-2.27-4.576-2.551-6.719-4.08c7.704-0.896,13.365,4.387,17.039,9.119
		C25.193,56.474,24.328,50.714,20.879,47.683z M34.08,51.523c-2.764,0.127-4.264-4.183-6.48-5.76
		c-3.734-2.658-7.637-3.49-11.52-4.32c0.183-1.773,1.286-2.958,4.319-2.641c6.745,0.707,14.532,5.975,18.241,9.6
		C37.152,49.264,35.728,51.447,34.08,51.523z M40.56,47.202c-6.143-4.339-11.75-9.211-21.121-10.32
		c0.5-4.623,5.445-1.892,9.359-0.72c5.469,1.639,12.512,3.203,15.602,6.479C43.58,44.622,41.937,45.781,40.56,47.202z M45.6,40.962
		c-5.941-4.537-14.971-5.988-22.801-8.64c1.35-1.1,2.094-4.401,5.281-4.08c1.545,0.155,3.023,1.085,4.799,1.44
		c6.08,1.213,13.711,2.19,15.361,6.479C47.215,37.617,46.428,39.312,45.6,40.962z M49.439,33.763
		c-4.789-4.571-13.193-5.527-20.879-7.201c4.703-8.572,16.555,2.684,22.799,3.601C50.953,31.597,50.172,32.656,49.439,33.763z
		 M52.32,28.002c-6.926-1.155-11.127-5.034-17.521-6.72c4.846-6.863,12.729,0.007,18.721,2.16
		C53.101,24.944,52.82,26.583,52.32,28.002z M54,21.763c-3.984-1.695-7.336-4.024-11.76-5.281C45.447,10.9,56.6,15.404,54,21.763z
		 M55.68,15.763c-2.787-0.493-3.891-2.67-6.24-3.601c1.484-2.968,4.748-2.343,6.721-0.239C56.254,13.456,55.809,14.45,55.68,15.763z
		 M56.641,10.002c-0.99-0.131-1.49-0.751-2.16-1.2c0.381-1.221,2.068-2.404,3.119-2.16C57.418,7.9,56.797,8.718,56.641,10.002z
		 M58.32,3.042c-1.115,1.526-2.455,2.824-4.561,3.359C54.494,4.04,54.943,2.366,58.32,3.042z M50.16,3.042c0.959,0,1.92,0,2.879,0
		c-0.822,2.938-1.215,6.305-4.318,6.96C49.18,7.661,49.693,5.376,50.16,3.042z M48,2.802c-0.061,5.226-1.606,11.031-6.961,11.76
		c0.891-3.908,1.74-7.861,2.641-11.76C45.119,2.802,46.56,2.802,48,2.802z M41.279,3.282c-0.736,5.908-1.342,14.016-6.959,15.84
		c0.369-5.63,1.512-10.488,2.879-15.12C38.549,3.751,39.832,3.435,41.279,3.282z M34.799,4.722
		c-2.338,7.293-0.377,17.403-7.44,19.92c-0.213-7.654,0.996-13.885,3.361-18.959C32.021,5.304,33.129,4.732,34.799,4.722z
		 M27.6,6.882c0.279-0.039,0.428,0.053,0.48,0.24c-3.732,5.471-0.373,19.304-5.761,22.32C21.085,21.476,19.913,8.699,27.6,6.882z
		 M20.399,10.722c0.538,1.604-1.112,6.348-0.96,10.801c0.262,7.649,2.272,12.319-2.88,15.119
		C12.061,29.823,11.646,12.983,20.399,10.722z M11.76,18.162c0.44,1.712-0.266,6.619,0,9.601c0.399,4.48,2.979,7.79,3.119,11.76
		c-1.542-1.925-3.401-3.773-4.56-6.721c-1.023-2.603-0.235-5.545-0.48-8.16C9.583,21.894,9.209,19.82,11.76,18.162z M6.959,25.603
		c0.215,0.105,0.43,0.211,0.48,0.479c0.135,2.144-0.435,3.782,0,5.761c1.029,4.679,5.199,6.865,5.04,10.799
		c-1.834-0.807-8.241-4.564-8.88-7.439C2.82,31.7,6.092,28.784,6.959,25.603z M8.399,47.683c-2.476-1.926-4.288-4.512-4.56-8.641
		c2.357,1.724,4.562,3.598,6.48,5.76C10.008,46.09,9.217,46.9,8.399,47.683z M10.319,48.642c0.163-1.277,1.104-1.775,1.681-2.64
		c4.729,1.591,9.392,3.248,10.799,8.16C17.436,54.466,12.77,52.045,10.319,48.642z"/>
</g>
</svg>
