<?xml version="1.0" encoding="iso-8859-1"?>
<!-- Generator: Adobe Illustrator 19.2.0, SVG Export Plug-In . SVG Version: 6.00 Build 0)  -->
<svg version="1.1" id="&#x421;&#x43B;&#x43E;&#x439;_1"
	 xmlns="http://www.w3.org/2000/svg" xmlns:xlink="http://www.w3.org/1999/xlink" x="0px" y="0px" viewBox="0 0 77.065 85.501"
	 style="enable-background:new 0 0 77.065 85.501;" xml:space="preserve">
<g>
	<path style="fill:#C0C36E;" d="M15.863,15.175c2.786,2.088,6.351,6.908,10.8,6c-0.026-1.975-0.643-3.357-0.96-5.041
		c-5.273-1.047-6.503-6.137-11.76-7.199c-0.784,0.438-2.739,2.18-2.4,3.6C11.832,13.743,14.715,14.314,15.863,15.175z"/>
	<path style="fill:#C0C36E;" d="M28.102,30.054c0.179-2.738-0.958-4.16-0.96-6.721c-8.683,0.045-10.554-6.725-17.04-8.879
		c-1.063,2.455-3.154,3.885-3.6,6.959C13.573,24.265,18.26,30.775,28.102,30.054z"/>
	<path style="fill:#C0C36E;" d="M31.463,28.374c7.83-4.891,11.765-13.676,14.88-23.279c-1.87-0.359-3.754-1.479-5.76-0.961
		c-1.003,6.096-2.937,10.396-6,14.4C32.15,21.714,29.191,23.239,31.463,28.374z"/>
	<path style="fill:#C0C36E;" d="M16.102,5.814c0.001,0.641-0.758,0.522-0.72,1.201c3.499,1.861,5.753,4.967,9.601,6.479
		C25.319,7.638,18.648,8.788,16.102,5.814z"/>
	<path style="fill:#C0C36E;" d="M9.142,41.335c2.63,1.699,5.659,2.18,8.16,3.119c2,0.752,3.042,1.717,4.8,1.92
		c7.553,0.873,13.571-4.02,8.4-8.881c-7.803,5.268-20.826-4.691-27.12-7.199c0.53,1.754-1.883,5.074-1.2,6.961
		C2.452,37.999,7.008,39.954,9.142,41.335z"/>
	<path style="fill:#C0C36E;" d="M22.823,6.775c0.548-3.533-4.803-5.227-4.561-2.16C18.377,6.062,21.319,6.132,22.823,6.775z"/>
	<path style="fill:#C0C36E;" d="M29.783,20.694c4.28-4.121,8.498-9.578,8.88-16.801c-0.911-0.69-2.934-0.266-4.08-0.719
		C32.692,8.925,26.983,13.794,29.783,20.694z"/>
	<path style="fill:#C0C36E;" d="M15.623,55.974c7.891,1.606,20.32-2.826,20.4-8.879c0.079-6.033-5.214-0.517-6.961,0.24
		c-5.408,2.34-9.78,0.014-13.199-1.201c-5.106-1.813-9.391-4.215-13.44-6.24C-0.103,50.491,7.927,54.407,15.623,55.974z"/>
	<path style="fill:#C0C36E;" d="M27.623,12.294c2.448-2.272,3.375-6.065,4.8-9.359c-5.167-1.965-4.144,3.648-6.479,5.76
		C26.566,9.831,26.972,11.185,27.623,12.294z"/>
	<path style="fill:#C0C36E;" d="M26.903,2.454c-1.003-0.344-2.888-0.861-3.841-0.48c0.245,1.836,1.452,2.709,1.921,4.32
		C26.377,5.769,26.824,4.294,26.903,2.454z"/>
	<path style="fill:#C0C36E;" d="M28.583,32.454c-6.101,0.037-12.771-2.91-17.28-5.76c-1.385-0.877-3.584-4.008-5.52-3.361
		c-1.568,0.525-1.15,3.434-1.681,4.801c4.925,2.082,13.931,9.119,21.12,9.121C28.474,37.255,30.802,35.155,28.583,32.454z"/>
	<path style="fill:#C0C36E;" d="M25.463,64.614c7.766-1.037,20.144-9.43,11.76-15.6c-4.458,11.324-26.209,11.371-34.08,3.119
		C3.478,62.402,14.247,66.111,25.463,64.614z"/>
	<path style="fill:#C0C36E;" d="M44.663,53.335c1.597,6.404,14.13,4.703,19.44,1.439c6.975-4.287,12.368-14.369,10.08-24
		C70.868,44.501,61.162,55.128,44.663,53.335z"/>
	<path style="fill:#C0C36E;" d="M41.783,54.775c-3.181,10.732-20.199,14.748-32.4,9.84c5.068,9.916,23.069,7.285,30,1.439
		c1.828-1.541,6.267-5.547,6.24-7.439C45.6,57.013,43.098,55.544,41.783,54.775z"/>
	<path style="fill:#C0C36E;" d="M41.303,42.054c-1.753,0.311-4.479,0.029-4.56,1.68c-0.13,2.678,3.439,0.357,4.08,0.24
		c7.425-1.359,14.283-0.615,19.2-5.519c5.807-5.791,13.792-21.602,2.159-25.68C60.265,26.359,53.543,39.882,41.303,42.054z"/>
	<path style="fill:#C0C36E;" d="M39.383,46.614c1.126,4.535,5.18,5.475,10.561,5.039c6.668-0.539,11.227-2.826,15.359-6.959
		c4.682-4.682,11.825-18.912,4.801-23.76c-0.771,5.143-2.324,9.976-4.561,13.439C60.233,42.597,52.279,45.855,39.383,46.614z"/>
	<path style="fill:#C0C36E;" d="M34.102,37.255c0.227,1.611,0.608,3.07,1.44,4.08c11.715-0.902,20.56-9.775,23.28-20.641
		c0.465-1.857,2.546-7.191,1.92-9.121c-0.482-1.486-3.743-1.988-5.04-2.879C50.796,20.507,48.15,34.581,34.102,37.255z"/>
	<path style="fill:#C0C36E;" d="M32.182,31.255c0.692,0.906,0.704,2.496,1.2,3.6c13.686-1.205,16.273-15.56,20.4-27.121
		c-2.135-0.346-3.417-1.543-5.76-1.68C44.708,16.419,39.652,25.042,32.182,31.255z"/>
	<path style="fill:#3B3A26;" d="M66.983,13.493c-5.335-5.318-15.727-9.725-24.96-11.279c-6.206-1.045-13.531-2.17-18.961-2.16
		c-0.021,0-1.072-0.121-1.439,0C12.429,3.105,5.854,15.798,2.663,25.255c-5.799,17.18-1.772,36.262,8.64,44.639
		c12.266,9.869,29.437-0.145,36.48-8.4c4.627,6.035,6.734,15.795,12,20.881c1.003,0.969,3.946,3.277,5.04,3.119
		c2.875-0.412,1.554-5.008,0.479-6.959c-1.801-3.273-6.512-7.531-8.399-11.279c-1.49-2.961-2.929-5.607-4.32-7.441
		c15.956-1.654,26.21-12.592,24.24-29.039C76.005,23.941,71.127,17.626,66.983,13.493z M65.303,44.694
		c-4.133,4.133-8.691,6.42-15.359,6.959c-5.381,0.436-9.435-0.504-10.561-5.039c12.896-0.76,20.851-4.018,26.16-12.24
		c2.236-3.463,3.79-8.297,4.561-13.439C77.128,25.782,69.984,40.013,65.303,44.694z M60.023,38.454
		c-4.917,4.904-11.775,4.16-19.2,5.519c-0.642,0.117-4.21,2.438-4.08-0.24c0.08-1.65,2.807-1.369,4.56-1.68
		c12.24-2.172,18.963-15.695,20.88-29.279C73.815,16.853,65.83,32.663,60.023,38.454z M60.743,11.573
		c0.626,1.93-1.455,7.264-1.92,9.121c-2.721,10.865-11.566,19.738-23.28,20.641c-0.832-1.01-1.213-2.469-1.44-4.08
		C48.15,34.581,50.796,20.507,55.703,8.694C57,9.585,60.261,10.087,60.743,11.573z M53.783,7.734
		c-4.128,11.561-6.715,25.916-20.4,27.121c-0.496-1.104-0.508-2.693-1.2-3.6c7.47-6.213,12.525-14.836,15.841-25.201
		C50.366,6.191,51.648,7.388,53.783,7.734z M46.343,5.095c-3.115,9.604-7.05,18.389-14.88,23.279c-2.271-5.135,0.688-6.66,3.12-9.84
		c3.063-4.004,4.997-8.305,6-14.4C42.589,3.616,44.472,4.736,46.343,5.095z M38.663,3.894c-0.382,7.223-4.6,12.68-8.88,16.801
		c-2.8-6.9,2.909-11.769,4.8-17.519C35.728,3.628,37.752,3.204,38.663,3.894z M32.423,2.935c-1.425,3.295-2.352,7.088-4.8,9.359
		c-0.65-1.109-1.057-2.463-1.68-3.6C28.279,6.583,27.256,0.97,32.423,2.935z M26.903,2.454c-0.079,1.84-0.526,3.314-1.92,3.84
		c-0.469-1.611-1.676-2.484-1.921-4.32C24.015,1.593,25.9,2.111,26.903,2.454z M22.823,6.775c-1.504-0.643-4.446-0.713-4.561-2.16
		C18.02,1.548,23.371,3.241,22.823,6.775z M16.102,5.814c2.546,2.975,9.217,1.824,8.881,7.68c-3.848-1.512-6.101-4.617-9.601-6.479
		C15.345,6.335,16.103,6.454,16.102,5.814z M13.943,8.935c5.257,1.063,6.486,6.152,11.76,7.199c0.317,1.684,0.934,3.066,0.96,5.041
		c-4.449,0.908-8.014-3.912-10.8-6c-1.148-0.861-4.031-1.432-4.32-2.641C11.204,11.114,13.159,9.372,13.943,8.935z M10.102,14.454
		c6.486,2.154,8.357,8.924,17.04,8.879c0.002,2.561,1.139,3.982,0.96,6.721c-9.843,0.721-14.529-5.789-21.6-8.641
		C6.948,18.339,9.039,16.909,10.102,14.454z M5.783,23.333c1.936-0.646,4.135,2.484,5.52,3.361c4.509,2.85,11.179,5.797,17.28,5.76
		c2.219,2.701-0.108,4.801-3.36,4.801c-7.19-0.002-16.195-7.039-21.12-9.121C4.633,26.767,4.215,23.859,5.783,23.333z M3.383,30.294
		c6.294,2.508,19.317,12.467,27.12,7.199c5.171,4.861-0.848,9.754-8.4,8.881c-1.758-0.203-2.8-1.168-4.8-1.92
		c-2.501-0.939-5.53-1.42-8.16-3.119c-2.135-1.381-6.69-3.336-6.96-4.08C1.5,35.368,3.913,32.048,3.383,30.294z M2.423,39.894
		c4.05,2.025,8.334,4.428,13.44,6.24c3.419,1.215,7.791,3.541,13.199,1.201c1.747-0.758,7.04-6.273,6.961-0.24
		c-0.08,6.053-12.51,10.484-20.4,8.879C7.927,54.407-0.103,50.491,2.423,39.894z M3.142,52.134
		c7.871,8.252,29.622,8.205,34.08-3.119c8.384,6.17-3.994,14.563-11.76,15.6C14.247,66.111,3.478,62.402,3.142,52.134z
		 M39.383,66.054c-6.931,5.846-24.932,8.477-30-1.439c12.201,4.908,29.22,0.892,32.4-9.84c1.316,0.77,3.817,2.238,3.84,3.84
		C45.649,60.507,41.211,64.513,39.383,66.054z M64.102,54.775c-5.31,3.264-17.843,4.965-19.44-1.439
		c16.499,1.793,26.205-8.834,29.52-22.561C76.47,40.405,71.077,50.487,64.102,54.775z"/>
</g>
</svg>
