<?xml version="1.0" encoding="iso-8859-1"?>
<!-- Generator: Adobe Illustrator 19.2.0, SVG Export Plug-In . SVG Version: 6.00 Build 0)  -->
<svg version="1.1" id="&#x421;&#x43B;&#x43E;&#x439;_1"
	 xmlns="http://www.w3.org/2000/svg" xmlns:xlink="http://www.w3.org/1999/xlink" x="0px" y="0px" viewBox="0 0 124.327 83.825"
	 style="enable-background:new 0 0 124.327 83.825;" xml:space="preserve">
<g>
	<path style="fill:#8E9F56;" d="M102.24,33.081c3.176,5.056,0.813,13.197,0.96,19.681c11.307-0.943,4.865-17.479,1.92-22.801
		C104.412,31.254,103.238,32.079,102.24,33.081z"/>
	<path style="fill:#8E9F56;" d="M98.4,42.681c-0.336,4.293-3.01,8.642-1.44,12.24c1.299-0.701,3.268-0.733,4.32-1.681
		c-0.068-5.46,2.036-12.956,0-18.479C96.949,35.112,98.686,39.029,98.4,42.681z"/>
	<path style="fill:#8E9F56;" d="M108.721,25.64c-2.797,1.962-1.264,3.852-0.24,6.961c1.896,5.762,3.882,10.776,2.399,17.279
		C118.975,45.806,115.638,28.478,108.721,25.64z"/>
	<path style="fill:#8E9F56;" d="M95.76,38.601c-1.516,1.844-4.011,2.708-6.239,3.84c-2.01,6.637,0.124,15.096-1.681,21.359
		c1.402-2.024,6.75-5.377,7.44-7.92c0.218-0.804-0.534-2.577-0.48-4.08C94.947,47.722,98.1,40.866,95.76,38.601z"/>
	<path style="fill:#8E9F56;" d="M26.16,63.321c-2.172-3.065-8.547-10.087-12.96-6.479C17.609,58.912,18.813,64.187,26.16,63.321z"/>
	<path style="fill:#8E9F56;" d="M3.36,62.361c2.078,0.401,4.902,0.058,6.96,0.48C9.572,58.943,5.567,60.832,3.36,62.361z"/>
	<path style="fill:#8E9F56;" d="M17.28,62.842c-0.628-2.01-4.764-5.81-7.2-3.84c0.468,1.531,1.88,2.119,2.16,3.84
		C13.92,62.842,15.601,62.842,17.28,62.842z"/>
	<path style="fill:#8E9F56;" d="M16.08,65.961c-1.077-0.203-2.046-0.514-3.359-0.479c-0.153,1.767-1.563,2.278-2.4,3.36
		C11.916,71.488,16.283,69.328,16.08,65.961z"/>
	<path style="fill:#8E9F56;" d="M7.44,65.241c0.158,2.198,3.225,2.454,3.359,0C9.826,64.564,8.685,65.426,7.44,65.241z"/>
	<path style="fill:#8E9F56;" d="M47.76,55.161c3.606,1.872,4.677-1.734,8.4-2.159c-7.063-4.559-13.847-17.087-26.64-12.24
		C37.392,41.825,41.775,52.055,47.76,55.161z"/>
	<path style="fill:#8E9F56;" d="M21.12,66.441c-0.635-0.486-2.203-0.037-2.88-0.48c-0.559,2.801-2.023,4.696-4.561,5.521
		c0.183,1.497,1.235,2.126,2.16,2.88C17.271,71.39,21.302,71.023,21.12,66.441z"/>
	<path style="fill:#8E9F56;" d="M48.24,57.081c-6.735-2.152-10.639-12.279-16.56-14.399c-5.332-1.91-9.465,2.074-11.52,5.52
		C32.804,44.35,40.681,62.351,48.24,57.081z"/>
	<path style="fill:#8E9F56;" d="M33.601,63.081c-4.808-4.313-7.494-10.746-16.801-10.56c-0.213,0.506-0.73,0.709-0.72,1.439
		c2.059,1.034,3.339,0.92,5.04,1.92C25.302,58.341,26.801,65.222,33.601,63.081z"/>
	<path style="fill:#8E9F56;" d="M20.4,51.081c9.55,0.315,13.358,15.727,23.28,8.64c-5.649-2.137-10.491-8.342-16.801-10.08
		C25.232,49.187,21.202,48.594,20.4,51.081z"/>
	<path style="fill:#8E9F56;" d="M30,66.441c-1.022,5.857-4.526,9.232-6.96,13.68c1.173,1.229,3.207,1.594,5.28,1.92
		c4.336-3.824,8.385-7.935,8.16-16.32C34.342,65.982,32.302,66.343,30,66.441z"/>
	<path style="fill:#8E9F56;" d="M66.721,71.002c5.936-2.305,5.236-11.244,5.76-18.961c-2.003,0.318-3.509,1.132-5.28,1.68
		C67.089,59.714,67.184,65.73,66.721,71.002z"/>
	<path style="fill:#8E9F56;" d="M58.561,56.842c-0.663,1.896,1.478,3.604,1.92,5.52c1.31,5.695-0.468,10.465-2.88,14.4
		c9.427-1.529,8.329-13.745,7.439-22.08C62.711,55.549,59.318,54.671,58.561,56.842z"/>
	<path style="fill:#8E9F56;" d="M79.92,48.201c-1.289,1.734-3.141,0.858-4.559,2.16c-3.474,3.188,0.071,12.412-2.64,16.561
		c1.555,0.034,2.471-0.57,4.079-0.48C80.379,62.828,80.595,54.621,79.92,48.201z"/>
	<path style="fill:#8E9F56;" d="M86.641,44.121c-8.365,2.443-2.003,16.969-7.681,22.08c12.542,0.978,5.647-13.641,8.4-21.84
		C87.054,44.347,87.028,44.054,86.641,44.121z"/>
	<path style="fill:#8E9F56;" d="M44.641,63.081c-2.164,0.476-3.957,1.323-6,1.921C38.14,72.501,35.34,78.98,31.2,82.041
		C40.559,80.553,46.049,74.625,44.641,63.081z"/>
	<path style="fill:#8E9F56;" d="M23.28,66.441c-0.179,6.07-10.672,9.495-1.92,12.48c2.416-3.824,5.559-6.921,6.479-12.24
		C26.258,66.664,24.527,66.794,23.28,66.441z"/>
	<path style="fill:#8E9F56;" d="M56.4,56.842c-1.676,0.324-2.751,1.249-4.08,1.92c-0.106,6.138,2.155,14.653-2.4,18.24
		c1.257,0.314,3.407,0.842,4.801,0.239C59.763,73.125,60.436,62.718,56.4,56.842z"/>
	<path style="fill:#8E9F56;" d="M72.48,29.721c-4.008-2.91-16.76-7.956-17.04,0c7.077-0.855,10.696,2.761,15.6,6.24
		c4.423,3.139,12.224,9.941,16.32,3.6c-2.488-1.888-5.232-2.396-8.16-4.079C76.514,33.937,74.936,31.505,72.48,29.721z"/>
	<path style="fill:#8E9F56;" d="M50.4,60.441c-4.871-0.334-3.545,3.785-3.84,8.4c-0.223,3.467-2.137,5.527-2.4,7.68
		C53.105,77.203,51.071,67.016,50.4,60.441z"/>
	<path style="fill:#8E9F56;" d="M50.88,46.521c3.804,3.234,7.462,7.557,12.96,4.32c-7.605-2.393-10.179-12.113-19.92-10.801
		C45.367,42.201,48.072,44.133,50.88,46.521z"/>
	<path style="fill:#8E9F56;" d="M71.521,48.681c-2.264-1.873-4.944-3-7.44-4.801c-4.057-2.926-8.378-5.392-14.64-5.76
		C56.555,41.551,61.253,52.943,71.521,48.681z"/>
	<path style="fill:#8E9F56;" d="M79.2,27.801c1.889,1.019,4.392,1.106,6.48,1.681c3.449,0.948,5.783,2.806,8.88,4.319
		c7.343-3.698-4.908-6.658-8.16-8.16c-4.389-2.025-7.398-5.098-9.601-6.719c-2.191-1.615-4.404,0.488-7.199,0.479
		C73.043,21.543,75.337,25.715,79.2,27.801z"/>
	<path style="fill:#8E9F56;" d="M102.96,24.922c0.601-0.678,3.556-2.196,3.601-3.601c0.072-2.265-3.761-2.345-5.521-3.601
		c-2.216-1.58-3.667-6.344-7.68-8.16c-1.608-0.727-3.878-0.709-5.521-1.68c-1.32-0.779-2.267-3.059-3.359-3.119
		c-2.274-0.127-3.742,4.273-4.561,5.279C85.395,17.207,97.634,17.607,102.96,24.922z"/>
	<path style="fill:#8E9F56;" d="M82.8,21.801c3.37,2.148,6.127,3.023,9.12,4.08c1.924,0.68,5.716,3.988,6.96,3.84
		c0.467-0.055,2.672-2.57,2.641-3.359c-0.111-2.788-6.495-6.324-10.32-7.68c-6.304-2.234-9.107-4.428-12.479-6.481
		C74.342,16.881,77.852,18.645,82.8,21.801z"/>
	<path style="fill:#8E9F56;" d="M79.2,34.041c3.763,2.402,11.898,6.206,13.92,0.961c-3.143-2.928-7.021-3.629-11.76-4.801
		c-7.804-1.929-13.339-15.852-22.08-6.72c5.143,0.883,9.166,1.93,12.72,4.319C74.64,29.576,76.473,32.299,79.2,34.041z"/>
	<path style="fill:#8E9F56;" d="M80.641,43.64c-7.274-1.509-14.45-12.978-23.04-12.719c-4.059,0.121-4.07,2.985-5.761,5.519
		C61.783,37.246,71.804,53.295,80.641,43.64z"/>
	<path style="fill:#8E9F56;" d="M94.561,8.361c3.239,1.582,4.855,6.274,7.199,7.92c0.943,0.662,2.55,0.654,3.601,1.199
		c1.513,0.785,2.026,2.814,3.36,1.921c0.094-4.592-2.332-7.831-5.04-10.32c-2.859-2.628-5.383-6.724-9.12-7.44
		c-2.636-0.505-7.979,0.634-8.16,2.16C86.082,6.484,92.288,7.251,94.561,8.361z"/>
	<path style="fill:#8E9F56;" d="M115.681,30.922c1.167,2.666,0.521,4.005,1.68,6.479c0.257-7.057-2.463-11.138-4.8-15.6
		C107.382,24.881,113.921,26.902,115.681,30.922z"/>
	<path style="fill:#3B3A26;" d="M118.08,29.961c-0.71-2.848-4.017-6.38-3.6-9.6c0.23-1.779,3.303-4.426,5.04-6.481
		c1.032-1.221,4.989-4.931,4.8-6.72c-0.139-1.312-2.685-2.597-4.561-1.92c-4.041,1.46-5.646,11.222-9.6,12
		c-0.939-6.518-4.081-9.083-8.64-13.2c-1.655-1.494-4.117-3.134-5.761-3.6c-7.588-2.152-14.63,4.066-17.039,7.92
		c-2.591,4.144-2.992,8.587-8.16,9.6c-6.895,1.352-11.211,1.629-14.641,6.24c-2.374,3.193-2.459,6.461-4.559,9.84
		c-4.615,7.424-14.754,1.854-22.8,4.561c-9.082,3.054-12.825,15.699-21.12,19.92c-2.417,1.229-5.563,1.139-7.44,3.6
		c1.351,1.73,3.331,2.234,4.8,3.36c7.595,5.818,13.714,20.791,28.32,18c3.806-0.728,6.153-3.841,9.84-5.04
		c3.004-0.977,6.723,0.72,10.32,0.72c8.459,0,12.119-6.188,17.519-9.36c4.309-2.529,11.798-1.143,15.841-2.879
		c2.445-1.051,5.562-3.201,7.199-5.041c2.405-2.701,2.839-5.119,5.521-6c4.632-1.521,8.667-0.967,12-3.119
		C117.745,48.638,120.141,38.228,118.08,29.961z M112.561,21.801c2.337,4.463,5.057,8.544,4.8,15.6
		c-1.159-2.475-0.513-3.813-1.68-6.479C113.921,26.902,107.382,24.881,112.561,21.801z M94.561,1.64
		c3.737,0.717,6.261,4.813,9.12,7.44c2.708,2.489,5.134,5.729,5.04,10.32c-1.334,0.894-1.848-1.136-3.36-1.921
		c-1.051-0.545-2.657-0.537-3.601-1.199c-2.344-1.646-3.96-6.338-7.199-7.92c-2.272-1.11-8.479-1.877-8.16-4.561
		C86.581,2.274,91.925,1.136,94.561,1.64z M84.48,4.762c1.093,0.061,2.039,2.34,3.359,3.119c1.643,0.971,3.912,0.953,5.521,1.68
		c4.013,1.816,5.464,6.58,7.68,8.16c1.76,1.256,5.593,1.336,5.521,3.601c-0.045,1.404-3,2.923-3.601,3.601
		c-5.326-7.315-17.565-7.715-23.04-14.881C80.738,9.034,82.206,4.635,84.48,4.762z M78.721,12.201
		c3.372,2.053,6.176,4.246,12.479,6.481c3.825,1.355,10.209,4.892,10.32,7.68c0.031,0.789-2.174,3.305-2.641,3.359
		c-1.244,0.148-5.036-3.16-6.96-3.84c-2.993-1.057-5.75-1.932-9.12-4.08C77.852,18.645,74.342,16.881,78.721,12.201z M76.8,18.922
		c2.203,1.621,5.212,4.693,9.601,6.719c3.252,1.502,15.503,4.462,8.16,8.16c-3.097-1.514-5.431-3.371-8.88-4.319
		c-2.089-0.574-4.592-0.661-6.48-1.681c-3.863-2.086-6.157-6.258-9.6-8.399C72.396,19.41,74.608,17.306,76.8,18.922z M81.36,30.201
		c4.739,1.172,8.616,1.873,11.76,4.801c-2.021,5.245-10.157,1.441-13.92-0.961c-2.728-1.742-4.56-4.465-7.2-6.24
		c-3.554-2.39-7.577-3.437-12.72-4.319C68.021,14.348,73.557,28.272,81.36,30.201z M57.601,30.922
		c8.59-0.26,15.766,11.21,23.04,12.719c-8.837,9.654-18.857-6.394-28.801-7.199C53.53,33.907,53.542,31.043,57.601,30.922z
		 M64.08,43.881c2.496,1.801,5.177,2.928,7.44,4.801c-10.268,4.262-14.966-7.131-22.08-10.56
		C55.702,38.488,60.023,40.955,64.08,43.881z M63.84,50.842c-5.498,3.236-9.156-1.086-12.96-4.32c-2.808-2.389-5.513-4.32-6.96-6.48
		C53.661,38.728,56.234,48.449,63.84,50.842z M56.16,53.002c-3.724,0.425-4.794,4.031-8.4,2.159
		c-5.984-3.106-10.368-13.336-18.239-14.399C42.313,35.915,49.097,48.443,56.16,53.002z M31.681,42.681
		c5.921,2.12,9.824,12.247,16.56,14.399c-7.56,5.271-15.437-12.73-28.08-8.88C22.216,44.756,26.349,40.771,31.681,42.681z
		 M43.681,59.721c-9.922,7.087-13.73-8.324-23.28-8.64c0.802-2.487,4.832-1.894,6.479-1.44
		C33.189,51.379,38.031,57.584,43.681,59.721z M16.8,52.521c9.307-0.187,11.993,6.247,16.801,10.56c-6.8,2.142-8.299-4.74-12.48-7.2
		c-1.701-1-2.981-0.886-5.04-1.92C16.069,53.23,16.587,53.027,16.8,52.521z M26.16,63.321c-7.347,0.866-8.551-4.409-12.96-6.479
		C17.613,53.234,23.988,60.257,26.16,63.321z M17.28,62.842c-1.68,0-3.36,0-5.04,0c-0.28-1.721-1.692-2.309-2.16-3.84
		C12.517,57.032,16.652,60.832,17.28,62.842z M3.36,62.361c2.207-1.529,6.212-3.418,6.96,0.48
		C8.263,62.419,5.438,62.763,3.36,62.361z M7.44,65.241c1.244,0.185,2.386-0.677,3.359,0C10.665,67.695,7.599,67.439,7.44,65.241z
		 M10.32,68.842c0.838-1.082,2.247-1.594,2.4-3.36c1.314-0.034,2.282,0.276,3.359,0.479C16.283,69.328,11.916,71.488,10.32,68.842z
		 M15.84,74.361c-0.925-0.754-1.978-1.383-2.16-2.88c2.537-0.824,4.001-2.72,4.561-5.521c0.677,0.443,2.245-0.006,2.88,0.48
		C21.302,71.023,17.271,71.39,15.84,74.361z M23.28,66.441c1.247,0.353,2.977,0.223,4.56,0.24c-0.92,5.319-4.063,8.416-6.479,12.24
		C12.608,75.936,23.102,72.512,23.28,66.441z M28.32,82.041c-2.073-0.326-4.107-0.691-5.28-1.92c2.434-4.447,5.938-7.822,6.96-13.68
		c2.302-0.099,4.342-0.459,6.48-0.721C36.705,74.106,32.656,78.217,28.32,82.041z M31.2,82.041c4.14-3.061,6.939-9.54,7.44-17.039
		c2.043-0.598,3.836-1.445,6-1.921C46.049,74.625,40.559,80.553,31.2,82.041z M44.16,76.521c0.264-2.152,2.178-4.213,2.4-7.68
		c0.295-4.615-1.031-8.734,3.84-8.4C51.071,67.016,53.105,77.203,44.16,76.521z M54.721,77.241
		c-1.394,0.603-3.544,0.074-4.801-0.239c4.556-3.587,2.294-12.102,2.4-18.24c1.329-0.671,2.404-1.596,4.08-1.92
		C60.436,62.718,59.763,73.125,54.721,77.241z M57.601,76.762c2.412-3.936,4.19-8.705,2.88-14.4c-0.441-1.916-2.583-3.623-1.92-5.52
		c0.758-2.171,4.15-1.293,6.479-2.16C65.93,63.016,67.027,75.232,57.601,76.762z M66.721,71.002
		c0.463-5.271,0.368-11.288,0.479-17.281c1.771-0.548,3.277-1.361,5.28-1.68C71.957,59.758,72.656,68.697,66.721,71.002z
		 M72.721,66.922c2.711-4.149-0.834-13.372,2.64-16.561c1.419-1.303,3.27-0.426,4.559-2.16c0.675,6.42,0.459,14.627-3.12,18.24
		C75.191,66.351,74.275,66.956,72.721,66.922z M78.96,66.201c5.678-5.111-0.685-19.637,7.681-22.08
		c0.388-0.067,0.413,0.226,0.72,0.24C84.607,52.56,91.502,67.179,78.96,66.201z M71.04,35.961c-4.903-3.479-8.522-7.096-15.6-6.24
		c0.28-7.956,13.032-2.91,17.04,0c2.455,1.784,4.033,4.217,6.72,5.761c2.929,1.683,5.672,2.191,8.16,4.079
		C83.264,45.902,75.463,39.099,71.04,35.961z M95.28,55.881c-0.69,2.543-6.038,5.896-7.44,7.92
		c1.805-6.264-0.329-14.723,1.681-21.359c2.229-1.132,4.724-1.996,6.239-3.84c2.34,2.265-0.813,9.121-0.96,13.199
		C94.746,53.304,95.498,55.077,95.28,55.881z M101.28,53.241c-1.053,0.947-3.021,0.979-4.32,1.681
		c-1.569-3.599,1.104-7.947,1.44-12.24c0.285-3.652-1.451-7.569,2.88-7.92C103.316,40.285,101.212,47.781,101.28,53.241z
		 M103.2,52.762c-0.146-6.483,2.216-14.625-0.96-19.681c0.998-1.002,2.172-1.827,2.88-3.12
		C108.065,35.283,114.507,51.818,103.2,52.762z M110.88,49.881c1.482-6.503-0.503-11.517-2.399-17.279
		c-1.023-3.109-2.557-4.999,0.24-6.961C115.638,28.478,118.975,45.806,110.88,49.881z"/>
</g>
</svg>
