<?xml version="1.0" encoding="iso-8859-1"?>
<!-- Generator: Adobe Illustrator 19.2.0, SVG Export Plug-In . SVG Version: 6.00 Build 0)  -->
<svg version="1.1" id="&#x421;&#x43B;&#x43E;&#x439;_1"
	 xmlns="http://www.w3.org/2000/svg" xmlns:xlink="http://www.w3.org/1999/xlink" x="0px" y="0px" viewBox="0 0 110.285 221.762"
	 style="enable-background:new 0 0 110.285 221.762;" xml:space="preserve">
<g>
	<path style="fill:#B2CF5D;" d="M90.781,80.16c-6.262,13.629-15.795,25.998-27.12,34.08c-1.266,0.904-4.652,2.482-5.279,3.84
		c-1.201,2.602,0.233,6.791-0.48,9.361c4.387-3.924,10.374-7.475,15.36-12.48c6.753-6.781,16.496-13.838,20.159-23.04
		c0.656-1.647,0.561-3.497,1.2-5.04c2.224-5.361,8.446-16.564,1.92-20.88c0.017,1.997-1.422,3.271-2.159,5.28
		C93.019,74.986,91.962,77.59,90.781,80.16z"/>
	<path style="fill:#B2CF5D;" d="M72.301,83.041c-3.313,4.572-4.705,8.299-8.881,12.24c-3.596,3.395-7.221,4.713-4.8,10.799
		c10.298-4.82,14.884-14.866,20.4-24.479c2.871-5.003,7.031-9.815,9.359-15.36c1.453-3.457,1.187-7.152,3.12-10.56
		c-0.741-0.778-0.951-2.088-2.399-2.159c-3.469,7.918-7.186,17.177-11.761,24C76.016,79.496,73.819,80.945,72.301,83.041z"/>
	<path style="fill:#B2CF5D;" d="M86.7,71.281c-1.098,1.85-1.64,4.199-2.64,6c-2.704,4.87-6.452,10.09-9.601,15.359
		c-3.92,6.563-9.554,11.973-15.6,15.12c0.187,2.907-0.339,5.101-0.24,7.92c4.126-2.753,9.803-5.509,12.96-9.36
		c3.117-3.801,7.612-8.684,10.561-12.959c1.211-1.757,1.731-4.13,2.88-6c3.382-5.51,5.383-9.989,7.92-16.32
		c0.597-1.49,2.11-3.065,2.399-4.32c0.811-3.51-0.413-6.99-2.399-9.359c-2.109,1.936-1.913,6.826-3.12,9.6
		C89.149,68.506,87.639,69.699,86.7,71.281z"/>
	<path style="fill:#B2CF5D;" d="M72.54,77.041c-4.81,6.11-15.782,10.123-14.64,20.64c5.889-2.198,8.6-8.99,12-14.159
		c1.293-1.967,4.897-4.764,6.24-6.961c2.081-3.405,4.216-7.643,6.239-12c1.776-3.823,7.715-12.693,3.36-15.119
		c-2.264,6.178-5.221,10.322-7.68,16.319C76.337,69.965,74.716,74.277,72.54,77.041z"/>
	<path style="fill:#B2CF5D;" d="M59.1,86.881c3.87-3.129,9.727-6.793,12.961-11.76c2.769-4.252,4.038-8.932,6.24-13.92
		c2.094-4.748,9.454-13.256,4.079-17.041c-4.122,7.827-6.325,19.079-11.76,25.201C65.803,74.789,58.684,77.861,59.1,86.881z"/>
	<path style="fill:#B2CF5D;" d="M52.861,20.4c0.921-0.919,0.3-3.379,0.479-5.039c-1.857-0.303-2.725-1.596-4.319-2.16
		c-0.814,1.826-2.795,2.484-3.601,4.32C46.767,19.614,50.825,18.996,52.861,20.4z"/>
	<path style="fill:#B2CF5D;" d="M79.74,137.761c-1.379,1.089-3.721,2.265-5.04,2.88c-5.819,2.721-18.575,5.998-13.68,15.6
		c8.848-2.41,18.458-5.615,24.72-11.52c2.807-2.646,5.352-6.279,8.4-9.359c7.957-8.043,16.387-18.098,13.439-34.32
		C103.369,117.178,91.724,128.301,79.74,137.761z"/>
	<path style="fill:#B2CF5D;" d="M90.301,99.841c-3.84,5.538-9.934,10.135-14.641,14.88c-5.12,5.162-11.473,8.394-16.08,13.439
		c-2.664,2.919-3.752,6.598-1.92,11.041c4.199-2.721,8.546-6.133,13.441-9.36c4.42-2.915,10.013-5.425,13.439-9.36
		c2.622-3.01,5.559-6.529,7.92-9.84c2.681-3.756,4.193-7.842,6.48-11.52c0.794-1.277,2.145-2.047,2.64-3.36
		c2.667-7.077,2.828-14.79-1.199-20.16c0.037,0.343-0.149,0.511-0.24,0.72c-2.651,6.094-3.406,10.599-5.28,15.84
		C93.989,94.6,91.784,97.699,90.301,99.841z"/>
	<path style="fill:#B2CF5D;" d="M92.941,138.721c-2.612,2.539-4.865,5.742-7.2,7.68c-2.881,2.393-7.215,4.986-11.28,6.961
		c-4.39,2.131-16.064,2.322-12.239,9.6c4.738-0.41,8.667-1.352,12.48-2.881c3.677-1.473,5.823-4.438,8.88-6.479
		c1.185-0.791,2.589-1.102,3.84-1.92c5.414-3.541,9.125-8.598,12.961-13.921c4.017-5.575,6.111-11.011,6.959-18.479
		C103.871,127.65,98.912,132.914,92.941,138.721z"/>
	<path style="fill:#B2CF5D;" d="M66.541,61.201c-2.181,3.084-6.754,5.299-7.441,9.359c-0.383,2.27,0.25,4.939,0,7.44
		c8.83-5.041,13.253-15.187,18.001-25.681c2.159-4.773,6.496-10.834,1.439-14.399c-2.143,6.433-4.316,9.599-7.439,15.12
		C69.522,55.832,67.944,59.216,66.541,61.201z"/>
	<path style="fill:#B8C49C;" d="M53.821,8.641c0.057-0.443,0.777-2.17-0.24-2.16c-0.111,0.849-1.076,0.844-0.96,1.92
		C53.199,8.303,53.143,8.839,53.821,8.641z"/>
	<path style="fill:#B2CF5D;" d="M62.221,14.881c-2.735,4.641-7.816,9.441-6.24,16.8C56.879,26.736,66.627,19.228,62.221,14.881z"/>
	<path style="fill:#B2CF5D;" d="M59.821,35.521c1.239-2.368,2.95-4.454,4.08-6.48c1.661-2.981,4.116-9.278,0.96-10.32
		c-2.79,7.789-10.211,11.891-9.36,22.561C56.986,40.594,58.507,38.03,59.821,35.521z"/>
	<path style="fill:#B2CF5D;" d="M58.62,66.721c5.364-4.171,8.05-9.611,12-16.32c2.59-4.396,4.92-8.047,6.24-12
		c1.028-3.078,0.367-4.408-1.2-6.24c-2.508,8.015-7.332,12.315-11.04,19.441C61.664,57.283,56.768,60.046,58.62,66.721z"/>
	<path style="fill:#B2CF5D;" d="M53.34,13.441c0.29-0.831,0.524-1.718,0.481-2.881C50.442,7.558,48.865,13.633,53.34,13.441z"/>
	<path style="fill:#B2CF5D;" d="M87.42,153.121c-3.881,2.51-6.983,5.391-10.56,7.199c-3.89,1.967-9.296,3.197-14.399,4.08
		c-0.361,1.283-0.238,2.674,0,3.84c12.275,1.494,19.018-7.205,26.159-12.24c7.122-5.02,12.571-10.943,14.4-19.68
		C98.907,143.232,94.206,148.732,87.42,153.121z"/>
	<path style="fill:#B2CF5D;" d="M59.58,9.361c-0.329-2.16-4.277,1.219-3.359,4.319C57.314,12.615,59.794,10.762,59.58,9.361z"/>
	<path style="fill:#B2CF5D;" d="M57.66,57.841c4.555-3.665,7.904-9.966,11.521-16.08c2.544-4.302,7.713-11.778,2.88-15.12
		c-1.419,3.811-2.449,7.723-4.801,11.76C63.629,44.637,56.408,49.055,57.66,57.841z"/>
	<path style="fill:#B8C49C;" d="M56.941,7.921c1.157-0.367,1.065-2.073,0-2.4C56.614,5.918,57.137,6.921,56.941,7.921z"/>
	<path style="fill:#B2CF5D;" d="M56.7,50.16c2.577-2.996,5.284-6.889,8.4-11.279c2.407-3.392,8.473-14.202,2.88-16.801
		c-1.881,5.404-5.177,11.236-8.4,16.32C57.117,42.286,54.86,44.942,56.7,50.16z"/>
	<path style="fill:#B2CF5D;" d="M56.461,20.4c1.91-1.875,6.496-6.467,3.359-8.88C58.338,14.061,55.484,16.89,56.461,20.4z"/>
	<path style="fill:#B2CF5D;" d="M88.38,116.881c-1.573,1.848-2.523,4.063-4.079,5.52c-5.353,5.014-13.411,9.334-19.92,13.68
		c-1.869,1.248-5.915,3.574-6.24,5.041c-0.451,2.033,1.481,4.484,1.44,6.24c4.258-4.463,10.991-5.572,16.561-8.881
		c6.334-3.762,11.755-10.357,17.04-15.6c1.368-1.357,3.213-2.266,4.319-3.6c5.304-6.391,12.341-21.185,7.44-30.961
		c-1.499,6.363-2.838,8.342-5.28,12.961C96.297,107.64,92.638,111.881,88.38,116.881z"/>
	<path style="fill:#B2CF5D;" d="M60.781,174c-2.554,0.611-0.751,4.227-0.479,5.762c1.859,10.535,0.107,29.715,0.479,39.359
		c5.614,0.85,3.909-7.98,3.36-12.961c-0.952-8.635-3.43-23.479,0.72-28.799C64.166,176.805,63.07,173.455,60.781,174z"/>
	<path style="fill:#B2CF5D;" d="M55.021,175.682c0.952,0.326,1.716,0.842,3.12,0.719c0.145-0.574,0.345-1.094,0.24-1.92
		C56.887,174.506,55.808,174.949,55.021,175.682z"/>
	<path style="fill:#B2CF5D;" d="M66.301,177.121c1.99-0.969,3.868-2.051,5.279-3.6c-2.249,0.311-4.064,1.055-6.72,0.959
		C65.108,175.594,65.614,176.447,66.301,177.121z"/>
	<path style="fill:#B2CF5D;" d="M62.221,169.682c0,0.879,0,1.76,0,2.639c4.697,1.111,9.408,0.297,13.199-1.439
		c4.552-2.086,13.261-11.445,14.881-14.16C82.452,162.402,75.572,170.299,62.221,169.682z"/>
	<path style="fill:#B2CF5D;" d="M15.18,98.641c3.277,4.023,6.007,8.381,9.841,11.52c2.269,1.859,5.174,2.414,7.92,3.601
		c8.019,3.466,15.179,10.331,21.84,13.2c-0.033-2.284,1.447-5.717,0.479-8.641c-1.078-3.26-7.54-4.133-10.319-5.52
		c-6.415-3.201-13.149-7.217-18.24-12.24c-7.944-7.838-11.228-17.126-18.479-25.68c-0.24,0-0.481,0-0.721,0
		C6.018,78.87,4.569,82.924,6.301,86.4C8.323,90.457,11.959,94.686,15.18,98.641z"/>
	<path style="fill:#B2CF5D;" d="M21.18,139.682c2.754,1.701,4.904,4.482,7.44,5.76c2.526,1.271,6.128,1.352,9.601,2.398
		c7.324,2.213,12.06,5.961,19.92,6.721c0.057-2.617-1.09-4.029-0.961-6.721c-2.248-1.305-4.383-2.791-6.719-3.6
		c-6.504-2.25-10.441-5.316-16.08-7.92c-3.544-1.635-6.881-4.244-10.32-5.279c-1.439-0.434-3.15-0.184-4.561-0.721
		c-5.155-1.963-11.484-11.821-15.6-14.399c2.19,5.345,2.196,12.219,5.76,16.08c0.824,0.892,2.68,1.322,3.84,2.159
		C15.751,135.785,18.217,137.85,21.18,139.682z"/>
	<path style="fill:#B2CF5D;" d="M29.1,65.521c4.255,4.26,8.594,9.92,12.481,13.68c3.795,3.67,10.9,4.209,13.92,7.92
		c2.756-6.516-0.463-11.521-4.56-14.881c-5.043-4.135-13.708-5.699-18-10.319c-1.035-1.114-1.708-2.71-2.64-3.841
		c-3.104-3.758-6.582-7.65-9.601-11.039c-3.849,2.535-0.312,8.305,2.16,11.76C24.794,61.502,27.256,63.674,29.1,65.521z"/>
	<path style="fill:#B2CF5D;" d="M27.66,51.841c2.399,2.723,4.625,6.61,6.96,9.12c3.635,3.906,10.37,5.343,14.88,7.92
		c3.543,2.023,4.924,5.359,7.44,6.96c1.136-11.648-9.651-13.005-15.841-17.52c-2.104-1.534-3.433-3.971-5.279-5.76
		c-3.833-3.712-9.17-5.775-11.76-9.84c-0.16,0-0.32,0-0.48,0C19.837,45.602,25.664,49.573,27.66,51.841z"/>
	<path style="fill:#B2CF5D;" d="M16.62,72.961c1.933,2.799,3.586,6.144,5.521,8.16c1.537,1.602,3.596,2.586,5.039,4.32
		c1.129,1.354,1.847,3.205,3.121,4.56c6.941,7.382,16.412,12.729,24.479,17.28c-0.584-2.012,0.833-4.912,0-7.201
		c-0.999-2.743-10.16-6.066-12.239-7.68c-3.635-2.818-6.768-7.719-10.08-11.76c-1.434-1.747-3.559-2.689-5.041-4.08
		c-5.439-5.107-11.246-11.752-13.199-19.68c-0.307-0.014-0.333-0.308-0.721-0.24c-0.374,2.457-2.494,5.184-2.16,7.92
		C11.588,66.582,15.397,71.189,16.62,72.961z"/>
	<path style="fill:#B2CF5D;" d="M23.58,69.361c1.582,1.786,2.678,3.895,4.32,5.52c1.738,1.721,4.094,2.747,5.519,4.32
		c3.611,3.98,6.112,8.648,9.84,11.76c3.162,2.639,7.838,3.595,11.041,6c-0.469-1.887,1.306-5.438,0.72-7.439
		c-0.747-2.553-5.899-4.48-8.64-5.281c-6.066-1.771-9.821-8.641-14.4-13.439C26.006,64.54,20.067,60.35,17.58,52.08
		c-0.24,0.002-0.285-0.193-0.481-0.239c-2.525,1.397-1.707,5.107-0.719,7.92C17.739,63.626,20.821,66.243,23.58,69.361z"/>
	<path style="fill:#B2CF5D;" d="M11.821,76.32c5.006,7.104,8.596,14.303,13.92,21.121c2.005,2.566,5.64,5.064,8.4,7.199
		c6.312,4.883,14.228,7.457,21.119,10.32c0.112-2.032-0.426-3.414-0.239-5.52c-19.266-9.695-32.925-24.996-44.4-42.48
		c-0.307-0.014-0.332-0.309-0.72-0.24c0.024,1.754-1.822,3.822-1.439,5.76C8.691,73.65,10.995,75.15,11.821,76.32z"/>
	<path style="fill:#B2CF5D;" d="M30.541,47.041c2.397,2.011,5.202,3.055,6.959,4.8c0.877,0.87,1.334,2.241,2.16,3.12
		c5.004,5.328,13.09,6.698,16.801,11.04c0.329-1.897-0.214-3.591-0.48-5.521c-3.256-2.59-7.507-4.672-11.04-6.72
		c-6.583-3.817-11.925-10.31-18.72-14.16C23.172,41.098,29.004,45.752,30.541,47.041z"/>
	<path style="fill:#B2CF5D;" d="M33.18,42.24c3.596,2.061,6.423,6.543,10.561,9.36c3.972,2.704,8.72,3.986,12,6.479
		c0.691-7.385-4.708-8.968-9.6-11.76c-6.144-3.506-12.275-6.55-16.32-11.279C25.295,38.496,30.031,40.436,33.18,42.24z"/>
	<path style="fill:#B2CF5D;" d="M40.141,35.761c5.337,2.224,9.699,3.75,13.44,6.96c0-2.32,0-4.641,0-6.96
		c-4.236,0.808-3.733-0.413-7.68-2.399c-1.604-0.809-3.466-1.223-5.04-1.92c-2.255-1-3.993-3.159-5.521-2.881
		C30.465,29.451,39.04,35.303,40.141,35.761z"/>
	<path style="fill:#B2CF5D;" d="M37.5,39.121c5.095,3.28,11.457,7.965,16.801,10.32c1.285-4.615-1.352-4.775-4.08-6.721
		c-4.957-3.532-14.057-7.155-18-10.8C29.348,35.447,35.273,37.686,37.5,39.121z"/>
	<path style="fill:#B2CF5D;" d="M53.34,34.08c0.921-1.4,0.789-4.02,0.481-6c-5.236,0.313-12.271-0.111-14.88-3.84
		c-0.555,1.206-1.731,1.79-2.16,3.121c1.769,1.584,4.172,2.338,6.96,3.359C47.256,32.008,49.424,34.742,53.34,34.08z"/>
	<path style="fill:#B2CF5D;" d="M59.821,171.842c0.016-1.217-0.412-1.988-0.24-3.361c-5.852,2.316-14.827,1.873-19.44-0.48
		C45.532,170.711,53.179,176.764,59.821,171.842z"/>
	<path style="fill:#B2CF5D;" d="M59.58,166.08c0.551-0.488,0.087-1.992,0.24-2.879c-4.502-1.445-9.057-0.004-13.2-0.721
		c-6.446-1.113-13.667-3.787-18.239-6.719c-3.489-2.238-5.474-6.18-9.601-7.201c-0.146,0.014-0.284,0.035-0.239,0.24
		C26.66,159.543,42.303,174.234,59.58,166.08z"/>
	<path style="fill:#B2CF5D;" d="M53.58,26.641c0.385-1.556,0.195-3.196-0.24-4.561c-2.559-0.943-6.932-1.98-9.84-3.359
		c-1.066,1.492-2.293,2.827-3.359,4.32C42.25,27.055,48.336,26.517,53.58,26.641z"/>
	<path style="fill:#B2CF5D;" d="M10.861,120.721c2.765,2.766,5.947,6.641,9.12,7.92c1.443,0.582,3.058,0.451,4.56,0.96
		c3.002,1.017,5.493,3.354,8.399,4.8c2.232,1.111,4.581,1.727,6.72,2.881c2.094,1.128,3.77,3.016,5.76,4.08
		c3.408,1.822,7.715,2.1,11.041,3.84c0.305-7.119-4.314-7.629-9.361-10.32c-5.301-2.829-11.559-8.346-16.799-11.04
		c-3.796-1.952-9.462-4.38-12.24-6.72c-2.895-2.438-4.811-6.325-7.68-8.641c-3.279-2.645-5.117-4.055-7.681-7.439
		c0.657,3.533-0.589,6.789,0.48,10.56C3.942,114.283,8.569,118.429,10.861,120.721z"/>
	<path style="fill:#B2CF5D;" d="M8.461,105.601c0.861,0.767,2.217,0.913,3.119,1.681c3.272,2.782,5.3,7.117,8.881,9.6
		c2.018,1.398,4.532,2.77,6.719,4.08c9.041,5.416,18.861,11.057,27.841,16.08c1.015-9.066-4.862-10.777-9.841-13.92
		c-2.188-1.383-4.4-2.766-6.479-4.08c-4.427-2.799-9.779-4.035-14.159-7.2c-4.039-2.918-7.375-7.909-10.32-11.761
		c-3.209-4.192-6.754-9.41-10.08-12.959c-0.263,3.123-2.033,6.513-1.44,9.6C3.141,99.017,6.936,104.246,8.461,105.601z"/>
	<path style="fill:#B2CF5D;" d="M28.861,154.561c1.99,1.398,5.728,2.844,8.88,3.84c6.873,2.174,13.848,3.723,22.08,2.4
		c-0.229-1.691-0.789-3.051-1.2-4.561c-5.305,0.1-7.792-2.256-11.76-3.6c-2.199-0.744-4.378-1.643-6.479-2.4
		c-4.611-1.66-9.963-2.055-13.44-4.318c-1.03-0.672-1.468-1.887-2.399-2.641c-3.809-3.084-10.167-5.712-13.681-8.641
		c0.802,2.406,0.952,5.373,2.399,7.92c1.443,2.539,5.629,3.805,8.641,5.52C24.933,149.809,26.461,152.873,28.861,154.561z"/>
	<path style="fill:#566E49;" d="M57.901,179.762c1.92,2.914,0.72,10.355,0.72,15.119c0,9.801,0.643,19.576,0.479,26.881
		c2.684-0.598,5.168-1.395,7.201-2.641c0.967-6.367-1.204-14.33-1.681-21.6c-0.282-4.314-0.815-12.42,0.48-15.361
		c1.459-3.313,7.546-6.982,10.8-9.359c17.337-12.664,33.131-30.584,34.32-58.8c0.691-16.407-4.377-30.299-8.641-43.681
		c-4.521-14.191-14.422-22.779-21.359-34.56c-2.66-4.517-4.96-9.042-8.16-12.96c-3.25-3.979-7.178-7.385-9.6-11.76
		C59.976,6.551,59.436,2.116,54.541,0c-3.175,3.818-4.595,9.123-7.921,13.441c-1.729,2.244-4.418,4.048-6.479,6.48
		C32.163,29.327,24.6,38.742,17.1,48.24c-1.674,2.121-3.791,4.522-5.039,6.721c-1.594,2.807-2.039,6.393-3.36,9.6
		c-0.962,2.334-2.382,4.729-3.12,7.2c-0.399,1.339-0.344,2.874-0.72,4.319c-2.1,8.072-5.345,16.941-4.8,25.201
		c0.103,1.574,0.816,2.837,0.96,4.56c0.659,7.918,1.028,14.364,3.84,20.88c1.226,2.842,2.802,5.54,3.84,8.4
		c1.124,3.097,1.624,6.535,3.12,9.359c1.993,3.764,6.549,7.346,9.6,10.561c7.399,7.795,13.378,12.342,23.041,17.76
		C47.497,174.504,56.069,176.979,57.901,179.762z M58.141,176.4c-1.404,0.123-2.168-0.393-3.12-0.719
		c0.787-0.732,1.866-1.176,3.36-1.201C58.486,175.307,58.285,175.826,58.141,176.4z M64.141,206.16
		c0.549,4.98,2.254,13.811-3.36,12.961c-0.372-9.645,1.38-28.824-0.479-39.359c-0.271-1.535-2.074-5.15,0.479-5.762
		c2.289-0.545,3.386,2.805,4.08,3.361C60.711,182.682,63.189,197.525,64.141,206.16z M66.301,177.121
		c-0.688-0.674-1.193-1.527-1.44-2.641c2.655,0.096,4.471-0.648,6.72-0.959C70.169,175.07,68.291,176.152,66.301,177.121z
		 M75.42,170.881c-3.791,1.736-8.502,2.551-13.199,1.439c0-0.879,0-1.76,0-2.639c13.351,0.617,20.231-7.279,28.08-12.961
		C88.681,159.436,79.972,168.795,75.42,170.881z M88.62,156c-7.142,5.035-13.884,13.734-26.159,12.24
		c-0.238-1.166-0.361-2.557,0-3.84c5.104-0.883,10.51-2.113,14.399-4.08c3.576-1.809,6.679-4.689,10.56-7.199
		c6.786-4.389,11.487-9.889,15.601-16.801C101.192,145.057,95.742,150.98,88.62,156z M100.381,137.761
		c-3.836,5.323-7.547,10.38-12.961,13.921c-1.251,0.818-2.655,1.129-3.84,1.92c-3.057,2.041-5.203,5.006-8.88,6.479
		c-3.813,1.529-7.741,2.471-12.48,2.881c-3.825-7.277,7.85-7.469,12.239-9.6c4.065-1.975,8.399-4.568,11.28-6.961
		c2.335-1.938,4.588-5.141,7.2-7.68c5.972-5.807,10.931-11.07,14.399-19.44C106.492,126.75,104.398,132.186,100.381,137.761z
		 M94.141,135.361c-3.049,3.08-5.594,6.713-8.4,9.359c-6.262,5.904-15.872,9.109-24.72,11.52c-4.896-9.602,7.86-12.879,13.68-15.6
		c1.319-0.615,3.661-1.791,5.04-2.88c11.983-9.46,23.629-20.583,27.84-36.72C110.528,117.264,102.098,127.318,94.141,135.361z
		 M97.5,119.281c-1.106,1.334-2.951,2.242-4.319,3.6c-5.285,5.242-10.706,11.838-17.04,15.6c-5.569,3.309-12.303,4.418-16.561,8.881
		c0.041-1.756-1.891-4.207-1.44-6.24c0.325-1.467,4.371-3.793,6.24-5.041c6.509-4.346,14.567-8.666,19.92-13.68
		c1.556-1.457,2.506-3.672,4.079-5.52c4.258-5,7.917-9.241,11.28-15.6c2.442-4.619,3.781-6.598,5.28-12.961
		C109.841,98.096,102.804,112.891,97.5,119.281z M100.381,75.601c4.027,5.37,3.866,13.083,1.199,20.16
		c-0.495,1.314-1.846,2.083-2.64,3.36c-2.287,3.678-3.8,7.764-6.48,11.52c-2.361,3.311-5.298,6.83-7.92,9.84
		c-3.427,3.936-9.019,6.445-13.439,9.36c-4.895,3.227-9.241,6.64-13.441,9.36c-1.832-4.443-0.744-8.122,1.92-11.041
		c4.607-5.045,10.96-8.277,16.08-13.439c4.707-4.745,10.801-9.342,14.641-14.88c1.483-2.142,3.688-5.241,4.56-7.681
		c1.874-5.241,2.629-9.746,5.28-15.84C100.232,76.111,100.418,75.943,100.381,75.601z M94.62,86.881
		c-0.64,1.543-0.544,3.393-1.2,5.04c-3.663,9.202-13.406,16.259-20.159,23.04c-4.986,5.006-10.974,8.557-15.36,12.48
		c0.714-2.57-0.721-6.76,0.48-9.361c0.627-1.358,4.014-2.936,5.279-3.84c11.325-8.082,20.858-20.451,27.12-34.08
		c1.182-2.57,2.238-5.174,3.601-8.879c0.737-2.01,2.176-3.283,2.159-5.28C103.067,70.316,96.844,81.52,94.62,86.881z M95.34,66.721
		c-0.289,1.255-1.803,2.83-2.399,4.32c-2.537,6.331-4.538,10.811-7.92,16.32c-1.148,1.87-1.669,4.243-2.88,6
		c-2.948,4.275-7.443,9.158-10.561,12.959c-3.157,3.852-8.834,6.607-12.96,9.36c-0.099-2.819,0.427-5.013,0.24-7.92
		c6.046-3.147,11.68-8.558,15.6-15.12c3.148-5.27,6.896-10.489,9.601-15.359c1-1.801,1.542-4.15,2.64-6
		c0.939-1.582,2.448-2.775,3.12-4.32c1.207-2.773,1.011-7.664,3.12-9.6C94.927,59.73,96.151,63.211,95.34,66.721z M91.5,55.681
		c-1.934,3.407-1.667,7.103-3.12,10.56c-2.328,5.545-6.488,10.357-9.359,15.36c-5.517,9.613-10.103,19.659-20.4,24.479
		c-2.421-6.086,1.204-7.404,4.8-10.799c4.176-3.941,5.567-7.668,8.881-12.24c1.518-2.096,3.715-3.545,5.039-5.52
		c4.575-6.823,8.292-16.082,11.761-24C90.549,53.593,90.759,54.902,91.5,55.681z M82.38,64.561c-2.023,4.357-4.158,8.595-6.239,12
		c-1.343,2.197-4.947,4.994-6.24,6.961c-3.4,5.169-6.111,11.961-12,14.159c-1.143-10.517,9.829-14.529,14.64-20.64
		c2.176-2.764,3.797-7.076,5.521-11.28c2.459-5.997,5.416-10.142,7.68-16.319C90.095,51.867,84.156,60.737,82.38,64.561z
		 M78.301,61.201c-2.202,4.988-3.472,9.668-6.24,13.92c-3.234,4.967-9.091,8.631-12.961,11.76
		c-0.416-9.02,6.703-12.092,11.521-17.52c5.435-6.122,7.638-17.374,11.76-25.201C87.755,47.945,80.395,56.453,78.301,61.201z
		 M77.101,52.32C72.353,62.814,67.93,72.96,59.1,78.001c0.25-2.501-0.383-5.171,0-7.44c0.688-4.061,5.261-6.275,7.441-9.359
		c1.402-1.985,2.981-5.369,4.56-8.16c3.123-5.521,5.296-8.688,7.439-15.12C83.597,41.486,79.26,47.547,77.101,52.32z M76.861,38.4
		c-1.32,3.953-3.65,7.604-6.24,12c-3.95,6.709-6.636,12.149-12,16.32c-1.852-6.675,3.044-9.438,6-15.12
		c3.708-7.126,8.532-11.426,11.04-19.441C77.228,33.992,77.889,35.322,76.861,38.4z M69.181,41.761
		c-3.616,6.114-6.966,12.415-11.521,16.08c-1.252-8.786,5.969-13.204,9.6-19.44c2.352-4.037,3.382-7.949,4.801-11.76
		C76.894,29.982,71.725,37.459,69.181,41.761z M65.101,38.881c-3.116,4.391-5.823,8.283-8.4,11.279
		c-1.841-5.218,0.417-7.874,2.88-11.76c3.224-5.084,6.52-10.916,8.4-16.32C73.573,24.679,67.508,35.488,65.101,38.881z M56.461,20.4
		c-0.978-3.511,1.877-6.34,3.359-8.88C62.957,13.934,58.371,18.525,56.461,20.4z M56.941,5.521c1.065,0.327,1.157,2.033,0,2.4
		C57.137,6.921,56.614,5.918,56.941,5.521z M59.58,9.361c0.214,1.4-2.267,3.254-3.359,4.319C55.303,10.58,59.251,7.201,59.58,9.361z
		 M62.221,14.881c4.406,4.347-5.342,11.855-6.24,16.8C54.405,24.322,59.486,19.521,62.221,14.881z M64.861,18.721
		c3.156,1.042,0.701,7.34-0.96,10.32c-1.13,2.026-2.841,4.112-4.08,6.48c-1.313,2.509-2.835,5.072-4.32,5.76
		C54.65,30.611,62.071,26.51,64.861,18.721z M53.58,6.481c1.017-0.01,0.297,1.717,0.24,2.16c-0.678,0.198-0.621-0.338-1.2-0.24
		C52.504,7.324,53.469,7.329,53.58,6.481z M53.821,10.561c0.043,1.163-0.19,2.05-0.481,2.881
		C48.865,13.633,50.442,7.558,53.821,10.561z M49.021,13.201c1.595,0.564,2.462,1.857,4.319,2.16c-0.18,1.66,0.441,4.12-0.479,5.039
		c-2.035-1.404-6.094-0.786-7.44-2.879C46.226,15.686,48.207,15.027,49.021,13.201z M43.5,18.721c2.908,1.379,7.28,2.416,9.84,3.359
		c0.436,1.364,0.625,3.005,0.24,4.561c-5.244-0.124-11.33,0.414-13.44-3.6C41.207,21.548,42.434,20.213,43.5,18.721z M38.941,24.24
		c2.608,3.729,9.644,4.152,14.88,3.84c0.309,1.98,0.44,4.6-0.481,6c-3.916,0.662-6.084-2.072-9.6-3.359
		c-2.788-1.021-5.191-1.775-6.96-3.359C37.209,26.03,38.386,25.446,38.941,24.24z M35.34,28.56c1.527-0.278,3.266,1.881,5.521,2.881
		c1.574,0.697,3.436,1.111,5.04,1.92c3.947,1.986,3.443,3.207,7.68,2.399c0,2.319,0,4.64,0,6.96c-3.74-3.21-8.103-4.736-13.44-6.96
		C39.04,35.303,30.465,29.451,35.34,28.56z M32.221,31.921c3.943,3.644,13.043,7.268,18,10.8c2.729,1.945,5.365,2.105,4.08,6.721
		c-5.344-2.355-11.706-7.04-16.801-10.32C35.273,37.686,29.348,35.447,32.221,31.921z M29.821,35.041
		c4.045,4.729,10.176,7.773,16.32,11.279c4.892,2.792,10.291,4.375,9.6,11.76c-3.28-2.493-8.028-3.775-12-6.479
		c-4.138-2.817-6.965-7.3-10.561-9.36C30.031,40.436,25.295,38.496,29.821,35.041z M26.221,39.601
		c6.795,3.851,12.137,10.343,18.72,14.16c3.533,2.048,7.784,4.13,11.04,6.72c0.267,1.93,0.809,3.623,0.48,5.521
		c-3.711-4.342-11.797-5.712-16.801-11.04c-0.826-0.879-1.283-2.25-2.16-3.12c-1.757-1.745-4.562-2.789-6.959-4.8
		C29.004,45.752,23.172,41.098,26.221,39.601z M23.58,42.721c0.16,0,0.32,0,0.48,0c2.59,4.064,7.927,6.128,11.76,9.84
		c1.847,1.789,3.176,4.226,5.279,5.76c6.189,4.516,16.977,5.872,15.841,17.52c-2.517-1.601-3.897-4.937-7.44-6.96
		c-4.51-2.577-11.245-4.014-14.88-7.92c-2.335-2.51-4.562-6.397-6.96-9.12C25.664,49.573,19.837,45.602,23.58,42.721z M20.7,47.041
		c3.018,3.39,6.497,7.281,9.601,11.039c0.932,1.131,1.604,2.726,2.64,3.841c4.292,4.62,12.957,6.185,18,10.319
		c4.097,3.359,7.315,8.365,4.56,14.881c-3.019-3.711-10.125-4.25-13.92-7.92c-3.887-3.76-8.226-9.42-12.481-13.68
		c-1.844-1.848-4.306-4.02-6.239-6.721C20.389,55.346,16.852,49.576,20.7,47.041z M17.1,51.841c0.195,0.046,0.24,0.241,0.481,0.239
		c2.486,8.27,8.426,12.46,14.4,18.721c4.579,4.799,8.334,11.668,14.4,13.439c2.74,0.801,7.893,2.729,8.64,5.281
		c0.586,2.002-1.189,5.553-0.72,7.439c-3.203-2.405-7.879-3.361-11.041-6c-3.728-3.111-6.229-7.779-9.84-11.76
		c-1.426-1.573-3.781-2.6-5.519-4.32c-1.643-1.625-2.738-3.733-4.32-5.52c-2.76-3.118-5.842-5.735-7.199-9.601
		C15.393,56.948,14.574,53.238,17.1,51.841z M13.5,56.641c0.388-0.067,0.414,0.227,0.721,0.24c1.953,7.928,7.76,14.572,13.199,19.68
		c1.481,1.391,3.607,2.333,5.041,4.08c3.313,4.041,6.445,8.941,10.08,11.76c2.079,1.613,11.24,4.937,12.239,7.68
		c0.833,2.289-0.584,5.189,0,7.201c-8.067-4.552-17.538-9.898-24.479-17.28c-1.274-1.354-1.992-3.206-3.121-4.56
		c-1.443-1.734-3.502-2.719-5.039-4.32c-1.935-2.017-3.588-5.361-5.521-8.16c-1.224-1.771-5.032-6.379-5.28-8.4
		C11.006,61.824,13.126,59.098,13.5,56.641z M9.901,66.721c0.388-0.068,0.413,0.226,0.72,0.24
		c11.476,17.484,25.135,32.785,44.4,42.48c-0.187,2.105,0.352,3.487,0.239,5.52c-6.891-2.863-14.807-5.438-21.119-10.32
		c-2.761-2.135-6.396-4.633-8.4-7.199c-5.324-6.818-8.914-14.018-13.92-21.121c-0.825-1.17-3.13-2.67-3.359-3.84
		C8.078,70.543,9.925,68.475,9.901,66.721z M7.5,74.881c0.24,0,0.481,0,0.721,0c7.252,8.554,10.535,17.842,18.479,25.68
		c5.091,5.023,11.825,9.039,18.24,12.24c2.779,1.387,9.241,2.26,10.319,5.52c0.968,2.924-0.513,6.356-0.479,8.641
		c-6.661-2.869-13.821-9.734-21.84-13.2c-2.746-1.186-5.65-1.741-7.92-3.601c-3.834-3.139-6.564-7.496-9.841-11.52
		c-3.221-3.955-6.857-8.184-8.879-12.24C4.569,82.924,6.018,78.87,7.5,74.881z M4.141,87.121c3.326,3.549,6.871,8.767,10.08,12.959
		c2.945,3.852,6.281,8.843,10.32,11.761c4.38,3.165,9.732,4.401,14.159,7.2c2.079,1.314,4.292,2.697,6.479,4.08
		c4.979,3.143,10.855,4.854,9.841,13.92c-8.98-5.023-18.8-10.664-27.841-16.08c-2.187-1.311-4.701-2.682-6.719-4.08
		c-3.581-2.482-5.608-6.817-8.881-9.6c-0.902-0.767-2.258-0.914-3.119-1.681c-1.525-1.354-5.32-6.584-5.761-8.88
		C2.108,93.634,3.878,90.244,4.141,87.121z M2.7,101.041c2.563,3.385,4.401,4.795,7.681,7.439c2.869,2.315,4.785,6.203,7.68,8.641
		c2.778,2.34,8.444,4.768,12.24,6.72c5.24,2.694,11.498,8.211,16.799,11.04c5.047,2.691,9.666,3.201,9.361,10.32
		c-3.326-1.74-7.633-2.018-11.041-3.84c-1.99-1.064-3.666-2.952-5.76-4.08c-2.139-1.153-4.488-1.77-6.72-2.881
		c-2.906-1.445-5.397-3.783-8.399-4.8c-1.503-0.509-3.117-0.378-4.56-0.96c-3.173-1.279-6.356-5.154-9.12-7.92
		c-2.292-2.292-6.919-6.438-7.681-9.12C2.112,107.83,3.358,104.574,2.7,101.041z M3.901,115.921
		c4.115,2.578,10.444,12.437,15.6,14.399c1.41,0.537,3.121,0.287,4.561,0.721c3.439,1.035,6.776,3.645,10.32,5.279
		c5.639,2.604,9.576,5.67,16.08,7.92c2.336,0.809,4.471,2.295,6.719,3.6c-0.129,2.691,1.018,4.104,0.961,6.721
		c-7.86-0.76-12.596-4.508-19.92-6.721c-3.473-1.047-7.074-1.127-9.601-2.398c-2.536-1.277-4.686-4.059-7.44-5.76
		c-2.963-1.832-5.429-3.896-7.68-5.521c-1.16-0.837-3.016-1.268-3.84-2.159C6.097,128.14,6.091,121.266,3.901,115.921z
		 M13.26,142.561c-1.447-2.547-1.598-5.514-2.399-7.92c3.514,2.929,9.872,5.557,13.681,8.641c0.932,0.754,1.369,1.969,2.399,2.641
		c3.478,2.264,8.829,2.658,13.44,4.318c2.102,0.758,4.28,1.656,6.479,2.4c3.968,1.344,6.455,3.699,11.76,3.6
		c0.411,1.51,0.972,2.869,1.2,4.561c-8.232,1.322-15.207-0.227-22.08-2.4c-3.152-0.996-6.89-2.441-8.88-3.84
		c-2.399-1.688-3.928-4.752-6.96-6.48C18.889,146.365,14.703,145.1,13.26,142.561z M18.541,148.801
		c-0.045-0.205,0.093-0.227,0.239-0.24c4.127,1.021,6.111,4.963,9.601,7.201c4.572,2.932,11.793,5.605,18.239,6.719
		c4.144,0.717,8.698-0.725,13.2,0.721c-0.153,0.887,0.31,2.391-0.24,2.879C42.303,174.234,26.66,159.543,18.541,148.801z
		 M59.58,168.48c-0.172,1.373,0.256,2.145,0.24,3.361c-6.642,4.922-14.288-1.131-19.68-3.842
		C44.753,170.354,53.729,170.797,59.58,168.48z"/>
</g>
</svg>
