<?xml version="1.0" encoding="iso-8859-1"?>
<!-- Generator: Adobe Illustrator 19.2.0, SVG Export Plug-In . SVG Version: 6.00 Build 0)  -->
<svg version="1.1" id="&#x421;&#x43B;&#x43E;&#x439;_1"
	 xmlns="http://www.w3.org/2000/svg" xmlns:xlink="http://www.w3.org/1999/xlink" x="0px" y="0px" viewBox="0 0 43.767 68.087"
	 style="enable-background:new 0 0 43.767 68.087;" xml:space="preserve">
<g>
	<path style="fill:#DCE3C3;" d="M31.222,30.762c-2.745,1.287-7.625,5.242-9.84,6.959c-0.063,2.223,0.019,4.301,0.239,6.24
		c3.977-2.584,7.887-5.232,12.24-7.44C32.874,35.309,32.996,29.93,31.222,30.762z"/>
	<path style="fill:#DCE3C3;" d="M22.102,27.403c2.47-0.904,4.986-3.805,8.16-4.801c-0.242-1.52-0.143-3.377-1.2-4.08
		C24.372,19.112,22.109,22.129,22.102,27.403z"/>
	<path style="fill:#DCE3C3;" d="M23.782,19.002c1.758,0.279,3.355-1.578,5.28-1.92c-0.081-1.92-0.581-3.42-1.44-4.561
		C24.616,13.342,23.785,16.178,23.782,19.002z"/>
	<path style="fill:#DCE3C3;" d="M27.621,11.323c-0.122-1.158,0.144-2.705-0.72-3.121c-0.413,1.348-1.288,2.232-1.439,3.84
		C26.513,12.133,26.696,11.356,27.621,11.323z"/>
	<path style="fill:#DCE3C3;" d="M22.342,52.602c4.771-3.389,10.389-5.932,15.6-8.881c-0.926-2.033-1.929-3.99-3.359-5.519
		C29.059,41.68,19.299,42.664,22.342,52.602z"/>
	<path style="fill:#DCE3C3;" d="M25.701,6.041c-1.983,0.328-5.945,2.945-3.119,5.519C23.815,9.914,24.948,8.168,25.701,6.041z"/>
	<path style="fill:#DCE3C3;" d="M22.822,54.762c-0.228,1.043,0.386,2.336,0.96,3.359c9.074,0.072,17.464-3.141,14.88-12.48
		C35.004,46.819,23.501,51.651,22.822,54.762z"/>
	<path style="fill:#DCE3C3;" d="M15.862,15.162c-1.484,2.434-3.122,4.717-4.08,7.68c2.119,1.254,4.005,3.977,6,4.561
		C18.53,22.7,20.691,16.948,15.862,15.162z"/>
	<path style="fill:#DCE3C3;" d="M3.621,52.602c-1.326,7.51,9.453,7.402,15.12,5.279c-0.354-1.084-0.429-2.449-0.96-3.359
		C13.432,52.981,8.091,53.885,3.621,52.602z"/>
	<path style="fill:#DCE3C3;" d="M16.102,38.201c-2.97-1.35-4.98-3.66-8.4-4.561c-0.83,1.891-1.994,3.445-2.64,5.521
		c3.986,1.773,7.49,4.029,11.28,6C16.072,43.032,16.068,40.635,16.102,38.201z"/>
	<path style="fill:#DCE3C3;" d="M16.342,36.041c2.525-6.24-1.407-9.174-5.28-11.52c-0.138,2.566-2.949,4.791-2.4,6.961
		C9.255,33.828,14.284,34.453,16.342,36.041z"/>
	<path style="fill:#DCE3C3;" d="M4.582,41.082c-1.192,2.443-2.145,5.734-1.681,9.119c3.774,1.746,9.351,1.689,14.4,2.16
		C17.179,44.485,9.665,43.998,4.582,41.082z"/>
	<path style="fill:#DCE3C3;" d="M31.942,29.082c-0.327-1.754-0.709-3.451-1.2-5.041c-4.714,2.166-9.836,3.924-9.359,11.281
		C24.603,33.895,28.029,30.614,31.942,29.082z"/>
	<path style="fill:#DCE3C3;" d="M20.422,17.323c2.211-3.791-0.583-10.014-3.12-4.08C18.948,13.996,18.855,16.489,20.422,17.323z"/>
	<path style="fill:#C0C36E;" d="M25.462,67.242c0.195-2.598-1.471-4.607-0.96-6.721c11.417,2.338,20.113-4.23,19.199-15.84
		c-0.364-4.631-3.756-7.066-5.76-10.08c-3.32-4.992-3.43-10.635-4.8-16.801c-1.434-6.449-2.534-12.56-2.88-17.76
		c-1.884-0.283-2.263,0.938-2.641,2.16C20,7.203,11.347,14.264,7.222,24.762c-0.794,2.02-1.165,4.672-2.16,7.199
		c-2.366,6.014-7.822,18.625-3.36,26.4c2.803,4.883,11.974,3.016,17.761,2.4C20.827,63.485,21.065,70.498,25.462,67.242z
		 M38.661,45.641c2.584,9.34-5.806,12.553-14.88,12.48c-0.574-1.023-1.188-2.316-0.96-3.359
		C23.501,51.651,35.004,46.819,38.661,45.641z M37.942,43.721c-5.211,2.949-10.828,5.492-15.6,8.881
		c-3.043-9.938,6.717-10.922,12.24-14.4C36.013,39.731,37.016,41.688,37.942,43.721z M33.862,36.522
		c-4.354,2.207-8.264,4.855-12.24,7.44c-0.221-1.94-0.302-4.018-0.239-6.24c2.215-1.717,7.095-5.672,9.84-6.959
		C32.996,29.93,32.874,35.309,33.862,36.522z M30.262,22.602c-3.174,0.996-5.69,3.896-8.16,4.801
		c0.007-5.274,2.271-8.291,6.96-8.881C30.119,19.225,30.02,21.082,30.262,22.602z M29.062,17.082
		c-1.925,0.342-3.522,2.199-5.28,1.92c0.004-2.824,0.835-5.66,3.84-6.481C28.481,13.662,28.981,15.162,29.062,17.082z
		 M27.621,11.323c-0.926,0.033-1.108,0.811-2.159,0.719c0.151-1.608,1.026-2.492,1.439-3.84
		C27.766,8.617,27.499,10.164,27.621,11.323z M25.701,6.041c-0.754,2.127-1.887,3.873-3.119,5.519
		C19.756,8.987,23.718,6.369,25.701,6.041z M30.741,24.041c0.491,1.59,0.873,3.287,1.2,5.041c-3.913,1.531-7.339,4.813-10.56,6.24
		C20.906,27.965,26.028,26.207,30.741,24.041z M20.422,17.323c-1.567-0.834-1.475-3.326-3.12-4.08
		C19.839,7.309,22.633,13.532,20.422,17.323z M11.062,24.522c3.873,2.346,7.806,5.279,5.28,11.52
		c-2.058-1.588-7.087-2.213-7.681-4.559C8.113,29.313,10.924,27.088,11.062,24.522z M7.701,33.641c3.42,0.9,5.431,3.211,8.4,4.561
		c-0.034,2.434-0.03,4.83,0.24,6.961c-3.79-1.971-7.294-4.227-11.28-6C5.707,37.086,6.871,35.532,7.701,33.641z M4.582,41.082
		c5.083,2.916,12.597,3.402,12.72,11.279c-5.05-0.471-10.626-0.414-14.4-2.16C2.437,46.817,3.39,43.526,4.582,41.082z M3.621,52.602
		c4.47,1.283,9.81,0.379,14.16,1.92c0.531,0.91,0.605,2.275,0.96,3.359C13.074,60.004,2.295,60.112,3.621,52.602z M17.782,27.403
		c-1.995-0.584-3.881-3.307-6-4.561c0.958-2.963,2.596-5.246,4.08-7.68C20.691,16.948,18.53,22.7,17.782,27.403z"/>
</g>
</svg>
