<?xml version="1.0" encoding="iso-8859-1"?>
<!-- Generator: Adobe Illustrator 19.2.0, SVG Export Plug-In . SVG Version: 6.00 Build 0)  -->
<svg version="1.1" id="&#x421;&#x43B;&#x43E;&#x439;_1"
	 xmlns="http://www.w3.org/2000/svg" xmlns:xlink="http://www.w3.org/1999/xlink" x="0px" y="0px" viewBox="0 0 71.958 137.909"
	 style="enable-background:new 0 0 71.958 137.909;" xml:space="preserve">
<g>
	<path style="fill:#B8C49C;" d="M7.498,38.641c-0.881,1.76-1.829,3.451-2.641,5.279c2.898,1.902,5.415,4.186,8.88,5.519
		C12.594,44.905,11.496,40.323,7.498,38.641z"/>
	<path style="fill:#B8C49C;" d="M51.418,27.6c1.976,0.07,4.453,0.639,5.76-0.479c-0.733-0.867-1.158-2.043-2.16-2.641
		C54.02,25.723,51.846,25.79,51.418,27.6z"/>
	<path style="fill:#B8C49C;" d="M55.498,48.241c3.032-1.469,8.177-3.857,8.399-7.439c0.164-2.631-2.612-5.863-3.84-8.16
		C58.803,38.106,55.089,41.112,55.498,48.241z"/>
	<path style="fill:#B8C49C;" d="M49.258,18.001c-0.553-0.967-1.026-2.014-2.16-2.4c-0.251,1.023,0.174,2.504-0.24,3.84
		C48.106,19.409,48.284,18.307,49.258,18.001z"/>
	<path style="fill:#B8C49C;" d="M37.498,19.202c0.096,2.016-0.08,3.76-0.24,5.52c5.768,0.959,9.38-3.576,7.92-9.84
		C43.396,17.098,39.791,17.495,37.498,19.202z"/>
	<path style="fill:#B8C49C;" d="M60.779,47.761c1.764,0.322,3.476,1.41,5.279,0.961c-0.074-2.166-0.619-3.861-1.2-5.52
		C63.321,44.403,61.205,46.239,60.779,47.761z"/>
	<path style="fill:#B8C49C;" d="M37.498,17.042c3.395-0.525,5.632-2.209,7.2-4.56c-1.833-4.5-4.83-1.684-7.2,0.48
		C37.498,14.321,37.498,15.681,37.498,17.042z"/>
	<path style="fill:#B8C49C;" d="M53.818,71.52c6.803,1.543,12.376-0.854,16.32-3.6c-0.196-2.924,0.017-6.256-1.68-7.68
		C62.493,62.759,55.101,65.12,53.818,71.52z"/>
	<path style="fill:#B8C49C;" d="M41.098,96.481c3.086-1.326,5.419-2.029,7.92-3.6c3.651-2.293,4.75-7.016,7.92-9.361
		c4.467-3.303,8.28-6.656,13.44-8.879c-0.208-1.152,0.479-3.201-0.48-3.6C59.847,79.069,45.708,83.013,41.098,96.481z"/>
	<path style="fill:#B8C49C;" d="M55.258,58.081c-3.192-0.166-6.877-2.631-9.12-1.68c-1.919,0.814-4.241,5.848-5.76,6.721
		c-1.412,0.811-2.773-0.166-3.36,1.92c-0.972,3.453,2.757,9.664,2.16,13.199c10.054,0.342,11.888-9.275,17.04-14.16
		c1.97-1.867,5.377-2.438,8.16-3.6c1.552-0.649,4.732-1.506,3.84-4.08C63.976,56.294,60.825,58.372,55.258,58.081z"/>
	<path style="fill:#B8C49C;" d="M58.378,48.722c-1.554,0.221-3.743,2.357-5.28,3.119c-2.068,1.025-3.993,1.672-5.28,3.121
		c6.141,1.938,13.575,2.234,19.681-0.721c0.018-1.457-0.771-2.109-0.72-3.6C63.384,51.057,61.081,48.339,58.378,48.722z"/>
	<path style="fill:#B8C49C;" d="M40.378,8.161c-1.238-1.002-2.001-2.478-3.36-3.359c-0.027,2.107-0.04,4.199,0.24,6
		C38.32,10.847,39.554,9.138,40.378,8.161z"/>
	<path style="fill:#B8C49C;" d="M33.659,33.122c-0.186-4.047,2.39-7.024,1.199-10.801c-0.93-2.951-6.036-4.83-6.72-7.92
		c-3.464,2.174-1.465,4.914-0.72,8.879C28.388,28.448,29.522,32.042,33.659,33.122z"/>
	<path style="fill:#B8C49C;" d="M26.699,28.081c-0.49-3.725-1.455-12.748-4.801-7.199C23.522,23.257,23.889,26.891,26.699,28.081z"
		/>
	<path style="fill:#B8C49C;" d="M19.738,36.241c-1.959-2.49-4.827-10.475-7.439-4.56C14.233,33.747,16.496,35.483,19.738,36.241z"/>
	<path style="fill:#B8C49C;" d="M35.098,19.921c1.241-5.064-1.327-6.732-4.319-8.641C28.114,14.231,32.443,18.516,35.098,19.921z"/>
	<path style="fill:#B8C49C;" d="M32.699,43.44c0.394-2.564,0.846-5.074,0.72-8.16c-4.629-3.93-10.553-6.566-12.481-13.199
		c-1.815,1.305-5.03,3.416-5.04,5.52c-0.006,1.375,3.388,5.863,4.801,7.441C24.339,39.104,28.279,41.716,32.699,43.44z"/>
	<path style="fill:#B8C49C;" d="M35.098,12.481c-0.302-2.018,0.616-5.256-0.479-6.48c-0.896,1.584-2.326,2.635-2.88,4.56
		C33.449,10.61,33.536,12.284,35.098,12.481z"/>
	<path style="fill:#B8C49C;" d="M35.818,52.802c4.421-1.463,4.952-6.191,7.2-9.6c3.838-5.82,11.176-8.135,15.36-13.922
		c-2.764,0.75-5.768-1.012-8.4-0.479c-0.38,0.076-5.272,3.482-6,4.08c-2.189,1.797-2.85,6.582-5.279,9.119
		c-1.105,1.154-2.079,1.184-2.4,1.92C35.124,46.608,36.08,50.673,35.818,52.802z"/>
	<path style="fill:#B8C49C;" d="M42.058,32.882c3.637-3.672,8.283-6.115,11.76-9.84c-1.054-1.346-1.841-2.959-3.359-3.84
		c-3.945,3.014-7.074,6.846-13.2,7.68c0.113,4.992-0.265,9.494-0.479,14.16C39.765,39.05,39.732,35.229,42.058,32.882z"/>
	<path style="fill:#B8C49C;" d="M70.138,76.321c-6.148,4.492-13.506,7.773-16.8,15.119c7.068-1.17,11.319-5.16,17.28-7.439
		C70.331,81.567,71.212,77.968,70.138,76.321z"/>
	<path style="fill:#B8C49C;" d="M53.338,49.921c-0.42-7.463,4.329-12.307,4.32-17.76c-0.08,0-0.16,0-0.24,0
		c-2.936,3.629-8.883,6.15-12.481,10.801c-1.595,2.061-2.102,5.35-3.84,7.68c-1.151,1.545-4.836,3.125-5.28,4.561
		c-0.845,2.734,0.999,5.49,0.961,7.68C43.299,59.561,45.621,52.044,53.338,49.921z"/>
	<path style="fill:#B8C49C;" d="M61.018,90.962c1.382,2.379,5.563,1.957,8.4,2.879c-0.185-0.904,0.293-1.146,0.24-1.92
		C66.421,91.056,63.977,88.358,61.018,90.962z"/>
	<path style="fill:#B8C49C;" d="M38.218,96.722c3.5-3.074,4.704-7.824,8.16-11.281c3.268-3.268,7.453-6.352,11.52-8.639
		c2.157-1.213,7.006-2.35,7.44-4.561c-4.43,2.869-7.641,0.219-12,0.961c-2.793,0.475-5.378,4.844-9.12,5.76
		c-2.416,0.592-3.477,0.199-4.8,1.439C39.618,86.286,37.64,91.257,38.218,96.722z"/>
	<path style="fill:#B8C49C;" d="M11.818,97.681c2.401,6.719,7.866,10.375,11.04,16.32c1.399,0.252,3.044,1.094,4.561,0.48
		c-2.917-5.162-3.999-12.162-7.441-16.801C18.415,99.71,13.623,98.886,11.818,97.681z"/>
	<path style="fill:#B8C49C;" d="M21.659,98.161c1.814,2.699,3.01,7.971,4.8,11.52c0.697,1.383,2.614,4.51,3.84,4.801
		c2.634,0.627,5.539-1.363,8.64,0.24C38.432,103.946,32.114,98.985,21.659,98.161z"/>
	<path style="fill:#B8C49C;" d="M27.898,97.681c3.31,0.291,5.304,1.896,7.44,3.361c-0.527-5.732,0.355-11.707,0.72-18.24
		c-6.303-2.258-9.844-8.557-14.64-11.521c0.753,1.51-0.722,3.742-0.72,5.521C20.705,84.261,30.91,88.052,27.898,97.681z"/>
	<path style="fill:#B8C49C;" d="M6.298,95.52c-0.082,1.203,0.562,1.68,0.48,2.881c1.636,0.363,2.234,1.766,4.079,1.92
		C10.511,97.69,8.765,95.237,6.298,95.52z"/>
	<path style="fill:#B8C49C;" d="M26.218,97.202c2.944-8.672-7.343-12.453-6.96-20.881c0.067-1.482,0.952-3.174,0.72-4.801
		c-0.857-6.023-8.586-6.113-13.199-7.68c3.616,4.102,6.187,10.4,5.76,17.76C18.111,85.788,17.305,96.354,26.218,97.202z"/>
	<path style="fill:#B8C49C;" d="M21.659,115.44c-2.532-1.467-5.43-2.57-8.16-3.84C14.52,115.016,19.043,119.911,21.659,115.44z"/>
	<path style="fill:#B8C49C;" d="M7.978,101.042c1.516,5.604,5.049,10.471,11.28,10.559C16.543,107.036,13.734,102.565,7.978,101.042
		z"/>
	<path style="fill:#B8C49C;" d="M20.699,118.561c1.707,3.697,5.623-0.426,7.199-1.92C25.074,115.843,22.344,116.522,20.699,118.561z
		"/>
	<path style="fill:#B8C49C;" d="M47.338,114.722c2.486,1.193,3.394,3.965,6,5.039c3.219-2.461,6.8-4.561,8.64-8.4
		C56.868,112.026,49.869,110.723,47.338,114.722z"/>
	<path style="fill:#B8C49C;" d="M55.498,109.921c3.137-0.66,5.525,0.742,7.68,0c2.982-1.027,3.903-7.352,4.32-9.6
		C62.74,102.763,57.998,105.222,55.498,109.921z"/>
	<path style="fill:#B8C49C;" d="M59.579,92.161c-3.959,2.627-5.537,6.111-8.16,10.561c-2.397,4.063-9.315,4.51-8.64,11.279
		c3.314-0.061,5.911-3.672,10.319-4.08c1.675-1.836,3.328-4.928,6.481-7.199c1.221-0.881,10.18-4.324,9.359-6.721
		C68.08,93.493,60.765,95.02,59.579,92.161z"/>
	<path style="fill:#B8C49C;" d="M16.619,52.802c1.283,1.756,5.927,4.094,8.16,5.039c2.971,1.258,6.066,1.947,8.88,3.361
		c-1.443-5.441,0.071-9.207-1.2-14.16c-0.844-3.287-6.446-4.705-9.601-6.961c-3.574-2.557-8.796-4.166-11.76-6.959
		c-0.794,1.285-1.956,2.203-2.399,3.84C14.048,39.917,13.245,48.182,16.619,52.802z"/>
	<path style="fill:#B8C49C;" d="M25.018,121.681c2.488,0.873,4.882,1.84,8.4,1.68c1.28-2.479,2.789-4.73,4.559-6.719
		C31.883,114.241,27.718,118.462,25.018,121.681z"/>
	<path style="fill:#B8C49C;" d="M43.739,116.161c0.353,2.047,1.341,3.459,1.68,5.52c1.876,0.629,3.975-0.252,5.519-0.719
		C49.189,118.903,47.083,115.073,43.739,116.161z"/>
	<path style="fill:#B8C49C;" d="M35.818,122.641c1.679-0.482,3.097-1.225,5.28-1.201C41.071,115.63,36.352,119.233,35.818,122.641z"
		/>
	<path style="fill:#B8C49C;" d="M66.058,88.561c0.75,0.93,2.059,1.301,3.84,1.199C72.167,85.278,67.304,86.155,66.058,88.561z"/>
	<path style="fill:#B8C49C;" d="M49.739,102.001c2.456-3.674,3.36-7.125,6-9.119c-3.302,0.973-15.977,4.945-16.801,8.16
		c-0.734,2.865,2.224,6.645,2.88,9.6C42.201,105.638,47.609,105.186,49.739,102.001z"/>
	<path style="fill:#B8C49C;" d="M23.579,58.802c1.544,2.258,1.997,4.914,3.359,7.199c1.24,2.08,3.93,3.033,5.28,5.279
		c1.497,2.492,0.695,5.371,3.6,6.961c-1.367-5.045,0.107-10.422-1.92-14.16C32.016,60.61,27.152,60.7,23.579,58.802z"/>
	<path style="fill:#B8C49C;" d="M18.779,94.561c-4.02-9.021-10.186-15.895-16.801-22.32c0.073,4.504,0.243,8.561,2.16,11.279
		c0.854,1.213,2.715,1.75,3.84,2.641C11.495,88.944,14.989,93.399,18.779,94.561z"/>
	<path style="fill:#B8C49C;" d="M18.058,96.962c-4.814-3.105-8.057-7.785-13.439-10.32c-0.035,2.195,0.517,3.803,0.72,5.76
		C9.975,93.37,12.53,97.682,18.058,96.962z"/>
	<path style="fill:#B8C49C;" d="M20.218,56.641c-5.513-3.447-9.774-8.146-15.84-11.041c-0.874,1.846-1.666,3.775-1.92,6.24
		C6.972,54.487,13.709,59.075,20.218,56.641z"/>
	<path style="fill:#B8C49C;" d="M16.858,64.802c7.267,3.252,10.476,12.838,17.28,14.4c-2.618-1.262-2.279-5.352-3.84-7.682
		c-1.068-1.596-3.161-2.424-4.32-4.08c-1.501-2.143-3.171-8.564-5.519-9.119c-0.894-0.211-2.273,0.621-3.12,0.721
		c-5.848,0.676-9.716-3.551-15.601-5.041c-0.703,2.01,0.819,3.889,1.681,4.801C6.965,62.557,12.118,62.679,16.858,64.802z"/>
	<path style="fill:#B8C49C;" d="M5.818,72.722c-0.703-3.377-2.049-6.111-4.08-8.16C1.063,68.22,2.992,72.565,5.818,72.722z"/>
	<path style="fill:#B8C49C;" d="M10.619,79.202c1.036-8.986-4.66-13.6-8.4-19.201c-0.24,0-0.48,0-0.72,0
		c0.861,2.83,2.816,5.336,4.08,7.92C7.663,72.186,6.911,77.294,10.619,79.202z"/>
	<path style="fill:#64764B;" d="M24.539,123.6c2.068,0.863,5.564,2.223,8.16,2.16c3.157-0.076,5.061-2.865,9.119-2.16
		c1.115,4.086,1.135,9.266,1.44,14.16c0.886,0.314,3.089,0.115,3.84-0.479c0.414-4.654-1.104-9.295-0.96-13.441
		c23.479-4.09,26.607-29.785,25.68-55.199c-0.056-1.545-0.262-3.479-0.479-5.041c-1.482-10.639-4.978-21.74-8.88-30
		c-4.154-8.791-10.273-15.82-16.32-22.559c-1.914-2.135-4.521-3.916-6.479-6.24c-1.269-1.506-2.402-4.861-3.841-4.801
		C27.029,20.28-0.584,30.503,0.058,62.161c0.097,4.744-0.487,11.689,0.721,17.041c0.338,1.498,1.304,2.883,1.68,4.318
		c1.634,6.238,1.525,12.33,3.6,17.76C9.525,110.356,15.614,119.884,24.539,123.6z M6.298,95.52c2.467-0.283,4.213,2.17,4.56,4.801
		c-1.845-0.154-2.443-1.557-4.079-1.92C6.86,97.2,6.216,96.723,6.298,95.52z M7.978,101.042c5.756,1.523,8.566,5.994,11.28,10.559
		C13.027,111.513,9.494,106.645,7.978,101.042z M6.779,63.841c4.613,1.566,12.342,1.656,13.199,7.68
		c0.233,1.627-0.652,3.318-0.72,4.801c-0.383,8.428,9.904,12.209,6.96,20.881c-8.913-0.848-8.108-11.414-13.68-15.602
		C12.966,74.241,10.395,67.942,6.779,63.841z M21.418,71.28c4.796,2.965,8.337,9.264,14.64,11.521
		c-0.364,6.533-1.247,12.508-0.72,18.24c-2.137-1.465-4.131-3.07-7.44-3.361c3.012-9.629-7.193-13.42-7.199-20.879
		C20.697,75.022,22.171,72.79,21.418,71.28z M32.218,71.28c-1.351-2.246-4.04-3.199-5.28-5.279
		c-1.362-2.285-1.815-4.941-3.359-7.199c3.573,1.898,8.438,1.809,10.319,5.279c2.027,3.738,0.553,9.115,1.92,14.16
		C32.914,76.651,33.715,73.772,32.218,71.28z M39.418,80.401c1.323-1.24,2.384-0.848,4.8-1.439c3.742-0.916,6.327-5.285,9.12-5.76
		c4.359-0.742,7.57,1.908,12-0.961c-0.435,2.211-5.283,3.348-7.44,4.561c-4.066,2.287-8.252,5.371-11.52,8.639
		c-3.456,3.457-4.66,8.207-8.16,11.281C37.64,91.257,39.618,86.286,39.418,80.401z M38.938,114.722
		c-3.101-1.604-6.006,0.387-8.64-0.24c-1.226-0.291-3.142-3.418-3.84-4.801c-1.79-3.549-2.985-8.82-4.8-11.52
		C32.114,98.985,38.432,103.946,38.938,114.722z M19.978,97.681c3.441,4.639,4.524,11.639,7.441,16.801
		c-1.517,0.613-3.161-0.229-4.561-0.48c-3.174-5.945-8.639-9.602-11.04-16.32C13.623,98.886,18.415,99.71,19.978,97.681z
		 M13.498,111.6c2.73,1.27,5.628,2.373,8.16,3.84C19.043,119.911,14.52,115.016,13.498,111.6z M20.699,118.561
		c1.646-2.039,4.375-2.719,7.199-1.92C26.322,118.136,22.406,122.259,20.699,118.561z M25.018,121.681
		c2.7-3.219,6.865-7.439,12.96-5.039c-1.77,1.988-3.279,4.24-4.559,6.719C29.9,123.52,27.506,122.554,25.018,121.681z
		 M35.818,122.641c0.534-3.408,5.253-7.012,5.28-1.201C38.915,121.417,37.497,122.159,35.818,122.641z M38.938,101.042
		c0.824-3.215,13.499-7.188,16.801-8.16c-2.64,1.994-3.544,5.445-6,9.119c-2.13,3.186-7.538,3.637-7.921,8.641
		C41.162,107.686,38.204,103.907,38.938,101.042z M45.418,121.681c-0.339-2.061-1.327-3.473-1.68-5.52
		c3.345-1.088,5.45,2.742,7.199,4.801C49.394,121.429,47.294,122.309,45.418,121.681z M53.338,119.761
		c-2.606-1.074-3.514-3.846-6-5.039c2.53-3.998,9.529-2.695,14.64-3.361C60.138,115.2,56.557,117.3,53.338,119.761z M63.178,109.921
		c-2.154,0.742-4.543-0.66-7.68,0c2.5-4.699,7.241-7.158,12-9.6C67.081,102.569,66.161,108.893,63.178,109.921z M59.579,102.722
		c-3.152,2.271-4.806,5.363-6.481,7.199c-4.408,0.408-7.005,4.02-10.319,4.08c-0.675-6.77,6.243-7.217,8.64-11.279
		c2.623-4.449,4.201-7.934,8.16-10.561c1.186,2.859,8.501,1.332,9.359,3.84C69.758,98.397,60.799,101.841,59.579,102.722z
		 M69.418,93.841c-2.837-0.922-7.019-0.5-8.4-2.879c2.959-2.604,5.403,0.094,8.641,0.959C69.711,92.694,69.234,92.936,69.418,93.841
		z M69.898,89.761c-1.781,0.101-3.09-0.27-3.84-1.199C67.304,86.155,72.167,85.278,69.898,89.761z M70.619,84.001
		c-5.961,2.279-10.212,6.27-17.28,7.439c3.294-7.346,10.652-10.627,16.8-15.119C71.212,77.968,70.331,81.567,70.619,84.001z
		 M70.378,74.641c-5.16,2.223-8.974,5.576-13.44,8.879c-3.17,2.346-4.269,7.068-7.92,9.361c-2.501,1.57-4.834,2.274-7.92,3.6
		c4.61-13.469,18.749-17.412,28.8-25.439C70.858,71.44,70.17,73.489,70.378,74.641z M70.138,67.921
		c-3.944,2.746-9.518,5.143-16.32,3.6c1.283-6.4,8.675-8.762,14.641-11.279C70.155,61.665,69.942,64.997,70.138,67.921z
		 M64.378,60.481c-2.783,1.162-6.19,1.732-8.16,3.6c-5.152,4.885-6.986,14.502-17.04,14.16c0.597-3.535-3.132-9.746-2.16-13.199
		c0.587-2.086,1.948-1.109,3.36-1.92c1.519-0.873,3.841-5.906,5.76-6.721c2.243-0.951,5.928,1.514,9.12,1.68
		c5.566,0.291,8.718-1.787,12.96-1.68C69.111,58.975,65.93,59.833,64.378,60.481z M66.779,50.641c-0.051,1.49,0.737,2.143,0.72,3.6
		c-6.105,2.955-13.54,2.658-19.681,0.721c1.287-1.449,3.212-2.096,5.28-3.121c1.537-0.762,3.727-2.898,5.28-3.119
		C61.081,48.339,63.384,51.057,66.779,50.641z M66.058,48.722c-1.804,0.449-3.516-0.639-5.279-0.961
		c0.426-1.521,2.542-3.357,4.079-4.559C65.439,44.86,65.984,46.556,66.058,48.722z M63.898,40.802
		c-0.223,3.582-5.367,5.971-8.399,7.439c-0.409-7.129,3.305-10.135,4.56-15.6C61.286,34.938,64.062,38.171,63.898,40.802z
		 M57.178,27.122c-1.307,1.117-3.783,0.549-5.76,0.479c0.428-1.811,2.601-1.877,3.6-3.119C56.02,25.079,56.445,26.255,57.178,27.122
		z M47.098,15.6c1.134,0.387,1.608,1.434,2.16,2.4c-0.975,0.307-1.152,1.408-2.4,1.439C47.272,18.104,46.847,16.624,47.098,15.6z
		 M37.258,24.722c0.16-1.76,0.336-3.504,0.24-5.52c2.293-1.707,5.897-2.104,7.68-4.32C46.638,21.145,43.026,25.681,37.258,24.722z
		 M44.699,12.481c-1.568,2.352-3.805,4.035-7.2,4.56c0-1.361,0-2.721,0-4.08C39.869,10.798,42.866,7.981,44.699,12.481z
		 M37.018,4.802c1.359,0.881,2.122,2.357,3.36,3.359c-0.824,0.977-2.059,2.686-3.12,2.641C36.978,9.001,36.991,6.909,37.018,4.802z
		 M37.258,26.882c6.126-0.834,9.255-4.666,13.2-7.68c1.519,0.881,2.306,2.494,3.359,3.84c-3.477,3.725-8.123,6.168-11.76,9.84
		c-2.326,2.348-2.293,6.168-5.279,8.16C36.994,36.376,37.372,31.874,37.258,26.882z M36.298,43.921
		c0.321-0.736,1.295-0.766,2.4-1.92c2.43-2.537,3.09-7.322,5.279-9.119c0.728-0.598,5.62-4.004,6-4.08
		c2.632-0.533,5.637,1.229,8.4,0.479c-4.184,5.787-11.522,8.102-15.36,13.922c-2.248,3.408-2.779,8.137-7.2,9.6
		C36.08,50.673,35.124,46.608,36.298,43.921z M35.818,55.202c0.444-1.436,4.129-3.016,5.28-4.561c1.737-2.33,2.245-5.619,3.84-7.68
		c3.598-4.65,9.545-7.172,12.481-10.801c0.08,0,0.16,0,0.24,0c0.009,5.453-4.74,10.297-4.32,17.76
		c-7.718,2.123-10.039,9.641-16.56,12.961C36.817,60.692,34.973,57.936,35.818,55.202z M34.619,6.001
		c1.096,1.225,0.178,4.463,0.479,6.48c-1.563-0.197-1.649-1.871-3.359-1.92C32.292,8.636,33.723,7.585,34.619,6.001z M30.779,11.28
		c2.992,1.908,5.561,3.576,4.319,8.641C32.443,18.516,28.114,14.231,30.779,11.28z M28.138,14.401c0.684,3.09,5.79,4.969,6.72,7.92
		c1.19,3.777-1.385,6.754-1.199,10.801c-4.137-1.08-5.27-4.674-6.24-9.842C26.673,19.315,24.674,16.575,28.138,14.401z
		 M26.699,28.081c-2.81-1.189-3.177-4.824-4.801-7.199C25.244,15.333,26.208,24.356,26.699,28.081z M20.938,22.081
		c1.928,6.633,7.852,9.27,12.481,13.199c0.126,3.086-0.326,5.596-0.72,8.16c-4.42-1.725-8.359-4.336-12-8.398
		c-1.413-1.578-4.807-6.066-4.801-7.441C15.908,25.497,19.123,23.386,20.938,22.081z M19.738,36.241
		c-3.242-0.758-5.505-2.494-7.439-4.56C14.911,25.766,17.779,33.751,19.738,36.241z M11.098,33.122
		c2.964,2.793,8.186,4.402,11.76,6.959c3.154,2.256,8.757,3.674,9.601,6.961c1.271,4.953-0.243,8.719,1.2,14.16
		c-2.813-1.414-5.909-2.104-8.88-3.361c-2.233-0.945-6.877-3.283-8.16-5.039c-3.374-4.619-2.57-12.885-7.92-15.84
		C9.142,35.325,10.304,34.407,11.098,33.122z M7.498,38.641c3.997,1.682,5.096,6.264,6.239,10.799
		c-3.465-1.334-5.981-3.617-8.88-5.519C5.669,42.093,6.618,40.401,7.498,38.641z M4.378,45.6c6.065,2.895,10.327,7.594,15.84,11.041
		c-6.509,2.434-13.246-2.154-17.76-4.801C2.712,49.376,3.504,47.446,4.378,45.6z M1.738,54.001c5.885,1.49,9.753,5.717,15.601,5.041
		c0.847-0.1,2.226-0.932,3.12-0.721c2.349,0.555,4.019,6.977,5.519,9.119c1.159,1.656,3.252,2.484,4.32,4.08
		c1.561,2.33,1.222,6.42,3.84,7.682c-6.805-1.563-10.014-11.148-17.28-14.4c-4.74-2.123-9.893-2.244-13.439-6
		C2.557,57.89,1.035,56.011,1.738,54.001z M2.218,60.001c3.74,5.602,9.436,10.215,8.4,19.201c-3.708-1.908-2.956-7.016-5.04-11.281
		c-1.264-2.584-3.219-5.09-4.08-7.92C1.738,60.001,1.978,60.001,2.218,60.001z M1.738,64.561c2.031,2.049,3.377,4.783,4.08,8.16
		C2.992,72.565,1.063,68.22,1.738,64.561z M4.138,83.52c-1.917-2.719-2.087-6.775-2.16-11.279
		c6.614,6.426,12.78,13.299,16.801,22.32c-3.79-1.162-7.284-5.617-10.801-8.4C6.853,85.27,4.993,84.733,4.138,83.52z M4.619,86.641
		c5.383,2.535,8.625,7.215,13.439,10.32c-5.528,0.721-8.083-3.592-12.72-4.561C5.136,90.444,4.583,88.837,4.619,86.641z"/>
</g>
</svg>
