<?xml version="1.0" encoding="iso-8859-1"?>
<!-- Generator: Adobe Illustrator 19.2.0, SVG Export Plug-In . SVG Version: 6.00 Build 0)  -->
<svg version="1.1" id="&#x421;&#x43B;&#x43E;&#x439;_1"
	 xmlns="http://www.w3.org/2000/svg" xmlns:xlink="http://www.w3.org/1999/xlink" x="0px" y="0px" viewBox="0 0 72.27 251.861"
	 style="enable-background:new 0 0 72.27 251.861;" xml:space="preserve">
<path style="fill:#FFFFFF;" d="M346.261,0"/>
<path style="fill:#FFFFFF;" d="M-653.739,0"/>
<path style="fill:#AFCE67;" d="M23.008,92.261c3.08-3.585,8.196-7.721,6-13.201c-0.08,0-0.16,0-0.24,0
	c-6.092,5.269-10.823,11.898-17.521,16.561c0.146,2.866-0.97,4.47-1.199,6.96C13.213,99.466,19.366,96.497,23.008,92.261z"/>
<path style="fill:#AFCE67;" d="M28.768,63.22c0.023-2.137,0.226-4.094,0.479-6c-3.324,0.379-7.126,1.631-9.84,3.84
	c-4.987,4.062-10.891,7.686-9.359,17.76C15.341,73.634,21.221,66.955,28.768,63.22z"/>
<path style="fill:#AFCE67;" d="M16.768,73.54c-3.13,2.959-7.424,7.557-6,12c5.061-1.914,7.994-5.559,11.52-9.6
	c2.79-3.199,7.267-6.574,6.24-10.801C26.028,66.511,20.246,70.252,16.768,73.54z"/>
<path style="fill:#AFCE67;" d="M30.207,92.98c-0.219-2.1,0.56-5.199-0.72-6.239c-2.755,2.896-5.251,6.565-9.12,9.6
	c-6.264,4.912-12.975,8.231-12.479,18.479C16.897,109.111,22.527,100.021,30.207,92.98z"/>
<path style="fill:#AFCE67;" d="M26.367,105.701c3.282-2.957,6.27-4.873,4.32-10.801c-0.16,0-0.32,0-0.48,0
	c-4.793,4.664-10.729,12.783-16.8,17.761c-3.098,2.54-7.136,3.681-6.72,8.159C13.174,116.365,20.142,111.309,26.367,105.701z"/>
<path style="fill:#AFCE67;" d="M28.527,70.9c-3.361,2.863-6.009,8.119-10.08,11.521c-3.164,2.644-9.667,4.311-6.96,10.8
	c6.898-4.541,11.056-11.824,17.76-16.56C28.615,75.132,29.492,72.095,28.527,70.9z"/>
<path style="fill:#AFCE67;" d="M26.127,30.82c-0.994,1.486-2.445,2.516-2.88,4.561c3.835-0.074,5.9,1.619,8.16,3.12
	C33.566,33.954,28.603,32.821,26.127,30.82z"/>
<path style="fill:#AFCE67;" d="M30.928,42.34c-0.105-3.612-4.669-5.747-9.12-5.04c-1.254,2.588-3.532,5.427-3.84,8.16
	C20.09,42.371,26.693,41.054,30.928,42.34z"/>
<path style="fill:#AFCE67;" d="M30.928,103.54c-3.424,3.185-7.42,7.149-12.24,10.561c-6.02,4.26-13.429,7.076-13.44,16.56
	c7.798-5.607,16.999-13.84,24.721-20.16C31.825,108.98,32.214,106.08,30.928,103.54z"/>
<path style="fill:#AFCE67;" d="M29.728,50.74c-10.039,0.301-16.842,5.865-18.48,15.361c5.94-3.58,9.201-9.84,18-10.561
	C29.881,54.414,29.716,52.489,29.728,50.74z"/>
<path style="fill:#AFCE67;" d="M24.688,122.98c3.181-2.683,9.171-6.09,6.96-12c-4.139,3.013-8.292,6.473-12.72,10.801
	c-5.723,5.594-14.103,7.438-14.4,17.279C9.486,133.51,18.154,128.492,24.688,122.98z"/>
<path style="fill:#AFCE67;" d="M24.928,138.82c3.597-2.908,9.096-5.366,6.479-11.519c-2.442,1.871-5.385,4.896-9.359,8.16
	c-8.063,6.62-20.963,13.301-18,27.12c3.107-7.047,8.604-11.509,14.159-17.52C19.99,143.132,22.437,140.835,24.928,138.82z"/>
<path style="fill:#AFCE67;" d="M24.447,131.621c1.743-1.563,6.44-4.859,7.2-6.96c0.552-1.526-0.329-3.709,0.24-5.28
	c-0.307-0.014-0.333-0.308-0.721-0.24c-5.188,5.063-14.168,10.965-20.64,16.08c-4.714,3.727-7.308,9.08-7.44,17.041
	C7.003,142.828,16.943,138.345,24.447,131.621z"/>
<path style="fill:#AFCE67;" d="M29.968,49.06c0.184-1.496,0.523-2.836,0.479-4.56c-8.379-3.724-15.278,3.883-16.559,11.76
	C17.912,53.485,21.377,48.07,29.968,49.06z"/>
<path style="fill:#AFCE67;" d="M37.407,154.42c-2.977,9.339,6.312,11.865,11.28,15.601c2.734,2.055,4.778,6.646,6.96,9.6
	c2.633,3.564,4.242,6.893,6.24,10.561c1.057-1.029,2.079-2.104,2.16-3.601c0.28-5.193-4.594-13.259-7.681-17.28
	C51.453,162.9,42.03,160.089,37.407,154.42z"/>
<path style="fill:#AFCE67;" d="M32.848,143.38c-0.028-2.932-0.296-5.625-0.721-8.16c-0.159,0-0.319,0-0.479,0
	c-3.084,2.573-7.199,5.598-11.04,9.6c-3.187,3.322-7.043,6.423-9.6,9.601c-3.178,3.948-7.583,10.297-5.521,15.841
	c2.75-2.666,2.804-6.52,4.8-9.361C15.83,153.015,25.637,149.575,32.848,143.38z"/>
<path style="fill:#AFCE67;" d="M38.127,26.26c-0.311-1.368-0.244-3.116-1.199-3.84c-1.795,0.445-2.405,2.075-2.16,4.56
	C35.956,26.81,36.989,26.482,38.127,26.26z"/>
<path style="fill:#AFCE67;" d="M58.287,151.3c-1.695-1.652-2.626-3.408-4.319-4.8c-4.663-3.833-13.363-5.476-18.24-9.36
	c0.009,3.641,1.507,5.341,3.84,7.2c9.878,7.873,21.03,13.403,27.36,24C68.351,159.773,62.35,155.261,58.287,151.3z"/>
<path style="fill:#AFCE67;" d="M62.367,132.82c-5.305-3.287-14.883-5.864-20.88-8.879c-2.259-1.137-4.542-3.818-6.72-3.84
	c0,1.52,0,3.039,0,4.56c4.347,2.813,9.298,5.196,14.399,8.4c6.656,4.18,15.122,5.267,17.761,12.48
	C68.361,139.351,66.469,135.363,62.367,132.82z"/>
<path style="fill:#AFCE67;" d="M55.407,106.661c-8.432-1.368-15.167-7.093-20.64-11.28c-0.051-0.29-0.267-0.147-0.48,0
	c-0.905,7.244,5.159,11.043,11.761,13.439c7.998,2.904,16.631,3.305,21.359,8.4c0.301-2.1,0.768-4.033,0.72-6.479
	c-2.425-0.478-4.326-2.903-6.72-3.601C59.424,106.562,57.302,106.968,55.407,106.661z"/>
<path style="fill:#AFCE67;" d="M46.768,93.941c-4.873-2.957-8.928-7.878-13.681-9.601c-0.515,2.698,0.877,5.507,0.721,8.64
	c4.249,0.8,5.715,4.564,8.399,6.48c3.727,2.659,8.907,4.703,13.2,5.52c2.167,0.412,4.676-0.092,7.2,0.721
	c1.852,0.596,3.559,3.188,6,3.119c0.182-1.817,0.324-3.676,0.24-5.76C62.663,97.552,53.807,98.212,46.768,93.941z"/>
<path style="fill:#AFCE67;" d="M69.087,96.82C57.179,90.569,46.48,81.828,32.848,78.101c-0.307,1.077-0.252,2.293,0,3.84
	C39.79,84.867,44.861,92.153,52.287,94.9c5.637,2.086,11.527,2.535,16.561,6C69.352,99.965,68.968,98.14,69.087,96.82z"/>
<path style="fill:#AFCE67;" d="M52.048,189.22c-3.476-4.648-9.055-9.001-11.52-12.959c-0.115,13.795,10.381,16.979,14.88,26.159
	c3.959-2.124,1.494-4.6,0-6.96C54.252,193.635,53.132,190.671,52.048,189.22z"/>
<path style="fill:#AFCE67;" d="M54.207,156.34c-5.681-4.864-13.467-8.291-17.52-12.239c-0.572,7.21,2.883,10.461,6.96,13.68
	c3.783,2.986,8.999,5.424,12.24,8.4c5.541,5.086,6.231,10.652,9.359,17.76c4.052-10.33-0.619-15.881-5.519-21.121
	C57.692,160.645,56.026,157.898,54.207,156.34z"/>
<path style="fill:#AFCE67;" d="M33.327,151.06c-0.196-1.963,0.519-4.838-0.72-5.76c-3.939,3.9-10.424,6.385-15.6,10.561
	c-4.839,3.903-6.679,9.646-9.12,14.88c-1.193,2.556-1.852,3.942,0,6.72C13.605,165.899,23.572,158.585,33.327,151.06z"/>
<path style="fill:#AFCE67;" d="M37.888,165.22c0.021,6.732,3.69,9.002,6.72,12.961c2.782,3.635,5.522,6.217,8.16,9.6
	c2.402,3.08,3.246,6.689,6.24,9.359c3.717-4.566-0.063-9.955-3.36-14.64C50.872,175.716,45.786,168.07,37.888,165.22z"/>
<path style="fill:#AFCE67;" d="M56.848,72.581c-6.984-4.36-14.101-12.402-23.761-8.399c0.323,1.889,0.025,3.009,0,5.039
	c15.675,2.566,23.146,13.336,34.801,19.92c-1.028-2.992-0.477-6.986-1.92-10.08C64.843,76.652,59.81,74.43,56.848,72.581z"/>
<path style="fill:#AFCE67;" d="M35.487,28.42c-0.738,1.512-0.539,2.831-0.72,4.56c1.339-0.139,3.963-0.969,5.76-1.439
	c-0.325-1.275-1.204-1.996-1.68-3.12C37.553,28.361,36.661,27.996,35.487,28.42z"/>
<path style="fill:#AFCE67;" d="M29.487,26.021c-0.436,1.404-1.696,1.982-2.16,3.359c1.87,1.01,2.996,2.764,5.28,3.359
	C33.444,29.475,31.485,27.222,29.487,26.021z"/>
<path style="fill:#AFCE67;" d="M32.607,19.3c1.661,0.791,1.522,3.328,3.84,1.68C35.195,15.369,33.937,7.431,32.112,0h-1.944
	C32.253,5.457,33.409,11.7,32.607,19.3z"/>
<path style="fill:#AFCE67;" d="M43.407,37.06c-0.27-1.649-1.518-2.322-1.92-3.84c-2.802,0.078-4.677,1.084-6.72,1.92
	c-0.287,0.674-0.265,1.656-0.24,2.641C36.764,37.195,40.204,36.411,43.407,37.06z"/>
<path style="fill:#AFCE67;" d="M32.848,26.26c0.449-1.419,0.399-3.957-0.721-4.56C30.952,23.208,30.435,25.75,32.848,26.26z"/>
<path style="fill:#AFCE67;" d="M33.087,62.021c11.886-3.09,17.607,5.246,25.44,9.84c2.319,1.359,4.623,2.303,6.481,3.84
	c-0.956-2.164-1.464-4.777-2.16-7.2c-5.971-2.87-13.114-12.327-21.601-13.44C36.464,54.433,31.265,57.398,33.087,62.021z"/>
<path style="fill:#AFCE67;" d="M41.247,187.3c-1.218,11.531,4.54,17.322,10.32,22.561c2.309-2.924,3.697-5.18,1.441-8.641
	C50.051,196.687,43.861,191.318,41.247,187.3z"/>
<path style="fill:#AFCE67;" d="M61.407,65.14c-0.566-1.012-1.055-3.692-2.16-5.039c-1.538-1.877-8.394-7.497-10.559-8.641
	c-4.779-2.523-17.717-4.751-14.88,4.08C45.683,50.121,53.618,61.101,61.407,65.14z"/>
<path style="fill:#AFCE67;" d="M56.127,55.06c-1.486-3.152-3.678-5.602-5.279-8.64c-5.482-2.093-15.493-6.521-16.8,2.399
	C42.451,45.07,52.09,51.65,56.127,55.06z"/>
<path style="fill:#AFCE67;" d="M34.287,44.26c3.763-4.395,10.19-2.091,14.88,0c-1.154-5.564-10.023-7.745-14.88-4.079
	C34.594,41.759,33.72,43.193,34.287,44.26z"/>
<path style="fill:#AFCE67;" d="M61.407,86.741c-8.621-5.911-16.804-14.364-28.32-15.601c-0.368,1.312-0.212,3.148-0.239,4.801
	C46.946,80.242,56.451,89.136,69.087,94.9C69.531,90.624,64.484,88.851,61.407,86.741z"/>
<path style="fill:#AFCE67;" d="M27.567,187.3c3.283-1.582,7.912-2.392,10.8-4.08c0.383-4-1.137-7.268-2.399-10.32
	c-4.267,4.53-14.906,10.193-18.96,16.08c-1.858,2.699-4.216,7.131-2.16,10.08C19.751,195.162,21.966,189.999,27.567,187.3z"/>
<path style="fill:#AFCE67;" d="M39.087,137.621c4.453,2.823,10.572,3.82,15.12,6.96c5.299,3.658,7.934,8.762,12.24,12.48
	c0.456-6.77-0.316-11.201-3.6-14.879c-2.953-3.309-9.231-4.715-14.16-7.681c-4.69-2.822-9.497-4.882-12.72-7.2
	c-0.24,0-0.48,0-0.721,0C34.891,132.275,36.11,135.734,39.087,137.621z"/>
<path style="fill:#AFCE67;" d="M38.607,192.581c-0.203,0.075-0.525-0.095-0.72,0c-6.39,3.095-21.894,10.665-18.24,18.48
	c5.322-4.518,9.496-10.184,18.24-11.279C38.523,197.777,38.605,195.218,38.607,192.581z"/>
<path style="fill:#AFCE67;" d="M37.407,206.501c0.045-1.607,0.737-3.4,0.24-4.8c-5.382,0.373-10.143,3.842-13.2,6.72
	c-2.947,2.775-5.032,5.499-1.92,8.399C26.144,212.037,30.611,208.104,37.407,206.501z"/>
<path style="fill:#AFCE67;" d="M27.327,220.181c4.029-3.534,12.214-3.954,9.36-12c-3.653,1.012-13.26,7.113-13.441,10.56
	c-0.028,0.54,1.115,3.763,1.92,3.84C25.962,222.656,26.8,220.644,27.327,220.181z"/>
<path style="fill:#AFCE67;" d="M23.008,172.181c2.892-2.344,10.267-5.643,11.279-8.881c0.827-2.644-0.452-7.328-1.2-10.32
	c-7.51,5.982-16.38,12.717-21.119,21.121c-2.393,4.24-4.58,7.609-1.2,12.479C13.147,180.224,17.476,176.662,23.008,172.181z"/>
<path style="fill:#AFCE67;" d="M67.167,134.501c-0.376-1.726,0.186-3.925-0.479-5.521c-0.925-2.219-5.998-6.212-8.64-7.439
	c-7.26-3.372-18.257-4.824-23.04-10.08c-0.536,1.704-0.099,4.383-0.24,6.48C44.571,124.456,57.707,127.64,67.167,134.501z"/>
<path style="fill:#AFCE67;" d="M59.247,114.101c-3.823-1.617-7.795-1.771-11.76-2.881c-5.424-1.518-9.651-5.102-12.96-7.439
	c-0.695,4.993,2.649,7.926,5.76,9.6c6.591,3.548,18.581,5.814,23.761,10.32c1.098,0.955,0.798,2.396,2.88,2.4
	C68.865,118.909,64.364,116.263,59.247,114.101z"/>
<path style="fill:#AFCE67;" d="M28.527,176.741c3.629-2.571,9.856-5.64,5.76-11.04c-5.33,5.303-17.108,10.432-20.88,18
	c-1.391,2.791-2.476,6.98-0.72,9.359C16.254,186.816,22.455,181.044,28.527,176.741z"/>
<path style="fill:#AFCE67;" d="M29.008,233.38c-0.077,0.557,0.038,0.922,0.239,1.2c1.144-0.175,1.944-1.296,3.12-0.72
	c0.43-0.691,0.334-1.906,0.72-2.641C31.393,230.694,30.854,233.271,29.008,233.38z"/>
<path style="fill:#AFCE67;" d="M35.487,229.781c-0.48,1.199-0.77,2.59-0.96,4.08c0.756,0.284,0.68,1.4,1.68,1.439
	c0.567-0.872,1.177-1.703,1.92-2.4C37.351,231.757,36.68,230.509,35.487,229.781z"/>
<path style="fill:#AFCE67;" d="M39.087,230.98c0.608-1.867,2.96-2.996,2.881-4.799c-0.042-0.941-3.987-5.748-4.32-6.48
	C37.374,224.51,34.714,228.845,39.087,230.98z"/>
<path style="fill:#AFCE67;" d="M35.247,222.101c0.003-1.758,0.327-3.193,0.721-4.561c-2.812,0.858-10.131,3.871-10.32,7.2
	c-0.236,4.146,2.926,0.919,4.08,0C31.368,223.433,33.326,222.705,35.247,222.101z"/>
<path style="fill:#AFCE67;" d="M45.567,219.46c4.111-4.74-3.803-8.804-5.76-12.72C39.038,212.792,42.436,216.533,45.567,219.46z"/>
<path style="fill:#AFCE67;" d="M42.447,224.261c1.378-0.383,1.623-1.898,2.16-3.121c-2.286-2.273-4.151-4.969-6-7.68
	C38.018,218.138,40.633,221.236,42.447,224.261z"/>
<path style="fill:#AFCE67;" d="M34.048,235.781c-0.1,1.098-1.43,2.988-0.481,3.6c0.405-0.954,1.132-1.588,1.441-2.64
	C34.79,236.318,34.471,235.998,34.048,235.781z"/>
<path style="fill:#AFCE67;" d="M48.447,214.661c1.067-0.533,1.316-1.886,1.92-2.88c-2.88-4.4-7.152-7.408-9.6-12.24
	C39.93,207.093,45.175,210.437,48.447,214.661z"/>
<path style="fill:#AFCE67;" d="M30.447,239.861c0.673-1.328,1.093-2.908,1.441-4.561C28.929,235.065,29.39,238.214,30.447,239.861z"
	/>
<path style="fill:#AFCE67;" d="M28.287,231.941c3.052-1.669,6.493-2.947,6.48-7.68C31.54,224.706,26.338,227.761,28.287,231.941z"/>
<path style="fill:#AFCE67;" d="M38.607,185.14c-3.302,1.574-8.27,1.799-12,4.32c-1.968,1.33-4.268,3.83-5.76,5.52
	c-2.877,3.259-6.696,6.154-3.601,10.08c5.261-5.621,13.31-10.529,21.36-14.16C38.658,189.189,39.113,187.07,38.607,185.14z"/>
<path style="fill:#566E49;" d="M30.928,18.581c-0.659,5.038-5.144,9.431-7.92,13.2c-2.893,3.926-4.864,8.301-6.96,11.76
	c-4.108,6.777-8.727,18.399-9.36,27.84c-0.483,7.199,1.531,13.933,1.68,20.641c0.219,9.849-2.196,18.017-3.6,26.399
	c-1.438,8.59-3.74,17.019-4.56,25.681c-0.938,9.908,1.477,19.5,3.841,28.08c2.398,8.707,4.935,16.634,7.439,24.959
	c5.233,17.395,14.293,26.989,16.8,48c0.127,1.064-0.243,6.757,1.44,6.721c0.813-0.017,1.465-2.822,1.92-4.08
	c1.811-5.012,3.758-6.738,6.24-10.801c7.191-11.766,14.983-21.879,21.6-34.08c4.107-7.573,8.258-15.04,9.84-24.239
	c1.543-8.974-0.623-17.712-0.24-26.16c0.154-3.386,1.345-6.732,1.681-10.319c0.507-5.424,0.09-11.357,0-17.281
	c-0.086-5.586,1.39-11.102,1.439-16.319c0.072-7.445-1.282-15.555-2.64-22.8c-1.429-7.627-1.986-15.031-4.32-21.12
	c-1.102-2.876-3.491-5.946-5.279-8.88c-5.585-9.164-12.697-15.895-17.761-25.441C37.726,21.893,36.242,10.392,33.796,0h-1.684
	c1.824,7.431,3.083,15.369,4.335,20.98c-2.317,1.648-2.179-0.889-3.84-1.68C33.409,11.7,32.253,5.457,30.168,0h-1.845
	C30.442,5.197,31.855,11.493,30.928,18.581z M29.487,26.021c1.998,1.201,3.957,3.454,3.12,6.719c-2.284-0.596-3.41-2.35-5.28-3.359
	C27.791,28.003,29.052,27.425,29.487,26.021z M26.127,30.82c2.476,2.001,7.439,3.134,5.28,7.681c-2.26-1.501-4.325-3.194-8.16-3.12
	C23.682,33.335,25.133,32.306,26.127,30.82z M21.808,37.3c4.451-0.707,9.016,1.428,9.12,5.04c-4.234-1.286-10.838,0.03-12.96,3.12
	C18.275,42.727,20.554,39.888,21.808,37.3z M30.447,44.5c0.044,1.724-0.296,3.063-0.479,4.56c-8.591-0.99-12.056,4.425-16.08,7.2
	C15.169,48.383,22.068,40.777,30.447,44.5z M29.728,50.74c-0.012,1.749,0.153,3.674-0.481,4.801c-8.799,0.721-12.059,6.98-18,10.561
	C12.886,56.605,19.688,51.041,29.728,50.74z M29.247,76.661c-6.704,4.735-10.861,12.019-17.76,16.56
	c-2.707-6.489,3.796-8.156,6.96-10.8c4.071-3.401,6.719-8.657,10.08-11.521C29.492,72.095,28.615,75.132,29.247,76.661z
	 M22.287,75.941c-3.525,4.041-6.459,7.686-11.52,9.6c-1.424-4.443,2.87-9.041,6-12c3.479-3.289,9.261-7.029,11.76-8.4
	C29.555,69.367,25.077,72.742,22.287,75.941z M11.247,95.621c6.697-4.662,11.429-11.292,17.521-16.561c0.08,0,0.16,0,0.24,0
	c2.196,5.48-2.92,9.616-6,13.201c-3.642,4.235-9.795,7.205-12.96,10.319C10.277,100.09,11.394,98.487,11.247,95.621z M19.407,61.06
	c2.714-2.209,6.516-3.461,9.84-3.84c-0.254,1.906-0.457,3.863-0.479,6c-7.547,3.734-13.427,10.414-18.72,15.6
	C8.517,68.747,14.42,65.123,19.407,61.06z M20.367,96.34c3.869-3.034,6.365-6.704,9.12-9.6c1.28,1.04,0.501,4.14,0.72,6.239
	c-7.68,7.041-13.31,16.131-22.319,21.84C7.392,104.572,14.104,101.252,20.367,96.34z M13.407,112.661
	c6.07-4.978,12.007-13.097,16.8-17.761c0.16,0,0.32,0,0.48,0c1.949,5.928-1.038,7.844-4.32,10.801
	c-6.226,5.608-13.193,10.664-19.68,15.119C6.271,116.341,10.31,115.201,13.407,112.661z M18.688,114.101
	c4.82-3.412,8.816-7.376,12.24-10.561c1.286,2.539,0.897,5.44-0.96,6.96c-7.722,6.32-16.923,14.553-24.721,20.16
	C5.259,121.177,12.667,118.361,18.688,114.101z M18.928,121.781c4.428-4.328,8.581-7.788,12.72-10.801
	c2.211,5.91-3.779,9.317-6.96,12c-6.533,5.512-15.201,10.53-20.16,16.08C4.825,129.218,13.205,127.374,18.928,121.781z
	 M10.527,135.22c6.472-5.115,15.452-11.017,20.64-16.08c0.388-0.067,0.414,0.227,0.721,0.24c-0.569,1.571,0.311,3.754-0.24,5.28
	c-0.761,2.101-5.457,5.398-7.2,6.96c-7.504,6.725-17.444,11.207-21.36,20.641C3.22,144.3,5.813,138.947,10.527,135.22z
	 M22.048,135.46c3.975-3.264,6.917-6.289,9.359-8.16c2.616,6.153-2.883,8.611-6.479,11.519c-2.491,2.016-4.938,4.313-6.721,6.24
	c-5.555,6.012-11.052,10.474-14.159,17.52C1.085,148.761,13.984,142.081,22.048,135.46z M11.008,154.42
	c2.557-3.178,6.413-6.278,9.6-9.601c3.841-4.002,7.956-7.026,11.04-9.6c0.16,0,0.32,0,0.479,0c0.425,2.535,0.692,5.229,0.721,8.16
	c-7.211,6.194-17.018,9.635-22.56,17.52c-1.996,2.842-2.05,6.695-4.8,9.361C3.425,164.717,7.83,158.369,11.008,154.42z
	 M7.888,170.741c2.441-5.233,4.281-10.977,9.12-14.88c5.176-4.176,11.66-6.66,15.6-10.561c1.238,0.922,0.523,3.797,0.72,5.76
	c-9.755,7.525-19.722,14.839-25.439,26.4C6.036,174.683,6.694,173.296,7.888,170.741z M10.768,186.581
	c-3.38-4.87-1.192-8.239,1.2-12.479c4.739-8.404,13.609-15.139,21.119-21.121c0.748,2.992,2.027,7.676,1.2,10.32
	c-1.012,3.238-8.388,6.537-11.279,8.881C17.476,176.662,13.147,180.224,10.768,186.581z M35.008,111.46
	c4.783,5.256,15.78,6.708,23.04,10.08c2.642,1.228,7.715,5.221,8.64,7.439c0.665,1.596,0.104,3.795,0.479,5.521
	c-9.46-6.86-22.596-10.044-32.399-16.56C34.909,115.843,34.472,113.165,35.008,111.46z M66.928,126.101
	c-2.082-0.004-1.782-1.445-2.88-2.4c-5.18-4.506-17.17-6.772-23.761-10.32c-3.11-1.674-6.455-4.606-5.76-9.6
	c3.309,2.338,7.536,5.922,12.96,7.439c3.965,1.109,7.937,1.264,11.76,2.881C64.364,116.263,68.865,118.909,66.928,126.101z
	 M13.407,183.701c3.772-7.568,15.55-12.697,20.88-18c4.096,5.4-2.131,8.469-5.76,11.04c-6.072,4.304-12.273,10.075-15.84,16.319
	C10.932,190.68,12.017,186.492,13.407,183.701z M35.247,127.3c0.24,0,0.48,0,0.721,0c3.223,2.318,8.029,4.378,12.72,7.2
	c4.929,2.966,11.207,4.372,14.16,7.681c3.283,3.678,4.056,8.109,3.6,14.879c-4.307-3.718-6.941-8.821-12.24-12.48
	c-4.548-3.14-10.667-4.137-15.12-6.96C36.11,135.734,34.891,132.275,35.247,127.3z M17.008,188.98
	c4.054-5.887,14.693-11.55,18.96-16.08c1.263,3.053,2.782,6.32,2.399,10.32c-2.888,1.689-7.517,2.498-10.8,4.08
	c-5.601,2.699-7.816,7.861-12.72,11.76C12.792,196.111,15.149,191.679,17.008,188.98z M17.247,205.06
	c-3.096-3.926,0.724-6.821,3.601-10.08c1.492-1.689,3.792-4.189,5.76-5.52c3.729-2.521,8.698-2.746,12-4.32
	c0.506,1.93,0.051,4.049,0,5.76C30.557,194.531,22.508,199.439,17.247,205.06z M37.888,192.581c0.194-0.095,0.517,0.075,0.72,0
	c-0.002,2.638-0.084,5.196-0.72,7.2c-8.744,1.096-12.918,6.762-18.24,11.279C15.994,203.246,31.498,195.675,37.888,192.581z
	 M24.447,208.42c3.057-2.878,7.818-6.347,13.2-6.72c0.497,1.399-0.195,3.193-0.24,4.8c-6.796,1.604-11.264,5.536-14.88,10.319
	C19.415,213.919,21.5,211.196,24.447,208.42z M23.247,218.741c0.181-3.446,9.787-9.548,13.441-10.56
	c2.854,8.046-5.331,8.466-9.36,12c-0.527,0.463-1.365,2.475-2.16,2.399C24.362,222.503,23.219,219.281,23.247,218.741z
	 M25.647,224.741c0.19-3.329,7.509-6.342,10.32-7.2c-0.394,1.367-0.718,2.803-0.721,4.561c-1.921,0.604-3.879,1.332-5.52,2.64
	C28.573,225.66,25.411,228.887,25.647,224.741z M30.447,239.861c-1.058-1.646-1.518-4.796,1.441-4.561
	C31.54,236.953,31.12,238.533,30.447,239.861z M32.367,233.861c-1.176-0.576-1.976,0.545-3.12,0.72
	c-0.201-0.278-0.316-0.644-0.239-1.2c1.846-0.109,2.385-2.687,4.079-2.16C32.701,231.955,32.797,233.169,32.367,233.861z
	 M28.287,231.941c-1.949-4.18,3.253-7.235,6.48-7.68C34.78,228.994,31.339,230.272,28.287,231.941z M33.567,239.38
	c-0.949-0.611,0.381-2.502,0.481-3.6c0.423,0.217,0.742,0.537,0.96,0.96C34.699,237.792,33.973,238.426,33.567,239.38z
	 M36.207,235.3c-1-0.039-0.924-1.155-1.68-1.439c0.19-1.49,0.479-2.881,0.96-4.08c1.192,0.728,1.863,1.976,2.64,3.119
	C37.384,233.597,36.774,234.428,36.207,235.3z M39.087,230.98c-4.373-2.135-1.713-6.47-1.439-11.279
	c0.333,0.732,4.278,5.539,4.32,6.48C42.047,227.984,39.695,229.113,39.087,230.98z M42.447,224.261
	c-1.814-3.025-4.43-6.123-3.84-10.801c1.849,2.711,3.714,5.406,6,7.68C44.07,222.363,43.825,223.878,42.447,224.261z M45.567,219.46
	c-3.132-2.928-6.529-6.669-5.76-12.72C41.765,210.657,49.679,214.72,45.567,219.46z M48.447,214.661
	c-3.272-4.224-8.518-7.567-7.68-15.12c2.447,4.832,6.72,7.84,9.6,12.24C49.763,212.775,49.515,214.127,48.447,214.661z
	 M51.567,209.861c-5.78-5.238-11.538-11.029-10.32-22.561c2.614,4.018,8.804,9.387,11.761,13.92
	C55.265,204.681,53.876,206.937,51.567,209.861z M55.407,202.42c-4.499-9.181-14.995-12.364-14.88-26.159
	c2.466,3.958,8.045,8.311,11.52,12.959c1.084,1.451,2.204,4.415,3.359,6.24C56.901,197.821,59.366,200.296,55.407,202.42z
	 M59.008,197.14c-2.994-2.67-3.838-6.279-6.24-9.359c-2.638-3.383-5.378-5.965-8.16-9.6c-3.029-3.959-6.698-6.229-6.72-12.961
	c7.898,2.85,12.984,10.496,17.76,17.28C58.945,187.185,62.725,192.574,59.008,197.14z M61.888,190.181
	c-1.998-3.668-3.608-6.996-6.24-10.561c-2.182-2.953-4.226-7.545-6.96-9.6c-4.969-3.735-14.257-6.262-11.28-15.601
	c4.623,5.669,14.046,8.48,18.96,14.88c3.087,4.021,7.961,12.087,7.681,17.28C63.967,188.078,62.944,189.152,61.888,190.181z
	 M65.247,183.941c-3.128-7.107-3.818-12.674-9.359-17.76c-3.241-2.977-8.457-5.414-12.24-8.4c-4.077-3.219-7.532-6.47-6.96-13.68
	c4.053,3.948,11.839,7.375,17.52,12.239c1.819,1.558,3.485,4.305,5.521,6.479C64.628,168.06,69.299,173.611,65.247,183.941z
	 M66.928,168.34c-6.33-10.597-17.482-16.127-27.36-24c-2.333-1.859-3.831-3.559-3.84-7.2c4.877,3.885,13.577,5.527,18.24,9.36
	c1.693,1.392,2.624,3.147,4.319,4.8C62.35,155.261,68.351,159.773,66.928,168.34z M66.928,145.54
	c-2.639-7.214-11.105-8.301-17.761-12.48c-5.102-3.203-10.053-5.587-14.399-8.4c0-1.521,0-3.04,0-4.56
	c2.178,0.021,4.461,2.703,6.72,3.84c5.997,3.015,15.575,5.592,20.88,8.879C66.469,135.363,68.361,139.351,66.928,145.54z
	 M67.407,117.22c-4.728-5.096-13.361-5.496-21.359-8.4c-6.602-2.396-12.666-6.195-11.761-13.439c0.214-0.147,0.43-0.29,0.48,0
	c5.473,4.188,12.208,9.912,20.64,11.28c1.895,0.308,4.017-0.099,6,0.479c2.394,0.697,4.295,3.123,6.72,3.601
	C68.175,113.187,67.708,115.121,67.407,117.22z M68.607,108.82c-2.441,0.068-4.148-2.523-6-3.119
	c-2.524-0.813-5.033-0.309-7.2-0.721c-4.293-0.816-9.474-2.86-13.2-5.52c-2.685-1.916-4.15-5.681-8.399-6.48
	c0.156-3.133-1.235-5.941-0.721-8.64c4.753,1.723,8.808,6.644,13.681,9.601c7.039,4.271,15.896,3.611,22.08,9.119
	C68.932,105.144,68.789,107.002,68.607,108.82z M68.848,100.9c-5.033-3.465-10.924-3.914-16.561-6
	c-7.426-2.747-12.497-10.033-19.439-12.959c-0.252-1.547-0.307-2.763,0-3.84C46.48,81.828,57.179,90.569,69.087,96.82
	C68.968,98.14,69.352,99.965,68.848,100.9z M69.087,94.9c-12.636-5.764-22.141-14.658-36.239-18.959
	c0.027-1.652-0.129-3.489,0.239-4.801c11.517,1.236,19.699,9.689,28.32,15.601C64.484,88.851,69.531,90.624,69.087,94.9z
	 M65.968,79.06c1.443,3.094,0.892,7.088,1.92,10.08c-11.655-6.584-19.126-17.354-34.801-19.92c0.025-2.03,0.323-3.15,0-5.039
	c9.66-4.003,16.776,4.039,23.761,8.399C59.81,74.43,64.843,76.652,65.968,79.06z M40.527,31.541
	c-1.797,0.471-4.421,1.301-5.76,1.439c0.181-1.729-0.019-3.048,0.72-4.56c1.174-0.425,2.065-0.06,3.36,0
	C39.323,29.544,40.202,30.265,40.527,31.541z M36.928,22.42c0.955,0.724,0.889,2.472,1.199,3.84c-1.138,0.222-2.171,0.55-3.359,0.72
	C34.522,24.496,35.133,22.866,36.928,22.42z M34.768,35.14c2.043-0.836,3.918-1.842,6.72-1.92c0.402,1.518,1.649,2.191,1.92,3.84
	c-3.203-0.65-6.644,0.135-8.88,0.721C34.503,36.796,34.48,35.814,34.768,35.14z M34.287,40.181
	c4.856-3.666,13.726-1.485,14.88,4.079c-4.689-2.091-11.117-4.395-14.88,0C33.72,43.193,34.594,41.759,34.287,40.181z M50.848,46.42
	c1.602,3.038,3.793,5.487,5.279,8.64c-4.037-3.41-13.676-9.99-22.079-6.24C35.355,39.9,45.365,44.328,50.848,46.42z M48.688,51.46
	c2.165,1.144,9.021,6.764,10.559,8.641c1.106,1.347,1.594,4.027,2.16,5.039c-7.789-4.039-15.725-15.019-27.6-9.6
	C30.971,46.709,43.908,48.937,48.688,51.46z M41.247,55.06c8.486,1.113,15.63,10.57,21.601,13.44c0.696,2.423,1.204,5.036,2.16,7.2
	c-1.858-1.537-4.161-2.48-6.481-3.84c-7.833-4.594-13.555-12.93-25.44-9.84C31.265,57.398,36.464,54.433,41.247,55.06z
	 M32.848,26.26c-2.413-0.511-1.895-3.052-0.721-4.56C33.246,22.303,33.297,24.841,32.848,26.26z"/>
</svg>
