<?xml version="1.0" encoding="iso-8859-1"?>
<!-- Generator: Adobe Illustrator 19.2.0, SVG Export Plug-In . SVG Version: 6.00 Build 0)  -->
<svg version="1.1" id="&#x421;&#x43B;&#x43E;&#x439;_1"
	 xmlns="http://www.w3.org/2000/svg" xmlns:xlink="http://www.w3.org/1999/xlink" x="0px" y="0px" viewBox="0 0 43.956 75.464"
	 style="enable-background:new 0 0 43.956 75.464;" xml:space="preserve">
<g>
	<path style="fill:#EBE2D3;" d="M30.755,46.664c-1.584,0.016-3.133,0.068-3.6,1.199C28.038,51.849,32.244,50.755,30.755,46.664z"/>
	<path style="fill:#EBE2D3;" d="M35.795,29.144c2.844-2.143,6.799-5.098,5.76-9.121c-0.219-0.848-1.517-1.611-2.159-0.959
		C36.637,21.863,33.239,25.808,35.795,29.144z"/>
	<path style="fill:#EBE2D3;" d="M27.875,55.064c0.4,0,0.8,0,1.2,0c0.052-0.932-0.255-1.506-0.96-1.68
		C28.038,53.947,27.736,54.285,27.875,55.064z"/>
	<path style="fill:#EBE2D3;" d="M11.075,19.545c0.728,2.791,3.265,3.773,5.52,5.039C16.954,20.851,14.469,18.728,11.075,19.545z"/>
	<path style="fill:#EBE2D3;" d="M16.835,17.144c3.119-1.404,2.318-5.627,0.72-8.16C16.509,11.673,16.621,14.062,16.835,17.144z"/>
	<path style="fill:#EBE2D3;" d="M27.155,14.023c-0.379,3.91,0.476,7.793-0.96,11.041C32.291,24.63,30.14,16.064,27.155,14.023z"/>
	<path style="fill:#EBE2D3;" d="M25.715,3.703c-1.188-3.959-7.399-1.107-6.72,2.16C21.908,5.816,24.419,5.369,25.715,3.703z"/>
	<path style="fill:#EBE2D3;" d="M22.594,15.703c0.752-2.699,4.446-4.977,2.641-8.639C23.767,9.414,18.62,12.941,22.594,15.703z"/>
	<path style="fill:#EBE2D3;" d="M18.035,2.984c-2.271-0.645-4.589,0.238-4.8,2.4c0.76,0.68,2.291,0.588,3.359,0.959
		C17.257,5.406,17.679,4.228,18.035,2.984z"/>
	<path style="fill:#EBE2D3;" d="M14.915,14.263c1.313-3.816-2.465-4.34-3.6-6.48C10.463,11.056,12.945,13.017,14.915,14.263z"/>
	<path style="fill:#EBE2D3;" d="M32.434,44.984c1.523,0.002,2.793-0.248,3.601-0.961c-0.836-1.482-2.504-2.135-3.84-3.119
		C32.315,42.224,31.93,44.048,32.434,44.984z"/>
	<path style="fill:#EBE2D3;" d="M35.315,33.464c-0.488,1.752-1.681,2.799-1.92,4.799c2.15-0.408,3.203-1.916,5.279-2.4
		C38.308,34.31,36.73,33.968,35.315,33.464z"/>
	<path style="fill:#EBE2D3;" d="M27.634,5.384c-0.868,4.479,1.064,8.207,3.12,10.559C33.5,12.142,32.817,6.105,27.634,5.384z"/>
	<path style="fill:#EBE2D3;" d="M15.155,18.103c-1.267-3.693-5.27-4.65-5.76-9.119c-0.158,0.322-0.514,0.447-0.961,0.48
		c0.362,2.838,1.289,5.111,1.921,7.68C11.87,17.548,13.323,18.015,15.155,18.103z"/>
	<path style="fill:#EBE2D3;" d="M38.675,16.183c0.081-2.561-0.022-4.147-1.199-5.039c-3.749-2.842-4.692,2.93-5.521,6.24
		C34.394,17.183,37.346,17.496,38.675,16.183z"/>
	<path style="fill:#EBE2D3;" d="M15.875,58.183c2.682-0.309,6.522,1.025,9.12-0.719c-1.183-1.219-2.444-2.357-4.08-3.121
		C20.124,56.511,17.685,57.035,15.875,58.183z"/>
	<path style="fill:#EBE2D3;" d="M20.434,52.423c-2.164,0.096-2.064-2.133-3.6-2.16c-2.302-0.039-2.905,4.547-5.76,4.801
		C12.928,59.099,19.692,55.445,20.434,52.423z"/>
	<path style="fill:#EBE2D3;" d="M31.715,19.064c-0.348,2.498-0.397,6.008,0.24,7.199c1.528-3.031,4.556-4.564,6-7.68
		C35.706,18.574,34.076,19.185,31.715,19.064z"/>
	<path style="fill:#EBE2D3;" d="M8.195,16.904c0.262-1.728-0.424-4.299-1.44-5.52C5.96,13.625,5.635,16.459,8.195,16.904z"/>
	<path style="fill:#EBE2D3;" d="M30.275,52.183c-0.037,1.477,1.261,1.619,1.439,2.881C33.949,54.33,32.841,49.847,30.275,52.183z"/>
	<path style="fill:#EBE2D3;" d="M26.195,58.423c1.515,0.338,3.946-0.115,4.319-1.68C28.728,56.048,26.645,56.996,26.195,58.423z"/>
	<path style="fill:#EBE2D3;" d="M13.715,50.504c-1.62-0.459-4.021-0.139-5.76-0.48C8.45,54.095,12.731,54.234,13.715,50.504z"/>
	<path style="fill:#EBE2D3;" d="M7.955,40.664c-1.031,1.69-2.442,2.998-3.12,5.039c1.772,0.629,2.026,2.775,4.561,2.641
		C10.407,46.076,9.988,41.449,7.955,40.664z"/>
	<path style="fill:#EBE2D3;" d="M7.715,19.304c-0.324-1.471-3.466-3.691-4.08-0.961c-0.496,2.207,1.434,3.236,1.92,5.52
		C6.719,23.035,8.095,21.033,7.715,19.304z"/>
	<path style="fill:#EBE2D3;" d="M4.835,34.904c2.12-3.201,1.104-9.524-1.68-11.281C2.039,27.457,0.431,33.211,4.835,34.904z"/>
	<path style="fill:#EBE2D3;" d="M2.434,36.343c-0.988,2.523,0.307,5.174,2.16,6.24c0.764-0.838,1.196-2.004,1.92-2.881
		C5.681,38.058,3.918,37.341,2.434,36.343z"/>
	<path style="fill:#EBE2D3;" d="M13.475,7.783c0.712,0.568,0.883,1.678,2.159,1.682c0.139-0.502,0.596-0.686,0.48-1.441
		C15.477,7.849,13.884,7.39,13.475,7.783z"/>
	<path style="fill:#EBE2D3;" d="M19.715,31.783c-0.736,4.053,2.911,6.197,5.761,3.84C24.444,33.64,22.355,30.607,19.715,31.783z"/>
	<path style="fill:#EBE2D3;" d="M23.075,30.343c0.028,0.316,1.581,1.098,1.68,1.201c0.61,0.633,1.301,2.74,2.641,2.639
		c1.428-2.332,2.461-5.059,2.64-8.639C28.33,26.189,22.886,28.277,23.075,30.343z"/>
	<path style="fill:#EBE2D3;" d="M19.235,25.783c0.037,1.564,0.295,2.906,0.72,4.08c4.517-0.004,5.572-6.762,3.12-9.6
		C21.464,21.773,20.976,24.406,19.235,25.783z"/>
	<path style="fill:#EBE2D3;" d="M21.634,38.744c0.997,2.135,5.325,2.781,7.681,1.439C29.485,34.896,25.037,37.316,21.634,38.744z"/>
	<path style="fill:#EBE2D3;" d="M13.475,29.863c-2.746,3.611,0.654,6.609,5.279,6.24C18.841,32.177,15.255,31.923,13.475,29.863z"/>
	<path style="fill:#EBE2D3;" d="M23.795,42.343c0.818,1.422,1.354,3.127,2.88,3.84c0.955-0.645,2.029-1.17,3.84-0.959
		c0.575-1.078-0.114-2.047,0-3.361C28.365,42.156,26.156,42.976,23.795,42.343z"/>
	<path style="fill:#EBE2D3;" d="M18.514,23.863c2.299-1.748,4.591-6.1,1.441-8.16C18.287,17.752,16.598,20.779,18.514,23.863z"/>
	<path style="fill:#EBE2D3;" d="M22.835,7.064c-1.015,0.426-2.648,0.23-3.84,0.48c0.178,1.342,0.487,2.553,0.96,3.6
		C20.794,9.955,23.483,8.15,22.835,7.064z"/>
	<path style="fill:#EBE2D3;" d="M24.995,14.504c-0.56,0.881-0.943,1.936-1.44,2.881c0.961,0.879,0.934,2.744,2.16,3.359
		C25.593,18.545,25.951,15.869,24.995,14.504z"/>
	<path style="fill:#EBE2D3;" d="M32.915,27.464c-1.498,2.42-2.808,5.031-4.08,7.68c1.005,0.754,1.464,2.055,1.92,3.359
		C33.115,35.947,36.399,30.433,32.915,27.464z"/>
	<path style="fill:#EBE2D3;" d="M23.075,44.744c0.375-3.99-3.812,0.064-6.48,0c0.077,1.443,0.596,2.443,1.2,3.359
		C19.676,47.213,22.92,46.396,23.075,44.744z"/>
	<path style="fill:#EBE2D3;" d="M19.235,37.783c-1.568-0.074-2.076,0.283-3.36,0C11.385,45.254,24.518,43.058,19.235,37.783z"/>
	<path style="fill:#EBE2D3;" d="M24.995,48.103c-1.067-3.137-4.281,1.227-6.24,1.68C21.217,52.476,23.293,49.511,24.995,48.103z"/>
	<path style="fill:#EBE2D3;" d="M26.195,55.545c0.163-2.498,1.939-3.863,0.239-5.762C22.035,50.037,21.731,55.271,26.195,55.545z"/>
	<path style="fill:#EBE2D3;" d="M11.554,48.824c1.44,0,2.88,0,4.32,0c-0.177-2.48-1.318-6.029-4.56-6.24
		C11.676,44.662,10.955,46.738,11.554,48.824z"/>
	<path style="fill:#EBE2D3;" d="M17.795,30.824c1.261-3.982-2.484-5.035-4.8-6.24C13.683,27.576,15.264,29.673,17.795,30.824z"/>
	<path style="fill:#EBE2D3;" d="M10.115,33.464c-1.107-0.893-1.093-2.908-2.64-3.361c0.183,2.824-1.001,4.279-1.681,6.24
		C7.783,38.976,8.956,35.078,10.115,33.464z"/>
	<path style="fill:#EBE2D3;" d="M6.755,24.824c0.973,2.627,2.521,4.68,4.32,6.48c0.577-1.024,0.806-2.395,1.439-3.361
		c-1.591-2.248-1.871-5.809-3.359-8.16C8.705,21.814,7.941,23.531,6.755,24.824z"/>
	<path style="fill:#EBE2D3;" d="M14.195,37.064c-2.157-2.594-4.603-1.719-5.28,1.68c1.348,0.973,2.638,2.002,4.32,2.641
		C13.898,40.287,13.851,38.48,14.195,37.064z"/>
	<path style="fill:#EBE2D3;" d="M32.915,46.664c-0.052,1.01,0.008,2.451-0.48,3.6c3.537,0.176,6.451-1.145,4.801-4.799
		C35.793,45.861,34.48,46.39,32.915,46.664z"/>
	<path style="fill:#EBE2D3;" d="M34.355,40.183c2.119,4.014,7.772,1.824,6.239-3.359C38.561,37.052,36.039,38.81,34.355,40.183z"/>
	<path style="fill:#EBE2D3;" d="M40.835,26.984c-1.559,1.558-3.665,2.574-4.559,4.799c1.321,0.68,2.38,1.621,3.84,2.16
		C41.359,32.332,43.153,28.713,40.835,26.984z"/>
	<path style="fill:#B8C49C;" d="M43.955,28.904c-0.074-1.311-2.051-2.629-2.16-4.08c-0.121-1.609,1.556-3.344,1.44-4.801
		c-0.141-1.766-2.651-2.414-3.12-4.799c-0.211-1.072,0.264-2.309,0-3.121c-0.861-2.652-4.025-2.061-6.48-3.6
		c-1.678-1.053-1.238-3.17-3.12-4.32c-1.113-0.68-2.063-0.375-2.64-0.719c-3.106-1.859-2.132-3.957-5.76-3.361
		c-0.919,0.152-1.408,1.313-3.12,1.441c-1.098,0.08-2.384-0.576-3.12-0.48c-2.761,0.359-2.776,3.006-5.28,5.52
		c-1.307,1.313-3.915,1.996-4.8,3.359c-0.914,1.41-0.65,3.285-1.2,4.561c-0.981,2.277-3.181,3.08-3.6,5.279
		c-0.296,1.555,0.723,2.769,0.48,4.801c-0.151,1.26-1.299,2.451-1.441,3.6c-0.262,2.117,1.04,3.912,0.96,6.24
		c-0.068,1.971-1.116,3.525-0.72,5.52c0.249,1.256,1.599,2.572,1.92,4.08c0.249,1.168-0.111,2.523,0.239,3.361
		c0.38,0.902,2.492,2.131,3.12,3.359c1.419,2.775,2.587,6.186,4.56,7.68c2.723,2.061,4.821,0.85,7.44,1.199
		c1.443,0.195,2.547,1.455,3.841,1.441c1.272-0.016,2.212-1.023,3.359-1.201c2.362-0.365,4.555,0.373,6.96-0.959
		c2.233,4.326,3.054,10.066,3.12,16.561c7.517-3.441-1.354-13.83-0.72-18.721c0.238-1.838,2.279-2.902,0.72-5.041
		c0.846-0.09,2.479-0.027,3.36-0.719c1.827-1.434,0.502-3.875,0.96-6.48c0.393-2.232,3.162-3.422,3.359-5.76
		c0.102-1.197-1.007-3.109-0.72-4.801C42.111,32.086,44.018,30.027,43.955,28.904z M41.554,20.023
		c1.039,4.024-2.916,6.979-5.76,9.121c-2.556-3.336,0.843-7.281,3.601-10.08C40.038,18.412,41.336,19.175,41.554,20.023z
		 M27.155,47.863c0.467-1.131,2.016-1.184,3.6-1.199C32.244,50.755,28.038,51.849,27.155,47.863z M29.075,55.064c-0.4,0-0.8,0-1.2,0
		c-0.139-0.779,0.163-1.117,0.24-1.68C28.82,53.558,29.127,54.132,29.075,55.064z M16.594,24.584
		c-2.255-1.266-4.792-2.248-5.52-5.039C14.469,18.728,16.954,20.851,16.594,24.584z M13.475,7.783
		c0.408-0.393,2.002,0.066,2.64,0.24c0.115,0.756-0.342,0.939-0.48,1.441C14.358,9.461,14.187,8.351,13.475,7.783z M19.955,15.703
		c3.15,2.061,0.858,6.412-1.441,8.16C16.598,20.779,18.287,17.752,19.955,15.703z M18.995,7.545c1.191-0.25,2.825-0.055,3.84-0.48
		c0.648,1.086-2.041,2.891-2.88,4.08C19.482,10.097,19.173,8.886,18.995,7.545z M25.715,20.744c-1.226-0.615-1.199-2.48-2.16-3.359
		c0.497-0.945,0.881-2,1.44-2.881C25.951,15.869,25.593,18.545,25.715,20.744z M30.514,45.224c-1.81-0.211-2.885,0.314-3.84,0.959
		c-1.526-0.713-2.062-2.418-2.88-3.84c2.361,0.633,4.57-0.188,6.72-0.48C30.4,43.177,31.09,44.146,30.514,45.224z M21.634,38.744
		c3.402-1.428,7.851-3.848,7.681,1.439C26.96,41.525,22.632,40.879,21.634,38.744z M19.715,31.783
		c2.641-1.176,4.729,1.857,5.761,3.84C22.626,37.98,18.978,35.836,19.715,31.783z M27.395,34.183
		c-1.34,0.102-2.03-2.006-2.641-2.639c-0.099-0.104-1.651-0.885-1.68-1.201c-0.188-2.066,5.255-4.154,6.96-4.799
		C29.856,29.125,28.823,31.851,27.395,34.183z M19.955,29.863c-0.425-1.174-0.683-2.516-0.72-4.08c1.741-1.377,2.229-4.01,3.84-5.52
		C25.527,23.101,24.472,29.859,19.955,29.863z M18.755,36.103c-4.625,0.369-8.025-2.629-5.279-6.24
		C15.255,31.923,18.841,32.177,18.755,36.103z M16.835,17.144c-0.214-3.082-0.326-5.471,0.72-8.16
		C19.153,11.517,19.954,15.74,16.835,17.144z M17.795,30.824c-2.53-1.15-4.111-3.248-4.8-6.24
		C15.31,25.789,19.055,26.841,17.795,30.824z M12.514,27.943c-0.634,0.967-0.862,2.338-1.439,3.361
		c-1.799-1.801-3.348-3.854-4.32-6.48c1.187-1.293,1.95-3.01,2.4-5.041C10.643,22.134,10.924,25.695,12.514,27.943z M7.475,30.103
		c1.547,0.453,1.532,2.469,2.64,3.361c-1.159,1.613-2.332,5.512-4.32,2.879C6.474,34.382,7.658,32.927,7.475,30.103z M14.195,37.064
		c-0.344,1.416-0.297,3.223-0.96,4.32c-1.683-0.639-2.973-1.668-4.32-2.641C9.592,35.345,12.038,34.47,14.195,37.064z
		 M11.315,42.584c3.241,0.211,4.383,3.76,4.56,6.24c-1.441,0-2.88,0-4.32,0C10.955,46.738,11.676,44.662,11.315,42.584z
		 M15.875,37.783c1.284,0.283,1.792-0.074,3.36,0C24.518,43.058,11.385,45.254,15.875,37.783z M23.075,44.744
		c-0.155,1.652-3.399,2.469-5.28,3.359c-0.604-0.916-1.123-1.916-1.2-3.359C19.263,44.808,23.45,40.754,23.075,44.744z
		 M24.995,48.103c-1.702,1.408-3.777,4.373-6.24,1.68C20.714,49.33,23.927,44.966,24.995,48.103z M26.434,49.783
		c1.7,1.898-0.076,3.264-0.239,5.762C21.731,55.271,22.035,50.037,26.434,49.783z M30.755,38.504
		c-0.456-1.305-0.915-2.605-1.92-3.359c1.273-2.648,2.582-5.26,4.08-7.68C36.399,30.433,33.115,35.947,30.755,38.504z
		 M31.715,19.064c2.361,0.121,3.991-0.49,6.24-0.48c-1.444,3.115-4.472,4.648-6,7.68C31.317,25.072,31.367,21.562,31.715,19.064z
		 M32.195,40.904c1.336,0.984,3.004,1.637,3.84,3.119c-0.808,0.713-2.077,0.963-3.601,0.961
		C31.93,44.048,32.315,42.224,32.195,40.904z M35.315,33.464c1.415,0.504,2.993,0.846,3.359,2.399
		c-2.076,0.484-3.129,1.992-5.279,2.4C33.634,36.263,34.827,35.216,35.315,33.464z M37.475,11.144
		c1.177,0.893,1.28,2.479,1.199,5.039c-1.328,1.313-4.28,1-6.72,1.201C32.783,14.074,33.726,8.302,37.475,11.144z M27.634,5.384
		c5.183,0.721,5.865,6.758,3.12,10.559C28.699,13.591,26.766,9.863,27.634,5.384z M27.155,14.023
		c2.985,2.041,5.136,10.607-0.96,11.041C27.631,21.816,26.776,17.933,27.155,14.023z M22.594,15.703
		c-3.975-2.762,1.173-6.289,2.641-8.639C27.041,10.726,23.346,13.004,22.594,15.703z M25.715,3.703
		c-1.296,1.666-3.807,2.113-6.72,2.16C18.315,2.595,24.526-0.256,25.715,3.703z M18.035,2.984c-0.355,1.244-0.778,2.422-1.44,3.359
		c-1.068-0.371-2.6-0.279-3.359-0.959C13.446,3.222,15.764,2.339,18.035,2.984z M11.315,7.783c1.135,2.141,4.913,2.664,3.6,6.48
		C12.945,13.017,10.463,11.056,11.315,7.783z M9.395,8.984c0.489,4.469,4.493,5.426,5.76,9.119c-1.832-0.088-3.285-0.555-4.8-0.959
		c-0.632-2.568-1.559-4.842-1.921-7.68C8.882,9.431,9.237,9.306,9.395,8.984z M6.755,11.384c1.017,1.221,1.702,3.791,1.44,5.52
		C5.635,16.459,5.96,13.625,6.755,11.384z M3.634,18.343c0.614-2.73,3.756-0.51,4.08,0.961c0.381,1.729-0.995,3.73-2.16,4.559
		C5.068,21.58,3.138,20.55,3.634,18.343z M3.155,23.623c2.783,1.758,3.8,8.08,1.68,11.281C0.431,33.211,2.039,27.457,3.155,23.623z
		 M2.434,36.343c1.483,0.998,3.247,1.715,4.08,3.359c-0.724,0.877-1.156,2.043-1.92,2.881C2.741,41.517,1.446,38.867,2.434,36.343z
		 M4.835,45.703c0.678-2.041,2.089-3.35,3.12-5.039c2.033,0.785,2.452,5.412,1.44,7.68C6.861,48.478,6.606,46.332,4.835,45.703z
		 M7.955,50.023c1.738,0.342,4.14,0.021,5.76,0.48C12.731,54.234,8.45,54.095,7.955,50.023z M11.075,55.064
		c2.855-0.254,3.458-4.84,5.76-4.801c1.535,0.027,1.436,2.256,3.6,2.16C19.692,55.445,12.928,59.099,11.075,55.064z M15.875,58.183
		c1.811-1.148,4.249-1.672,5.04-3.84c1.636,0.764,2.897,1.902,4.08,3.121C22.396,59.209,18.556,57.875,15.875,58.183z
		 M26.195,58.423c0.45-1.428,2.533-2.375,4.319-1.68C30.141,58.308,27.71,58.761,26.195,58.423z M31.715,55.064
		c-0.179-1.262-1.476-1.404-1.439-2.881C32.841,49.847,33.949,54.33,31.715,55.064z M32.434,50.263c0.488-1.148,0.429-2.59,0.48-3.6
		c1.565-0.273,2.878-0.803,4.32-1.199C38.885,49.119,35.971,50.439,32.434,50.263z M34.355,40.183
		c1.684-1.373,4.206-3.131,6.239-3.359C42.128,42.007,36.474,44.197,34.355,40.183z M40.115,33.943
		c-1.46-0.539-2.518-1.48-3.84-2.16c0.894-2.225,3-3.24,4.559-4.799C43.153,28.713,41.359,32.332,40.115,33.943z"/>
</g>
</svg>
