<?xml version="1.0" encoding="iso-8859-1"?>
<!-- Generator: Adobe Illustrator 19.2.0, SVG Export Plug-In . SVG Version: 6.00 Build 0)  -->
<svg version="1.1" id="&#x421;&#x43B;&#x43E;&#x439;_1"
	 xmlns="http://www.w3.org/2000/svg" xmlns:xlink="http://www.w3.org/1999/xlink" x="0px" y="0px" viewBox="0 0 98.213 127.087"
	 style="enable-background:new 0 0 98.213 127.087;" xml:space="preserve">
<g>
	<path style="fill:#EBE2D3;" d="M25.253,39.246c-2.315-0.565-3.279-2.481-5.04-3.601c-0.69,4.427,1.893,9.369,3.36,13.201
		C24.417,45.661,26.414,43.148,25.253,39.246z"/>
	<path style="fill:#EBE2D3;" d="M31.973,35.406c-0.585-2.774-0.825-5.895-1.439-8.64C29.433,29.038,27.937,36.668,31.973,35.406z"/>
	<path style="fill:#EBE2D3;" d="M31.013,37.566c1.248,3.553,2.457,7.143,4.56,9.841c3.389-1.204-2.072-10.182-3.12-10.32
		C31.866,37.009,31.408,37.736,31.013,37.566z"/>
	<path style="fill:#EBE2D3;" d="M38.213,38.767c-2.003-4.024-4.163-8.811-3.601-14.641c-4.508,2.632-0.318,11.512,1.2,14.88
		C36.628,38.941,37.759,39.193,38.213,38.767z"/>
	<path style="fill:#EBE2D3;" d="M23.093,31.806c-0.771,0.67-1.899,0.981-2.16,2.16c1.24,0.92,2.323,1.998,3.601,2.881
		C23.904,35.316,23.858,33.202,23.093,31.806z"/>
	<path style="fill:#EBE2D3;" d="M48.773,15.006c-3.938,0.755-3.746,9.827-3.12,14.4C50.599,27.923,46.657,19.747,48.773,15.006z"/>
	<path style="fill:#EBE2D3;" d="M30.773,42.366c-1.526-4.203-3.749-8.271-3.12-13.92c-5.098,2.505-0.04,10.35,0.48,14.64
		C29.395,43.228,29.886,42.6,30.773,42.366z"/>
	<path style="fill:#EBE2D3;" d="M37.013,21.966c-1.143,1.656-0.75,5.586-0.48,7.92C38.659,27.961,39.683,23.921,37.013,21.966z"/>
	<path style="fill:#EBE2D3;" d="M39.414,28.687c0.979,0.262,3.001-0.303,4.08-0.721c-0.639-4.319,1.431-7.207,0.72-10.8
		c-0.361,0.439-1.035,0.565-1.44,0.96C43.046,23.04,40.365,24.997,39.414,28.687z"/>
	<path style="fill:#EBE2D3;" d="M41.333,40.206c1.258,1.462,2.071,3.369,2.64,5.52c5.356-1.67,3.438-9.525,0.24-12.24
		C43.653,36.126,42.704,38.376,41.333,40.206z"/>
	<path style="fill:#EBE2D3;" d="M40.133,23.166c0.112-0.993,1.401-3.148,0.479-3.601c-0.504,0.297-0.936,0.665-1.439,0.961
		C39.404,21.495,39.373,22.726,40.133,23.166z"/>
	<path style="fill:#EBE2D3;" d="M17.813,69.486c0.249-1.928-0.433-2.926-0.72-4.318c-5.307,0.213-8.06,2.98-13.68,2.879
		c-0.125,1.326,0.137,2.264,0.239,3.359C9.371,71.763,12.663,69.695,17.813,69.486z"/>
	<path style="fill:#EBE2D3;" d="M8.693,72.847c-1.648,0.203-2.679,0-4.319,0.479c-0.247,1.264,1.317,2.643,1.439,4.32
		c1.814-0.027,2.622-1.057,4.08-1.439C9.737,74.843,9.132,73.927,8.693,72.847z"/>
	<path style="fill:#EBE2D3;" d="M19.494,81.726c-2.769-1.303-6.41,0.178-8.4,1.201C14.107,84.917,17.698,84.314,19.494,81.726z"/>
	<path style="fill:#EBE2D3;" d="M23.333,52.687c-2.819-4.221-3.547-10.533-5.76-15.36c-3.7,2.358-0.672,5.261-0.24,9.84
		C17.746,51.548,19.36,53.351,23.333,52.687z"/>
	<path style="fill:#EBE2D3;" d="M7.253,65.886c-0.749-1.49-1.974-2.506-3.84-2.879c-0.379,0.611-0.379,2.506,0,3.119
		C4.794,66.148,6.185,66.179,7.253,65.886z"/>
	<path style="fill:#EBE2D3;" d="M14.213,76.446c-2.982,0.299-4.715,1.846-7.2,2.641c0.434,3.475,5.332,1.824,7.2,0.719
		C14.029,78.562,14.89,77.421,14.213,76.446z"/>
	<path style="fill:#EBE2D3;" d="M15.414,63.486c-0.499-0.779,0.052-2.611-0.481-3.359c-5.258,0.537-8.349-1.092-10.32-3.84
		c-0.51,1.41-0.865,2.975-1.199,4.561C7.68,63.245,10.144,66.763,15.414,63.486z"/>
	<path style="fill:#EBE2D3;" d="M13.733,55.566c2.057-4.678-0.857-7.877-3.6-10.319c-0.66,1.421-1.822,2.337-2.4,3.841
		C9.396,51.583,12.012,53.128,13.733,55.566z"/>
	<path style="fill:#EBE2D3;" d="M15.414,48.366c-0.135-1.844-0.423-6.648-1.92-6.721C10.649,41.51,13.667,48.012,15.414,48.366z"/>
	<path style="fill:#EBE2D3;" d="M12.053,58.206c-0.184-3.895-3.397-4.762-5.28-6.959C4.242,54.177,7.549,58.657,12.053,58.206z"/>
	<path style="fill:#EBE2D3;" d="M86.213,2.767c-1.904-0.385-2.379,0.66-2.16,2.399C85.241,4.833,86.46,4.533,86.213,2.767z"/>
	<path style="fill:#EBE2D3;" d="M91.733,7.806c-3.255-0.74-6.655-2.914-8.159,0.721C85.853,11.714,90.787,12.671,91.733,7.806z"/>
	<path style="fill:#EBE2D3;" d="M80.693,11.886c1.486,0.092,2.213,0.731,3.36,0C83.734,9.616,80.939,9.601,80.693,11.886z"/>
	<path style="fill:#EBE2D3;" d="M82.613,3.006c-0.874-0.073-1.562,0.038-2.159,0.24c-0.615,1.468-0.713,4.724-0.24,6.479
		C81.665,8.138,82.686,6.118,82.613,3.006z"/>
	<path style="fill:#EBE2D3;" d="M18.293,87.966c-8.444,7.242-15.137,19.137-16.561,32.881c-0.208,2.012-0.449,4.395,2.16,4.08
		c-0.197-10.855,4.484-16.352,8.16-23.041c3.238-5.893,5.316-9.926,9.6-13.68C20.716,87.948,18.833,87.165,18.293,87.966z"/>
	<path style="fill:#EBE2D3;" d="M92.693,5.886c0.618-0.902,1.354-1.686,1.681-2.88c-2.325,0.155-3.84,1.12-5.761,1.681
		C89.04,6.019,91.13,5.689,92.693,5.886z"/>
	<path style="fill:#EBE2D3;" d="M52.613,18.847c-1.289-0.17-1.966,0.273-2.88,0.479c-0.253,4.173,0.416,7.425,1.44,10.319
		C56.509,28.513,51.97,22.549,52.613,18.847z"/>
	<path style="fill:#EBE2D3;" d="M77.093,25.326c1.654,0.666,2.596,2.044,5.04,1.92c0.425-1.255,1.273-2.087,1.2-3.84
		C79.884,22.812,77.337,20.185,77.093,25.326z"/>
	<path style="fill:#EBE2D3;" d="M78.053,18.847c2.217,0.822,2.712,3.367,6,3.119c0.527-1.473,1.245-2.755,1.68-4.32
		C83.136,16.2,80.34,17.964,78.053,18.847z"/>
	<path style="fill:#EBE2D3;" d="M81.414,14.046c1.503,0.896,3.031,1.768,5.52,1.68c0.321-0.879,0.916-1.484,1.2-2.399
		C85.907,11.939,83.706,13.981,81.414,14.046z"/>
	<path style="fill:#EBE2D3;" d="M78.053,3.486c-4.405,0.557-3.663,8.325-2.16,11.521C78.035,12.886,78.808,6.911,78.053,3.486z"/>
	<path style="fill:#EBE2D3;" d="M59.333,9.726c-5.206,0.908-4.961,8.145-4.561,12.721C60.65,21.833,58.383,13.255,59.333,9.726z"/>
	<path style="fill:#EBE2D3;" d="M73.013,8.767c0.316-1.284,0.629-2.572,0.72-4.08c-0.859,0.02-1.387,0.373-2.159,0.48
		c0.16,1.36-0.54,1.86-0.721,2.88C71.622,8.237,72.064,8.755,73.013,8.767z"/>
	<path style="fill:#EBE2D3;" d="M53.333,37.086c0.678,0.198,0.621-0.338,1.2-0.239c-0.046-1.963,2.122-5.563,0-7.44
		C51.128,30.616,52.776,33.767,53.333,37.086z"/>
	<path style="fill:#EBE2D3;" d="M53.093,16.927c0.318-1.762,0.813-3.348,1.2-5.041c-2.368-0.272-4.329,3.17-4.08,5.521
		C51.455,17.527,51.69,16.643,53.093,16.927z"/>
	<path style="fill:#EBE2D3;" d="M64.373,18.366c0.058-1.022-0.912-3.084-0.96-4.801c-4.796-1.734-2.727,4.264-2.16,6.48
		C62.249,19.443,63.693,19.286,64.373,18.366z"/>
	<path style="fill:#EBE2D3;" d="M65.813,16.687c0.49,2.47,1.538,4.381,1.44,7.44c2.881-0.677,2.936-6.398,1.68-9.6
		C67.607,14.96,66.659,15.771,65.813,16.687z"/>
	<path style="fill:#EBE2D3;" d="M70.373,9.966c-0.644,3.255,1.048,6.115,1.2,9.36C74.803,18.189,74.818,9.847,70.373,9.966z"/>
	<path style="fill:#EBE2D3;" d="M63.414,11.886c-0.032-1.378,0.714-3.034,0.479-3.84c-2.225-0.064-2.354,1.965-2.88,3.6
		C61.645,11.895,62.486,11.933,63.414,11.886z"/>
	<path style="fill:#EBE2D3;" d="M69.414,6.126c-4.514-0.486-4.717,4.525-4.08,8.4C68.974,14.007,68.71,9.583,69.414,6.126z"/>
	<path style="fill:#EBE2D3;" d="M76.133,16.927c1.775,0.609,3.046-0.594,4.8-0.721C79.745,13.304,77.067,14.788,76.133,16.927z"/>
	<path style="fill:#EBE2D3;" d="M39.173,84.607c1.603,2.754,4.517,3.447,6.96,0.959C44.757,82.642,41.673,82.769,39.173,84.607z"/>
	<path style="fill:#EBE2D3;" d="M35.813,84.126c-1.089,1.873-2.966,3.592-1.439,6.24c2.42-0.061,3.628-1.332,5.76-1.68
		C39.111,86.749,37.81,85.089,35.813,84.126z"/>
	<path style="fill:#EBE2D3;" d="M16.373,76.446c-0.353,1.135-0.594,2.082,0,3.119c2.075-0.584,4.235,0.65,5.76,1.92
		c0.388-0.49,1.155-0.604,1.68-0.959C21.875,78.624,19.72,76.939,16.373,76.446z"/>
	<path style="fill:#EBE2D3;" d="M23.333,82.687c1.286,1.674,1.006,4.914,3.6,5.279C26.659,85.208,26.322,79.855,23.333,82.687z"/>
	<path style="fill:#EBE2D3;" d="M30.773,73.806c-3.486,3.594,2.149,6.389,2.4,10.561C37.304,81.97,32.475,76.267,30.773,73.806z"/>
	<path style="fill:#EBE2D3;" d="M27.653,78.366c-0.493,0.705-1.085,1.314-1.439,2.16c2.361,1.527,2.224,6.395,2.64,9.119
		c1.07,0.377,2.486,1.121,3.601,0.721C31.622,85.597,31.14,80.48,27.653,78.366z"/>
	<path style="fill:#EBE2D3;" d="M17.813,85.566c1.27,0.531,3.499,1.246,5.04,0.721C23.053,82.749,18.521,82.898,17.813,85.566z"/>
	<path style="fill:#EBE2D3;" d="M72.534,29.406c2.379,1.54,4.461,3.379,8.64,3.12c0.417-0.863,0.556-2.005,0.479-3.36
		C78.091,27.467,75.384,26.444,72.534,29.406z"/>
	<path style="fill:#EBE2D3;" d="M74.933,37.566c1.346,0.815,3.137,1.183,5.04,1.44c0.671-1.329,0.921-3.079,1.2-4.8
		C78.161,34.394,75.241,34.673,74.933,37.566z"/>
	<path style="fill:#EBE2D3;" d="M28.613,74.046c4.646-3.281-6.801-7.021-9.6-8.4C18.784,71.876,26.846,69.814,28.613,74.046z"/>
	<path style="fill:#EBE2D3;" d="M41.333,77.646c1.714,2.906,6.091,9.037,9.12,4.801c-0.531-0.912-1.604-3.354-2.4-4.801
		C45.474,77.743,43.84,77.896,41.333,77.646z"/>
	<path style="fill:#EBE2D3;" d="M62.693,31.806c1.096-0.121,1.36,0.417,2.16,0C66.084,28.624,63.027,30.121,62.693,31.806z"/>
	<path style="fill:#EBE2D3;" d="M65.093,20.527c-3.907-0.139-3.298,2.693-2.88,6c0.834,0.285,1.728,0.512,2.399,0.959
		C65.553,25.584,65.746,22.81,65.093,20.527z"/>
	<path style="fill:#EBE2D3;" d="M25.253,78.607c0.707-0.732,1.213-1.668,1.92-2.4c-1.101-2.82-3.521-4.318-6.96-4.801
		C19.095,75.491,21.706,77.509,25.253,78.607z"/>
	<path style="fill:#EBE2D3;" d="M43.733,30.366c-1.646-0.608-3.257,0.471-5.279,0.24c-1.054,3.354,0.206,4.983,1.68,7.68
		C42.466,36.779,42.396,32.869,43.733,30.366z"/>
	<path style="fill:#EBE2D3;" d="M57.173,36.607c3.86-0.645,5.99,2.82,8.4,2.64c1.721-0.13,2.316-3.165,5.039-1.92
		C69.32,33.8,59.168,31.445,57.173,36.607z"/>
	<path style="fill:#EBE2D3;" d="M11.813,75.247c1.928-0.445,4.572-0.725,6.721-0.24c0.089-1.451-0.068-2.652-0.24-3.84
		c-3.42-0.111-4.511,0.725-7.441,1.199C10.764,73.736,11.29,74.489,11.813,75.247z"/>
	<path style="fill:#EBE2D3;" d="M37.013,40.687c1.063,3.017,2.895,5.264,4.32,7.92C42.855,45.622,41.316,39.51,37.013,40.687z"/>
	<path style="fill:#EBE2D3;" d="M24.534,60.607c-1.702-1.535-5.28-1.264-7.681-0.481c-0.273,4.436,5.163,4.438,7.681,5.279
		C23.82,64.046,24.664,62.181,24.534,60.607z"/>
	<path style="fill:#EBE2D3;" d="M24.534,58.446c1.73-5.52-6.418-3.16-8.16-6c-0.906,1.52-1.168,4.879-1.681,6
		C18.054,58.29,21.623,57.001,24.534,58.446z"/>
	<path style="fill:#EBE2D3;" d="M69.653,23.886c-1.606,0.531-2.059,3.496-3.119,4.08c1.688,0.934,8.338,0.334,8.159-2.16
		C74.621,24.79,71.193,23.378,69.653,23.886z"/>
	<path style="fill:#EBE2D3;" d="M48.534,55.327c0.116-1.938,0.441-3.844,0-6C39.723,47.789,43.404,55.482,48.534,55.327z"/>
	<path style="fill:#EBE2D3;" d="M26.454,61.806c-1.496,1.678,0.747,3.803,0,5.519c1.614,0.865,3.377,1.584,5.04,2.4
		C32.805,65.476,29.768,62.859,26.454,61.806z"/>
	<path style="fill:#EBE2D3;" d="M25.013,51.486c1.616,0.945,2.662,2.459,4.561,3.121c-0.096-3.984-0.919-7.242-2.641-9.601
		C26.048,46.782,25.226,49.831,25.013,51.486z"/>
	<path style="fill:#EBE2D3;" d="M41.574,81.726c-1.096-1.863-2.217-3.703-3.36-5.519c-0.413,0.947-1.965,0.756-2.88,1.199
		C35.653,80.415,38.212,84.771,41.574,81.726z"/>
	<path style="fill:#EBE2D3;" d="M50.693,78.126c-0.598,4.266,4.116,2.957,4.08,0.721C52.974,79.046,52.185,78.234,50.693,78.126z"/>
	<path style="fill:#EBE2D3;" d="M37.973,75.007c0.339-3.045-5.628-6.242-5.76-3.121C32.133,73.775,34.864,77.032,37.973,75.007z"/>
	<path style="fill:#EBE2D3;" d="M29.093,44.767c0.626,2.493,2.129,4.111,1.92,7.439C36.221,51.698,33.232,42.303,29.093,44.767z"/>
	<path style="fill:#EBE2D3;" d="M38.693,54.366c2.83-1.68,0.788-5.505-0.72-7.439C34.896,49.181,38.422,51.413,38.693,54.366z"/>
	<path style="fill:#EBE2D3;" d="M39.893,56.286c3.543-0.404,6.584,4.713,8.4,0.959c-2.588-1.09-5.038-2.32-7.2-3.838
		C40.825,54.499,40.191,55.224,39.893,56.286z"/>
	<path style="fill:#EBE2D3;" d="M34.853,51.007c-0.447,1.471-1.658,2.182-2.88,2.879c-0.323,3.764,3.721,3.16,3.601,6.721
		C37.479,59.14,37.394,52.15,34.853,51.007z"/>
	<path style="fill:#EBE2D3;" d="M33.653,64.927c2.319-5.584-3.815-8.559-7.92-10.08c0.322,1.584,0.642,2.803,0.24,4.559
		C28.917,60.862,31.817,62.362,33.653,64.927z"/>
	<path style="fill:#EBE2D3;" d="M72.053,51.966c1.452-0.307,4.316,0.797,4.32-0.959C74.934,50.39,71.758,49.153,72.053,51.966z"/>
	<path style="fill:#EBE2D3;" d="M73.253,48.366c1.043,0.477,2.515,0.525,3.84,0.721c0.594-0.688,1.12-1.441,0.96-2.881
		C75.206,45.667,73.533,45.627,73.253,48.366z"/>
	<path style="fill:#EBE2D3;" d="M75.653,44.286c0.774,0.346,2.014,0.227,3.12,0.24c0.506-1.095,0.729-2.472,0.96-3.84
		c-0.747-0.293-1.521-0.558-2.64-0.48C76.951,41.903,75.868,42.661,75.653,44.286z"/>
	<path style="fill:#EBE2D3;" d="M45.653,72.366c-0.704,1.135-1.404,2.275-1.92,3.6c6.382-1.066,14.245,4.125,15.12-1.199
		C53.296,75.814,48.866,74.833,45.653,72.366z"/>
	<path style="fill:#EBE2D3;" d="M57.173,55.566c6.588-0.652,10.889-1.363,17.04,0c0.428-0.692,0.838-1.4,1.2-2.158
		C69,53.907,59.75,48.324,57.173,55.566z"/>
	<path style="fill:#EBE2D3;" d="M64.133,61.087c3.735-0.506,8.459-0.021,8.88-3.842C69.504,57.175,65.261,58.021,64.133,61.087z"/>
	<path style="fill:#EBE2D3;" d="M58.373,73.087c3.643,0.201,4.562-2.318,5.76-4.561C61.242,67.382,59.83,71.261,58.373,73.087z"/>
	<path style="fill:#EBE2D3;" d="M58.613,63.245c-0.441,1.24-1.204,2.156-1.68,3.361c2.852-0.111,5.953-0.557,8.4,0.24
		c1.38-1.5,2.93-2.83,4.08-4.56C66.255,62.167,62.247,63.062,58.613,63.245z"/>
	<path style="fill:#EBE2D3;" d="M67.013,56.286c-3.946-0.113-8.655,0.773-6.479,5.279C63.752,60.866,64.363,57.556,67.013,56.286z"
		/>
	<path style="fill:#EBE2D3;" d="M49.494,40.446c4.009-1.771,0.935-9.414-0.96-11.76C44.071,32.011,48.446,36.073,49.494,40.446z"/>
	<path style="fill:#EBE2D3;" d="M44.454,70.927c-1.962-1.646-4.788-2.643-6,0.24c0.788,1.451,1.207,3.271,2.159,4.559
		C43.232,75.464,43.591,72.945,44.454,70.927z"/>
	<path style="fill:#EBE2D3;" d="M47.093,65.886c-1.324-1.273-12.088-7.555-10.8-0.959C36.76,67.314,45.763,69.798,47.093,65.886z"/>
	<path style="fill:#EBE2D3;" d="M38.454,68.767c-1.721-0.279-2.542-1.459-3.841-2.16C32.758,68.919,37.752,71.806,38.454,68.767z"/>
	<path style="fill:#EBE2D3;" d="M50.693,49.566c-0.07,2.006-1.191,5.557,0.721,6.48c3.155,1.525,5.657-2.471,6.96-4.799
		C56.264,50.689,53.284,49.706,50.693,49.566z"/>
	<path style="fill:#EBE2D3;" d="M38.213,59.886c3.445,0.555,5.415,2.586,8.64,3.359C47.028,59.468,39.746,55.935,38.213,59.886z"/>
	<path style="fill:#EBE2D3;" d="M58.853,57.245c-3.6,1.063-8.819-0.711-10.319,2.641c1.361,2.158,5.038,2.002,8.64,1.92
		C58.053,60.607,58.713,59.187,58.853,57.245z"/>
	<path style="fill:#EBE2D3;" d="M73.253,36.366c1.15-0.85,1.536-2.463,3.12-2.881c-2.807-0.588-8.984-7.102-10.08-1.199
		C69.047,33.212,70.774,35.165,73.253,36.366z"/>
	<path style="fill:#EBE2D3;" d="M45.414,69.726c2.265,0.856,3.126,3.113,6,3.361c-0.392-2.633,1.164-3.316,1.68-5.041
		C49.488,66.155,47.915,67.825,45.414,69.726z"/>
	<path style="fill:#EBE2D3;" d="M48.534,62.286c0,0.721,0,1.439,0,2.16c2.513,1.645,7.786,3.654,8.159-1.201
		C53.79,63.946,50.473,63.316,48.534,62.286z"/>
	<path style="fill:#EBE2D3;" d="M50.454,41.646c3.603,0.901,8.15-0.191,11.519,1.201c0.054-1.387,1.668-1.213,2.16-2.16
		C60.105,37.665,53.098,37.751,50.454,41.646z"/>
	<path style="fill:#EBE2D3;" d="M55.013,24.126c-0.122,1.563,0.758,2.123,0.96,3.359c1.861-0.067,3.214,1.27,4.8,0.721
		c-0.038-2.842-0.431-5.329-1.68-6.96C58.169,22.642,56.848,23.641,55.013,24.126z"/>
	<path style="fill:#EBE2D3;" d="M60.293,30.126c-1.198-0.162-1.973-0.748-3.36-0.72c-0.067,1.204,0.536,3.712-0.24,5.28
		C58.615,33.888,59.842,32.396,60.293,30.126z"/>
	<path style="fill:#EBE2D3;" d="M45.173,47.646c2.386,0.542,3.928-2.035,2.64-3.6C47.014,45.327,45.49,45.883,45.173,47.646z"/>
	<path style="fill:#EBE2D3;" d="M77.093,20.286c-2.484-2.38-4.602,0.011-5.76,2.16c2.069-0.069,3.003,0.996,4.56,1.44
		C76.077,22.47,76.851,21.644,77.093,20.286z"/>
	<path style="fill:#EBE2D3;" d="M65.574,46.206c-3.469-2.684-8.177,0.832-11.04,2.4C59.119,50.329,63.224,49.501,65.574,46.206z"/>
	<path style="fill:#EBE2D3;" d="M71.333,49.327c-2.399-2.83-5.531-1.986-7.44,0.719C66.6,49.931,70.544,52.396,71.333,49.327z"/>
	<path style="fill:#EBE2D3;" d="M75.414,39.726c-2.691-0.16-7.086-2.193-8.16,0.721c2.229,0.971,4.015,2.385,6.479,3.119
		C74.374,42.367,75.459,41.612,75.414,39.726z"/>
	<path style="fill:#EBE2D3;" d="M59.813,44.046c-3.061-0.752-6.494,0.148-9.84-0.48c-0.036,1.221-0.204,1.937-0.24,3.6
		C53.451,47.409,57.267,45.765,59.813,44.046z"/>
	<path style="fill:#EBE2D3;" d="M72.773,45.246c-3.093-0.907-6.822-5.801-9.359-1.681c3.309,0.691,5.573,2.427,8.399,3.6
		C72.386,46.778,72.618,46.05,72.773,45.246z"/>
	<path style="fill:#EBE2D3;" d="M53.333,73.566c3.785-0.215,4.84-3.158,6.72-5.279C55.82,67.98,52.284,69.355,53.333,73.566z"/>
	<path style="fill:#BCB37E;" d="M64.133,74.767c5.71-10.537,14.421-19.961,18.24-33.121c1.931-6.652,1.672-14.061,4.319-20.879
		c3.074-7.914,8.019-13.764,11.521-20.4c-3.896-0.945-10.734,0.174-16.08,0.72c-21.561,2.204-35.585,12.19-50.4,22.32
		c-3.897,2.665-8.732,4.851-11.519,7.68c-1.324,1.344-2.16,3.385-3.601,5.04c-2.127,2.445-5.449,4.016-7.439,6.24
		c-4.94,5.521-8.475,17.807-8.16,25.68c0.462,11.557,6.037,16.318,14.88,19.68c-5.009,4.998-11.747,13.609-13.92,22.801
		c-1.302,5.506-4.818,16.441,2.64,16.561c1.331-2.813,1.031-7.385,1.921-11.281c0.666-2.92,2.9-6.744,4.8-9.84
		c2.066-3.367,3.306-6.83,5.04-9.6c1.068-1.707,4.968-6.213,6.72-6.48c2.875-0.438,6.514,3.012,9.36,3.361
		c5.147,0.631,9.016-1.836,12.479-3.602C52.191,85.948,58.344,79.482,64.133,74.767z M41.333,77.646c2.507,0.25,4.141,0.098,6.72,0
		c0.796,1.447,1.869,3.889,2.4,4.801C47.424,86.683,43.047,80.552,41.333,77.646z M19.013,65.646c2.799,1.379,14.246,5.119,9.6,8.4
		C26.846,69.814,18.784,71.876,19.013,65.646z M27.173,76.206c-0.707,0.732-1.213,1.668-1.92,2.4
		c-3.547-1.098-6.158-3.115-5.04-7.201C23.652,71.888,26.073,73.386,27.173,76.206z M16.853,60.126
		c2.4-0.783,5.979-1.055,7.681,0.481c0.13,1.574-0.714,3.439,0,4.799C22.016,64.564,16.58,64.562,16.853,60.126z M18.534,75.007
		c-2.148-0.484-4.793-0.205-6.721,0.24c-0.523-0.758-1.049-1.512-0.96-2.881c2.93-0.475,4.021-1.311,7.441-1.199
		C18.465,72.355,18.623,73.556,18.534,75.007z M14.693,58.446c0.513-1.121,0.774-4.48,1.681-6c1.742,2.84,9.891,0.48,8.16,6
		C21.623,57.001,18.054,58.29,14.693,58.446z M41.333,48.607c-1.425-2.656-3.258-4.903-4.32-7.92
		C41.316,39.51,42.855,45.622,41.333,48.607z M40.133,38.286c-1.474-2.696-2.733-4.326-1.68-7.68c2.022,0.23,3.634-0.849,5.279-0.24
		C42.396,32.869,42.466,36.779,40.133,38.286z M64.613,27.486c-0.671-0.447-1.565-0.674-2.399-0.959
		c-0.418-3.307-1.027-6.139,2.88-6C65.746,22.81,65.553,25.584,64.613,27.486z M64.853,31.806c-0.8,0.417-1.064-0.121-2.16,0
		C63.027,30.121,66.084,28.624,64.853,31.806z M70.613,37.326c-2.723-1.245-3.318,1.79-5.039,1.92c-2.41,0.181-4.54-3.284-8.4-2.64
		C59.168,31.445,69.32,33.8,70.613,37.326z M74.693,25.806c0.179,2.494-6.471,3.094-8.159,2.16c1.061-0.584,1.513-3.549,3.119-4.08
		C71.193,23.378,74.621,24.79,74.693,25.806z M71.333,22.446c1.158-2.149,3.275-4.54,5.76-2.16c-0.242,1.357-1.017,2.184-1.2,3.6
		C74.336,23.443,73.403,22.377,71.333,22.446z M76.373,33.486c-1.584,0.418-1.97,2.031-3.12,2.881
		c-2.479-1.201-4.206-3.154-6.96-4.08C67.389,26.384,73.567,32.898,76.373,33.486z M48.534,64.446c0-0.721,0-1.439,0-2.16
		c1.939,1.029,5.256,1.66,8.159,0.959C56.32,68.101,51.046,66.091,48.534,64.446z M60.053,68.286
		c-1.88,2.121-2.934,5.064-6.72,5.279C52.284,69.355,55.82,67.98,60.053,68.286z M51.414,73.087c-2.874-0.248-3.735-2.506-6-3.361
		c2.502-1.9,4.074-3.57,7.68-1.68C52.578,69.771,51.022,70.454,51.414,73.087z M44.454,70.927c-0.862,2.018-1.222,4.537-3.841,4.799
		c-0.952-1.287-1.371-3.107-2.159-4.559C39.665,68.284,42.492,69.28,44.454,70.927z M34.613,66.607
		c1.299,0.701,2.12,1.881,3.841,2.16C37.752,71.806,32.758,68.919,34.613,66.607z M36.293,64.927
		c-1.288-6.596,9.475-0.314,10.8,0.959C45.763,69.798,36.76,67.314,36.293,64.927z M38.213,59.886
		c1.532-3.951,8.814-0.418,8.64,3.359C43.628,62.472,41.659,60.441,38.213,59.886z M48.534,59.886
		c1.5-3.352,6.72-1.578,10.319-2.641c-0.14,1.941-0.8,3.361-1.68,4.561C53.572,61.888,49.895,62.044,48.534,59.886z M51.414,56.046
		c-1.911-0.924-0.791-4.475-0.721-6.48c2.591,0.141,5.571,1.123,7.681,1.682C57.071,53.575,54.569,57.571,51.414,56.046z
		 M49.733,47.166c0.036-1.664,0.204-2.38,0.24-3.6c3.346,0.629,6.779-0.271,9.84,0.48C57.267,45.765,53.451,47.409,49.733,47.166z
		 M54.534,48.607c2.863-1.568,7.571-5.084,11.04-2.4C63.224,49.501,59.119,50.329,54.534,48.607z M71.333,49.327
		c-0.789,3.068-4.733,0.604-7.44,0.719C65.802,47.341,68.934,46.497,71.333,49.327z M63.414,43.566
		c2.537-4.12,6.267,0.773,9.359,1.681c-0.155,0.804-0.387,1.532-0.96,1.92C68.987,45.992,66.722,44.257,63.414,43.566z
		 M67.253,40.446c1.074-2.914,5.469-0.881,8.16-0.721c0.046,1.887-1.039,2.642-1.681,3.84
		C71.268,42.831,69.483,41.417,67.253,40.446z M56.933,29.406c1.388-0.028,2.162,0.558,3.36,0.72
		c-0.451,2.269-1.679,3.762-3.601,4.56C57.469,33.118,56.866,30.611,56.933,29.406z M55.973,27.486
		c-0.202-1.236-1.082-1.797-0.96-3.359c1.835-0.485,3.156-1.484,4.08-2.88c1.249,1.631,1.642,4.118,1.68,6.96
		C59.187,28.755,57.834,27.418,55.973,27.486z M64.133,40.687c-0.492,0.947-2.106,0.774-2.16,2.16
		c-3.369-1.393-7.917-0.3-11.519-1.201C53.098,37.751,60.105,37.665,64.133,40.687z M49.494,40.446
		c-1.048-4.373-5.423-8.436-0.96-11.76C50.429,31.032,53.502,38.676,49.494,40.446z M45.173,47.646
		c0.316-1.763,1.841-2.318,2.64-3.6C49.101,45.611,47.559,48.188,45.173,47.646z M48.534,49.327c0.441,2.156,0.116,4.063,0,6
		C43.404,55.482,39.723,47.789,48.534,49.327z M48.293,57.245c-1.816,3.754-4.858-1.363-8.4-0.959
		c0.298-1.063,0.932-1.787,1.2-2.879C43.255,54.925,45.706,56.155,48.293,57.245z M37.973,46.927c1.508,1.935,3.55,5.76,0.72,7.439
		C38.422,51.413,34.896,49.181,37.973,46.927z M35.574,60.607c0.12-3.561-3.924-2.957-3.601-6.721
		c1.222-0.697,2.433-1.408,2.88-2.879C37.394,52.15,37.479,59.14,35.574,60.607z M31.013,52.206c0.209-3.328-1.294-4.946-1.92-7.439
		C33.232,42.303,36.221,51.698,31.013,52.206z M29.574,54.607c-1.898-0.662-2.944-2.176-4.561-3.121
		c0.213-1.654,1.035-4.703,1.92-6.479C28.655,47.364,29.478,50.622,29.574,54.607z M26.454,67.325c0.747-1.717-1.496-3.842,0-5.519
		c3.314,1.053,6.352,3.67,5.04,7.92C29.831,68.909,28.068,68.191,26.454,67.325z M25.973,59.405c0.401-1.756,0.082-2.975-0.24-4.559
		c4.104,1.521,10.239,4.496,7.92,10.08C31.817,62.362,28.917,60.862,25.973,59.405z M37.973,75.007
		c-3.109,2.025-5.84-1.232-5.76-3.121C32.345,68.765,38.312,71.962,37.973,75.007z M38.213,76.206
		c1.143,1.816,2.265,3.656,3.36,5.519c-3.361,3.045-5.921-1.31-6.24-4.32C36.248,76.962,37.8,77.153,38.213,76.206z M50.693,78.126
		c1.492,0.107,2.281,0.92,4.08,0.721C54.809,81.083,50.095,82.392,50.693,78.126z M43.733,75.966c0.516-1.324,1.216-2.465,1.92-3.6
		c3.213,2.467,7.644,3.447,13.2,2.4C57.978,80.091,50.115,74.9,43.733,75.966z M58.373,73.087c1.456-1.826,2.868-5.705,5.76-4.561
		C62.936,70.769,62.016,73.288,58.373,73.087z M65.333,66.847c-2.447-0.797-5.548-0.352-8.4-0.24
		c0.476-1.205,1.238-2.121,1.68-3.361c3.634-0.184,7.643-1.078,10.801-0.959C68.263,64.017,66.713,65.347,65.333,66.847z
		 M67.013,56.286c-2.65,1.27-3.261,4.58-6.479,5.279C58.358,57.06,63.067,56.173,67.013,56.286z M64.133,61.087
		c1.128-3.066,5.371-3.912,8.88-3.842C72.592,61.066,67.869,60.581,64.133,61.087z M74.213,55.566
		c-6.151-1.363-10.452-0.652-17.04,0c2.577-7.241,11.827-1.658,18.24-2.158C75.051,54.165,74.641,54.874,74.213,55.566z
		 M72.053,51.966c-0.295-2.813,2.881-1.576,4.32-0.959C76.37,52.763,73.505,51.659,72.053,51.966z M77.093,49.087
		c-1.325-0.195-2.797-0.244-3.84-0.721c0.279-2.739,1.953-2.699,4.8-2.16C78.213,47.646,77.687,48.4,77.093,49.087z M78.773,44.527
		c-1.106-0.014-2.346,0.105-3.12-0.24c0.215-1.625,1.298-2.383,1.44-4.08c1.119-0.078,1.893,0.188,2.64,0.48
		C79.502,42.055,79.279,43.432,78.773,44.527z M79.973,39.006c-1.903-0.257-3.694-0.625-5.04-1.44
		c0.308-2.893,3.228-3.172,6.24-3.359C80.894,35.927,80.644,37.677,79.973,39.006z M81.173,32.527
		c-4.179,0.259-6.261-1.58-8.64-3.12c2.851-2.963,5.558-1.94,9.119-0.24C81.729,30.522,81.59,31.663,81.173,32.527z M82.133,27.246
		c-2.444,0.124-3.386-1.254-5.04-1.92c0.244-5.142,2.791-2.515,6.24-1.92C83.407,25.159,82.558,25.991,82.133,27.246z
		 M84.053,21.966c-3.288,0.248-3.783-2.297-6-3.119c2.287-0.883,5.083-2.646,7.68-1.201C85.298,19.211,84.581,20.493,84.053,21.966z
		 M86.933,15.726c-2.488,0.088-4.017-0.783-5.52-1.68c2.292-0.065,4.493-2.107,6.72-0.72C87.849,14.241,87.254,14.847,86.933,15.726
		z M94.373,3.006c-0.326,1.194-1.063,1.978-1.681,2.88c-1.563-0.197-3.652,0.133-4.08-1.199C90.534,4.126,92.048,3.161,94.373,3.006
		z M86.213,2.767c0.247,1.767-0.973,2.066-2.16,2.399C83.834,3.427,84.309,2.382,86.213,2.767z M91.733,7.806
		c-0.946,4.865-5.88,3.908-8.159,0.721C85.078,4.892,88.478,7.066,91.733,7.806z M84.053,11.886c-1.147,0.731-1.874,0.092-3.36,0
		C80.939,9.601,83.734,9.616,84.053,11.886z M80.454,3.246c0.598-0.202,1.285-0.313,2.159-0.24c0.073,3.112-0.947,5.132-2.399,6.72
		C79.741,7.97,79.838,4.714,80.454,3.246z M80.933,16.206c-1.754,0.127-3.024,1.33-4.8,0.721
		C77.067,14.788,79.745,13.304,80.933,16.206z M78.053,3.486c0.755,3.426-0.019,9.4-2.16,11.521
		C74.39,11.811,73.648,4.042,78.053,3.486z M71.574,5.166c0.772-0.106,1.3-0.46,2.159-0.48c-0.091,1.508-0.403,2.796-0.72,4.08
		c-0.949-0.012-1.392-0.529-2.16-0.721C71.034,7.027,71.734,6.527,71.574,5.166z M70.373,9.966c4.444-0.119,4.43,8.223,1.2,9.36
		C71.421,16.081,69.73,13.221,70.373,9.966z M67.253,24.126c0.098-3.059-0.95-4.97-1.44-7.44c0.846-0.916,1.794-1.726,3.12-2.16
		C70.189,17.729,70.134,23.449,67.253,24.126z M69.414,6.126c-0.703,3.457-0.439,7.881-4.08,8.4
		C64.697,10.652,64.9,5.64,69.414,6.126z M63.893,8.046c0.234,0.806-0.512,2.462-0.479,3.84c-0.928,0.047-1.769,0.009-2.4-0.24
		C61.539,10.011,61.668,7.982,63.893,8.046z M63.414,13.566c0.048,1.717,1.018,3.778,0.96,4.801c-0.681,0.92-2.124,1.076-3.12,1.68
		C60.687,17.829,58.618,11.831,63.414,13.566z M59.333,9.726c-0.95,3.529,1.316,12.107-4.561,12.721
		C54.373,17.87,54.127,10.634,59.333,9.726z M54.534,36.847c-0.579-0.099-0.522,0.438-1.2,0.239c-0.558-3.319-2.205-6.47,1.2-7.68
		C56.656,31.284,54.488,34.884,54.534,36.847z M54.293,11.886c-0.388,1.693-0.882,3.279-1.2,5.041
		c-1.403-0.284-1.639,0.6-2.88,0.479C49.964,15.056,51.925,11.614,54.293,11.886z M49.733,19.326
		c0.914-0.206,1.591-0.649,2.88-0.479c-0.643,3.702,3.896,9.666-1.439,10.799C50.149,26.751,49.48,23.499,49.733,19.326z
		 M48.773,15.006c-2.116,4.741,1.826,12.917-3.12,14.4C45.027,24.833,44.834,15.761,48.773,15.006z M43.973,45.726
		c-0.568-2.15-1.382-4.058-2.64-5.52c1.37-1.83,2.319-4.08,2.88-6.721C47.412,36.2,49.33,44.056,43.973,45.726z M44.213,17.166
		c0.711,3.593-1.358,6.481-0.72,10.8c-1.079,0.418-3.102,0.983-4.08,0.721c0.951-3.689,3.633-5.646,3.359-10.56
		C43.178,17.731,43.852,17.605,44.213,17.166z M40.613,19.566c0.922,0.452-0.367,2.607-0.479,3.601
		c-0.76-0.44-0.729-1.671-0.96-2.64C39.677,20.231,40.109,19.862,40.613,19.566z M37.013,21.966c2.67,1.955,1.645,5.995-0.48,7.92
		C36.263,27.552,35.871,23.622,37.013,21.966z M34.613,24.126c-0.563,5.83,1.598,10.616,3.601,14.641
		c-0.454,0.426-1.585,0.174-2.4,0.239C34.294,35.638,30.105,26.758,34.613,24.126z M35.574,47.406
		c-2.104-2.697-3.313-6.288-4.56-9.841c0.395,0.17,0.853-0.557,1.44-0.479C33.501,37.225,38.962,46.202,35.574,47.406z
		 M30.534,26.767c0.614,2.745,0.854,5.865,1.439,8.64C27.937,36.668,29.433,29.038,30.534,26.767z M27.653,28.446
		c-0.629,5.648,1.594,9.717,3.12,13.92c-0.887,0.233-1.378,0.861-2.64,0.72C27.613,38.796,22.555,30.951,27.653,28.446z
		 M23.093,31.806c0.765,1.397,0.81,3.51,1.44,5.041c-1.277-0.883-2.36-1.961-3.601-2.881C21.194,32.786,22.323,32.476,23.093,31.806
		z M20.213,35.646c1.761,1.119,2.725,3.035,5.04,3.601c1.16,3.901-0.836,6.415-1.68,9.601
		C22.106,45.015,19.523,40.072,20.213,35.646z M17.574,37.326c2.213,4.827,2.941,11.14,5.76,15.36c-3.974,0.664-5.588-1.139-6-5.521
		C16.902,42.587,13.873,39.685,17.574,37.326z M13.494,41.646c1.497,0.072,1.785,4.877,1.92,6.721
		C13.667,48.012,10.649,41.51,13.494,41.646z M10.133,45.246c2.742,2.442,5.656,5.642,3.6,10.319c-1.721-2.438-4.337-3.983-6-6.479
		C8.311,47.583,9.473,46.667,10.133,45.246z M6.773,51.247c1.883,2.197,5.096,3.064,5.28,6.959
		C7.549,58.657,4.242,54.177,6.773,51.247z M4.613,56.286c1.972,2.748,5.063,4.377,10.32,3.84c0.532,0.748-0.019,2.58,0.481,3.359
		c-5.27,3.277-7.733-0.24-12-2.639C3.748,59.261,4.103,57.696,4.613,56.286z M3.414,63.007c1.866,0.373,3.091,1.389,3.84,2.879
		c-1.068,0.293-2.459,0.262-3.84,0.24C3.035,65.513,3.035,63.618,3.414,63.007z M3.414,68.046c5.62,0.102,8.373-2.666,13.68-2.879
		c0.287,1.393,0.969,2.391,0.72,4.318c-5.15,0.209-8.442,2.277-14.16,1.92C3.55,70.31,3.289,69.372,3.414,68.046z M5.813,77.646
		c-0.122-1.678-1.686-3.057-1.439-4.32c1.641-0.479,2.671-0.275,4.319-0.479c0.439,1.08,1.044,1.996,1.2,3.359
		C8.435,76.589,7.626,77.618,5.813,77.646z M7.013,79.087c2.485-0.795,4.219-2.342,7.2-2.641c0.677,0.975-0.185,2.115,0,3.359
		C12.345,80.911,7.447,82.562,7.013,79.087z M11.093,82.927c1.99-1.023,5.632-2.504,8.4-1.201
		C17.698,84.314,14.107,84.917,11.093,82.927z M12.053,101.886c-3.676,6.689-8.357,12.186-8.16,23.041
		c-2.609,0.314-2.368-2.068-2.16-4.08c1.424-13.744,8.116-25.639,16.561-32.881c0.54-0.801,2.423-0.018,3.359,0.24
		C17.369,91.96,15.291,95.993,12.053,101.886z M17.813,85.566c0.708-2.668,5.24-2.816,5.04,0.721
		C21.312,86.812,19.082,86.097,17.813,85.566z M22.133,81.486c-1.524-1.27-3.685-2.504-5.76-1.92c-0.594-1.037-0.353-1.984,0-3.119
		c3.347,0.492,5.502,2.178,7.439,4.08C23.289,80.882,22.521,80.995,22.133,81.486z M23.333,82.687
		c2.988-2.832,3.325,2.521,3.6,5.279C24.339,87.601,24.62,84.361,23.333,82.687z M28.853,89.646
		c-0.416-2.725-0.278-7.592-2.64-9.119c0.354-0.846,0.946-1.455,1.439-2.16c3.487,2.113,3.969,7.23,4.801,12
		C31.339,90.767,29.923,90.023,28.853,89.646z M30.773,73.806c1.702,2.461,6.531,8.164,2.4,10.561
		C32.922,80.195,27.287,77.4,30.773,73.806z M34.373,90.366c-1.526-2.648,0.351-4.367,1.439-6.24
		c1.997,0.963,3.298,2.623,4.32,4.561C38.001,89.034,36.793,90.306,34.373,90.366z M39.173,84.607c2.5-1.838,5.584-1.965,6.96,0.959
		C43.69,88.054,40.776,87.361,39.173,84.607z"/>
</g>
</svg>
