<?xml version="1.0" encoding="utf-8"?>
<!-- Generator: Adobe Illustrator 19.2.0, SVG Export Plug-In . SVG Version: 6.00 Build 0)  -->
<svg version="1.1"
	 id="svg3369" inkscape:version="0.91 r13725" sodipodi:docname="drawing.svg" xmlns:cc="http://creativecommons.org/ns#" xmlns:dc="http://purl.org/dc/elements/1.1/" xmlns:inkscape="http://www.inkscape.org/namespaces/inkscape" xmlns:rdf="http://www.w3.org/1999/02/22-rdf-syntax-ns#" xmlns:sodipodi="http://sodipodi.sourceforge.net/DTD/sodipodi-0.dtd" xmlns:svg="http://www.w3.org/2000/svg"
	 xmlns="http://www.w3.org/2000/svg" xmlns:xlink="http://www.w3.org/1999/xlink" x="0px" y="0px" viewBox="0 0 79.4 79.4"
	 style="enable-background:new 0 0 79.4 79.4;" xml:space="preserve">
<style type="text/css">
	.st0{fill:none;stroke:#B24F46;stroke-miterlimit:10;}
</style>
<sodipodi:namedview  bordercolor="#666666" borderopacity="1.0" id="base" inkscape:current-layer="layer2" inkscape:cx="59.617349" inkscape:cy="942.24849" inkscape:document-units="px" inkscape:pageopacity="0.0" inkscape:pageshadow="2" inkscape:window-height="1057" inkscape:window-maximized="1" inkscape:window-width="1858" inkscape:window-x="54" inkscape:window-y="-8" inkscape:zoom="2.56" pagecolor="#ffffff" showgrid="false">
	</sodipodi:namedview>
<g id="layer2" inkscape:groupmode="layer" inkscape:label="Layer 2">
	<path id="path3358" inkscape:connector-curvature="0" class="st0" d="M37.6,63.6c-0.2-0.1,0-1.2,0.5-3.6c0.4-1.9,1.3-6.2,2-9.6
		c0.7-3.3,1.4-6.5,1.5-7c0.2-0.8,0.1-1-0.5-1.9c-1-1.3-3.2-5-3.8-6.2c-0.2-0.5-0.5-1-0.6-1c-0.1,0-0.2,1.1-0.2,2.4
		c0,2.8-0.4,4.5-1.5,6.8c-1.5,3.1-4.1,5.4-7.5,6.7c-1.6,0.6-2.3,0.8-4.6,0.8c-3.1,0.1-4.8-0.2-7.4-1.5c-2.2-1.1-3.8-2.5-5.2-4.7
		C8,41.7,8,41.8,8,28.9L7.9,17.6h3.8h3.8v10.4v10.4l0.7,1.4c1.6,3.2,5.1,4.8,8.2,3.7c1.5-0.5,3.4-2.3,4.1-3.9C29,38.4,29,38.2,29,28
		V17.6l3.8,0l3.8,0l0.7,2c0.8,2.4,2.1,5.7,3.5,8.4c1.1,2.1,2.8,5,3,5c0.1,0,0.4-0.6,0.6-1.3c0.8-2.1,2.1-4.2,3.7-5.8
		c5.7-5.8,16-5.4,21.4,0.9c1.3,1.5,2,2.8,2.8,4.9c0.6,1.5,0.6,2.1,0.6,4.8c0,2.3-0.1,3.4-0.4,4.4c-1.4,4.6-4.7,8.1-9.2,9.7
		c-1.3,0.5-2.2,0.6-4.6,0.7c-3.5,0.1-5.7-0.3-8.6-1.7c-1-0.5-1.8-0.8-1.9-0.7c-0.1,0.1-0.8,3.4-1.7,7.5L45,63.6l-3.6,0.1
		C39.4,63.7,37.7,63.7,37.6,63.6L37.6,63.6z M61.1,42.8c1.5-0.7,2.7-2,3.4-3.4c0.8-1.6,0.8-4.2,0-5.8c-2-4-7-5.4-10.3-2.7
		c-1.7,1.3-2.7,3.3-3.4,6.7l-0.6,2.7l0.7,0.5C53.9,43.3,58.4,44.2,61.1,42.8z"/>
</g>
</svg>
